<svg width="318" height="247" viewBox="0 0 318 247" fill="none" xmlns="http://www.w3.org/2000/svg">
<g clip-path="url(#clip0_164_3433)">
<path d="M307.133 26.8167C297.686 14.0746 281.68 7.5548 266.583 4.70485C257.196 2.96083 247.58 2.8423 238.153 4.35439C233.329 5.13953 228.575 6.30359 223.933 7.83582C219.4 9.30378 214.745 10.9966 210.513 13.2051C202.567 17.3544 195.083 22.5021 187.672 27.5243C179.602 32.9927 171.617 38.6133 163.863 44.5281L145.746 35.6774L138.581 32.186C136.934 31.3727 135.465 30.4999 133.498 30.8272C130.148 31.3826 127.062 34.5202 124.433 36.4742L107.476 49.1502L57.489 86.5103L15.0686 118.217L7.5714 123.821C6.53708 124.594 5.63782 125.93 5.7004 127.144C3.26942 128.724 4.16209 133.171 4.31691 135.707C4.60898 140.529 4.90435 145.352 5.203 150.175C5.49946 155.024 5.79702 159.885 6.09568 164.758C6.27685 167.734 6.15168 171.199 8.30268 173.414C8.33856 173.475 8.38169 173.532 8.43114 173.582C9.29417 174.459 10.5854 175.007 11.6296 175.619L18.972 179.917L43.0183 193.978L92.2672 222.772C94.7312 224.214 96.9744 225.83 99.7348 226.502C105.723 233.074 112.941 238.602 121.301 241.747C126.607 243.747 132.863 244.702 138.146 242.14C139.302 241.578 140.352 240.818 141.249 239.895L157.482 226.115C157.547 226.136 157.615 226.151 157.683 226.158C160.607 226.438 163.557 226.116 166.352 225.213C169.148 224.309 171.731 222.843 173.942 220.904C177.866 217.509 180.303 212.801 181.473 207.802C192.649 207.14 201.013 198.739 204.014 188.503C215.141 188.074 223.692 179.742 227.101 169.625C239.128 168.303 247.821 158.579 249.968 147.173C250.093 147.2 250.223 147.198 250.346 147.166C250.47 147.134 250.584 147.073 250.68 146.987L265.905 134.06C265.99 133.987 266.061 133.899 266.112 133.799C270.194 129.15 270.839 122.558 269.973 116.607C269.48 113.286 268.621 110.03 267.41 106.9C273.913 101.811 280.122 96.3363 286.252 90.8117C293.021 84.715 300.001 78.6713 305.687 71.5067C307.97 68.627 310.559 65.4564 311.968 62.0212C313.566 58.1298 314.274 53.9673 314.439 49.7717C314.709 41.4632 312.074 33.4821 307.133 26.8167ZM284.763 59.4424C280.283 64.2 274.792 68.1179 269.762 72.2638L253.167 85.9416C253.077 86.0148 253.003 86.106 252.95 86.2094C246.315 80.3409 237.932 76.0362 229.44 77.4017C229.271 76.9758 228.999 76.5986 228.65 76.304C228.279 76.0279 227.875 75.8002 227.447 75.6263L222.015 72.9813L188.123 56.4007C195.729 49.8841 204.076 44.3429 212.446 38.8778C216.597 36.1667 220.862 33.5879 225.435 31.6703C230.046 29.7262 234.987 28.7145 239.978 28.2219C249.791 27.2818 259.692 28.4079 269.047 31.5281C277.833 34.4574 286.318 39.301 290.613 47.8872C290.633 47.9226 290.655 47.9568 290.679 47.9897C290.09 52.3307 287.853 56.1626 284.763 59.4424Z" fill="white" stroke="white" stroke-width="20" stroke-miterlimit="10"/>
<path d="M267.977 123.192C267.677 123.217 267.386 123.306 267.124 123.454L266.893 123.586L266.808 123.639L259.603 129.755L255.265 133.435C255.146 133.544 254.991 133.605 254.83 133.607C254.679 133.602 254.533 133.554 254.409 133.467C254.285 133.38 254.188 133.259 254.132 133.118C254.092 133.012 254.089 132.896 254.122 132.788C254.156 132.68 254.224 132.587 254.317 132.523L268.016 120.881C268.453 120.386 268.712 119.759 268.754 119.099C268.649 117.655 268.447 116.219 268.151 114.801C266.719 107.964 263.846 101.514 259.725 95.8831C255.697 90.375 250.832 85.862 245.673 82.8269C239.744 79.3455 234.249 78.023 229.391 78.9058L229.295 78.9223L229.262 79.0116C228.927 79.8299 228.374 80.5401 227.665 81.0647L210.108 94.8086L210.457 94.8781C210.668 94.921 210.872 94.9673 211.079 95.0169C216.001 96.2005 221.05 98.6141 226.093 102.188C231.855 106.275 250.617 121.229 250.298 142.114C250.281 143.13 250.212 144.144 250.09 145.152L250.041 145.565L257.354 139.36L264.736 133.078L264.769 133.035C266.873 130.767 268.178 127.785 268.639 124.138C268.633 123.917 268.588 123.699 268.507 123.493C268.459 123.395 268.383 123.314 268.288 123.261C268.194 123.207 268.085 123.183 267.977 123.192Z" fill="#FF490C"/>
<path d="M223.468 125.847C216.103 116.187 206.649 109.402 196.849 106.738H196.79C195.818 106.761 194.864 107.009 194.003 107.462L193.973 107.481L189.619 110.857L187.438 112.547L187.807 112.609C188.489 112.725 189.125 112.864 189.764 113.029C195.228 114.474 200.782 117.357 206.267 121.592C219.983 132.172 228.307 146.2 228.534 159.081V159.138C228.91 160.129 229.476 160.629 230.211 160.629C230.421 160.626 230.629 160.589 230.827 160.52C231.64 160.235 232.359 159.729 232.902 159.058L232.925 159.019C233.273 158.255 233.555 157.463 233.769 156.651C234.292 153.134 233.927 149.047 232.685 144.511C230.844 137.75 227.714 131.412 223.468 125.847Z" fill="#FF490C"/>
<path d="M202.492 145.109C195.146 135.015 185.086 127.586 174.885 124.7H174.848C173.492 124.654 172.149 124.975 170.958 125.629L162.46 131.911L162.861 131.967C163.766 132.093 164.663 132.273 165.546 132.506C170.866 133.921 176.314 136.738 181.739 140.881C188.278 145.87 203.631 159.435 204.956 177.579V177.616C205.404 179.054 206.184 179.811 207.219 179.811C207.761 179.788 208.29 179.63 208.757 179.352C209.493 178.948 210.16 178.429 210.733 177.814L210.76 177.775C211.183 176.904 211.521 175.994 211.768 175.057C212.235 172.134 212.097 168.676 211.34 165.062C209.833 157.857 206.817 151.056 202.492 145.109Z" fill="#FF490C"/>
<path d="M164.871 210.695C164.546 210.721 164.232 210.818 163.948 210.979H163.922C157.749 216.216 151.58 221.454 145.416 226.693C145.371 226.729 145.323 226.76 145.271 226.786L145.179 226.835V226.941C145.232 228.051 145.209 229.164 145.11 230.271C145.023 231.198 144.872 232.119 144.655 233.025V233.051V233.078C144.701 233.643 144.985 233.805 145.235 233.845C145.332 233.86 145.43 233.868 145.528 233.868C145.747 233.867 145.964 233.824 146.167 233.742L163.685 218.864L163.718 218.821C164.581 217.383 165.224 215.823 165.625 214.193C165.755 213.255 165.823 212.309 165.826 211.362V211.333V211.306C165.765 211.107 165.635 210.937 165.46 210.825C165.285 210.713 165.076 210.666 164.871 210.695Z" fill="#FF490C"/>
<path d="M178.841 165.115C170.517 153.759 159.66 146.019 149.023 143.873H148.835C148.322 143.847 147.811 143.961 147.356 144.204C147.057 144.376 146.744 144.564 146.421 144.776L140.558 149.14L139.322 150.062L139.711 150.122C141.566 150.429 143.383 150.935 145.13 151.633C150.634 153.778 156.142 157.303 161.504 162.107C173.933 173.242 181.426 186.573 182.066 198.7V198.753C182.418 199.655 182.915 200.181 183.545 200.316C183.744 200.362 183.949 200.386 184.154 200.386C184.844 200.369 185.509 200.125 186.048 199.692L186.081 199.659C187.575 197.71 188.544 195.407 188.894 192.973C188.992 190.704 188.81 188.43 188.351 186.206C186.928 178.952 183.633 171.655 178.841 165.115Z" fill="#FF490C"/>
<path d="M34.1937 125.206C34.3979 125.305 34.6186 125.411 34.8525 125.537L40.4326 128.588L58.1873 138.295L58.2598 138.335C67.1844 143.213 76.1046 148.091 85.0204 152.968L92.7317 157.18L93.8945 157.819C94.1615 157.963 94.4608 158.037 94.7641 158.033C95.8116 158.033 96.9645 157.276 97.7287 156.642L147.011 116.603L177.622 91.7374C182.212 88.0036 186.802 84.2731 191.394 80.5459L191.506 80.4599C193.008 79.2961 193.687 78.5357 193.641 78.0629C193.632 77.9831 193.602 77.9072 193.554 77.8431C193.506 77.7791 193.441 77.7293 193.367 77.6992L171.857 67.202L137.919 50.6346C137.633 50.4925 137.356 50.347 137.086 50.2081C136.097 49.6825 135.139 49.1865 134.121 49.1865C133.272 49.2154 132.455 49.5219 131.796 50.0594L129.124 52.0431L115.984 61.7964L62.8286 101.259L33.9302 122.713C33.2022 123.325 32.8991 123.771 32.9419 124.165C33.0078 124.637 33.5316 124.889 34.1937 125.206Z" fill="#FF490C"/>
<path d="M104.761 177.295L104.248 177.695L104.211 177.738C104.085 177.943 103.99 178.166 103.931 178.399C103.767 179.061 104.132 179.358 104.488 179.59L104.544 179.61C110.062 180.747 115.843 183.627 121.722 188.176C129.384 194.101 135.623 201.464 139.76 209.465C142.751 215.247 144.474 220.329 145.031 225.004L145.067 225.311L165.161 208.251L165.187 208.218C165.357 207.994 165.47 207.732 165.516 207.454V207.329V207.309C165.051 204.391 164.278 201.53 163.211 198.776C160.791 192.293 157.281 186.275 152.831 180.985C147.106 174.148 137.896 165.429 126.512 162.718C124.898 162.52 123.656 162.718 122.592 163.346L104.761 177.295Z" fill="#FF490C"/>
<path d="M136.354 206.152C131.892 199.011 126.071 192.823 119.226 187.941C111.956 182.85 105.466 180.37 99.3725 180.37C99.2868 180.371 99.2018 180.355 99.1221 180.324H99.0859H98.8981C97.1655 180.403 95.9796 179.709 94.5928 178.905L94.1416 178.644L91.2791 177.018L87.1846 174.677L63.4677 161.121L13.3162 132.457L8.78362 129.868C8.11289 129.574 7.35494 129.553 6.66887 129.808C6.36126 129.931 6.09156 130.133 5.88728 130.395C5.68301 130.656 5.55146 130.967 5.50607 131.296C5.4896 131.782 5.50608 132.324 5.52584 132.949L5.54889 133.144C5.55689 133.186 5.55689 133.228 5.54889 133.27V133.306C5.60489 134.298 5.7103 135.29 5.78606 136.007C5.83547 136.457 5.87171 136.814 5.88818 137.049L6.62275 148.859V148.915C6.65407 148.982 6.67517 149.053 6.68533 149.126C6.83686 150.449 8.50363 151.309 9.71912 151.95C9.98923 152.092 10.2396 152.221 10.4471 152.347L17.9575 156.737L32.0658 165.003L64.7523 184.123L125.537 219.668L139.25 227.689H139.283C139.824 227.888 140.393 228 140.969 228.019C141.257 228.02 141.544 227.982 141.822 227.907C142.87 227.609 143.591 226.941 143.756 226.115V226.092V226.068C143.203 219.77 140.716 213.075 136.354 206.152Z" fill="#FF490C"/>
<path d="M141.622 231.722C140.913 230.765 140.086 229.901 139.161 229.153L126.545 221.774L83.6336 196.679L30.4517 165.575L18.0925 158.351L12.9176 155.322L12.0052 154.79L11.096 154.254H11.0466C10.8175 154.202 10.5833 154.175 10.3483 154.175C9.93972 154.172 9.53514 154.256 9.16066 154.42C8.78619 154.584 8.45014 154.825 8.17424 155.127C7.62167 155.718 7.256 156.46 7.12344 157.26V157.299C7.26179 159.578 7.40125 161.854 7.54179 164.127C7.56485 164.56 7.57803 165.026 7.5945 165.515C7.67026 168.177 7.76249 171.483 10.065 172.984C10.112 173.016 10.1551 173.054 10.1935 173.096L10.2297 173.123C10.4208 173.238 10.6184 173.348 10.8127 173.453C11.0071 173.559 11.1422 173.629 11.2904 173.721L88.6438 218.95L95.9829 223.248C97.5311 224.151 98.4831 224.68 100.084 225.067H100.107H100.173C100.254 225.068 100.334 225.087 100.408 225.122C100.481 225.158 100.546 225.209 100.598 225.272C106.942 232.281 113.738 237.23 120.797 239.981C124.703 241.502 128.044 242.242 131.041 242.242C132.906 242.263 134.757 241.927 136.496 241.25C137.46 240.867 138.363 240.344 139.177 239.7L139.691 239.263C140.369 238.647 140.968 237.95 141.477 237.187C141.905 236.351 142.142 235.429 142.168 234.488C142.194 233.548 142.01 232.614 141.628 231.755L141.622 231.722ZM36.1635 180.476C36.1295 180.621 36.0502 180.752 35.937 180.849C35.8238 180.946 35.6828 181.004 35.5344 181.015C35.4176 181.013 35.3036 180.978 35.205 180.915L32.6686 179.431C32.5455 179.367 32.4486 179.262 32.395 179.134C32.3414 179.006 32.3345 178.863 32.3754 178.73C32.4091 178.585 32.4884 178.454 32.6017 178.358C32.715 178.261 32.8563 178.204 33.0046 178.194C33.1209 178.197 33.2345 178.23 33.334 178.29L35.8736 179.775C35.9961 179.839 36.0923 179.944 36.1453 180.073C36.1982 180.201 36.2047 180.343 36.1635 180.476ZM30.2639 177.017C30.2303 177.163 30.1509 177.293 30.0376 177.39C29.9243 177.486 29.783 177.543 29.6348 177.553C29.5185 177.551 29.4048 177.518 29.3054 177.457L16.597 170.025C16.4731 169.961 16.3755 169.856 16.3213 169.727C16.267 169.598 16.2597 169.454 16.3006 169.321C16.3352 169.176 16.4148 169.046 16.5279 168.95C16.6411 168.853 16.7818 168.796 16.9297 168.785C17.0465 168.787 17.1605 168.821 17.2591 168.884L29.9675 176.317C30.0916 176.379 30.1896 176.484 30.2439 176.612C30.2982 176.741 30.3053 176.884 30.2639 177.017Z" fill="#FF490C"/>
<path d="M228.116 78.1619C228.079 77.9517 227.986 77.7552 227.848 77.593C227.709 77.4308 227.53 77.3088 227.329 77.2395C226.999 77.0841 226.696 76.9089 226.38 76.7766L220.451 73.8771L197.264 62.5236L170.583 49.4872C161.741 45.1671 152.9 40.8459 144.059 36.5236L137.606 33.3662L137.359 33.2471C136.394 32.7743 135.244 32.2883 134.065 32.2883C132.948 32.3131 131.871 32.7084 131.002 33.4124L123.504 39.0165L93.9637 61.0953L9.58737 124.174L9.33373 124.36C8.25 125.143 7.0938 126.052 7.13992 126.905C7.15896 127.086 7.22499 127.258 7.33138 127.405C7.43776 127.552 7.58076 127.668 7.74601 127.742L92.4353 176.141L94.5401 177.348L96.6252 178.538C97.2101 178.881 97.875 179.063 98.5523 179.064C100.529 179.064 102.393 177.537 103.902 176.31C104.149 176.108 104.393 175.913 104.623 175.731L120.902 162.989L120.942 162.946C121.062 162.779 121.119 162.574 121.103 162.368C121.047 161.911 120.609 161.634 120.171 161.399C120.126 161.385 120.083 161.366 120.042 161.343L120.006 161.323C119.956 161.307 119.907 161.286 119.861 161.26L115.536 158.833C115.445 158.783 115.367 158.712 115.309 158.625L115.283 158.585L115.236 158.566C115.123 158.519 115.023 158.445 114.944 158.351C114.865 158.256 114.811 158.144 114.785 158.023C114.777 157.934 114.793 157.845 114.832 157.764C114.871 157.684 114.931 157.616 115.006 157.567C118.205 155.054 121.405 152.543 124.605 150.032L125.922 148.991C126.054 148.888 126.217 148.834 126.384 148.838C126.55 148.842 126.711 148.903 126.838 149.011L126.874 149.037H126.917C127.01 149.05 127.101 149.079 127.184 149.123L130.017 150.713L130.069 150.743H130.129C132.481 150.293 134.971 149.857 137.28 149.91H137.339L137.385 149.874L137.418 149.844L144.86 144.303L144.886 144.276C144.982 144.187 145.049 144.071 145.079 143.943C145.109 143.815 145.1 143.681 145.054 143.559C145.054 143.526 145.028 143.496 145.011 143.463L144.968 143.377L144.929 143.35C144.491 143.079 144.099 142.821 143.71 142.55L141.734 141.439L138.911 139.842C138.845 139.807 138.787 139.758 138.739 139.7L138.706 139.674C138.617 139.62 138.54 139.546 138.483 139.457C138.426 139.369 138.39 139.269 138.377 139.165C138.377 139.082 138.398 139.001 138.437 138.928C138.476 138.856 138.532 138.794 138.601 138.748L148.898 130.731C149.016 130.637 149.161 130.584 149.312 130.579C149.462 130.574 149.61 130.616 149.735 130.701L149.791 130.724C149.86 130.736 149.926 130.758 149.988 130.79L152.607 132.232L152.663 132.261H152.722C152.742 132.258 152.76 132.252 152.778 132.245C154.254 131.828 155.947 131.812 157.581 131.795C158.032 131.795 158.474 131.795 158.899 131.775C159.469 131.756 160.035 131.775 160.602 131.775H160.714L160.76 131.67C160.806 131.549 160.886 131.444 160.99 131.369L161.616 130.906C164.172 129.015 166.727 127.127 169.281 125.242L169.324 125.196C169.408 125.074 169.467 124.935 169.496 124.789C169.513 124.678 169.503 124.565 169.466 124.459L169.449 124.419L169.387 124.33L163.243 120.657C163.136 120.597 163.048 120.507 162.99 120.399L162.95 120.349C162.862 120.271 162.792 120.174 162.745 120.065C162.698 119.957 162.674 119.839 162.677 119.721C162.677 119.614 162.703 119.509 162.752 119.415C162.802 119.321 162.873 119.239 162.96 119.179L173.923 110.983C173.975 110.937 174.036 110.902 174.103 110.881C174.169 110.86 174.239 110.854 174.308 110.861C174.377 110.869 174.444 110.891 174.504 110.926C174.564 110.962 174.616 111.009 174.657 111.065L174.707 111.121H174.779C174.888 111.124 174.994 111.156 175.086 111.214L177.316 112.537H177.378C178.524 112.325 179.689 112.232 180.853 112.259H181.898C182.365 112.259 182.826 112.259 183.271 112.259C184.025 112.259 184.783 112.275 185.528 112.328H185.607L185.659 112.269C185.686 112.241 185.715 112.214 185.745 112.189L191.621 107.637L191.661 107.594C191.785 107.423 191.848 107.216 191.842 107.006C191.835 106.795 191.759 106.592 191.625 106.43L190.439 105.62L190.189 105.468L189.691 105.164L189.635 105.141C189.559 105.129 189.486 105.102 189.421 105.061L189.256 104.962L185.221 102.549C185.125 102.501 185.044 102.428 184.986 102.338C184.928 102.248 184.895 102.143 184.892 102.036C184.892 101.912 184.922 101.79 184.979 101.681C185.036 101.572 185.12 101.478 185.221 101.408L185.261 101.371C185.299 101.321 185.344 101.276 185.396 101.239L196.134 93.2845C196.191 93.239 196.257 93.2054 196.327 93.1855C196.397 93.1657 196.47 93.16 196.543 93.1688H196.572H196.605C196.758 93.138 196.917 93.1626 197.053 93.2382L199.633 94.6103L199.685 94.6367H199.741C200.743 94.4584 201.761 94.3787 202.778 94.3987C203.157 94.3987 203.533 94.3987 203.905 94.3987C204.277 94.3987 204.626 94.3987 204.975 94.3987H205.374C206.331 94.3958 207.288 94.4422 208.24 94.5376H208.306L208.358 94.4979L225.682 80.9424L225.991 80.7077C226.884 80.0597 228.205 79.0678 228.116 78.1619ZM193.858 80.2812L187.431 85.4686L100.73 155.891L100.512 156.066L98.4139 157.772C97.2577 158.711 95.8643 159.27 94.6884 159.27C94.1468 159.277 93.612 159.148 93.1336 158.893L92.5374 158.562L91.4767 157.984L83.9005 153.844L70.2072 146.362L34.2266 126.704L32.4545 125.735C32.203 125.623 31.9842 125.449 31.8187 125.228C31.6533 125.008 31.5467 124.749 31.5091 124.475C31.4201 123.536 32.2107 122.432 33.0276 121.758L33.0836 121.721L33.1166 121.695C33.1428 121.676 33.1671 121.655 33.189 121.632L57.5055 103.577L59.0636 102.42L109.673 64.8445L127.131 51.8908C127.523 51.5999 127.915 51.2924 128.33 50.9651C130.135 49.5434 132.184 47.93 134.358 47.93C135.067 47.9323 135.766 48.0986 136.401 48.416L192.784 75.9302C193.219 76.1484 193.66 76.3634 194.102 76.575L194.151 76.5981C194.395 76.698 194.608 76.8612 194.768 77.0709C194.929 77.2806 195.031 77.5294 195.064 77.7916C195.149 78.6843 194.52 79.7125 193.842 80.2647L193.858 80.2812Z" fill="#FF490C"/>
<path d="M180.165 194.369C180.059 194.152 179.882 193.979 179.663 193.879C179.445 193.778 179.198 193.758 178.966 193.82C178.889 193.846 178.813 193.876 178.739 193.909L178.669 193.935L168.896 202.022L168.863 202.059C168.664 202.343 168.517 202.661 168.428 202.998C168.29 203.627 168.233 204.271 168.257 204.915C168.89 208.059 168.93 211.295 168.376 214.454C167.899 217.163 166.675 219.683 164.841 221.727L164.811 221.77C164.652 222.087 164.611 222.451 164.696 222.795C164.758 223.051 164.909 223.276 165.121 223.43C165.334 223.584 165.594 223.657 165.856 223.635C166.098 223.63 166.34 223.595 166.574 223.529C171.189 221.823 175.044 218.518 177.444 214.209C180.699 208.38 181.618 201.722 180.178 194.425L180.165 194.369Z" fill="white"/>
<path d="M203.48 176.806C203.151 176.049 202.584 175.814 201.856 176.191L201.721 176.274L192.471 183.937C192.03 184.398 191.72 184.969 191.572 185.591C191.534 185.758 191.506 185.928 191.49 186.1V186.143C191.979 189.031 191.979 191.982 191.49 194.871C191.124 197.001 190.314 199.029 189.111 200.822L189.088 200.872C188.983 201.259 188.663 202.429 189.536 202.826C189.856 202.965 190.202 203.034 190.551 203.028C191.097 203.012 191.635 202.9 192.142 202.697L192.175 202.68C195.382 200.588 198.055 197.771 199.982 194.455C203.042 189.141 204.221 183.213 203.487 176.856L203.48 176.806Z" fill="white"/>
<path d="M248.595 137.502L248.569 137.465C248.302 137.105 247.788 137.115 246.951 137.548L246.77 137.694L237.171 145.648L237.142 145.678C236.987 145.883 236.855 146.105 236.75 146.339C236.597 146.7 236.495 147.081 236.447 147.47V147.52C237.491 153.557 236.951 158.43 234.842 162.021L234.813 162.1C234.638 162.636 234.348 163.535 234.912 164.014C235.29 164.324 235.767 164.486 236.255 164.471C236.766 164.462 237.269 164.349 237.734 164.14C240.311 162.367 242.532 160.124 244.283 157.528C248.209 151.672 249.662 144.964 248.601 137.551L248.595 137.502Z" fill="white"/>
<path d="M226.788 155.359C226.732 155.235 226.637 155.133 226.518 155.068C226.318 154.981 226.099 154.947 225.882 154.966C225.664 154.986 225.455 155.059 225.273 155.18C225.171 155.236 225.069 155.302 224.967 155.365L215.062 163.565L215.035 163.591C214.828 163.832 214.675 164.115 214.587 164.421C214.53 164.667 214.492 164.917 214.472 165.168V165.211C215.292 170.058 215.553 176.809 212.123 181.461C211.824 181.96 211.54 182.539 211.722 183.045C211.811 183.337 211.997 183.591 212.248 183.765C212.499 183.939 212.801 184.023 213.105 184.004C213.707 183.971 214.296 183.813 214.834 183.541C218.304 181.334 221.195 178.324 223.264 174.763C226.65 168.927 227.843 162.417 226.805 155.408L226.788 155.359Z" fill="white"/>
<path d="M213.691 161.501C213.766 161.641 213.874 161.759 214.007 161.844C214.14 161.929 214.292 161.978 214.449 161.987C214.538 161.987 214.625 161.973 214.709 161.945C214.884 161.887 215.054 161.815 215.217 161.73L225.293 153.381C225.612 153.05 225.839 152.641 225.952 152.195C226.014 151.858 226.007 151.513 225.932 151.18C224.364 145.384 221.32 139.462 217.094 134.057L217.048 134.017C216.759 133.83 216.424 133.727 216.08 133.72C215.736 133.713 215.398 133.802 215.101 133.977C214.966 134.043 214.834 134.116 214.703 134.189L205.285 141.152L205.252 141.185C205.185 141.272 205.124 141.363 205.071 141.459C204.917 141.747 204.831 142.067 204.82 142.394C204.808 142.721 204.872 143.046 205.005 143.344L205.028 143.387C207.097 146.183 208.894 149.172 210.394 152.314C211.77 155.246 212.866 158.302 213.668 161.442L213.691 161.501Z" fill="white"/>
<path d="M167.934 121.906L167.993 121.939L168.059 121.923C168.09 121.914 168.12 121.908 168.152 121.903C168.596 121.873 169.057 121.86 169.515 121.86C172.317 121.896 175.095 122.371 177.75 123.268C179.413 123.807 181.047 124.433 182.645 125.143C182.968 125.228 183.3 125.274 183.633 125.279C184.02 125.287 184.401 125.188 184.734 124.991C185.04 124.806 185.343 124.617 185.653 124.422L194.695 117.661L194.724 117.631C194.843 117.513 194.936 117.372 194.997 117.216C195.058 117.06 195.087 116.893 195.08 116.726C195.064 116.622 195.027 116.523 194.97 116.436C194.913 116.348 194.838 116.273 194.751 116.216L194.619 116.124L194.543 116.068L194.323 115.968L193.684 115.704C191.239 114.735 188.024 113.618 184.79 113.578C184.302 113.578 183.801 113.558 183.274 113.542C182.589 113.519 181.881 113.495 181.173 113.495C179.919 113.464 178.667 113.589 177.444 113.869C177.354 113.909 177.256 113.925 177.158 113.917C177.06 113.909 176.966 113.877 176.884 113.823L174.338 112.318L174.252 112.381C171.013 114.806 167.779 117.224 164.551 119.635L164.35 119.784L164.564 119.913L167.934 121.906Z" fill="white"/>
<path d="M146.846 155.342C146.965 155.195 147.044 155.02 147.075 154.834C147.107 154.647 147.091 154.456 147.027 154.278C146.942 154.059 146.806 153.863 146.632 153.706L146.589 153.676C143.7 152.353 141.141 151.603 138.762 151.342C138.173 151.278 137.58 151.247 136.987 151.249C134.727 151.249 132.405 151.656 130.221 152.072C130.138 152.092 130.052 152.094 129.968 152.078C129.884 152.063 129.804 152.03 129.733 151.983L129.697 151.96H129.654C129.55 151.954 129.448 151.924 129.358 151.871L126.555 150.3L126.459 150.247L126.374 150.313L116.844 157.795L116.646 157.947L117.305 158.324L120.428 160.073L120.474 160.1H120.523C123.867 159.823 127.232 160.244 130.405 161.336C131.723 161.769 133.087 162.295 134.457 162.894H134.539C134.836 162.92 135.142 162.95 135.452 162.95C135.785 162.954 136.118 162.913 136.44 162.827C136.767 162.735 137.088 162.619 137.399 162.48L146.79 155.369L146.846 155.342Z" fill="white"/>
<path d="M144.461 141.423L144.54 141.406C145.958 141.31 147.382 141.349 148.793 141.522H148.845C150.423 141.717 151.98 142.048 153.5 142.514C155.108 143.007 156.689 143.589 158.233 144.256C158.594 144.339 158.963 144.381 159.334 144.382C160.114 144.374 160.884 144.205 161.596 143.886L163.072 142.798L170.648 137.178L170.691 137.128C170.856 136.911 170.932 136.639 170.902 136.367C170.873 136.096 170.741 135.846 170.533 135.67L170.487 135.637L170.026 135.429C167.648 134.417 164.097 133.068 160.612 133.038H159.534C158.994 133.038 158.434 133.019 157.871 133.019C156.468 133.019 154.659 133.075 153.121 133.505C153.021 133.533 152.917 133.538 152.815 133.521H152.765L152.719 133.541C152.63 133.58 152.532 133.597 152.435 133.59C152.337 133.584 152.243 133.555 152.159 133.505L149.514 132.053L149.419 132L140.291 139.122L144.408 141.436L144.461 141.423Z" fill="white"/>
<path d="M190.699 182.4C190.757 182.497 190.835 182.579 190.928 182.642C191.022 182.704 191.128 182.745 191.239 182.76C191.294 182.764 191.349 182.764 191.404 182.76C191.58 182.756 191.754 182.722 191.918 182.658L191.967 182.632L198.042 177.603L201.536 174.703C201.942 174.281 202.235 173.762 202.386 173.196C202.506 172.636 202.527 172.06 202.449 171.493C200.841 165.638 197.696 159.591 193.351 154.053L193.315 154.016C193.05 153.822 192.73 153.717 192.402 153.719C192.276 153.722 192.151 153.733 192.027 153.752C191.765 153.828 191.511 153.93 191.269 154.056L191.045 154.182L181.865 161.449L181.832 161.485C181.561 161.831 181.418 162.261 181.426 162.702C181.455 163.009 181.504 163.314 181.575 163.614L181.601 163.677C183.513 166.335 185.207 169.143 186.667 172.075C188.34 175.359 189.682 178.802 190.673 182.354L190.699 182.4Z" fill="white"/>
<path d="M166.903 199.665C167.055 199.852 167.245 200.003 167.461 200.11C167.676 200.217 167.912 200.276 168.152 200.283H168.241C168.573 200.262 168.899 200.184 169.206 200.052L178.528 192.339L178.557 192.309C179.124 191.522 179.055 190.59 178.887 189.694L178.811 189.32C176.894 183.613 173.63 177.748 169.374 172.366L169.328 172.326C168.669 171.936 167.845 171.966 166.936 172.425L166.906 172.445L161.485 176.935L158.52 179.385L158.49 179.415C158.237 179.758 158.046 180.143 157.924 180.552C157.728 181.178 157.728 181.85 157.924 182.476L157.947 182.526C160.085 185.457 161.971 188.565 163.586 191.816C164.851 194.334 165.938 196.938 166.841 199.609L166.903 199.665Z" fill="white"/>
<path d="M165.902 171.572L166.62 170.977L166.653 170.941C166.869 170.639 166.966 170.268 166.926 169.899C166.899 169.685 166.845 169.475 166.765 169.274L166.735 169.225C161.511 163.379 156.023 158.807 150.42 155.636L150.364 155.617C149.623 155.504 148.829 155.689 147.87 156.218L143.437 159.577L138.766 163.132L138.723 163.178C138.511 163.491 138.424 163.873 138.48 164.247C138.537 164.622 138.731 164.961 139.026 165.198L139.059 165.224C144.695 168.451 150.114 173.01 154.725 178.406L154.771 178.446C155.183 178.672 155.643 178.797 156.112 178.81C156.364 178.812 156.615 178.766 156.85 178.674C157.314 178.482 157.761 178.249 158.184 177.976C160.76 175.838 163.332 173.704 165.902 171.572Z" fill="white"/>
<path d="M190.429 153.008C190.719 152.661 190.867 152.217 190.844 151.765C190.822 151.428 190.739 151.099 190.597 150.793L190.571 150.75C190.205 150.346 189.836 149.946 189.467 149.556C184.688 144.551 179.694 140.563 174.618 137.71L174.572 137.694C174.247 137.62 173.916 137.581 173.583 137.578C172.961 137.576 172.349 137.74 171.811 138.054L171.521 138.229L171.291 138.368L162.822 144.617L162.753 144.666V144.709C162.555 144.991 162.462 145.333 162.491 145.676C162.52 146.019 162.669 146.34 162.911 146.584L162.954 146.62C169.102 150.189 174.558 154.842 179.058 160.358L179.081 160.391H179.117C179.409 160.527 179.725 160.6 180.046 160.606C180.209 160.605 180.371 160.583 180.527 160.539C180.801 160.459 181.065 160.348 181.315 160.209C184.338 157.813 187.365 155.418 190.393 153.024L190.429 153.008Z" fill="white"/>
<path d="M214.512 132.662C214.666 132.498 214.773 132.295 214.823 132.075C214.873 131.856 214.863 131.626 214.795 131.412L214.716 131.227L214.686 131.18C214.143 130.572 213.645 130.036 213.171 129.527C208.345 124.502 203.289 120.557 198.173 117.803L198.127 117.787C197.501 117.662 196.85 117.762 196.289 118.068L194.678 119.275L186.773 125.183L186.713 125.239C186.384 125.54 185.976 125.953 186.055 126.472C186.067 126.602 186.109 126.728 186.176 126.839L186.2 126.879L186.239 126.902C192.433 130.295 197.953 134.801 202.525 140.196L202.584 140.239C202.808 140.342 203.052 140.395 203.299 140.395C203.775 140.374 204.239 140.233 204.646 139.985L214.475 132.695L214.512 132.662Z" fill="white"/>
<path d="M217.456 98.6836L217.384 98.6406C217.167 98.5381 216.952 98.4389 216.725 98.3431C214.334 97.2917 210.747 95.8832 207.232 95.7543C206.718 95.7345 206.184 95.7245 205.605 95.7245C204.616 95.7245 203.661 95.751 202.923 95.7741C202.666 95.7741 202.396 95.7741 202.133 95.7741C201.342 95.741 200.55 95.8043 199.774 95.9626C199.658 95.9942 199.535 95.9942 199.418 95.9626H199.385L199.336 95.9428L199.297 95.9262L199.254 95.9064C198.681 95.6055 198.107 95.298 197.538 94.9939L196.688 94.531L186.72 101.91L186.934 102.036L189.296 103.451L190.1 103.931L190.175 103.901C190.241 103.874 190.309 103.857 190.38 103.851C192.651 103.701 194.932 103.888 197.149 104.407C200.219 105.116 203.201 106.162 206.043 107.528H206.099C206.221 107.541 206.344 107.547 206.468 107.548C206.863 107.551 207.255 107.479 207.624 107.336L217.657 99.9499L217.684 99.9267C217.811 99.8101 217.889 99.6499 217.904 99.4777C217.919 99.3056 217.868 99.1342 217.763 98.9977C217.671 98.8835 217.568 98.7783 217.456 98.6836Z" fill="white"/>
<path d="M209.179 107.829C209.058 107.98 208.963 108.151 208.899 108.335V108.368C208.889 108.447 208.889 108.527 208.899 108.606C208.92 108.768 208.969 108.926 209.044 109.072L209.067 109.118L209.113 109.145C215.189 112.673 220.561 117.302 224.957 122.796L224.983 122.832H225.026C225.184 122.892 225.351 122.922 225.52 122.922C225.867 122.908 226.206 122.811 226.508 122.64L230.132 119.876L236.545 115C236.704 114.852 236.821 114.665 236.885 114.457C236.948 114.249 236.956 114.028 236.908 113.816C236.896 113.774 236.882 113.734 236.865 113.694L236.842 113.644L236.812 113.595C236.542 113.281 236.269 112.976 235.989 112.676C231.212 107.468 226.107 103.319 220.79 100.347L220.737 100.327C220.324 100.235 219.894 100.257 219.492 100.39C219.211 100.499 218.939 100.632 218.679 100.786L209.205 107.799L209.179 107.829Z" fill="white"/>
<path d="M235.537 143.38C235.634 143.561 235.776 143.712 235.949 143.82C236.123 143.927 236.322 143.986 236.526 143.992C236.564 143.995 236.602 143.995 236.641 143.992C236.881 143.965 237.116 143.904 237.339 143.81L240.607 141.112L247.369 135.492C247.547 135.29 247.68 135.054 247.761 134.797C247.849 134.474 247.886 134.14 247.87 133.805V133.769C246.355 127.795 243.275 121.708 238.976 116.167L238.95 116.134L238.914 116.117C238.676 115.997 238.413 115.934 238.146 115.934C237.88 115.934 237.617 115.997 237.379 116.117C237.333 116.137 237.286 116.164 237.244 116.187C237.201 116.21 237.181 116.223 237.148 116.236L232.411 119.833L227.322 123.698L227.296 123.725C227.097 123.944 226.957 124.21 226.891 124.499C226.842 124.775 226.842 125.058 226.891 125.335L226.92 125.404C228.288 127.299 229.539 129.275 230.666 131.323C232.73 135.127 234.352 139.157 235.498 143.334L235.537 143.38Z" fill="white"/>
<path d="M312.133 40.8945C310.401 33.2737 305.944 26.2645 299.247 20.6242C293.361 15.6649 286.071 11.7701 277.579 9.02929C268.804 6.19588 260.065 4.76099 251.602 4.76099C251.237 4.76099 250.874 4.76099 250.509 4.76099C240.91 4.89985 231.146 6.74471 221.488 10.2328C217.535 11.6643 213.336 13.291 209.432 15.4764C207.067 16.7989 204.531 18.3197 201.451 20.2572C190.716 27.0084 180.109 34.2623 169.93 41.8103L169.901 41.8401C169.47 42.3358 169.184 42.9409 169.074 43.5891C168.768 45.5926 169.169 46.8523 170.461 47.94L174.008 49.6791L177.632 51.4446H177.684C177.733 51.451 177.78 51.4667 177.823 51.4909C179.532 52.3853 181.436 52.8398 183.363 52.8134C188.031 52.8134 192.481 50.5552 194.734 49.1997C201.886 43.7421 209.366 38.7336 217.134 34.2027C220.214 32.4174 224.891 29.8881 229.957 28.5128C234.598 27.2701 239.369 26.5799 244.171 26.4563C244.919 26.4365 245.673 26.4265 246.417 26.4265C255.855 26.4265 264.722 28.0796 272.77 31.3164C278.949 33.806 283.679 36.8246 287.23 40.5407L287.263 40.5672C288.008 41.0433 288.617 41.1259 289.065 40.8218C289.32 40.6514 289.525 40.4163 289.66 40.1404C289.795 39.8646 289.854 39.5578 289.833 39.2513V39.1951C288.659 35.9065 286.583 33.0181 283.844 30.8635C283.753 30.8059 283.684 30.7191 283.648 30.617C283.612 30.515 283.611 30.4037 283.646 30.3014C283.705 30.1557 283.805 30.0304 283.934 29.9411C284.063 29.8518 284.215 29.8023 284.371 29.7989C284.529 29.7994 284.683 29.8543 284.806 29.9543C286.844 31.5765 288.542 33.5864 289.805 35.8689C291.067 38.1513 291.868 40.6614 292.162 43.2551C292.82 48.7897 291.229 54.0532 287.593 58.4637C284.174 62.6229 279.809 66.0878 275.583 69.4403C274.347 70.4321 273.069 71.424 271.847 72.4456L260.519 81.7989C259.473 82.818 258.617 84.0159 257.989 85.3365C257.001 87.5715 257.044 89.4792 258.124 91.7208L258.147 91.7572C259.017 92.7821 259.854 93.8401 260.631 94.9014L260.681 94.9444C262.859 96.2461 265.353 96.9189 267.888 96.8884C272.476 96.8884 277.088 94.9774 280.606 93.3012C281.565 92.7286 282.489 92.0993 283.373 91.4166C284.691 90.244 285.994 89.0648 287.283 87.879L288.271 86.9764C295.261 80.6119 302.492 74.0326 307.897 65.9886C310.354 62.3352 311.797 58.8042 312.443 54.8731C313.232 50.2366 313.127 45.4912 312.133 40.8945ZM290.086 76.2246C289.969 76.34 289.812 76.4051 289.648 76.4065C289.505 76.3968 289.367 76.3471 289.251 76.263C289.134 76.1788 289.044 76.0636 288.989 75.9304C288.947 75.8216 288.941 75.702 288.972 75.5894C289.003 75.4768 289.069 75.3772 289.161 75.3055C293.493 71.3833 297.462 67.0753 301.019 62.4344C301.084 62.345 301.169 62.2725 301.268 62.223C301.367 62.1735 301.475 62.1485 301.586 62.1501C301.722 62.1485 301.857 62.1831 301.976 62.2504C302.095 62.3178 302.195 62.4154 302.264 62.5336C302.304 62.6207 302.317 62.7175 302.303 62.8122C302.288 62.9068 302.246 62.995 302.182 63.0659C298.556 67.8115 294.508 72.2159 290.086 76.2246ZM185.791 39.4431C182.586 41.7574 179.763 43.8469 177.164 45.8274C177.071 45.9053 176.955 45.9506 176.835 45.9563C176.709 45.9426 176.59 45.8906 176.495 45.8072C176.4 45.7239 176.332 45.6132 176.301 45.4901C176.247 45.3442 176.241 45.1847 176.284 45.0352C176.328 44.8858 176.418 44.7543 176.541 44.6603C179.088 42.7162 181.812 40.6928 185.159 38.2826C185.253 38.2082 185.368 38.1654 185.488 38.1603C185.618 38.1733 185.741 38.2264 185.84 38.3122C185.939 38.3979 186.009 38.5123 186.041 38.6397C186.092 38.7827 186.095 38.9384 186.05 39.0833C186.005 39.2282 185.914 39.3544 185.791 39.4431ZM190.268 34.6292C191.146 34.0099 192.024 33.3938 192.903 32.7811C192.998 32.7088 193.113 32.6673 193.232 32.6621C193.365 32.6741 193.49 32.7273 193.591 32.8145C193.692 32.9016 193.764 33.0182 193.795 33.1481C193.844 33.2897 193.845 33.4436 193.798 33.5858C193.751 33.7281 193.659 33.8508 193.535 33.9349L190.9 35.7897C190.805 35.8616 190.69 35.903 190.571 35.9087C190.439 35.8961 190.314 35.8425 190.213 35.7554C190.113 35.6683 190.042 35.5521 190.011 35.4227C189.96 35.2805 189.958 35.1257 190.005 34.9821C190.051 34.8386 190.144 34.7146 190.268 34.6292ZM285.659 80.3375C285.659 80.4138 285.643 80.4893 285.612 80.5589C285.581 80.6284 285.535 80.6905 285.478 80.7409L283.693 82.2485C283.566 82.37 283.398 82.4378 283.223 82.4378C283.048 82.4378 282.88 82.37 282.754 82.2485C282.689 82.1788 282.638 82.0966 282.605 82.0069C282.572 81.9171 282.558 81.8216 282.563 81.7261C282.563 81.6504 282.579 81.5755 282.61 81.5065C282.642 81.4375 282.687 81.376 282.744 81.3261L284.526 79.8151C284.664 79.6908 284.841 79.6204 285.027 79.6168C285.109 79.6168 285.191 79.6335 285.267 79.6658C285.342 79.6982 285.411 79.7456 285.468 79.8052C285.535 79.8761 285.586 79.9599 285.619 80.0515C285.651 80.143 285.665 80.2404 285.659 80.3375Z" fill="white"/>
<path d="M229.509 81.2931C238.459 80.3971 246.931 86.0937 252.996 92.1374C260.746 99.8673 266.465 110.761 266.9 121.847C266.985 123.97 270.279 123.979 270.194 121.847C269.726 109.945 263.803 98.5647 255.651 90.1339C249.063 83.3297 239.375 76.9983 229.509 77.9869C227.414 78.1985 227.395 81.5047 229.509 81.2931Z" fill="white"/>
<path d="M10.681 171.966C9.91017 169.747 10.0782 167.119 9.93651 164.805C9.66421 160.368 9.3919 155.932 9.11959 151.497C8.85388 147.153 8.58816 142.808 8.32245 138.464C8.26315 137.512 7.47918 131.27 8.34551 130.913C8.71768 130.762 9.02732 130.488 9.2232 130.136C9.41907 129.784 9.48944 129.376 9.42265 128.978C9.15891 129.149 8.85029 129.237 8.53656 129.23C8.16859 129.242 7.8083 129.122 7.52034 128.892C7.23238 128.662 7.03561 128.336 6.96531 127.973C4.04022 129.626 4.74184 133.809 4.92302 136.751C5.18873 141.118 5.45665 145.484 5.72676 149.851L6.62273 164.305C6.74461 166.243 6.68861 168.405 6.9686 170.435C7.03191 170.513 7.08505 170.598 7.12672 170.69C7.43965 171.351 7.66035 172.158 8.01281 172.769C8.36527 173.381 8.87584 173.361 9.51818 173.761C9.58975 173.802 9.65804 173.848 9.72241 173.9C9.92014 173.849 10.1046 173.756 10.2633 173.627C10.422 173.498 10.5512 173.336 10.6421 173.153C10.7331 172.969 10.7836 172.768 10.7903 172.563C10.797 172.359 10.7597 172.155 10.681 171.966Z" fill="white"/>
<path d="M7.34745 154.8L33.5514 170.124L87.6556 201.774L132.971 228.264L140.851 232.892C142.692 233.97 144.349 231.11 142.498 230.039L116.314 214.708L62.1929 183.048L16.8902 156.552L9.01092 151.946C7.17286 150.869 5.51268 153.729 7.34745 154.8Z" fill="white"/>
<path d="M104.666 180.532L126.795 163.211C128.469 161.888 126.12 159.574 124.466 160.873L102.337 178.195C100.664 179.517 102.996 181.831 104.666 180.532Z" fill="white"/>
<path d="M228.9 77.1073L192.544 59.3331L142.109 34.6787L137.609 32.4801C135.113 31.2601 132.171 31.8189 129.987 33.472L120.744 40.372L76.6602 73.3217L27.4475 110.107L11.7911 121.804L8.10176 124.561L7.52861 124.988C5.40067 126.578 4.02048 129.947 6.92581 131.6L42.6758 152.033L91.3647 179.858L95.3669 182.145C98.0186 183.66 101.092 183.428 103.602 181.616C105.312 180.39 103.671 177.52 101.955 178.763C99.4878 180.539 98.0022 179.841 95.8775 178.624L89.0984 174.749L65.5758 161.306L15.1872 132.513L9.50502 129.266L8.59916 128.747C8.33235 128.592 9.15585 127.884 9.4622 127.653L18.7052 120.746L62.7891 87.7962L112.002 51.0114L127.662 39.3074C129.638 37.8395 133.436 34.1001 135.926 35.3168L175.87 54.8466L224.163 78.4595L227.236 79.9638C229.14 80.8929 230.81 78.0396 228.883 77.1073H228.9Z" fill="white"/>
<path d="M212.314 96.1874L231.143 81.4451C232.816 80.1226 230.468 77.8082 228.814 79.1076L209.982 93.8499C208.309 95.1724 210.661 97.4868 212.314 96.1874Z" fill="white"/>
<path d="M188.551 114.646L197.854 107.442C199.501 106.159 197.874 103.282 196.207 104.585L186.904 111.793C185.257 113.075 186.885 115.949 188.551 114.646Z" fill="white"/>
<path d="M163.29 134.113L174.723 125.659C176.416 124.409 174.776 121.539 173.076 122.806L161.626 131.26C159.936 132.509 161.577 135.379 163.29 134.113Z" fill="white"/>
<path d="M140.152 152.462L151.174 144.26C152.857 143.007 151.22 140.134 149.511 141.406L138.489 149.609C136.806 150.862 138.443 153.735 140.136 152.462H140.152Z" fill="white"/>
<path d="M193.99 77.3354L149.946 55.8451L139.54 50.7668C137.652 49.8476 135.488 48.3532 133.307 48.8161C131.516 49.193 130.3 50.1948 128.893 51.2396L123.162 55.4946L77.2894 89.5486L35.9395 120.243L32.6455 122.687C30.959 123.936 32.5994 126.809 34.309 125.54L63.2964 104.007L113.616 66.6465L129.579 54.797L132.25 52.8133C134.269 51.3123 135.416 52.4364 137.415 53.4117L187.306 77.7586L192.297 80.192C194.201 81.121 195.871 78.2711 193.944 77.3387L193.99 77.3354Z" fill="white"/>
<path d="M98.3085 182.661C108.131 182.661 117.397 189.079 124.272 195.555C132.744 203.54 139.681 214.311 141.552 225.972C141.882 228.072 145.061 227.179 144.728 225.093C142.751 212.711 135.225 201.348 126.245 192.887C118.85 185.914 108.82 179.352 98.3085 179.355C96.1839 179.355 96.1839 182.661 98.3085 182.661Z" fill="white"/>
<path d="M35.1193 181.058L32.5829 179.573C31.6672 179.038 32.494 177.609 33.413 178.145L35.9395 179.63C36.8684 180.165 36.0383 181.597 35.1193 181.058Z" fill="black"/>
<path d="M29.223 177.609L16.5048 170.177C15.5858 169.638 16.4159 168.21 17.3349 168.749L30.0432 176.181C30.9721 176.717 30.142 178.145 29.223 177.609Z" fill="black"/>
<path d="M193.637 34.0706C192.759 34.6855 191.881 35.3027 191.002 35.922C190.133 36.537 189.309 35.1021 190.172 34.4938L192.807 32.6423C193.68 32.0306 194.504 33.4655 193.637 34.0706Z" fill="black"/>
<path d="M185.887 39.5752C182.988 41.6691 180.113 43.7961 177.263 45.9562C176.416 46.6174 175.616 45.1627 176.433 44.5279C179.275 42.359 182.158 40.2298 185.053 38.1469C185.92 37.5221 186.74 38.957 185.887 39.5752Z" fill="black"/>
<path d="M302.284 63.1651C298.662 67.9191 294.616 72.3313 290.195 76.3469C289.411 77.0611 288.242 75.894 289.032 75.1798C293.355 71.2657 297.314 66.9654 300.861 62.3319C301.497 61.4987 302.93 62.3187 302.284 63.1651Z" fill="black"/>
<path d="M285.583 80.8665L283.798 82.3742C283.642 82.5262 283.434 82.6113 283.217 82.6113C282.999 82.6113 282.791 82.5262 282.635 82.3742C282.481 82.2192 282.395 82.0094 282.395 81.7906C282.395 81.5719 282.481 81.362 282.635 81.2071L284.417 79.6961C284.574 79.5446 284.783 79.46 285 79.46C285.218 79.46 285.427 79.5446 285.583 79.6961C285.737 79.8521 285.823 80.0623 285.823 80.2813C285.823 80.5004 285.737 80.7106 285.583 80.8665Z" fill="black"/>
<path d="M194.204 76.4494L192.844 75.7882L184.404 71.672L136.457 48.2673C132.866 46.515 129.75 49.732 127.019 51.7554L109.561 64.7091L58.9647 102.297L33.0902 121.51C33.0639 121.53 33.0441 121.556 33.0177 121.576L32.9255 121.639C31.6277 122.71 30.3924 124.809 32.3754 125.89L34.1937 126.882L42.857 131.607L70.1413 146.524L91.4009 158.146L93.048 159.052C94.8135 160.017 97.0798 159.075 98.5094 157.914L100.815 156.033L139.102 124.928L184.701 87.8988L193.924 80.4037C195.116 79.4349 195.989 77.319 194.204 76.4494ZM191.305 80.4169C186.713 84.1463 182.123 87.8768 177.533 91.6084L129.49 130.632L97.6398 156.519C96.7274 157.26 95.1199 158.308 93.9736 157.68L92.8075 157.042L85.0995 152.829L58.3389 138.19C52.3965 134.941 46.4529 131.692 40.5083 128.443C38.6461 127.42 36.7795 126.401 34.9085 125.385C33.5151 124.624 32.1284 124.432 34.029 122.839L62.9176 101.391L113.237 64.0313L129.2 52.1819L131.871 50.1982C134.177 48.4789 135.735 49.7551 137.84 50.7834L187.889 75.2063L193.305 77.8513C194.194 78.2745 191.575 80.1987 191.305 80.4169Z" fill="black"/>
<path d="M307.133 26.8167C297.686 14.0746 281.68 7.5548 266.583 4.70485C257.196 2.96083 247.58 2.8423 238.153 4.35439C233.329 5.13953 228.575 6.30359 223.933 7.83582C219.4 9.30378 214.745 10.9966 210.513 13.2051C202.567 17.3544 195.083 22.5021 187.672 27.5243C179.602 32.9927 171.617 38.6133 163.863 44.5281L145.746 35.6774L138.581 32.186C136.934 31.3727 135.465 30.4999 133.498 30.8272C130.148 31.3826 127.062 34.5202 124.433 36.4742L107.476 49.1502L57.489 86.5103L15.0686 118.217L7.5714 123.821C6.53708 124.594 5.63782 125.93 5.7004 127.144C3.26942 128.724 4.16209 133.171 4.31691 135.707C4.60898 140.529 4.90435 145.352 5.203 150.175C5.49946 155.024 5.79702 159.885 6.09568 164.758C6.27685 167.734 6.15168 171.199 8.30268 173.414C8.33856 173.475 8.38169 173.532 8.43114 173.582C9.29417 174.459 10.5854 175.007 11.6296 175.619L18.972 179.917L43.0183 193.978L92.2672 222.772C94.7312 224.214 96.9744 225.83 99.7348 226.502C105.723 233.074 112.941 238.602 121.301 241.747C126.607 243.747 132.863 244.702 138.146 242.14C139.302 241.578 140.352 240.818 141.249 239.895L157.482 226.115C157.547 226.136 157.615 226.151 157.683 226.158C160.607 226.438 163.557 226.116 166.352 225.213C169.148 224.309 171.731 222.843 173.942 220.904C177.866 217.509 180.303 212.801 181.473 207.802C192.649 207.14 201.013 198.739 204.014 188.503C215.141 188.074 223.692 179.742 227.101 169.625C239.128 168.303 247.821 158.579 249.968 147.173C250.093 147.2 250.223 147.198 250.346 147.166C250.47 147.134 250.584 147.073 250.68 146.987L265.905 134.06C265.99 133.987 266.061 133.899 266.112 133.799C270.194 129.15 270.839 122.558 269.973 116.607C269.48 113.286 268.621 110.03 267.41 106.9C273.913 101.811 280.122 96.3363 286.252 90.8117C293.021 84.715 300.001 78.6713 305.687 71.5067C307.97 68.627 310.559 65.4564 311.968 62.0212C313.566 58.1298 314.274 53.9673 314.439 49.7717C314.709 41.4632 312.074 33.4821 307.133 26.8167ZM9.68287 124.307L14.2517 120.892L31.2093 108.219L81.196 70.8587L123.6 39.1489L131.097 33.5449C133.33 31.8752 135.198 32.3646 137.3 33.3928L144 36.6692L197.192 62.6692L220.378 74.0062L226.307 76.9058L227.256 77.3686C229.233 78.3307 226.485 80.1227 225.609 80.8203L208.286 94.3757C207.255 94.2729 206.219 94.2265 205.183 94.2369C203.45 94.2369 201.471 94.1013 199.738 94.4584L197.159 93.0863C196.987 92.9904 196.787 92.961 196.595 93.0037C196.502 92.9905 196.407 92.9965 196.315 93.0215C196.224 93.0465 196.139 93.09 196.065 93.1491L185.327 101.104C185.263 101.15 185.206 101.206 185.159 101.269C185.037 101.343 184.937 101.447 184.867 101.572C184.798 101.696 184.761 101.836 184.761 101.978C184.761 102.121 184.798 102.261 184.867 102.385C184.937 102.509 185.037 102.614 185.159 102.688L189.358 105.2C189.44 105.251 189.531 105.286 189.625 105.303L190.376 105.759L191.513 106.523C191.63 106.66 191.697 106.833 191.702 107.013C191.707 107.194 191.651 107.371 191.542 107.515L185.666 112.067C185.628 112.097 185.592 112.13 185.56 112.166C184.809 112.11 184.055 112.087 183.291 112.097C181.407 112.117 179.243 111.961 177.362 112.368L175.188 111.079C175.071 111.007 174.939 110.967 174.802 110.963C174.748 110.89 174.68 110.829 174.601 110.784C174.523 110.739 174.436 110.711 174.346 110.701C174.256 110.691 174.165 110.7 174.079 110.726C173.992 110.753 173.912 110.798 173.844 110.857L162.881 119.05C162.774 119.136 162.688 119.245 162.628 119.369C162.569 119.492 162.538 119.628 162.538 119.766C162.538 119.903 162.569 120.039 162.628 120.163C162.688 120.287 162.774 120.396 162.881 120.482C162.956 120.622 163.071 120.737 163.211 120.812L167.163 123.153L169.308 124.442L169.36 124.518C169.387 124.598 169.394 124.683 169.384 124.766C169.356 124.885 169.305 124.997 169.235 125.097L160.892 131.227C160.764 131.321 160.665 131.449 160.605 131.597C160.035 131.577 159.465 131.574 158.892 131.597C156.916 131.657 154.643 131.537 152.732 132.073L152.686 132.09L150.067 130.648C149.99 130.606 149.907 130.577 149.82 130.562C149.668 130.458 149.486 130.406 149.302 130.414C149.117 130.421 148.94 130.487 148.796 130.602L138.512 138.626C138.028 139.003 138.219 139.552 138.627 139.82C138.688 139.892 138.762 139.952 138.845 139.998L143.634 142.703C144.029 142.98 144.434 143.246 144.846 143.499C144.866 143.542 144.889 143.582 144.906 143.625C144.938 143.721 144.942 143.824 144.917 143.921C144.893 144.019 144.841 144.108 144.767 144.177L137.326 149.718L137.29 149.751C134.938 149.702 132.418 150.148 130.102 150.588L127.27 148.998C127.167 148.942 127.055 148.906 126.94 148.892C126.784 148.76 126.589 148.687 126.385 148.683C126.182 148.679 125.984 148.746 125.823 148.872L114.904 157.445C114.36 157.868 114.667 158.503 115.171 158.724C115.243 158.833 115.34 158.923 115.454 158.986L119.779 161.409C119.833 161.44 119.891 161.465 119.95 161.485C120.003 161.518 120.061 161.544 120.121 161.561C120.494 161.766 120.892 162.017 120.938 162.394C120.947 162.562 120.899 162.728 120.8 162.864L104.521 175.606C102.396 177.259 99.58 180.049 96.7043 178.4L92.4978 175.996L44.0988 148.336L7.80857 127.596C6.15827 126.654 8.87583 124.899 9.6664 124.307H9.68287ZM188.123 56.4007C195.729 49.8841 204.076 44.3429 212.446 38.8778C216.597 36.1667 220.862 33.5879 225.435 31.6703C230.046 29.7262 234.987 28.7145 239.978 28.2219C249.791 27.2818 259.692 28.4079 269.047 31.5281C277.833 34.4574 286.318 39.301 290.613 47.8872C290.633 47.9226 290.655 47.9568 290.679 47.9897C290.093 52.3175 287.856 56.1494 284.766 59.4292C280.287 64.1868 274.795 68.1046 269.765 72.2506L253.17 85.9284C253.08 86.0016 253.006 86.0928 252.953 86.1962C246.319 80.3277 237.935 76.023 229.443 77.3885C229.274 76.9626 229.003 76.5854 228.653 76.2908C228.282 76.0147 227.878 75.7869 227.451 75.613L222.019 72.9681L188.123 56.4007ZM236.44 114.921L226.416 122.525C226.22 122.642 226.002 122.718 225.775 122.747C225.548 122.776 225.318 122.757 225.099 122.693C220.691 117.176 215.301 112.529 209.202 108.989C209.135 108.86 209.09 108.72 209.07 108.576C209.062 108.509 209.062 108.441 209.07 108.374C209.128 108.21 209.214 108.056 209.324 107.921L218.807 100.935C219.054 100.788 219.313 100.663 219.581 100.562C219.956 100.44 220.356 100.42 220.741 100.505C226.429 103.693 231.519 108.027 235.893 112.801C236.17 113.102 236.443 113.406 236.713 113.717C236.733 113.77 236.759 113.823 236.776 113.879C236.815 114.066 236.804 114.26 236.744 114.442C236.685 114.624 236.579 114.786 236.437 114.914L236.44 114.921ZM237.191 116.408C237.267 116.372 237.339 116.326 237.418 116.289C237.635 116.179 237.875 116.121 238.118 116.121C238.361 116.121 238.601 116.179 238.818 116.289C242.847 121.467 246.098 127.53 247.696 133.832C247.709 134.149 247.673 134.465 247.59 134.771C247.517 135.005 247.394 135.22 247.231 135.402L237.267 143.668C237.057 143.758 236.835 143.816 236.608 143.84C236.417 143.852 236.226 143.808 236.06 143.714C235.893 143.619 235.757 143.478 235.669 143.308C233.914 136.838 230.999 130.744 227.065 125.325C227.014 125.068 227.008 124.804 227.049 124.545C227.111 124.285 227.238 124.045 227.418 123.847L237.191 116.408ZM217.539 99.8277L207.558 107.194C207.096 107.368 206.599 107.431 206.109 107.376C203.268 106.007 200.285 104.957 197.215 104.245C194.982 103.719 192.684 103.531 190.396 103.686C190.309 103.693 190.223 103.713 190.142 103.746L187.046 101.894L196.688 94.7229L199.175 96.0454L199.267 96.0851L199.333 96.1115H199.366C199.511 96.1516 199.665 96.1516 199.81 96.1115C200.799 95.8635 201.928 95.9495 202.927 95.9197C204.356 95.8735 205.792 95.8437 207.209 95.8966C210.43 96.0156 213.718 97.1893 216.643 98.4721C216.867 98.5713 217.091 98.6771 217.302 98.7829C217.4 98.8755 217.489 98.9774 217.568 99.0871C217.662 99.1894 217.711 99.3248 217.706 99.4635C217.7 99.6023 217.64 99.7332 217.539 99.8277ZM214.38 132.559L204.537 139.866C203.915 140.196 203.259 140.385 202.64 140.104C198.057 134.688 192.52 130.166 186.305 126.763C186.251 126.671 186.217 126.569 186.206 126.462C186.15 126.006 186.568 125.619 186.865 125.338L196.378 118.223C196.902 117.945 197.506 117.857 198.088 117.972C203.687 120.971 208.701 125.14 213.046 129.663C213.556 130.195 214.057 130.741 214.554 131.296L214.633 131.481C214.691 131.667 214.698 131.865 214.654 132.055C214.609 132.245 214.514 132.419 214.38 132.559ZM215.161 134.123C215.433 133.962 215.744 133.88 216.06 133.886C216.375 133.892 216.683 133.985 216.949 134.156C220.902 139.238 224.1 145.1 225.757 151.223C225.825 151.53 225.832 151.848 225.777 152.158C225.671 152.575 225.462 152.959 225.168 153.272L215.134 161.581C214.98 161.663 214.819 161.732 214.653 161.786C214.492 161.832 214.321 161.818 214.169 161.749C214.017 161.679 213.894 161.558 213.823 161.406C213.017 158.255 211.914 155.189 210.529 152.248C209.028 149.098 207.23 146.1 205.16 143.294C205.033 143.019 204.972 142.717 204.981 142.414C204.99 142.11 205.069 141.813 205.213 141.545C205.262 141.457 205.319 141.371 205.381 141.291L214.689 134.368C214.848 134.288 215.002 134.202 215.161 134.123ZM194.57 117.526L185.528 124.287L184.622 124.849C184.022 125.209 183.33 125.14 182.668 124.981C181.075 124.276 179.446 123.657 177.787 123.127C174.677 122.135 171.406 121.533 168.138 121.754C168.097 121.759 168.056 121.766 168.017 121.778L164.647 119.794C167.877 117.369 171.111 114.951 174.348 112.54L176.798 113.991C176.903 114.059 177.023 114.099 177.147 114.108C177.272 114.117 177.396 114.095 177.51 114.044C179.733 113.486 182.494 113.747 184.757 113.773C187.771 113.81 190.801 114.785 193.578 115.886C193.855 115.995 194.128 116.114 194.402 116.217L194.612 116.369C195.083 116.673 194.889 117.136 194.57 117.526ZM190.287 152.902C187.263 155.3 184.236 157.697 181.206 160.093C180.974 160.22 180.728 160.322 180.475 160.397C180.039 160.508 179.579 160.459 179.177 160.258C174.669 154.726 169.201 150.058 163.036 146.482C162.816 146.257 162.683 145.96 162.661 145.646C162.639 145.331 162.73 145.019 162.917 144.766L171.367 138.51C171.535 138.411 171.696 138.305 171.874 138.206C172.683 137.754 173.635 137.636 174.529 137.875C180.043 140.977 185.004 145.149 189.352 149.692C189.721 150.082 190.09 150.479 190.452 150.882C190.586 151.17 190.665 151.481 190.686 151.798C190.695 152.204 190.554 152.6 190.291 152.909L190.287 152.902ZM191.144 154.317L191.341 154.205C191.573 154.086 191.816 153.989 192.066 153.917C192.175 153.901 192.285 153.891 192.396 153.887C192.689 153.886 192.975 153.981 193.209 154.159C197.244 159.316 200.565 165.297 202.278 171.543C202.349 172.082 202.327 172.63 202.215 173.163C202.067 173.702 201.787 174.196 201.401 174.601L191.849 182.509C191.659 182.585 191.453 182.612 191.249 182.589C191.161 182.577 191.078 182.545 191.004 182.496C190.93 182.447 190.869 182.381 190.824 182.304C189.825 178.745 188.479 175.293 186.806 171.999C185.342 169.059 183.643 166.243 181.726 163.578C181.659 163.285 181.611 162.988 181.585 162.689C181.58 162.286 181.712 161.894 181.96 161.578L191.144 154.317ZM170.553 137.052L161.527 143.734C160.508 144.207 159.364 144.335 158.266 144.098C156.723 143.431 155.144 142.853 153.536 142.365C152.008 141.898 150.441 141.566 148.855 141.373H148.783C147.362 141.197 145.928 141.158 144.501 141.258L144.415 141.274L140.561 139.099L149.405 132.195L152.06 133.657C152.166 133.72 152.285 133.757 152.408 133.764C152.53 133.772 152.653 133.749 152.765 133.7C152.891 133.722 153.021 133.716 153.144 133.68C155.404 133.045 158.256 133.214 160.589 133.234C163.771 133.263 167.041 134.381 169.94 135.614L170.398 135.819C170.578 135.966 170.695 136.176 170.724 136.407C170.754 136.638 170.694 136.871 170.556 137.059L170.553 137.052ZM152.699 181.071C157.144 186.346 160.658 192.345 163.089 198.809C164.145 201.554 164.91 204.403 165.371 207.309V207.412C165.324 207.662 165.219 207.897 165.065 208.099L145.209 224.961C144.566 219.499 142.379 214.107 139.938 209.369C135.623 201.024 129.252 193.747 121.854 188.027C116.87 184.172 110.911 180.727 104.61 179.431C104.261 179.206 103.987 178.968 104.122 178.439C104.178 178.228 104.266 178.026 104.383 177.841L104.893 177.441L112.519 171.47L122.73 163.479C123.863 162.818 125.178 162.718 126.532 162.884C136.891 165.347 146.019 173.096 152.703 181.078L152.699 181.071ZM163.747 191.737C162.129 188.478 160.238 185.362 158.095 182.423C157.908 181.827 157.908 181.188 158.095 180.592C158.21 180.201 158.393 179.834 158.635 179.507L167.012 172.564C167.753 172.191 168.537 172.048 169.245 172.462C173.145 177.395 176.594 183.227 178.656 189.363C178.679 189.482 178.706 189.598 178.729 189.717C178.907 190.709 178.913 191.519 178.419 192.203L169.14 199.89C168.85 200.015 168.542 200.09 168.227 200.111C167.997 200.116 167.769 200.068 167.56 199.971C167.351 199.873 167.167 199.729 167.022 199.549C166.112 196.872 165.018 194.262 163.747 191.737ZM166.501 170.848L158.065 177.834C157.656 178.092 157.225 178.313 156.777 178.496C156.457 178.601 156.117 178.636 155.782 178.597C155.446 178.559 155.123 178.449 154.834 178.274C150.386 173 145.073 168.527 139.125 165.049C138.858 164.837 138.681 164.532 138.63 164.194C138.579 163.857 138.658 163.512 138.851 163.231L147.956 156.331C148.661 155.884 149.494 155.684 150.324 155.762C156.474 159.243 161.903 164.064 166.597 169.318C166.672 169.505 166.722 169.702 166.748 169.903C166.79 170.236 166.707 170.573 166.514 170.848H166.501ZM146.694 155.246L137.349 162.338C137.046 162.471 136.733 162.581 136.414 162.669C135.8 162.804 135.167 162.824 134.546 162.728C133.209 162.143 131.855 161.617 130.478 161.164C127.279 160.064 123.887 159.641 120.517 159.921L116.943 157.918L126.472 150.436L129.276 152.006C129.596 152.115 129.928 152.189 130.264 152.228C132.994 151.705 135.979 151.19 138.756 151.497C141.44 151.791 144.062 152.697 146.533 153.811C146.687 153.953 146.808 154.129 146.885 154.324C146.939 154.48 146.951 154.647 146.92 154.809C146.888 154.971 146.815 155.122 146.708 155.246H146.694ZM141.348 237.108C140.85 237.853 140.262 238.533 139.599 239.135L139.088 239.568C138.289 240.202 137.401 240.716 136.453 241.092C131.453 243.102 125.678 241.697 120.873 239.826C113.076 236.787 106.316 231.325 100.736 225.159C100.664 225.073 100.573 225.005 100.47 224.96C100.367 224.916 100.255 224.895 100.143 224.901C98.5292 224.511 97.5607 223.959 96.0883 223.1L88.7492 218.801L64.7029 204.74L15.4606 175.95L11.3727 173.559C11.0433 173.361 10.6612 173.176 10.312 172.964C10.2644 172.911 10.2101 172.865 10.1506 172.825C7.5154 171.106 7.87116 166.874 7.70316 164.1C7.56262 161.823 7.42317 159.547 7.28483 157.27C7.41167 156.501 7.76241 155.788 8.2928 155.22C8.63197 154.853 9.06256 154.583 9.54023 154.438C10.0179 154.293 10.5254 154.279 11.0104 154.397L12.832 155.465L30.366 165.714L83.548 196.822L131.641 224.948L139.072 229.295C139.979 230.03 140.789 230.878 141.483 231.818C141.856 232.654 142.037 233.563 142.013 234.478C141.99 235.394 141.763 236.292 141.348 237.108ZM141.78 227.725C140.963 227.902 140.113 227.833 139.335 227.527L118.656 215.432L64.8281 183.961L18.0332 156.592L10.5228 152.201C9.37652 151.54 7.01471 150.601 6.84013 149.107C6.82894 149.018 6.80451 148.931 6.76766 148.849L6.04627 137.049C6.00674 136.414 5.79922 134.9 5.71687 133.31C5.72682 133.251 5.72682 133.19 5.71687 133.131C5.71687 133.068 5.7004 133.005 5.69381 132.943C5.66746 132.384 5.65758 131.825 5.67734 131.29C5.72169 130.993 5.84302 130.713 6.02918 130.478C6.21534 130.243 6.45979 130.061 6.73802 129.951C7.38697 129.715 8.10123 129.737 8.73419 130.013L13.2404 132.589L63.3886 161.247L87.1055 174.802L94.0592 178.77C95.6601 179.686 96.9349 180.555 98.9047 180.473H99.0595C99.1591 180.512 99.2653 180.533 99.3724 180.532C106.563 180.532 113.365 184.033 119.137 188.074C125.969 192.938 131.777 199.11 136.226 206.235C139.928 212.113 142.985 219.02 143.601 226.072C143.42 226.898 142.666 227.474 141.77 227.725H141.78ZM146.115 233.603C145.848 233.713 145.555 233.745 145.271 233.696C144.962 233.646 144.853 233.385 144.827 233.078C145.046 232.164 145.199 231.236 145.285 230.3C145.386 229.186 145.41 228.066 145.357 226.948C145.416 226.916 145.472 226.88 145.525 226.839C151.696 221.597 157.867 216.358 164.037 211.121C164.3 210.973 164.591 210.882 164.89 210.857C165.062 210.835 165.236 210.877 165.38 210.974C165.524 211.071 165.627 211.217 165.671 211.386C165.667 212.325 165.6 213.263 165.47 214.193C165.074 215.804 164.439 217.347 163.586 218.768L146.115 233.603ZM177.316 214.126C174.938 218.409 171.109 221.694 166.524 223.384C165.836 223.559 165.095 223.569 164.877 222.746C164.803 222.439 164.84 222.115 164.983 221.833C166.838 219.773 168.078 217.229 168.56 214.493C169.117 211.318 169.076 208.066 168.441 204.905C168.422 204.285 168.478 203.664 168.609 203.057C168.694 202.74 168.833 202.44 169.021 202.171L178.752 194.111L179.045 193.995C179.24 193.953 179.443 193.977 179.622 194.065C179.801 194.152 179.946 194.298 180.033 194.478C181.331 201.087 180.794 207.878 177.306 214.126H177.316ZM179.75 193.251L179.77 193.235C179.77 193.235 179.77 193.251 179.77 193.258L179.75 193.251ZM188.752 192.977C188.405 195.377 187.447 197.648 185.972 199.569C185.646 199.84 185.264 200.035 184.854 200.138C184.444 200.242 184.015 200.252 183.601 200.168C182.942 200.029 182.53 199.444 182.24 198.703C181.486 184.417 171.877 171.182 161.623 162.004C156.774 157.66 151.28 153.871 145.199 151.5C143.44 150.798 141.611 150.288 139.744 149.979L146.526 144.931C146.826 144.736 147.132 144.547 147.445 144.369C147.93 144.109 148.479 143.994 149.026 144.038C161.06 146.468 171.643 155.564 178.715 165.198C183.281 171.427 186.707 178.634 188.212 186.235C188.663 188.452 188.841 190.716 188.742 192.977H188.752ZM199.853 194.369C197.938 197.675 195.273 200.481 192.076 202.561C191.269 202.862 190.343 203.024 189.596 202.687C188.986 202.409 189.032 201.695 189.24 200.928C190.465 199.103 191.291 197.039 191.664 194.871C192.157 191.965 192.157 188.996 191.664 186.09C191.684 185.93 191.711 185.771 191.747 185.614C191.892 185.025 192.19 184.486 192.61 184.05L201.833 176.403L201.942 176.34C202.656 175.98 203.081 176.3 203.338 176.875C204.007 182.761 203.085 188.741 199.843 194.369H199.853ZM210.635 177.695C210.07 178.297 209.416 178.806 208.694 179.203C206.645 180.321 205.614 179.127 205.127 177.55C204.043 162.692 193.209 149.401 181.848 140.732C177.003 137.032 171.511 133.901 165.595 132.328C164.706 132.092 163.803 131.911 162.891 131.785L171.054 125.771C172.215 125.145 173.52 124.835 174.838 124.872C185.916 127.997 195.683 136.047 202.357 145.219C206.674 151.137 209.683 157.913 211.181 165.092C211.84 168.217 212.133 171.731 211.606 175.027C211.367 175.947 211.038 176.84 210.625 177.695H210.635ZM223.129 174.677C221.073 178.215 218.202 181.206 214.755 183.399C213.744 183.852 212.331 184.248 211.886 182.989C211.728 182.546 211.995 181.997 212.272 181.544C215.385 177.325 215.655 171.162 214.643 165.181C214.664 164.938 214.702 164.696 214.755 164.457C214.84 164.175 214.982 163.914 215.174 163.69L225.016 155.527C225.125 155.458 225.237 155.385 225.346 155.322C225.505 155.215 225.688 155.149 225.879 155.131C226.07 155.112 226.263 155.142 226.439 155.217C226.525 155.265 226.594 155.341 226.634 155.431C227.595 161.885 226.709 168.494 223.119 174.677H223.129ZM233.627 156.618C233.416 157.412 233.138 158.186 232.797 158.933C232.273 159.579 231.581 160.068 230.797 160.344C229.7 160.715 229.071 160.014 228.709 159.062C228.442 143.956 217.839 130.298 206.375 121.444C201.454 117.642 195.835 114.448 189.813 112.848C189.154 112.676 188.495 112.537 187.837 112.424L194.076 107.591C194.921 107.149 195.856 106.907 196.81 106.883C207.429 109.769 216.752 117.294 223.34 125.933C227.57 131.482 230.694 137.798 232.54 144.534C233.581 148.333 234.213 152.615 233.617 156.618H233.627ZM244.168 157.425C242.429 160.001 240.222 162.224 237.662 163.978C236.812 164.342 235.755 164.481 235.027 163.872C234.533 163.452 234.829 162.599 234.994 162.09C237.356 158.073 237.534 152.773 236.618 147.477C236.664 147.104 236.762 146.739 236.908 146.392C237.011 146.174 237.137 145.966 237.283 145.774L247.037 137.694C247.603 137.399 248.183 137.211 248.447 137.565C249.392 144.319 248.321 151.196 244.145 157.425H244.168ZM268.016 114.841C268.309 116.249 268.509 117.675 268.616 119.109C268.568 119.722 268.323 120.302 267.918 120.763L254.211 132.384C253.398 133.072 254.57 134.235 255.374 133.551L266.903 123.755C266.999 123.698 267.091 123.642 267.19 123.589C267.447 123.451 268.178 123.133 268.346 123.57C268.421 123.757 268.462 123.956 268.468 124.158C268.053 127.405 266.906 130.496 264.64 132.936C264.632 132.943 264.625 132.952 264.62 132.962L250.245 145.166C250.367 144.152 250.437 143.132 250.456 142.111C250.706 125.771 238.838 111.032 226.182 102.049C221.64 98.8292 216.541 96.1578 211.109 94.8518C210.901 94.8023 210.694 94.756 210.483 94.713L227.757 81.1906C228.488 80.6452 229.057 79.9103 229.404 79.0647C235.06 78.0365 240.745 80.1293 245.574 82.966C251.092 86.2061 255.809 90.8249 259.577 95.976C263.698 101.586 266.568 108.02 267.993 114.841H268.016ZM312.308 54.8435C311.649 58.9663 310.101 62.4477 307.788 65.8961C302.142 74.2972 294.612 80.9922 287.194 87.7567C285.896 88.9403 284.593 90.1185 283.284 91.2911C282.408 91.9674 281.493 92.5912 280.544 93.1591C274.285 96.1346 267.038 98.568 260.779 94.8122C260.012 93.7641 259.179 92.7061 258.289 91.6581C257.301 89.6148 257.13 87.7369 258.154 85.4126C258.779 84.1121 259.625 82.9307 260.654 81.9213L271.949 72.6143C277.312 68.1939 283.278 64.0182 287.718 58.6092C291.308 54.2417 292.988 48.8989 292.33 43.2618C292.031 40.6466 291.223 38.1161 289.95 35.8146C288.677 33.5131 286.965 31.4858 284.911 29.8485C284.085 29.1873 282.909 30.3643 283.749 31.0189C286.464 33.1561 288.52 36.0221 289.678 39.2845C289.698 39.5634 289.644 39.8427 289.522 40.0941C289.4 40.3455 289.214 40.56 288.983 40.716C288.518 41.0301 287.912 40.8119 287.359 40.4582C283.406 36.3089 278.261 33.3796 272.839 31.2008C263.774 27.564 253.908 26.0563 244.181 26.3307C239.366 26.4526 234.581 27.144 229.928 28.3905C225.392 29.6237 221.119 31.7496 217.081 34.097C209.313 38.6319 201.832 43.6449 194.682 49.1072C189.853 52.01 183.153 54.1822 177.948 51.3918C177.887 51.3585 177.82 51.3371 177.75 51.329L170.566 47.8211C169.229 46.697 168.959 45.434 169.248 43.6222C169.358 43.0095 169.631 42.4382 170.039 41.9691C180.251 34.3913 190.791 27.187 201.55 20.4225C204.185 18.7694 206.82 17.1593 209.524 15.6451C213.326 13.4927 217.44 11.8826 221.544 10.3849C230.832 6.96786 240.619 5.12106 250.509 4.91975C259.666 4.7842 268.82 6.36126 277.52 9.17153C285.317 11.6876 292.837 15.4368 299.132 20.7432C305.344 25.9737 310.147 32.9332 311.978 40.9111C312.971 45.4923 313.076 50.2227 312.285 54.8435H312.308Z" fill="black"/>
<path d="M224.446 108.156L222.309 106.341L223.491 105.329L229.467 110.312L228.149 111.287L225.869 109.349L219.486 114.309L218.254 113.165L224.446 108.156Z" fill="black"/>
<path d="M203.042 130.777L199.675 127.904L197.498 129.831L201.21 133.095L200.071 134.087L194.853 129.428L202.192 122.918L207.505 127.193L206.356 128.205L202.699 125.229L200.776 126.929L204.175 129.782L203.042 130.777Z" fill="black"/>
<path d="M189.138 166.438C189.081 167.427 189.25 168.416 189.632 169.331C190.162 170.554 190.949 170.921 191.72 170.461C192.412 170.041 192.597 169.281 192.458 167.72C192.277 165.704 192.613 164.156 193.904 163.422C195.34 162.609 196.978 163.383 197.857 165.555C198.215 166.39 198.4 167.29 198.401 168.2L196.984 168.53C197.007 167.766 196.866 167.005 196.572 166.299C196.095 165.132 195.344 164.937 194.84 165.231C194.158 165.628 194.089 166.405 194.197 168.041C194.359 170.15 193.944 171.486 192.653 172.293C191.183 173.209 189.329 172.762 188.143 170.061C187.693 169.051 187.468 167.954 187.484 166.848L189.138 166.438Z" fill="black"/>
<path d="M171.264 183.531L169.677 180.602L170.968 179.699L175.161 187.426L173.88 188.305L172.289 185.392L165.24 190.269L164.212 188.441L171.264 183.531Z" fill="black"/>
<path d="M108.737 87.0128L95.6272 97.0075C91.2297 100.363 90.7718 102.83 93.1501 104.222C95.7161 105.719 99.3 105.051 103.734 101.673L116.939 91.5985L120.596 93.6351L107.608 103.537C100.598 108.883 94.3919 109.422 89.7309 106.678C85.2807 104.06 85.307 100.175 92.343 94.8055L105.16 85.0225L108.737 87.0128Z" fill="white"/>
<path d="M112.69 119.685L115.082 114.914C115.988 113.056 116.646 111.793 117.387 110.45L117.299 110.398C115.49 111.135 113.728 111.756 111.152 112.636L104.617 114.95L100.502 112.51L117.961 107.134L123.508 95.2683L127.75 97.6356L125.224 102.479C124.46 103.944 123.817 105.075 123.063 106.371L123.126 106.404C125.102 105.623 126.548 105.081 128.587 104.374L135.541 101.987L139.882 104.41L122.579 109.597L116.972 122.197L112.69 119.685Z" fill="white"/>
</g>
<defs>
<clipPath id="clip0_164_3433">
<rect width="317" height="247" fill="white" transform="translate(0.736328)"/>
</clipPath>
</defs>
</svg>
