<svg width="205" height="42" viewBox="0 0 205 42" fill="none" xmlns="http://www.w3.org/2000/svg">
<ellipse cx="21.2185" cy="21" rx="20.9987" ry="21" fill="#4FD321"/>
<path d="M15.2317 16.6378C15.2317 16.6378 22.8657 14.9909 24.0646 14.6057C24.8429 14.3383 25.5672 13.9314 26.2027 13.4043C26.2027 13.4043 26.9793 16.2984 27.3398 17.8787C27.7003 19.459 28.8621 24.7663 28.8621 24.7663L18.4637 27.3023L17.7139 25.2202C17.7139 25.2202 16.7046 22.247 16.0825 20.0795L15.2317 16.6378Z" fill="white"/>
<path d="M26.856 17.6584C26.9961 17.77 27.1607 17.8457 27.336 17.8791L27.9354 20.6025L29.6389 18.1477L29.3011 17.9395L29.229 17.8937C29.5607 17.0983 29.8099 16.2697 29.5751 15.9219C29.2805 15.5055 28.0961 14.2563 28.0137 14.1688C27.5873 13.7066 27.0105 13.8919 26.6933 14.3271C26.5484 14.5144 26.4149 14.7105 26.2937 14.9142C26.2937 14.9142 25.3441 16.5695 26.856 17.6584Z" fill="#1D1D1F"/>
<path d="M13.3285 34.5893C12.8197 33.5482 13.6149 31.8597 13.6355 31.8659C13.7158 31.8826 13.86 31.9055 13.86 31.9055L14.0001 32.2927C14.0001 32.2927 14.0433 32.2927 14.0722 32.2927C16.4163 32.7487 19.0674 32.6425 19.5824 32.2698C20.8533 31.3537 22.1016 28.9822 22.4951 27.8121C22.4951 27.8121 24.8825 26.4046 26.7776 26.6294C28.1495 26.7856 28.7077 28.014 28.7015 29.813C28.7922 29.813 29.2968 29.8671 29.2968 29.8671C29.2968 29.8671 29.2536 30.0628 29.2453 30.1523C29.2371 30.2419 29.027 30.4772 29.0394 30.5688C29.1897 31.2683 29.5152 32.0262 30.23 32.3781C32.7204 31.7785 35.1037 29.4194 35.1037 29.4194L34.1644 28.5866C33.4352 29.1904 32.3105 29.6984 31.5607 29.7817C31.5607 29.7817 32.3063 24.1934 31.5195 23.4459C30.5596 22.5194 29.1197 22.0446 28.2793 22.1717L28.8519 24.7493L18.4618 27.3019C18.4618 27.3019 17.883 25.7445 17.712 25.2198C17.7285 26.4983 16.8613 28.5366 16.5008 28.9406C15.6377 29.967 14.0928 29.967 13.0587 29.7318L12.1379 29.5111C11.7471 30.0603 11.3933 30.6356 11.0791 31.233C9.80817 34.0979 12.4139 35.2931 12.4139 35.2931H32.8316C32.4196 35.1369 27.8281 33.8023 23.6939 33.8023C19.9181 33.8023 15.9096 33.9772 13.3285 34.5893Z" fill="#1D1D1F"/>
<path d="M15.883 23.967H16.0231H16.0663H16.0869H16.1384H16.159H16.2291L16.5216 23.9399H16.5401L16.6307 23.9295H16.6555H16.744H16.7729L16.8594 23.917H16.8924L16.983 23.9045H17.0118L17.1107 23.8879H17.1334C17.7081 23.7942 18.3178 23.6443 18.5753 23.4048C18.5753 23.4048 19.5022 21.7787 18.6536 21.1457C18.4002 20.9375 18.0088 21.0062 16.7523 21.052C16.6122 21.052 16.4824 21.052 16.363 21.052H16.1837H16.0354H16.0231H15.883C15.6383 21.0407 15.3954 21.0044 15.1579 20.9438H15.1208H15.0941H15.0776L16.1075 20.1796L15.23 16.638C15.23 16.638 22.864 14.991 24.0628 14.6059H24.0834C23.0123 13.6148 21.4056 12.8527 18.7648 13.1276L18.2251 12.607C18.5403 12.4384 18.6948 12.4176 18.9625 12.1448C18.1386 10.4104 17.7451 8.5282 17.7266 7.49132C18.3446 7.32058 20.7876 7.10404 21.3108 4.36816C21.3108 4.36816 19.5661 5.56954 18.221 4.87203C15.9386 3.68107 14.334 5.82563 14.334 5.82563C14.334 5.82563 12.7911 5.89226 12.8261 6.83337C12.9332 9.63588 13.8231 11.6909 15.5493 14.0832C13.4461 15.0202 12.3977 15.9301 11.4295 17.3834C10.1153 19.3093 9.46025 21.8703 9.46025 21.8703C9.46025 21.8703 11.2853 24.1106 15.5534 24.577C15.6379 24.2418 15.8171 24.1544 15.883 23.967Z" fill="#1D1D1F"/>
<path d="M65.8435 22.2169C65.6491 23.1807 65.317 24.0321 64.8472 24.7711C64.4073 25.4791 63.8388 26.1 63.1706 26.6024C62.4902 27.1086 61.7253 27.4919 60.9108 27.7349C60.0333 27.9807 59.1253 28.1023 58.2136 28.0964C56.95 28.0964 55.8242 27.8715 54.836 27.4217C53.8657 26.9851 53.0032 26.3437 52.3089 25.5422C51.6286 24.739 51.1102 23.7831 50.7538 22.6747C50.3974 21.5663 50.2192 20.3454 50.2192 19.012C50.2192 17.6627 50.4136 16.4337 50.8024 15.3253C51.1912 14.2169 51.7419 13.2691 52.4547 12.4819C53.1692 11.6935 54.0481 11.0686 55.0304 10.6506C56.0348 10.2169 57.1606 10 58.408 10C59.3151 10 60.1737 10.1365 60.9837 10.4096C61.7936 10.6667 62.5145 11.0442 63.1463 11.5422C63.7943 12.0402 64.3369 12.6586 64.7743 13.3976C65.244 14.1613 65.5731 15.0016 65.7463 15.8795H63.3407C63.215 15.3427 63.0016 14.8299 62.7089 14.3614C62.4375 13.9001 62.0834 13.4918 61.664 13.1566C61.2208 12.8074 60.7191 12.5382 60.1818 12.3614C59.5705 12.1618 58.93 12.064 58.2865 12.0723C57.5089 12.0723 56.7799 12.2249 56.0996 12.5301C55.4202 12.8307 54.8211 13.2845 54.35 13.8554C53.8479 14.4337 53.451 15.1566 53.1594 16.0241C52.884 16.8916 52.7463 17.8876 52.7463 19.012C52.7463 20.1205 52.884 21.1084 53.1594 21.9759C53.4348 22.8434 53.8236 23.5823 54.3257 24.1928C54.8279 24.7871 55.4192 25.245 56.0996 25.5663C56.811 25.8779 57.5817 26.034 58.3594 26.0241C59.7687 26.0241 60.8946 25.6707 61.7369 24.9639C62.5955 24.257 63.1625 23.3414 63.4379 22.2169H65.8435ZM73.7152 17.1084C73.4974 17.0773 73.2786 17.0532 73.0591 17.0361C72.8651 17.0208 72.6706 17.0127 72.476 17.012C71.4554 17.012 70.6859 17.3173 70.1675 17.9277C69.6654 18.5382 69.4154 19.5582 69.4154 20.988V27.7831H67.2031V14.8193H69.3668V17.0843C69.6908 16.3454 70.1675 15.7831 70.7993 15.3976C71.4473 14.996 72.2006 14.7791 73.0591 14.747H73.375C73.4722 14.747 73.5856 14.755 73.7152 14.7711V17.1084ZM75.9287 22.0241C75.9449 22.7309 76.0745 23.3414 76.3175 23.8554C76.5605 24.3695 76.8683 24.8032 77.2409 25.1566C77.62 25.4882 78.0563 25.7494 78.5287 25.9277C78.9985 26.0884 79.4775 26.1687 79.9635 26.1687C80.9355 26.1687 81.7038 25.9759 82.2708 25.5904C82.8377 25.1888 83.2589 24.6667 83.5343 24.0241H85.8184C85.67 24.592 85.4234 25.1301 85.0895 25.6145C84.7542 26.1079 84.3353 26.5399 83.8514 26.8916C83.3287 27.2801 82.7456 27.5812 82.125 27.7831C81.4252 27.9997 80.6954 28.1054 79.9624 28.0964C78.9256 28.0964 78.0103 27.9277 77.2166 27.5904C76.4486 27.2555 75.7612 26.7627 75.1998 26.1446C74.6539 25.5139 74.2337 24.7861 73.9617 24C73.6789 23.1365 73.539 22.2332 73.5474 21.3253C73.5474 20.2972 73.7094 19.3735 74.0334 18.5542C74.3285 17.7645 74.7833 17.0429 75.3699 16.4337C75.9392 15.8486 76.6264 15.3888 77.3867 15.0843C78.1802 14.7599 79.0312 14.5961 79.8895 14.6024C80.8776 14.6024 81.7686 14.7952 82.5624 15.1807C83.3356 15.5497 84.01 16.0946 84.5306 16.7711C85.0778 17.4711 85.4747 18.2747 85.6969 19.1325C85.9561 20.0321 86.0533 20.996 85.9885 22.0241H75.9287ZM79.8895 16.4819C79.4035 16.4819 78.9337 16.5542 78.4801 16.6988C78.0318 16.8245 77.617 17.0466 77.2652 17.3494C76.8903 17.6617 76.5842 18.0472 76.3661 18.4819C76.1393 18.9478 76.0016 19.502 75.953 20.1446H83.6558C83.6384 19.6892 83.5397 19.2405 83.3642 18.8193C83.2081 18.379 82.9597 17.9766 82.6353 17.6386C82.3018 17.2784 81.8963 16.9912 81.4446 16.7952C80.9556 16.579 80.4247 16.4721 79.8895 16.4819ZM95.5276 21.5422C94.5233 21.6386 93.6161 21.759 92.8061 21.9036C91.9962 22.0321 91.3077 22.2008 90.7407 22.4096C90.1737 22.6185 89.7364 22.8755 89.4286 23.1807C89.2775 23.3281 89.1584 23.5046 89.0788 23.6994C88.9992 23.8942 88.9607 24.1031 88.9657 24.3133C88.9657 24.9237 89.1856 25.4217 89.623 25.8072C90.0765 26.1767 90.6991 26.3614 91.494 26.3614C92.0124 26.3614 92.5145 26.2972 93.0005 26.1687C93.4865 26.0402 93.9146 25.8233 94.2884 25.5181C94.661 25.1968 94.9595 24.7871 95.1874 24.2892C95.4142 23.7751 95.5276 23.1325 95.5276 22.3614V21.5422ZM91.008 28.0964C90.4144 28.0997 89.824 28.0103 89.2585 27.8313C88.7437 27.6807 88.2586 27.4444 87.8237 27.1325C87.4187 26.8112 87.0947 26.4177 86.8517 25.9518C86.6184 25.4541 86.5024 24.9102 86.5127 24.3614C86.5127 23.5904 86.7233 22.9478 87.1445 22.4337C87.5656 21.9197 88.1569 21.494 88.9183 21.1566C89.6959 20.8193 90.6273 20.5462 91.7127 20.3373C92.9197 20.1107 94.1357 19.9338 95.3575 19.8072V19.494C95.3575 18.8996 95.2765 18.4016 95.1145 18C94.9901 17.6306 94.7726 17.2989 94.4828 17.0361C94.2207 16.7775 93.8928 16.5943 93.5339 16.506C93.1647 16.3917 92.7799 16.3348 92.3931 16.3373C91.4697 16.3373 90.7488 16.5703 90.2293 17.0361C89.7283 17.4859 89.4529 18.1125 89.4043 18.9157H87.1202C87.157 18.2655 87.3396 17.6316 87.6547 17.0602C87.9787 16.5141 88.3837 16.0562 88.8697 15.6867C89.3557 15.3173 89.8983 15.0361 90.4977 14.8434C91.1027 14.6522 91.7338 14.5547 92.3688 14.5542C94.1831 14.5542 95.5033 14.988 96.3295 15.8554C97.1719 16.7229 97.5849 18.0723 97.5676 19.9036L97.5444 22.8916C97.5282 23.9839 97.5444 24.9237 97.593 25.7108C97.6578 26.4819 97.755 27.1727 97.8846 27.7831H95.6491C95.6167 27.5422 95.5843 27.2851 95.5519 27.012C95.5161 26.6756 95.4917 26.3381 95.479 26C95.0802 26.6688 94.4985 27.2119 93.8012 27.5663C93.1058 27.9197 92.1744 28.0964 91.008 28.0964ZM100.338 11.5663H102.549V14.8193H105.027V16.5783H102.549V24.2651C102.549 24.6024 102.557 24.8835 102.573 25.1084C102.606 25.3173 102.662 25.4859 102.743 25.6145C102.846 25.7469 102.992 25.8404 103.156 25.8795C103.335 25.9277 103.586 25.9518 103.91 25.9518H105.027V27.7831H103.424C102.792 27.7831 102.273 27.743 101.869 27.6627C101.48 27.5663 101.172 27.4056 100.945 27.1807C100.718 26.9398 100.556 26.6104 100.459 26.1928C100.378 25.759 100.338 25.2048 100.338 24.5301V16.5783H98.2723V14.8193H100.338V11.5663ZM108.9 14.8193V27.7831H106.688V14.8193H108.9ZM108.9 10.3133V12.9639H106.688V10.3133H108.9ZM115.503 24.747L119.05 14.8193H121.334L116.402 27.7831H114.433L109.501 14.8193H111.954L115.503 24.747ZM123.179 22.0241C123.195 22.7309 123.325 23.3414 123.568 23.8554C123.811 24.3695 124.118 24.8032 124.491 25.1566C124.87 25.4882 125.306 25.7494 125.779 25.9277C126.249 26.0884 126.726 26.1687 127.212 26.1687C128.184 26.1687 128.954 25.9759 129.521 25.5904C130.088 25.1888 130.509 24.6667 130.784 24.0241H133.068C132.92 24.592 132.673 25.1301 132.339 25.6145C132.015 26.0964 131.602 26.5221 131.1 26.8916C130.578 27.2799 129.995 27.5811 129.375 27.7831C128.675 27.9997 127.945 28.1054 127.212 28.0964C126.176 28.0964 125.26 27.9277 124.467 27.5904C123.699 27.2555 123.011 26.7627 122.45 26.1446C121.903 25.514 121.483 24.7862 121.211 24C120.928 23.1364 120.789 22.2331 120.797 21.3253C120.797 20.2972 120.959 19.3735 121.283 18.5542C121.579 17.7645 122.033 17.0429 122.62 16.4337C123.189 15.8486 123.876 15.3888 124.637 15.0843C125.43 14.7599 126.281 14.5961 127.139 14.6024C128.128 14.6024 129.019 14.7952 129.812 15.1807C130.586 15.5497 131.26 16.0946 131.781 16.7711C132.328 17.4711 132.725 18.2747 132.947 19.1325C133.206 20.0321 133.303 20.996 133.239 22.0241H123.179ZM127.139 16.4819C126.654 16.4819 126.184 16.5542 125.73 16.6988C125.282 16.8245 124.867 17.0466 124.515 17.3494C124.14 17.6617 123.834 18.0472 123.616 18.4819C123.389 18.9478 123.252 19.502 123.203 20.1446H130.906C130.888 19.6892 130.79 19.2405 130.614 18.8193C130.458 18.379 130.21 17.9766 129.885 17.6386C129.552 17.2784 129.146 16.9912 128.695 16.7952C128.206 16.579 127.675 16.4721 127.139 16.4819ZM140.516 10.3133C141.584 10.3133 142.564 10.3855 143.455 10.5301C144.362 10.6747 145.139 10.9478 145.787 11.3494C146.435 11.7349 146.937 12.2731 147.294 12.9639C147.65 13.6386 147.828 14.5141 147.828 15.5904C147.828 16.6827 147.65 17.5743 147.294 18.2651C146.952 18.9247 146.43 19.4757 145.787 19.8554C145.139 20.241 144.362 20.506 143.455 20.6506C142.564 20.7952 141.584 20.8675 140.516 20.8675H137.477V27.7831H134.998V10.3133H140.516ZM137.477 12.3855V18.7229H140.709C141.357 18.7229 141.956 18.6988 142.507 18.6506C143.074 18.5863 143.56 18.4498 143.965 18.241C144.386 18.0161 144.71 17.7028 144.937 17.3012C145.18 16.8835 145.301 16.3133 145.301 15.5904C145.301 14.8835 145.18 14.3213 144.937 13.9036C144.723 13.483 144.384 13.138 143.965 12.9157C143.56 12.6908 143.074 12.5462 142.507 12.4819C141.91 12.4151 141.31 12.383 140.709 12.3855H137.477ZM149.815 22.0241C149.831 22.7309 149.961 23.3414 150.204 23.8554C150.447 24.3695 150.755 24.8032 151.127 25.1566C151.506 25.4882 151.943 25.7494 152.415 25.9277C152.885 26.0884 153.363 26.1687 153.849 26.1687C154.821 26.1687 155.59 25.9759 156.157 25.5904C156.724 25.1888 157.145 24.6667 157.421 24.0241H159.705C159.556 24.592 159.31 25.1301 158.976 25.6145C158.652 26.0964 158.239 26.5221 157.737 26.8916C157.214 27.2799 156.632 27.5811 156.011 27.7831C155.311 27.9998 154.581 28.1055 153.848 28.0964C152.812 28.0964 151.897 27.9277 151.103 27.5904C150.335 27.2555 149.648 26.7627 149.086 26.1446C148.54 25.514 148.119 24.7862 147.847 24C147.565 23.1364 147.425 22.2331 147.434 21.3253C147.434 20.2972 147.596 19.3735 147.92 18.5542C148.215 17.7645 148.67 17.0429 149.256 16.4337C149.826 15.8486 150.513 15.3888 151.273 15.0843C152.067 14.7599 152.918 14.5961 153.776 14.6024C154.764 14.6024 155.655 14.7952 156.449 15.1807C157.222 15.5498 157.896 16.0948 158.416 16.7711C158.963 17.471 159.361 18.2746 159.583 19.1325C159.842 20.0321 159.94 20.996 159.875 22.0241H149.815ZM153.776 16.4819C153.29 16.4819 152.82 16.5542 152.367 16.6988C151.918 16.8245 151.503 17.0466 151.152 17.3494C150.777 17.6617 150.471 18.0472 150.252 18.4819C150.026 18.9478 149.888 19.502 149.839 20.1446H157.542C157.525 19.6892 157.426 19.2405 157.251 18.8193C157.094 18.379 156.846 17.9766 156.522 17.6386C156.188 17.2783 155.782 16.991 155.33 16.7952C154.841 16.5792 154.311 16.4722 153.776 16.4819ZM162.919 21.3494C162.919 22.2169 163.025 22.9558 163.235 23.5663C163.462 24.1767 163.753 24.6747 164.11 25.0602C164.482 25.4458 164.904 25.7269 165.373 25.9036C165.843 26.0803 166.329 26.1687 166.831 26.1687C167.334 26.1687 167.82 26.0723 168.289 25.8795C168.759 25.6867 169.172 25.3976 169.529 25.012C169.901 24.6104 170.193 24.1125 170.403 23.5181C170.63 22.9076 170.743 22.1847 170.743 21.3494C170.743 20.4819 170.63 19.743 170.403 19.1325C170.193 18.5221 169.901 18.0241 169.529 17.6386C169.189 17.2642 168.764 16.9751 168.289 16.7952C167.824 16.6192 167.33 16.5294 166.831 16.5301C166.329 16.5301 165.843 16.6185 165.373 16.7952C164.892 16.9634 164.458 17.2445 164.11 17.6145C163.753 18 163.462 18.498 163.235 19.1084C163.025 19.7189 162.919 20.4659 162.919 21.3494ZM166.831 14.6024C167.593 14.6024 168.346 14.739 169.091 15.012C169.84 15.2713 170.527 15.6815 171.108 16.2169C171.707 16.7631 172.185 17.4618 172.542 18.3133C172.914 19.1647 173.101 20.1767 173.101 21.3494C173.101 22.5221 172.914 23.5341 172.542 24.3855C172.185 25.2369 171.707 25.9357 171.108 26.4819C170.524 27.019 169.838 27.4366 169.091 27.7108C168.365 27.9646 167.601 28.095 166.831 28.0964C166.062 28.095 165.298 27.9647 164.572 27.7108C163.824 27.4366 163.139 27.019 162.555 26.4819C161.955 25.9357 161.469 25.2369 161.097 24.3855C160.74 23.5341 160.562 22.5221 160.562 21.3494C160.562 20.1767 160.74 19.1647 161.097 18.3133C161.469 17.4618 161.955 16.7631 162.555 16.2169C163.136 15.6815 163.823 15.2713 164.572 15.012C165.294 14.743 166.059 14.6042 166.831 14.6024ZM176.8 14.8193V16.8675C177.195 16.1863 177.765 15.6209 178.452 15.2289C179.149 14.8112 180.023 14.6024 181.076 14.6024C181.82 14.6008 182.555 14.7594 183.23 15.0673C183.906 15.3752 184.506 15.825 184.989 16.3855C185.507 16.9639 185.912 17.6707 186.203 18.506C186.511 19.3414 186.665 20.2892 186.665 21.3494C186.665 22.4257 186.511 23.3815 186.203 24.2169C185.912 25.0522 185.507 25.759 184.989 26.3374C184.503 26.9033 183.897 27.3558 183.215 27.6627C182.539 27.9508 181.812 28.0984 181.076 28.0964C180.023 28.0964 179.149 27.8956 178.452 27.494C177.767 27.0884 177.199 26.5161 176.8 25.8313V32H174.589V14.8193H176.8ZM176.703 21.3494C176.703 22.2008 176.808 22.9398 177.018 23.5663C177.229 24.1767 177.513 24.6827 177.869 25.0843C178.225 25.4699 178.63 25.759 179.084 25.9518C179.554 26.1285 180.032 26.2169 180.517 26.2169C181.651 26.2169 182.559 25.7992 183.239 24.9639C183.919 24.1125 184.26 22.9076 184.26 21.3494C184.26 19.7912 183.919 18.5944 183.239 17.759C182.559 16.9076 181.651 16.4819 180.517 16.4819C180.032 16.4819 179.554 16.5783 179.084 16.7711C178.614 16.959 178.198 17.2566 177.869 17.6386C177.513 18.0241 177.229 18.5301 177.018 19.1566C176.808 19.7671 176.703 20.498 176.703 21.3494ZM190.308 27.7831H188.096V10.3133H190.308V27.7831ZM194.14 22.0241C194.156 22.7309 194.286 23.3414 194.529 23.8554C194.772 24.3695 195.08 24.8032 195.452 25.1566C195.831 25.4882 196.268 25.7494 196.74 25.9277C197.21 26.0884 197.688 26.1687 198.174 26.1687C199.146 26.1687 199.915 25.9759 200.482 25.5904C201.049 25.1888 201.47 24.6667 201.746 24.0241H204.03C203.881 24.592 203.635 25.1301 203.301 25.6145C202.977 26.0964 202.564 26.5221 202.061 26.8916C201.539 27.2799 200.956 27.5811 200.336 27.7831C199.636 27.9997 198.907 28.1054 198.174 28.0964C197.137 28.0964 196.222 27.9277 195.428 27.5904C194.66 27.2555 193.972 26.7627 193.411 26.1446C192.865 25.514 192.444 24.7862 192.172 24C191.889 23.1364 191.75 22.2331 191.759 21.3253C191.759 20.2972 191.921 19.3735 192.245 18.5542C192.54 17.7645 192.995 17.0429 193.581 16.4337C194.15 15.8486 194.838 15.3888 195.598 15.0843C196.391 14.7599 197.242 14.5961 198.101 14.6024C199.089 14.6024 199.98 14.7952 200.774 15.1807C201.547 15.5497 202.221 16.0946 202.742 16.7711C203.289 17.4711 203.686 18.2747 203.908 19.1325C204.167 20.0321 204.265 20.996 204.2 22.0241H194.14ZM198.101 16.4819C197.615 16.4819 197.145 16.5542 196.691 16.6988C196.243 16.8245 195.828 17.0466 195.476 17.3494C195.102 17.6617 194.795 18.0472 194.577 18.4819C194.351 18.9478 194.213 19.502 194.164 20.1446H201.867C201.85 19.6892 201.751 19.2405 201.575 18.8193C201.419 18.379 201.171 17.9766 200.847 17.6386C200.513 17.2784 200.108 16.9912 199.656 16.7952C199.167 16.579 198.636 16.4721 198.101 16.4819Z" fill="#1D1D1F"/>
</svg>
