<svg width="149" height="77" viewBox="0 0 149 77" fill="none" xmlns="http://www.w3.org/2000/svg">
<g clip-path="url(#clip0_402_6747)">
<path d="M3.19287 -9H45.7643V72.7426H3.19287V-9Z" fill="white"/>
<path d="M25.3214 51.7278C25.3214 51.7278 36.3049 50.2548 36.3049 46.1251C36.3049 42.4296 24.3082 41.493 24.3082 41.493C24.3082 41.493 36.1431 39.5346 36.1431 36.1201C36.1431 33.4124 23.542 31.4029 23.542 31.4029C23.542 31.4029 35.8451 29.6999 35.8451 25.9959C35.8451 22.8455 24.436 21.168 24.436 21.168C24.436 21.168 35.513 20.01 35.513 15.991C35.513 12.9001 23.84 10.9247 23.84 10.9247C23.84 10.9247 35.4109 9.50268 35.4109 5.96902C35.4109 1.371 20.1192 0.306641 20.1192 0.306641L17.7352 3.26129C17.7352 3.26129 28.1993 4.21496 28.1993 5.85832C28.1993 7.50169 2.65641 9.15357 2.47761 9.1706C2.07744 9.39199 1.48144 12.0656 2.17961 12.5765C2.67344 12.9342 27.8587 13.8538 27.8587 15.974C27.8587 18.0771 4.75093 19.5247 2.17961 19.6779C0.953555 20.3676 0.578927 22.1302 1.88161 23.0839C3.19281 24.046 28.063 24.1482 28.063 26.2003C28.063 28.2609 3.3631 29.6744 2.36693 29.734C1.13236 30.4237 0.766241 32.1862 2.06893 33.1399C2.56276 33.5146 27.8587 34.332 27.8587 36.4437C27.8587 38.5468 3.88247 40.2328 2.5883 40.3094C1.36224 40.9991 0.987613 42.7617 2.2903 43.7154C2.78413 44.0815 27.8587 44.1156 27.8587 46.2272C27.8587 48.3304 4.64024 50.1952 2.72453 50.3144C1.49847 50.9956 1.12384 53.4989 2.42653 54.4611C2.62236 54.5973 26.1473 54.3589 29.7404 56.4706H36.6369C36.6369 53.3456 25.3129 51.7193 25.3129 51.7193L25.3214 51.7278Z" fill="black"/>
<path d="M36.952 57.1003V56.8193C36.952 53.805 28.7102 51.4805 18.493 51.4805C8.27588 51.4805 0 53.9242 0 56.93V72.146H0.110686C1.10686 74.8708 8.96554 76.9995 18.5015 76.9995C28.0375 76.9995 35.8877 74.8708 36.8924 72.146L36.952 72.0268V57.1003Z" fill="#191919"/>
<path d="M60.6558 58.0794H61.7116L68.5741 72.9208H67.3821L65.509 68.7996H56.7988L54.9257 72.9208H53.7848L60.6473 58.0794H60.6558ZM65.0492 67.8034L61.1752 59.2715L57.2756 67.8034H65.0492ZM68.1399 58.1816H69.3574L73.9892 71.2945L78.3059 58.139H79.1574L83.4656 71.303L88.0974 58.1816H89.2383L83.8913 73.0315H83.0058L78.6891 60.2252L74.3723 73.0315H73.4783L68.1399 58.1816ZM95.658 58.0794H96.7138L103.576 72.9208H102.384L100.511 68.7996H91.8096L89.9364 72.9208H88.7955L95.658 58.0794ZM100.043 67.8034L96.1689 59.2715L92.2694 67.8034H100.043ZM105.747 58.1816H111.946C113.751 58.1816 115.207 58.7521 116.092 59.6291C116.811 60.3605 117.212 61.3457 117.208 62.3709V62.4135C117.208 64.8828 115.377 66.2878 112.891 66.6284L117.753 72.9293H116.365L111.673 66.8157H106.846V72.9208H105.756V58.1816H105.747ZM111.818 65.828C114.287 65.828 116.109 64.5848 116.109 62.4561V62.4135C116.109 60.4295 114.551 59.1949 111.878 59.1949H106.854V65.828H111.818ZM120.452 58.1816H125.364C129.996 58.1816 133.198 61.3577 133.198 65.5044V65.547C133.198 69.7022 129.996 72.9208 125.364 72.9208H120.452V58.1816ZM125.364 71.9161C129.468 71.9161 132.057 69.1062 132.057 65.5981V65.5555C132.057 62.0559 129.468 59.1949 125.364 59.1949H121.55V71.9076H125.364V71.9161ZM135.241 70.7751L135.956 69.9491C137.574 71.4478 139.072 72.146 141.235 72.146C143.449 72.146 144.973 70.9028 144.973 69.2169V69.1743C144.973 67.6161 144.147 66.705 140.801 66.0323C137.259 65.3171 135.828 64.1165 135.828 61.8856V61.843C135.828 59.6547 137.829 57.9688 140.571 57.9688C142.717 57.9688 144.13 58.5648 145.62 59.7569L144.93 60.6254C143.731 59.525 142.155 58.9275 140.528 58.9565C138.357 58.9565 136.927 60.1996 136.927 61.7408V61.7834C136.927 63.3416 137.727 64.2868 141.227 65.002C144.632 65.7002 146.063 66.9179 146.063 69.0721V69.1147C146.063 71.4988 144.019 73.1337 141.184 73.1337C138.817 73.1337 137.012 72.3588 135.241 70.7751Z" fill="black"/>
<path d="M57.5566 13.5992H52.4139V12.5859H63.789V13.5992H58.6464V27.3337H57.5566V13.5992ZM66.1645 12.5859H67.2629V19.4148H76.6967V12.5859H77.795V27.3337H76.6967V20.4196H67.2629V27.3337H66.1645V12.5859ZM81.652 12.5859H92.1331V13.5992H82.7418V19.3893H91.188V20.4026H82.7418V26.3204H92.2438V27.3337H81.652V12.5859Z" fill="black"/>
<path d="M68.1398 34.6979C68.6507 36.5286 69.1615 38.3592 69.7064 40.1899C70.643 43.4682 70.8133 43.9961 71.3412 47.2913C71.852 43.9194 71.9712 43.3404 72.7375 39.8834L73.8444 34.6979H78.0589L73.7507 51.7105H69.3744C68.838 49.8373 68.3356 47.9555 67.7822 46.0907C66.8712 42.9658 66.8201 42.8551 66.3092 40.4709C65.9356 42.3342 65.4523 44.1738 64.8618 45.98L63.2271 51.7105H58.8507L54.5425 34.7064H58.7741C60.6047 42.7785 60.8005 43.664 61.3028 47.3509C61.9329 43.9791 62.1032 43.3319 62.9887 39.96L64.385 34.7064H68.1398V34.6979ZM95.5643 47.104C94.9939 47.9555 94.4319 48.7644 93.589 49.5478C91.8988 51.0736 89.6928 51.9013 87.4161 51.8638C82.563 51.8638 79.1488 48.7644 79.1488 43.4086C79.1488 39.4577 81.09 34.3828 87.5439 34.3828C88.5145 34.3828 91.3327 34.4765 93.4272 36.7329C95.5558 39.0234 95.6835 42.2165 95.7516 44.0642H84.0615C84.036 46.1078 85.1939 48.1343 87.7908 48.1343C90.4302 48.1343 91.3327 46.4143 91.9287 45.2563L95.5643 47.104ZM90.7708 41.0585C90.7294 40.2074 90.4093 39.3935 89.8597 38.7424C89.203 38.1285 88.3298 37.7999 87.4313 37.8287C86.5328 37.8574 85.6824 38.2411 85.0662 38.8957C84.4106 39.6194 84.2488 40.3688 84.0956 41.0585H90.7708ZM98.7827 34.6979H105.356C107.144 34.6979 108.753 34.7745 109.783 35.1066C110.643 35.3436 111.399 35.861 111.931 36.5768C112.463 37.2926 112.741 38.1657 112.721 39.0575C112.721 39.9771 112.482 40.5305 112.406 40.6923C111.639 42.4293 110.005 42.7699 109.085 42.9573C110.124 43.1276 111.495 43.3404 112.431 44.4048C113.036 45.0519 113.368 45.9886 113.368 46.9592C113.355 47.8449 113.081 48.707 112.582 49.4384C112.082 50.1697 111.378 50.7378 110.558 51.0719C109.281 51.6254 107.91 51.702 105.96 51.702H98.7827V34.6979ZM102.827 37.8739V41.4161H106.028C106.99 41.3905 108.557 41.348 108.557 39.5854C108.557 37.9505 107.135 37.8824 106.318 37.8824H102.827V37.8739ZM102.827 44.4985V48.6196H105.79C107.212 48.5941 109.059 48.543 109.059 46.5931C109.059 44.5495 107.374 44.524 106.505 44.4985H102.827ZM116.842 34.6979H123.415C125.194 34.6979 126.803 34.7745 127.842 35.1066C128.702 35.3436 129.458 35.861 129.99 36.5768C130.522 37.2926 130.8 38.1657 130.779 39.0575C130.779 39.9771 130.541 40.5305 130.464 40.6923C129.698 42.4293 128.063 42.7699 127.144 42.9573C128.183 43.1276 129.553 43.3404 130.49 44.4048C131.086 45.0519 131.426 45.9886 131.426 46.9592C131.426 48.2791 130.728 50.1353 128.617 51.0719C127.34 51.6254 125.969 51.702 124.019 51.702H116.842V34.6979ZM120.886 37.8739V41.4161H124.087C125.049 41.3905 126.616 41.348 126.616 39.5854C126.616 37.9505 125.194 37.8824 124.377 37.8824H120.886V37.8739ZM120.886 44.4985V48.6196H123.849C125.262 48.5941 127.118 48.543 127.118 46.5931C127.118 44.5495 125.432 44.524 124.564 44.4985H120.886ZM131.333 34.6979H136.22L139.881 40.5305C140.094 40.0452 140.137 39.9515 140.579 39.2533L143.491 34.6979H148.327L141.899 43.6555V51.702H137.71V43.7832L131.324 34.6979H131.333Z" fill="black"/>
</g>
<defs>
<clipPath id="clip0_402_6747">
<rect width="149" height="77" fill="white"/>
</clipPath>
</defs>
</svg>
