<svg width="183" height="47" viewBox="0 0 183 47" fill="none" xmlns="http://www.w3.org/2000/svg">
<g clip-path="url(#clip0_402_6779)">
<path d="M31.3273 0L9.60161 37.262L8.70654 35.8134L29.6185 0H25.2245L6.50954 32.0308L5.69586 30.5822L23.5158 0H18.3081L4.55669 23.5L0 31.3065L9.1134 47L22.8648 23.5L36.5349 0H31.3273Z" fill="#353535"/>
<path d="M36.5349 40.3999C34.8261 40.3999 32.8732 40.2389 31.49 36.7784H31.2458V39.6756C32.7105 40.6413 34.582 41.1242 36.779 41.1242C40.3593 41.1242 42.5562 39.0318 42.5562 35.8931C42.5562 32.5129 39.7083 31.4667 37.5927 30.7424L36.0467 30.179C33.9311 29.4547 33.4429 28.328 33.4429 26.8793C33.4429 25.2698 34.9075 23.9017 36.8604 23.9017C38.6505 23.9017 40.2778 24.5454 41.1729 26.9599H41.417V24.3845C40.1965 23.6602 38.8946 23.2578 36.779 23.2578C33.7683 23.2578 31.4086 24.8674 31.4086 27.8451C31.4086 29.7766 32.4664 31.3057 34.9888 32.191L36.9417 32.8348C39.5455 33.7201 40.4406 35.0883 40.4406 36.7784C40.522 38.8708 39.2201 40.3999 36.5349 40.3999Z" fill="#353535"/>
<path d="M48.3334 30.8243H44.6719V31.2266H45.1601C46.1365 31.2266 46.3806 31.4681 46.3806 32.3534V39.1941C46.3806 40.0794 46.1365 40.3208 45.1601 40.3208H44.6719V40.7232H50.0422V40.3208H49.554C48.5776 40.3208 48.3334 40.0794 48.3334 39.1941V30.8243ZM46.0552 25.915C46.0552 26.6393 46.6247 27.2831 47.4384 27.2831C48.1707 27.2831 48.8217 26.7198 48.8217 25.915C48.8217 25.1907 48.1707 24.5469 47.4384 24.5469C46.6247 24.5469 46.0552 25.1102 46.0552 25.915Z" fill="#353535"/>
<path d="M53.1343 39.2743C53.1343 40.1596 52.8902 40.4011 51.9137 40.4011H51.4255V40.8034H56.796V40.4011H56.3077C55.3313 40.4011 55.0872 40.1596 55.0872 39.2743V23.8223H51.4255V24.2247H51.9137C52.8902 24.2247 53.1343 24.4661 53.1343 25.3514V39.2743Z" fill="#353535"/>
<path d="M63.6308 38.9526L61.0272 31.9509C60.8645 31.3876 61.1086 31.2266 62.1664 31.2266V30.8242H57.2028V31.2266C58.4233 31.2266 58.6674 31.5485 58.993 32.3533L62.7358 41.2865H63.224L66.8044 32.8362C67.1297 31.9509 67.7808 31.2266 69.0017 31.2266V30.8242H65.0145V31.2266H65.4213C66.3162 31.2266 66.4792 32.1119 66.0718 33.1581L63.6308 38.9526Z" fill="#353535"/>
<path d="M74.941 30.7423C76.4063 30.7423 77.2197 31.9495 77.3012 33.8005H71.8494C72.1747 32.3519 72.9882 30.7423 74.941 30.7423ZM79.1726 34.3638C79.1726 32.1909 77.3012 30.3398 74.8602 30.3398C71.768 30.3398 69.4899 32.5128 69.4899 35.6515C69.4899 39.0316 71.605 41.1241 74.941 41.1241C76.4063 41.1241 77.8709 40.6413 79.0911 39.0316L78.9282 38.9512C78.0332 40.0779 76.6501 40.4803 75.5922 40.4803C72.8259 40.4803 71.6865 38.0659 71.6865 35.571C71.6865 35.2491 71.6865 34.8467 71.768 34.4443H79.1726V34.3638Z" fill="#353535"/>
<path d="M82.5086 39.2731C82.5086 40.1584 82.2648 40.3998 81.2884 40.3998H80.8002V40.8022H86.6587V40.3998H85.9261C84.7873 40.3998 84.5429 40.1584 84.5429 39.0316V34.2029C84.6244 32.8347 85.7637 31.3861 86.9839 31.3861C88.1233 31.3861 87.9604 32.2714 88.8553 32.2714C89.3435 32.2714 89.5879 31.869 89.5879 31.4666C89.5879 30.9032 89.0182 30.3398 87.7166 30.3398C86.0075 30.3398 84.9496 31.708 84.5429 33.3981V30.8228H80.881V31.2251H81.3692C82.3463 31.2251 82.5901 31.4666 82.5901 32.3519V39.2731H82.5086Z" fill="#353535"/>
<path d="M108.466 25.9148C108.466 24.5466 109.604 24.3052 110.5 24.3052V23.8223H106.106L100.98 37.1014L95.5279 23.8223H91.134V24.3052C92.0289 24.3052 93.2491 24.6271 93.1683 25.9148L92.6801 38.3086C92.5986 39.8377 92.1919 40.4815 91.134 40.4815H90.3199V40.8839H95.7716V40.4815H94.9582C93.6565 40.4815 93.4121 39.9182 93.4936 38.389L93.9818 26.4781L100.085 40.9644H100.328L106.268 25.7538L106.757 39.3548C106.757 40.2401 106.35 40.4815 105.455 40.4815H104.722V40.8839H111.151V40.4815H110.419C109.442 40.4815 109.116 40.2401 109.116 39.3548L108.466 25.9148Z" fill="#353535"/>
<path d="M117.579 30.7423C119.043 30.7423 119.857 31.9495 119.938 33.8005H114.487C114.812 32.3519 115.707 30.7423 117.579 30.7423ZM121.892 34.3638C121.892 32.1909 120.02 30.3398 117.579 30.3398C114.487 30.3398 112.208 32.5128 112.208 35.6515C112.208 39.0316 114.324 41.1241 117.66 41.1241C119.125 41.1241 120.589 40.6413 121.81 39.0316L121.647 38.8707C120.752 39.9169 119.369 40.3998 118.311 40.3998C115.544 40.3998 114.406 37.9854 114.406 35.4905C114.406 35.1687 114.406 34.7663 114.487 34.3638H121.892Z" fill="#353535"/>
<path d="M125.228 39.2731C125.228 40.1584 124.983 40.3998 124.007 40.3998H123.519V40.8022H129.377V40.3998H128.564C127.424 40.3998 127.181 40.1584 127.181 39.0316V34.2029C127.262 32.8347 128.401 31.3861 129.622 31.3861C130.761 31.3861 130.598 32.2714 131.493 32.2714C131.981 32.2714 132.226 31.869 132.226 31.4666C132.226 30.9032 131.656 30.3398 130.354 30.3398C128.645 30.3398 127.587 31.708 127.181 33.3981V30.8228H123.519V31.2251H124.007C124.983 31.2251 125.228 31.4666 125.228 32.3519V39.2731Z" fill="#353535"/>
<path d="M134.91 35.4909C134.91 33.479 135.805 30.8231 138.246 30.8231C140.607 30.8231 139.874 32.7547 141.257 32.7547C141.665 32.7547 141.99 32.4327 141.99 32.0303C141.99 30.8231 139.712 30.2598 138.409 30.2598C135.317 30.2598 132.795 32.5132 132.795 35.5714C132.795 38.9516 134.91 41.1245 138.246 41.1245C139.712 41.1245 141.176 40.6416 142.234 39.032L141.99 38.8711C141.095 39.9978 139.874 40.4002 138.898 40.4002C136.131 40.4807 134.91 38.0663 134.91 35.4909Z" fill="#353535"/>
<path d="M142.966 30.8242V31.2266H143.454C144.431 31.2266 144.675 31.4681 144.675 32.3533V37.504C144.675 39.7574 146.139 41.1256 148.255 41.1256C149.801 41.1256 151.184 40.0794 151.754 38.5503V40.8037H155.416V40.4013H154.928C153.951 40.4013 153.707 40.1598 153.707 39.2746V30.8242H150.046V31.2266H150.534C151.51 31.2266 151.754 31.4681 151.754 32.3533V37.9869C151.429 39.1136 150.289 40.1598 149.15 40.1598C147.605 40.1598 146.709 39.1136 146.709 37.5845V30.8242H142.966Z" fill="#353535"/>
<path d="M158.589 39.2731C158.589 40.1584 158.345 40.3998 157.369 40.3998H156.88V40.8022H162.739V40.3998H162.006C160.868 40.3998 160.623 40.1584 160.623 39.0316V34.2029C160.705 32.8347 161.844 31.3861 163.064 31.3861C164.204 31.3861 164.041 32.2714 164.936 32.2714C165.424 32.2714 165.668 31.869 165.668 31.4666C165.668 30.9032 165.099 30.3398 163.797 30.3398C162.088 30.3398 161.03 31.708 160.623 33.3981V30.8228H156.962V31.2251H157.45C158.427 31.2251 158.67 31.4666 158.67 32.3519V39.2731H158.589Z" fill="#353535"/>
<path d="M172.748 38.8707L170.144 31.869C169.899 31.3056 170.225 31.1446 171.283 31.1446V30.7422H166.319V31.1446C167.54 31.1446 167.784 31.4665 168.109 32.1908L171.771 40.8826L170.469 44.1018C169.655 45.9528 169.167 46.1942 168.598 46.1942C167.784 46.1942 167.946 44.9871 166.97 44.9871C166.482 44.9871 166.156 45.309 166.156 45.7918C166.156 46.5162 167.214 46.9991 168.109 46.9991C169.004 46.9991 170.062 46.8381 171.039 44.5042L176.002 32.8347C176.327 31.9494 176.897 31.2251 178.118 31.2251V30.8227H174.049V31.2251H174.456C175.351 31.2251 175.595 32.1104 175.107 33.1566L172.748 38.8707Z" fill="#353535"/>
<path d="M179.013 38.2285V39.1942H178.85C178.85 39.0333 178.769 38.9528 178.769 38.8724C178.769 38.7918 178.688 38.7114 178.688 38.6309C178.606 38.5504 178.606 38.5504 178.443 38.4699C178.362 38.4699 178.199 38.3894 178.118 38.3894V40.4015C178.118 40.4819 178.118 40.5624 178.199 40.5624C178.281 40.6429 178.362 40.6429 178.443 40.6429V40.8038H177.223V40.6429C177.385 40.6429 177.467 40.6429 177.467 40.5624C177.548 40.4819 177.548 40.4819 177.548 40.4015V38.3894C177.385 38.3894 177.304 38.3894 177.223 38.4699C177.141 38.4699 177.06 38.5504 176.979 38.6309C176.897 38.7114 176.897 38.7918 176.816 38.8724C176.816 38.9528 176.735 39.1138 176.735 39.1942H176.572V38.2285H179.013ZM180.152 40.4819C180.152 40.5624 180.152 40.6429 180.234 40.6429C180.314 40.7233 180.396 40.7233 180.477 40.7233V40.8843H179.582V40.7233C179.745 40.7233 179.826 40.7233 179.826 40.6429C179.908 40.5624 179.908 40.5624 179.908 40.4819V38.6309C179.908 38.5504 179.908 38.4699 179.826 38.4699C179.745 38.3894 179.664 38.3894 179.582 38.3894V38.2285H180.477L181.291 40.0795L182.024 38.2285H182.918V38.3894C182.756 38.3894 182.675 38.3894 182.675 38.4699C182.593 38.5504 182.593 38.5504 182.593 38.6309V40.4819C182.593 40.5624 182.593 40.6429 182.675 40.6429C182.756 40.7233 182.837 40.7233 182.918 40.7233V40.8843H181.698V40.7233C181.861 40.7233 181.942 40.7233 181.942 40.6429C182.024 40.5624 182.024 40.5624 182.024 40.4819V38.7918L181.129 40.8843H180.966L180.071 38.7918V40.4819H180.152Z" fill="#353535"/>
</g>
<defs>
<clipPath id="clip0_402_6779">
<rect width="183" height="47" fill="white"/>
</clipPath>
</defs>
</svg>
