<svg width="203" height="31" viewBox="0 0 203 31" fill="none" xmlns="http://www.w3.org/2000/svg">
<path d="M20.0769 19.8891L10.0385 9.94453L20.0769 0H10.0385L0 9.94453L5.01923 14.9727L10.0385 19.8891L15.0577 24.8055L20.0769 19.8891Z" fill="#282828"/>
<path d="M27.2154 14.9719L22.1962 9.94374L17.1769 5.02734L12.2692 9.94374L22.1962 19.8883L12.1577 29.8328H22.1962L27.2154 24.9164L32.2346 19.8883L27.2154 14.9719Z" fill="#282828"/>
<path d="M44.7269 9.94476C43.2769 9.94476 42.05 10.3917 41.1577 11.3973C40.2654 12.403 39.8192 13.7438 39.8192 15.5316C39.8192 17.3194 40.2654 18.6602 41.0462 19.6658C41.9385 20.6714 43.0538 21.1184 44.6154 21.1184C45.6192 21.1184 46.6231 20.8949 47.85 20.5597V22.0123C46.8462 22.3475 45.7308 22.571 44.3923 22.571C42.3846 22.571 40.8231 22.0123 39.7077 20.7832C38.5923 19.5541 38.0346 17.7663 38.0346 15.5316C38.0346 14.079 38.2577 12.8499 38.8154 11.8443C39.3731 10.8386 40.1538 9.94476 41.0462 9.38608C41.9385 8.8274 43.1654 8.49219 44.6154 8.49219C46.0654 8.49219 47.2923 8.71566 48.4077 9.27434L47.7385 10.6152C46.8462 10.28 45.8423 9.94476 44.7269 9.94476Z" fill="#282828"/>
<path d="M58.6692 18.7723C58.6692 20.0014 58.2231 20.8953 57.3308 21.5657C56.4385 22.2362 55.3231 22.5714 53.7615 22.5714C52.0885 22.5714 50.8615 22.3479 49.9692 21.9009V20.3366C50.5269 20.5601 51.1962 20.7836 51.7538 20.8953C52.3115 21.0071 53.0923 21.1188 53.7615 21.1188C54.8769 21.1188 55.6577 20.8953 56.1038 20.5601C56.6615 20.1132 56.8846 19.5545 56.8846 18.8841C56.8846 18.4371 56.7731 17.9902 56.55 17.7667C56.3269 17.4315 55.9923 17.208 55.5462 16.8728C55.1 16.6493 54.4308 16.3141 53.5385 15.9789C52.3115 15.532 51.3077 14.9733 50.8615 14.3029C50.3038 13.6325 50.0808 12.8503 50.0808 11.8447C50.0808 10.8391 50.5269 9.94517 51.3077 9.27475C52.0885 8.60433 53.2038 8.38086 54.4308 8.38086C55.7692 8.38086 56.9962 8.60433 58.2231 9.16301L57.7769 10.5038C56.6615 10.0569 55.5462 9.83343 54.4308 9.83343C53.5385 9.83343 52.9808 10.0569 52.4231 10.3921C51.9769 10.7273 51.7538 11.286 51.7538 11.9564C51.7538 12.4034 51.8654 12.8503 51.9769 13.0738C52.2 13.409 52.4231 13.6325 52.8692 13.8559C53.3154 14.0794 53.8731 14.4146 54.7654 14.7498C56.2154 15.3085 57.2192 15.8672 57.7769 16.4259C58.4462 17.0963 58.6692 17.8784 58.6692 18.7723Z" fill="#282828"/>
<path d="M69.2654 18.7723C69.2654 20.0014 68.8192 20.8953 67.9269 21.5657C67.0346 22.2362 65.9192 22.5714 64.3577 22.5714C62.6846 22.5714 61.4577 22.3479 60.5654 21.9009V20.3366C61.1231 20.5601 61.7923 20.7836 62.35 20.8953C62.9077 21.0071 63.6885 21.1188 64.3577 21.1188C65.4731 21.1188 66.2538 20.8953 66.7 20.5601C67.2577 20.1132 67.4808 19.5545 67.4808 18.8841C67.4808 18.4371 67.3692 17.9902 67.1462 17.7667C66.9231 17.4315 66.5885 17.208 66.1423 16.8728C65.6962 16.6493 65.0269 16.3141 64.1346 15.9789C62.9077 15.532 61.9038 14.9733 61.4577 14.3029C60.9 13.6325 60.6769 12.8503 60.6769 11.8447C60.6769 10.8391 61.1231 9.94517 61.9038 9.27475C62.6846 8.60433 63.8 8.38086 65.0269 8.38086C66.3654 8.38086 67.5923 8.60433 68.8192 9.16301L68.3731 10.5038C67.2577 10.0569 66.1423 9.83343 65.0269 9.83343C64.1346 9.83343 63.5769 10.0569 63.0192 10.3921C62.5731 10.7273 62.35 11.286 62.35 11.9564C62.35 12.4034 62.4615 12.8503 62.5731 13.0738C62.7962 13.409 63.0192 13.6325 63.4654 13.8559C63.9115 14.0794 64.4692 14.4146 65.3615 14.7498C66.8115 15.3085 67.8154 15.8672 68.3731 16.4259C68.9308 17.0963 69.2654 17.8784 69.2654 18.7723Z" fill="#282828"/>
<path d="M83.2077 15.3073C83.2077 17.542 82.5385 19.3298 81.3115 20.5589C80.0846 21.788 78.3 22.4584 75.9577 22.4584H71.4962V8.71484H76.1808C78.4115 8.71484 80.0846 9.27353 81.3115 10.3909C82.5385 11.5083 83.2077 13.1843 83.2077 15.3073ZM79.4154 15.419C79.4154 14.1899 79.1923 13.1843 78.6346 12.6256C78.1885 12.0669 77.4077 11.7317 76.4038 11.7317H75.2885V19.4415H76.0692C77.1846 19.4415 77.9654 19.1063 78.5231 18.4359C79.1923 17.7655 79.4154 16.7599 79.4154 15.419Z" fill="#282828"/>
<path d="M90.5692 22.683C88.7846 22.683 87.4462 22.236 86.4423 21.2304C85.4385 20.3365 84.9923 18.9957 84.9923 17.2079C84.9923 15.4201 85.4385 14.0793 86.3308 13.0737C87.2231 12.068 88.5615 11.6211 90.2346 11.6211C91.7962 11.6211 93.0231 12.068 93.9154 12.8502C94.8077 13.6323 95.2538 14.8614 95.2538 16.4258V18.1018H88.6731C88.6731 18.6605 88.8962 19.1074 89.3423 19.5544C89.7885 19.8896 90.3462 20.113 91.0154 20.113C91.6846 20.113 92.2423 20.0013 92.8 19.8896C93.3577 19.7778 93.9154 19.5544 94.5846 19.2192V21.9008C94.0269 22.236 93.4692 22.3478 92.8 22.4595C92.1308 22.5712 91.4615 22.683 90.5692 22.683ZM90.3462 14.191C89.9 14.191 89.5654 14.3028 89.2308 14.638C88.8962 14.8614 88.7846 15.3084 88.6731 15.8671H91.7962C91.7962 15.3084 91.6846 14.9732 91.35 14.638C91.2385 14.3028 90.9038 14.191 90.3462 14.191Z" fill="#282828"/>
<path d="M105.515 19.2183C105.515 20.3357 105.181 21.2296 104.4 21.7883C103.619 22.347 102.504 22.6822 101.054 22.6822C100.273 22.6822 99.6038 22.6822 99.0461 22.5704C98.4885 22.4587 97.8192 22.347 97.2615 22.1235V19.2183C97.8192 19.4418 98.4885 19.6653 99.1577 19.8888C99.8269 20.0005 100.385 20.1122 100.942 20.1122C101.723 20.1122 102.169 19.8888 102.169 19.5536C102.169 19.3301 102.058 19.2183 101.835 19.1066C101.612 18.9949 100.942 18.6597 99.9385 18.2127C98.9346 17.7658 98.2654 17.3188 97.9308 16.8719C97.5962 16.3132 97.3731 15.7545 97.3731 14.9724C97.3731 13.9667 97.7077 13.1846 98.4885 12.6259C99.2692 12.0672 100.273 11.8438 101.723 11.8438C102.392 11.8438 103.062 11.9555 103.731 12.0672C104.4 12.179 104.958 12.4024 105.627 12.7376L104.623 15.0841C104.177 14.8606 103.619 14.6372 103.062 14.5254C102.504 14.4137 102.058 14.3019 101.723 14.3019C101.165 14.3019 100.831 14.4137 100.831 14.7489C100.831 14.9724 100.942 15.0841 101.165 15.1958C101.388 15.3076 101.946 15.531 102.95 15.978C103.731 16.3132 104.288 16.5367 104.623 16.8719C104.958 17.2071 105.292 17.5423 105.404 17.8775C105.404 18.101 105.515 18.6597 105.515 19.2183Z" fill="#282828"/>
<path d="M107.523 9.16237C107.523 8.60369 107.635 8.15675 107.969 7.93327C108.304 7.7098 108.75 7.48633 109.419 7.48633C110.088 7.48633 110.646 7.59806 110.869 7.93327C111.204 8.15675 111.315 8.60369 111.315 9.16237C111.315 10.2797 110.646 10.7267 109.308 10.7267C108.081 10.8384 107.523 10.2797 107.523 9.16237ZM111.204 22.459H107.523V11.844H111.204V22.459Z" fill="#282828"/>
<path d="M123.808 11.8446V13.6323L122.358 14.191C122.581 14.5262 122.692 14.9732 122.692 15.4201C122.692 16.5375 122.246 17.4314 121.465 18.1018C120.685 18.7722 119.458 18.9957 117.896 18.9957C117.45 18.9957 117.227 18.9957 117.004 18.884C116.892 18.9957 116.892 19.2192 116.892 19.3309C116.892 19.5544 117.004 19.6661 117.338 19.7778C117.673 19.8896 118.008 19.8896 118.454 19.8896H120.238C122.581 19.8896 123.808 20.8952 123.808 22.9065C123.808 24.2473 123.25 25.2529 122.135 25.9233C121.019 26.5938 119.458 27.0407 117.45 27.0407C116 27.0407 114.773 26.8172 113.992 26.2585C113.212 25.8116 112.765 25.0294 112.765 24.1356C112.765 22.9065 113.546 22.0126 115.108 21.6774C114.773 21.5656 114.55 21.3421 114.215 21.0069C113.992 20.6717 113.881 20.4483 113.881 20.113C113.881 19.7778 113.992 19.4426 114.104 19.2192C114.327 18.9957 114.662 18.6605 115.219 18.3253C114.662 18.1018 114.215 17.6549 113.881 17.2079C113.546 16.6492 113.435 16.0905 113.435 15.3084C113.435 14.191 113.881 13.2971 114.662 12.6267C115.442 11.9563 116.558 11.6211 118.008 11.6211C118.231 11.6211 118.565 11.6211 119.012 11.7328C119.458 11.7328 119.792 11.8446 120.015 11.8446H123.808ZM115.777 23.8003C115.777 24.1356 115.888 24.359 116.223 24.5825C116.558 24.806 117.004 24.806 117.562 24.806C118.454 24.806 119.123 24.6942 119.681 24.4708C120.238 24.2473 120.462 23.9121 120.462 23.5769C120.462 23.2417 120.35 23.1299 120.015 23.0182C119.681 22.9065 119.235 22.7947 118.565 22.7947H117.115C116.669 22.7947 116.446 22.9065 116.112 23.0182C115.888 23.2417 115.777 23.4651 115.777 23.8003ZM116.892 15.3084C116.892 16.4258 117.227 16.9844 118.008 16.9844C118.342 16.9844 118.677 16.8727 118.788 16.5375C119.012 16.314 119.123 15.8671 119.123 15.3084C119.123 14.191 118.788 13.6323 118.008 13.6323C117.338 13.6323 116.892 14.191 116.892 15.3084Z" fill="#282828"/>
<path d="M132.062 22.4587V16.6484C132.062 15.978 131.95 15.4193 131.727 15.0841C131.504 14.7489 131.169 14.5254 130.723 14.5254C130.054 14.5254 129.608 14.7489 129.385 15.3076C129.162 15.7545 128.938 16.6484 128.938 17.8775V22.5704H125.258V11.9555H128.046L128.492 13.2963H128.715C129.05 12.8494 129.496 12.4024 130.054 12.179C130.612 11.9555 131.281 11.8438 131.95 11.8438C133.177 11.8438 134.069 12.179 134.738 12.8494C135.408 13.5198 135.742 14.5254 135.742 15.7545V22.6822H132.062V22.4587Z" fill="#282828"/>
<path d="M147.454 22.4584L145.781 18.1007H140.315L138.642 22.4584H137.081L142.546 8.71484H143.885L149.238 22.4584H147.454ZM145.223 16.6481L143.662 12.4021C143.438 11.8435 143.215 11.173 142.992 10.3909C142.881 10.9496 142.658 11.62 142.435 12.4021L140.873 16.6481H145.223Z" fill="#282828"/>
<path d="M159.165 22.459L157.269 16.4253C157.158 16.09 156.935 15.1962 156.6 13.9671H156.488C156.265 15.0844 156.042 15.8666 155.819 16.537L153.923 22.5708H152.138L149.35 12.291H151.023C151.692 14.8609 152.138 16.8722 152.585 18.213C152.919 19.5539 153.142 20.4478 153.142 20.8947H153.254C153.365 20.5595 153.477 20.1126 153.588 19.5539C153.7 18.9952 153.923 18.5482 154.035 18.213L155.931 12.291H157.604L159.388 18.213C159.723 19.3304 159.946 20.2243 160.058 20.8947H160.169C160.169 20.6712 160.281 20.336 160.392 19.8891C160.504 19.4421 161.173 16.8722 162.288 12.291H163.85L161.062 22.5708H159.165V22.459Z" fill="#282828"/>
<path d="M171.992 22.4583L171.658 21.0057H171.546C170.988 21.6761 170.542 22.1231 169.985 22.3466C169.427 22.57 168.869 22.6818 168.088 22.6818C167.085 22.6818 166.304 22.4583 165.746 21.8996C165.188 21.3409 164.854 20.6705 164.854 19.6649C164.854 17.5419 166.527 16.5363 169.873 16.4245L171.658 16.3128V15.6424C171.658 14.8602 171.435 14.1898 171.1 13.8546C170.765 13.5194 170.208 13.2959 169.427 13.2959C168.535 13.2959 167.642 13.5194 166.527 14.0781L166.081 12.849C166.638 12.6255 167.085 12.402 167.754 12.1786C168.312 12.0668 168.981 11.9551 169.538 11.9551C170.765 11.9551 171.658 12.1786 172.215 12.7372C172.773 13.2959 173.108 14.1898 173.108 15.3072V22.3466H171.992V22.4583ZM168.423 21.3409C169.427 21.3409 170.096 21.1175 170.654 20.5588C171.212 20.0001 171.435 19.3297 171.435 18.324V17.4302L169.873 17.5419C168.646 17.5419 167.754 17.7654 167.196 18.1006C166.638 18.4358 166.415 18.9945 166.415 19.6649C166.415 20.2236 166.638 20.6705 166.973 20.894C167.419 21.2292 167.865 21.3409 168.423 21.3409Z" fill="#282828"/>
<path d="M181.027 11.9551C181.473 11.9551 181.919 11.9551 182.254 12.0668L182.031 13.5194C181.585 13.4076 181.25 13.4076 180.915 13.4076C180.135 13.4076 179.354 13.7429 178.796 14.4133C178.238 15.0837 177.904 15.9776 177.904 16.9832V22.4583H176.342V12.1786H177.569L177.792 14.0781H177.904C178.238 13.4076 178.796 12.849 179.242 12.5138C179.8 12.1786 180.358 11.9551 181.027 11.9551Z" fill="#282828"/>
<path d="M191.177 21.1189C190.396 22.1245 189.281 22.6832 187.831 22.6832C186.492 22.6832 185.488 22.2362 184.708 21.3424C183.927 20.4485 183.592 19.1076 183.592 17.4316C183.592 15.7555 183.927 14.4147 184.708 13.5208C185.488 12.6269 186.492 12.0682 187.831 12.0682C189.169 12.0682 190.285 12.6269 191.065 13.6326H191.177L191.065 12.8504V12.18V7.82227H192.627V22.4597H191.4L191.177 21.1189ZM188.054 21.3424C189.169 21.3424 189.838 21.0071 190.396 20.4485C190.842 19.8898 191.065 18.8842 191.065 17.6551V17.3198C191.065 15.8673 190.842 14.8617 190.285 14.1912C189.838 13.5208 189.058 13.2973 187.942 13.2973C187.05 13.2973 186.381 13.6326 185.823 14.4147C185.377 15.0851 185.042 16.0907 185.042 17.4316C185.042 18.7724 185.265 19.778 185.712 20.4485C186.381 21.0071 187.05 21.3424 188.054 21.3424Z" fill="#282828"/>
<path d="M202.554 19.6649C202.554 20.6705 202.219 21.3409 201.438 21.8996C200.769 22.4583 199.765 22.6818 198.427 22.6818C197.088 22.6818 195.973 22.4583 195.192 22.0113V20.5588C195.638 20.7822 196.196 21.0057 196.754 21.1175C197.312 21.2292 197.869 21.3409 198.427 21.3409C199.208 21.3409 199.877 21.2292 200.323 21.0057C200.769 20.7822 200.992 20.3353 200.992 19.7766C200.992 19.3297 200.769 18.9945 200.435 18.771C200.1 18.4358 199.431 18.1006 198.427 17.7654C197.423 17.4302 196.754 17.0949 196.419 16.8715C195.973 16.648 195.75 16.3128 195.527 15.9776C195.304 15.6424 195.192 15.1954 195.192 14.7485C195.192 13.9663 195.527 13.2959 196.196 12.7372C196.865 12.1786 197.758 11.9551 198.985 11.9551C200.1 11.9551 201.215 12.1786 202.219 12.6255L201.662 13.8546C200.658 13.4076 199.654 13.1842 198.873 13.1842C198.092 13.1842 197.535 13.2959 197.2 13.5194C196.865 13.7429 196.642 14.0781 196.642 14.525C196.642 14.7485 196.754 15.0837 196.865 15.1954C196.977 15.4189 197.2 15.5306 197.535 15.7541C197.869 15.9776 198.427 16.2011 199.319 16.5363C200.546 16.9832 201.327 17.4302 201.773 17.8771C202.331 18.4358 202.554 18.9945 202.554 19.6649Z" fill="#282828"/>
</svg>
