<svg width="603" height="609" viewBox="0 0 603 609" fill="none" xmlns="http://www.w3.org/2000/svg">
<mask id="mask0_459_6801" style="mask-type:alpha" maskUnits="userSpaceOnUse" x="0" y="0" width="603" height="609">
<rect x="0.0234375" y="0.393555" width="602.2" height="608.606" fill="#D9D9D9"/>
</mask>
<g mask="url(#mask0_459_6801)">
<path d="M256.864 596.959C256.947 597.003 257.036 597.033 257.128 597.048C257.415 597.086 257.708 597.037 257.967 596.906C258.226 596.774 258.439 596.568 258.578 596.313C281.795 554.052 320.09 522.097 365.825 506.823C411.56 491.548 461.372 494.076 505.325 513.903C505.59 514.023 505.884 514.061 506.171 514.012C506.457 513.963 506.722 513.829 506.931 513.627C507.129 513.417 507.265 513.156 507.322 512.874C507.379 512.591 507.356 512.297 507.255 512.027C488.699 467.537 487.595 417.688 504.162 372.42C520.73 327.153 553.752 289.793 596.644 267.793C596.882 267.654 597.08 267.454 597.215 267.213C597.35 266.972 597.418 266.699 597.412 266.423C597.373 266.137 597.255 265.866 597.071 265.644C596.887 265.421 596.644 265.254 596.369 265.163C550.014 251.934 510.349 221.718 485.285 180.54C460.221 139.362 451.6 90.2497 461.142 42.9975C461.199 42.713 461.169 42.418 461.057 42.1504C460.945 41.8829 460.755 41.6552 460.512 41.4967C460.269 41.3382 459.984 41.2563 459.694 41.2614C459.404 41.2666 459.122 41.3586 458.885 41.5257C419.644 69.5309 371.288 81.7151 323.462 75.6481C275.635 69.5812 231.854 45.709 200.848 8.79269C200.663 8.58424 200.422 8.43351 200.154 8.35858C199.885 8.28364 199.601 8.28758 199.335 8.37007C199.068 8.45256 198.831 8.61004 198.652 8.82363C198.473 9.03724 198.359 9.298 198.325 9.57455C195.739 57.7116 175.104 103.105 140.535 136.704C105.966 170.302 60.0033 189.635 11.8121 190.849C11.5198 190.854 11.2361 190.948 10.9987 191.119C10.7613 191.289 10.5814 191.528 10.4835 191.804C10.3956 192.078 10.3862 192.372 10.4565 192.651C10.5269 192.931 10.6741 193.185 10.8815 193.385C46.867 225.426 69.4604 269.848 74.1605 317.801C78.8605 365.754 65.3221 413.717 36.2426 452.135C36.0728 452.366 35.9758 452.642 35.964 452.928C35.9523 453.214 36.0265 453.497 36.1769 453.74C36.326 453.971 36.5375 454.155 36.787 454.27C37.0365 454.385 37.3136 454.427 37.586 454.391C85.0851 446.192 133.929 456.198 174.379 482.413C214.828 508.627 243.911 549.125 255.827 595.831C255.875 596.098 255.998 596.346 256.182 596.545C256.366 596.745 256.602 596.889 256.864 596.959ZM488.121 504.056C445.497 489.836 399.265 490.809 357.277 506.81C315.289 522.811 280.135 552.852 257.784 591.833C245.156 545.836 216.065 506.083 176.042 480.134C136.018 454.185 87.8546 443.849 40.7086 451.093C68.7811 412.543 81.7138 365.023 77.0495 317.564C72.3853 270.104 50.449 226.012 15.4088 193.665C63.0599 191.584 108.285 172.067 142.489 138.825C176.693 105.583 197.491 60.9319 200.93 13.3595C232.254 49.3378 275.713 72.543 323.036 78.5585C370.358 84.5741 418.241 72.9802 457.57 45.9832C448.992 92.9027 457.953 141.339 482.75 182.084C507.548 222.828 546.452 253.04 592.068 266.977C550.033 289.52 517.749 326.726 501.354 371.518C484.959 416.31 485.596 465.565 503.145 509.918C498.23 507.686 493.213 505.762 488.151 504.066L488.121 504.056Z" fill="black"/>
<mask id="path-3-inside-1_459_6801" fill="white">
<path d="M324.835 255.768C322.427 233.808 313.093 217.128 297.98 212.066C271.646 203.245 238.015 233.017 222.77 278.532C207.525 324.046 216.483 368.083 242.773 376.889C257.886 381.951 275.442 374.277 290.532 358.179"/>
</mask>
<path d="M321 256.188C318.655 234.796 309.729 220.069 296.755 215.724L299.205 208.408C316.458 214.186 326.199 232.821 328.669 255.347L321 256.188ZM296.755 215.724C285.446 211.936 271.87 216.231 258.772 227.813C245.76 239.318 233.875 257.524 226.428 279.757L219.112 277.306C226.91 254.025 239.463 234.587 253.662 222.033C267.773 209.555 284.18 203.375 299.205 208.408L296.755 215.724ZM226.428 279.757C218.982 301.989 217.514 323.683 220.976 340.707C224.462 357.846 232.712 369.451 243.998 373.231L241.548 380.547C226.544 375.521 217.17 360.704 213.416 342.245C209.638 323.67 211.314 300.589 219.112 277.306L226.428 279.757ZM243.998 373.231C256.976 377.578 273.029 371.211 287.718 355.54L293.347 360.817C277.855 377.344 258.796 386.324 241.548 380.547L243.998 373.231Z" fill="black" mask="url(#path-3-inside-1_459_6801)"/>
<path d="M240.289 243.133C244.605 241.392 249.39 241.195 253.835 242.577C269.606 247.86 274.978 274.278 265.834 301.578C256.69 328.877 236.489 346.73 220.718 341.447C219.354 340.986 218.049 340.363 216.832 339.593C213.691 322.106 215.416 300.49 222.771 278.53C226.918 265.966 232.815 254.05 240.289 243.133Z" fill="black"/>
<path d="M142.443 321.17C139.601 329.655 143.53 338.424 151.518 341.099C159.755 343.858 167.925 339.142 170.767 330.657C173.099 323.693 169.845 313.734 161.608 310.976C153.371 308.217 145.202 312.933 142.443 321.17ZM184.321 199.492C180.952 211.251 172.72 255.453 168.324 278.876C167.714 282.398 167.196 286.52 169.507 287.294C171.312 287.899 173.375 286.014 175.697 281.639C186.287 260.274 205.803 223.382 210.923 208.972C217.052 191.499 211.551 183.148 205.377 181.08C195.116 177.611 187.261 190.714 184.321 199.492Z" fill="black"/>
<path d="M299.213 304.136C291.679 326.63 290.158 348.671 293.699 366.083C297.252 383.552 305.783 395.959 318 400.051C330.216 404.143 344.5 399.377 357.858 387.572C371.171 375.806 383.234 357.297 390.768 334.802C398.303 312.307 399.823 290.266 396.282 272.855C392.729 255.386 384.198 242.978 371.982 238.886C359.765 234.794 345.482 239.56 332.124 251.365C318.81 263.131 306.748 281.641 299.213 304.136Z" stroke="black" stroke-width="3.85762"/>
<path d="M314.888 268.121C319.205 266.382 323.989 266.186 328.433 267.565C344.204 272.848 349.577 299.266 340.433 326.566C331.289 353.866 311.088 371.718 295.317 366.436C293.957 365.977 292.657 365.356 291.445 364.586C288.304 347.1 290.029 325.483 297.384 303.523C301.526 290.959 307.419 279.041 314.888 268.121Z" fill="black"/>
</g>
</svg>
