<svg width="255" height="261" viewBox="0 0 255 261" fill="none" xmlns="http://www.w3.org/2000/svg">
<g clip-path="url(#clip0_164_3690)">
<path d="M255 125.71C213.17 110.512 190.075 65.7363 201.929 22.8687C163.982 46.1085 114.59 36.2265 88.4291 0.242188C82.9108 44.4047 44.4189 76.9132 0 74.8687C31.066 106.696 32.4967 157.06 3.20198 190.591C47.4846 186.161 87.6797 216.42 95.6505 260.242C119.768 222.827 168.547 210.287 207.72 231.346C193.481 189.228 214.056 143.225 255 125.71Z" fill="#FE490C"/>
<path d="M115 108.399C119.088 99.5394 125.355 93.8828 132.372 93.8828C144.635 93.8828 154.514 111.057 154.514 132.252C154.514 153.448 144.567 170.622 132.372 170.622C125.355 170.622 119.088 164.965 115 156.106" fill="white"/>
<path d="M152.199 115.009C150.496 113.646 148.589 112.896 146.613 112.896C139.255 112.896 133.328 123.187 133.328 135.932C133.328 148.676 139.255 158.967 146.613 158.967C147.226 158.967 147.907 158.899 148.52 158.763C152.267 151.879 154.584 142.611 154.584 132.388C154.584 126.05 153.698 120.189 152.199 115.009Z" fill="black"/>
<path d="M182.17 161.421C182.17 165.374 179.308 168.509 175.561 168.509C171.746 168.509 168.953 165.374 168.953 161.421C168.953 158.15 171.678 154.47 175.561 154.47C179.445 154.47 182.17 157.605 182.17 161.421ZM181.693 104.583C181.42 109.967 178.695 129.663 177.265 140.09C176.992 141.657 176.651 143.429 175.561 143.429C174.744 143.429 174.131 142.339 173.79 140.158C172.359 129.731 169.362 111.466 169.226 104.787C169.089 96.6089 172.564 93.8828 175.425 93.8828C180.262 93.8828 181.693 100.494 181.693 104.583Z" fill="white"/>
<path d="M97.6257 170.622C109.854 170.622 119.767 153.443 119.767 132.252C119.767 111.061 109.854 93.8828 97.6257 93.8828C85.3974 93.8828 75.4844 111.061 75.4844 132.252C75.4844 153.443 85.3974 170.622 97.6257 170.622Z" fill="white"/>
<path d="M117.449 115.009C115.746 113.646 113.839 112.896 111.863 112.896C104.505 112.896 98.5781 123.187 98.5781 135.932C98.5781 148.676 104.505 158.967 111.863 158.967C112.476 158.967 113.157 158.899 113.77 158.763C117.517 151.879 119.834 142.611 119.834 132.388C119.834 126.05 118.948 120.189 117.449 115.009Z" fill="black"/>
</g>
<defs>
<clipPath id="clip0_164_3690">
<rect width="255" height="260" fill="white" transform="translate(0 0.242188)"/>
</clipPath>
</defs>
</svg>
