<svg width="276" height="233" viewBox="0 0 276 233" fill="none" xmlns="http://www.w3.org/2000/svg">
<g clip-path="url(#clip0_164_3909)">
<path d="M272.775 72.3726C269.886 67.3322 265.288 63.4922 259.814 61.5473C254.339 59.6023 248.35 59.6808 242.928 61.7685L240.601 62.6792C230.724 44.029 215.955 28.4206 197.879 17.529C179.802 6.63744 159.101 0.873992 137.997 0.857249C115.65 0.832347 93.7771 7.29639 75.0336 19.4644C58.3536 30.2651 44.7105 45.1492 35.3991 62.7042L33.0101 61.7685C28.6944 60.1209 23.9986 59.7362 19.4723 60.6594C14.9459 61.5826 10.776 63.7754 7.45012 66.9815C4.12428 70.1876 1.78003 74.2744 0.691587 78.7639C-0.396851 83.2534 -0.184513 87.9601 1.30378 92.3333L7.37931 110.142C7.49158 110.48 7.49158 110.845 7.37931 111.184L5.91346 115.999C4.65427 120.088 4.8895 124.492 6.57713 128.424C8.26477 132.355 11.2949 135.559 15.1266 137.463C17.9093 138.838 20.9961 139.482 24.0964 139.334C29.3107 165.704 43.5145 189.448 64.2838 206.513C85.0532 223.577 111.101 232.906 137.981 232.906C164.862 232.906 190.91 223.577 211.679 206.513C232.448 189.448 246.652 165.704 251.866 139.334C254.966 139.479 258.053 138.835 260.836 137.463C264.667 135.558 267.696 132.354 269.384 128.423C271.071 124.491 271.307 120.088 270.049 115.999L268.583 111.184C268.471 110.845 268.471 110.48 268.583 110.142L274.659 92.3333C275.781 89.0634 276.194 85.5918 275.869 82.1499C275.544 78.708 274.49 75.3748 272.775 72.3726Z" fill="white"/>
<path d="M137.997 197.713C123.822 197.69 109.901 193.948 97.625 186.861C85.3491 179.773 75.1479 169.589 68.0408 157.324L63.9801 159.663C71.4793 172.658 82.2677 183.45 95.2606 190.954C108.254 198.457 122.993 202.407 137.997 202.407C153.001 202.407 167.74 198.457 180.733 190.954C193.726 183.45 204.514 172.658 212.013 159.663L207.959 157.324C200.851 169.589 190.649 179.774 178.372 186.862C166.095 193.949 152.173 197.691 137.997 197.713Z" fill="#222222"/>
<path d="M166.235 123.31C172.553 123.31 177.675 112.438 177.675 99.0263C177.675 85.615 172.553 74.7429 166.235 74.7429C159.917 74.7429 154.795 85.615 154.795 99.0263C154.795 112.438 159.917 123.31 166.235 123.31Z" fill="#222222"/>
<path d="M109.765 123.31C116.084 123.31 121.205 112.437 121.205 99.0263C121.205 85.6152 116.084 74.7366 109.765 74.7366C103.446 74.7366 98.3314 85.6089 98.3314 99.0263C98.3314 112.444 103.453 123.31 109.765 123.31Z" fill="#222222"/>
<path d="M269.157 90.437C270.29 87.1155 270.452 83.5401 269.625 80.1298C268.797 76.7195 267.015 73.6156 264.487 71.1822C261.958 68.7487 258.789 67.0864 255.349 66.3902C251.91 65.694 248.343 65.9928 245.067 67.2514L237.757 70.1146C220.123 32.6883 182.041 6.7207 137.997 6.7207C93.9524 6.7207 55.8774 32.6696 38.2372 70.0958L30.9141 67.2265C27.6387 65.9721 24.0737 65.677 20.6366 66.3756C17.1995 67.0742 14.0326 68.7377 11.5068 71.1712C8.98096 73.6047 7.20083 76.7075 6.37482 80.1162C5.5488 83.5249 5.71108 87.0985 6.84272 90.4183L12.9245 108.227C13.4405 109.727 13.4668 111.352 12.9993 112.868L11.5335 117.683C10.8749 119.86 10.835 122.176 11.4181 124.374C12.0012 126.571 13.1843 128.563 14.8352 130.127C16.486 131.69 18.5393 132.763 20.7654 133.226C22.9915 133.689 25.3025 133.523 27.4397 132.747L28.8556 132.23C36.3409 185.774 82.4252 227.124 138.016 227.124C193.606 227.124 239.69 185.774 247.176 132.23L248.591 132.747C250.729 133.528 253.042 133.698 255.27 133.237C257.499 132.776 259.554 131.703 261.207 130.138C262.859 128.573 264.042 126.579 264.623 124.379C265.205 122.179 265.161 119.86 264.498 117.683L263.032 112.868C262.564 111.352 262.591 109.727 263.107 108.227L269.157 90.437ZM25.8179 128.362C24.4989 128.844 23.0718 128.948 21.6968 128.664C20.3218 128.38 19.0532 127.718 18.0335 126.753C17.0138 125.787 16.2833 124.557 15.924 123.2C15.5648 121.842 15.591 120.411 15.9997 119.068L17.4656 114.259C18.2225 111.8 18.1811 109.164 17.3471 106.73L11.2653 88.9213C10.42 86.446 10.2974 83.7812 10.9117 81.2387C11.526 78.6963 12.8519 76.3815 14.7342 74.5653C16.6165 72.7492 18.9772 71.5068 21.5399 70.9837C24.1027 70.4606 26.7615 70.6784 29.205 71.6116L36.3159 74.3999C35.399 76.5893 34.5444 78.8161 33.7709 81.0742C32.8172 79.6524 31.5249 78.49 30.0103 77.6919C28.4956 76.8937 26.8062 76.4848 25.0943 76.502C19.8858 76.502 15.8313 81.4297 15.3261 84.8231L19.9606 85.5092C20.1478 84.2616 22.3933 81.1865 25.0943 81.1865C29.785 81.1865 31.4443 85.9957 31.5316 88.3848C30.7332 91.3539 30.0575 94.3668 29.5044 97.4233H21.807V102.108H28.7745C28.1104 107.022 27.777 111.976 27.7765 116.935C27.7765 120.484 27.9511 123.996 28.2817 127.464L25.8179 128.362ZM137.984 222.458C79.7991 222.458 32.461 175.12 32.461 116.935C32.461 58.7494 79.7991 11.4052 137.984 11.4052C196.17 11.4052 243.514 58.7432 243.514 116.935C243.514 175.126 196.189 222.458 137.997 222.458H137.984ZM258.628 106.73C257.792 109.163 257.748 111.799 258.503 114.259L259.975 119.068C260.384 120.411 260.41 121.842 260.051 123.2C259.692 124.557 258.961 125.787 257.942 126.753C256.922 127.718 255.653 128.38 254.278 128.664C252.903 128.948 251.476 128.844 250.157 128.362L247.662 127.464C247.993 123.996 248.167 120.484 248.167 116.935C248.167 111.976 247.834 107.022 247.169 102.108H254.131V97.4233H246.439C245.891 94.3668 245.192 91.3539 244.412 88.3848C244.5 85.9957 246.153 81.1865 250.85 81.1865C253.55 81.1865 255.796 84.2616 255.983 85.5092L260.618 84.8231C260.112 81.4297 256.052 76.502 250.85 76.502C249.138 76.4848 247.448 76.8937 245.934 77.6919C244.419 78.49 243.127 79.6524 242.173 81.0742C241.395 78.8161 240.547 76.5914 239.628 74.3999L246.72 71.6178C249.164 70.683 251.823 70.4637 254.387 70.9854C256.951 71.5071 259.313 72.7483 261.197 74.5637C263.081 76.379 264.409 78.6935 265.026 81.2361C265.642 83.7788 265.522 86.4446 264.678 88.9213L258.628 106.73Z" fill="#222222"/>
<path d="M55.7152 115.631H57.7799V121.482C57.7799 121.753 57.8333 122.022 57.9371 122.272C58.0408 122.523 58.1929 122.75 58.3846 122.942C58.5764 123.134 58.804 123.286 59.0545 123.39C59.305 123.493 59.5734 123.547 59.8445 123.547C60.1157 123.547 60.3842 123.493 60.6347 123.39C60.8852 123.286 61.1128 123.134 61.3045 122.942C61.4963 122.75 61.6483 122.523 61.7521 122.272C61.8559 122.022 61.9093 121.753 61.9093 121.482V115.631H63.9801V121.482C63.9801 123.977 62.3833 125.549 59.8445 125.549C57.3058 125.549 55.7152 123.965 55.7152 121.482V115.631Z" fill="black"/>
<path d="M201.469 115.631H203.533V121.482C203.533 121.753 203.587 122.022 203.691 122.272C203.794 122.523 203.946 122.75 204.138 122.942C204.33 123.134 204.558 123.286 204.808 123.39C205.059 123.493 205.327 123.547 205.598 123.547C205.869 123.547 206.138 123.493 206.388 123.39C206.639 123.286 206.866 123.134 207.058 122.942C207.25 122.75 207.402 122.523 207.506 122.272C207.609 122.022 207.663 121.753 207.663 121.482V115.631H209.734V121.482C209.734 123.977 208.137 125.549 205.598 125.549C203.059 125.549 201.469 123.965 201.469 121.482V115.631Z" fill="black"/>
<path d="M212.531 123.472H214.733V117.409H212.531V115.631H219V117.421H216.798V123.484H219V125.275H212.531V123.472Z" fill="black"/>
<rect x="77.0127" y="115.043" width="2.08169" height="13.6066" transform="rotate(45 77.0127 115.043)" fill="black"/>
<rect x="67.3912" y="116.515" width="2.08169" height="13.6066" transform="rotate(-45 67.3912 116.515)" fill="black"/>
</g>
<defs>
<clipPath id="clip0_164_3909">
<rect width="276" height="232.136" fill="white" transform="translate(0 0.863525)"/>
</clipPath>
</defs>
</svg>
