<svg width="603" height="364" fill="none" xmlns="http://www.w3.org/2000/svg"><path d="m330.18 116.95-18.848-28.866a.813.813 0 0 0-.651-.569l-64.865-13.664a.95.95 0 0 0-.553.042.8.8 0 0 0-.681.671c-.323 1.545-.649 3.09-.978 4.636a.78.78 0 0 0 0 .152l-26.102-5.518a.918.918 0 0 0-.851.242.807.807 0 0 0-.63.662 8863.218 8863.218 0 0 0-5.586 26.306.954.954 0 0 0 .668 1.129.777.777 0 0 0 .255.094l26.2 5.518-17.92 84.691a.985.985 0 0 0 0 .39.802.802 0 0 0 .685.811l88.873 18.72a.947.947 0 0 0 .766-.153.813.813 0 0 0 .481-.615c6.617-31.277 13.235-62.548 19.852-93.813a.47.47 0 0 0 0-.106.85.85 0 0 0-.115-.76Zm-19.116-25.797c5.418 8.292 10.834 16.585 16.248 24.88l-20.592-4.338c1.444-6.846 2.892-13.693 4.344-20.542Zm-98.587 9.407 5.229-24.714 81.688 17.196c-1.745 8.238-3.488 16.478-5.229 24.719l-81.688-17.201Zm96.277 109.804-87.074-18.338c5.908-27.949 11.82-55.9 17.737-83.855 18.405 3.88 36.809 7.756 55.212 11.627a.962.962 0 0 0 .293.021.812.812 0 0 0 .877-.683c1.849-8.756 3.703-17.516 5.56-26.28.013-.095.013-.19 0-.285a.84.84 0 0 0-.272-1.028.846.846 0 0 0-.349-.152l-55.309-11.652v-.034c.268-1.274.54-2.547.808-3.82l63.274 13.324a91943.68 91943.68 0 0 0-4.854 22.952 1.125 1.125 0 0 0 0 .272.805.805 0 0 0 .153.596c.127.17.317.284.527.317l22.928 4.826c-6.506 30.731-13.01 61.461-19.511 92.192Z" fill="#000"/><path d="M302.597 168.16c-1.157-3.757-5.871-4.275-9.164-4.916a78.067 78.067 0 0 0-11.22-1.328 60.007 60.007 0 0 1-3.829-6.346 40.697 40.697 0 0 1-1.834-3.961 73.409 73.409 0 0 0 5.531-11.533c1.43-3.821 3.242-9.628-.927-12.476a5.314 5.314 0 0 0-3.587-1.032l-.349.026a1.03 1.03 0 0 0-.455.174 1.606 1.606 0 0 0-.174.068c-2.128.921-2.927 3.031-3.519 5.094-1.48 5.136-1.195 10.459.153 15.557a89.519 89.519 0 0 1-4.931 8.202 64.035 64.035 0 0 1-6.02 7.589c-3.982.264-7.969.756-11.679 2.297-2.863 1.189-8.743 4.767-6.701 8.698 1.953 3.769 7.067 2.577 10.152 1.222 4.573-2.016 8.373-6.083 11.751-9.64.425-.424.817-.849 1.217-1.312a81.657 81.657 0 0 1 14.218-.772c2.396 3.273 5.289 6.287 8.752 8.184.054.036.111.068.17.093a15.9 15.9 0 0 0 6.25 1.872c2.979.264 7.293-2.22 6.195-5.76Zm-44.248-.951a52.216 52.216 0 0 1-5.896 4.614c-1.651 1.117-4.532 3.443-6.531 2.123-.97-1.231.425-3.311 1.702-4.402 1.625-1.397 3.667-2.28 5.684-2.929a32.151 32.151 0 0 1 7.02-1.295 57.427 57.427 0 0 1-1.987 1.889h.008Zm15.7-28.81c.051-2.806.498-5.985 1.85-8.49a2.45 2.45 0 0 1 2.179-1.392c4.361.586-1.204 11.491-2.127 13.524a76.946 76.946 0 0 1-1.345 2.81 32.397 32.397 0 0 1-.557-6.452Zm-5.14 24.018a78.475 78.475 0 0 0 6.463-8.817 51.162 51.162 0 0 0 2.685 5.289 56.55 56.55 0 0 0 1.833 2.972 82.285 82.285 0 0 0-10.985.535l.004.021Zm22.213 8.023h-.038a20.666 20.666 0 0 1-3.08-2.097 28.558 28.558 0 0 1-4.31-4.407c2.378.162 4.744.425 7.092.803l1.392.216a.858.858 0 0 0 .297.085c2.153.289 4.957.993 5.131 3.6.192 2.942-4.922 2.445-6.488 1.778l.004.022Z" fill="#FF490C"/><path d="m497.695 206.958-21.954-106.374a.856.856 0 0 0-.315-.518.986.986 0 0 0-.187-.16L442.53 78.43a.907.907 0 0 0-.243-.115.945.945 0 0 0-.604-.063l-73.515 15.107a.812.812 0 0 0-.689.765.967.967 0 0 0 0 .483c.363 1.752.723 3.504 1.081 5.256a.74.74 0 0 0 .055.165l-29.833 6.13a.807.807 0 0 0-.689.738.925.925 0 0 0-.205.828c2.048 9.928 4.098 19.857 6.148 29.787a.858.858 0 0 0 .44.593.85.85 0 0 0 .739.027c.096.012.193.012.289 0l29.676-6.1 19.873 96.262a.8.8 0 0 0 .74.683c.15.035.306.035.455 0 33.586-6.899 67.166-13.803 100.74-20.711a.79.79 0 0 0 .681-.849.924.924 0 0 0 .026-.458Zm-25.69-106.9-23.761 4.882-4.893-23.708 28.654 18.826ZM345.679 136.14l-5.838-28.263L432.672 88.8c1.94 9.418 3.883 18.841 5.829 28.267l-92.822 19.073Zm51.054 90.799-19.677-95.307 62.836-12.913a.8.8 0 0 0 .681-.892 1.093 1.093 0 0 0 0-.28c-2.051-9.927-4.1-19.856-6.148-29.787a1.647 1.647 0 0 0-.081-.237.971.971 0 0 0-1.162-.76l-62.784 12.892a.952.952 0 0 0 0-.302c-.284-1.44-.58-2.882-.89-4.325l71.724-14.739c1.787 8.668 3.575 17.338 5.365 26.009a.804.804 0 0 0 .766.683c.14.03.285.03.425 0l26.115-5.365a.629.629 0 0 0 .128-.038 217094.45 217094.45 0 0 0 21.698 105.028c-33.018 6.772-66.021 13.549-99.008 20.333h.012ZM192.786 126.777v-.064a.819.819 0 0 0-.307-.705l-24.08-20.957a.793.793 0 0 0-.788-.378l-61.227 4.165a.972.972 0 0 0-.477.165.788.788 0 0 0-.514.849c.097 1.456.2 2.921.297 4.377a.402.402 0 0 1 0 .085l-24.544 1.668a.945.945 0 0 0-.753.424.787.787 0 0 0-.426.807l1.702 24.803a.962.962 0 0 0 .894.913.99.99 0 0 0 .302.025l24.676-1.677c1.818 26.622 3.638 53.242 5.459 79.86a.957.957 0 0 0 .089.344.792.792 0 0 0 .885.633l83.883-5.714a.947.947 0 0 0 .651-.306.8.8 0 0 0 .345-.751c-2.017-29.522-4.039-59.044-6.067-88.566Zm-3.085-.654-19.652 1.337-1.331-19.624 20.983 18.287ZM83.516 141.018c-.53-7.731-1.06-15.461-1.587-23.19l76.939-5.242c.528 7.731 1.057 15.461 1.587 23.19l-76.94 5.242Zm31.326 79.143-5.403-79.007c17.341-1.185 34.684-2.366 52.029-3.54a1.29 1.29 0 0 0 .259-.064.808.808 0 0 0 .685-.895l-1.701-24.808a.928.928 0 0 0-.056-.271.852.852 0 0 0-.545-.905.865.865 0 0 0-.374-.051l-52.157 3.553c-.08-1.167-.157-2.33-.234-3.502 19.79-1.347 39.579-2.695 59.369-4.045.502 7.276 1.001 14.553 1.497 21.832a.795.795 0 0 0 .047.246.813.813 0 0 0 .303.546.792.792 0 0 0 .285.144.794.794 0 0 0 .318.023l21.741-1.477h.051c1.986 28.865 3.961 57.745 5.927 86.639l-82.041 5.582Z" fill="#000"/><path d="m504.4 241.933-19.571-29.587a.801.801 0 0 0-.655-.577l-66.844-13.635a.99.99 0 0 0-.536.038.792.792 0 0 0-.697.675l-.979 4.78a.763.763 0 0 0 0 .191l-26.923-5.493a.93.93 0 0 0-.851.246.803.803 0 0 0-.634.667l-5.531 27.078a.97.97 0 0 0 .677 1.134.923.923 0 0 0 .259.093l27.03 5.519-17.87 87.309a1.065 1.065 0 0 0 0 .365.792.792 0 0 0 .685.849l91.589 18.678a.942.942 0 0 0 .753-.149.801.801 0 0 0 .493-.624c6.603-32.233 13.208-64.466 19.814-96.699a.937.937 0 0 0 0-.106.85.85 0 0 0-.209-.752Zm-20.026-26.798 17.444 26.34-21.924-4.47c1.495-7.293 2.988-14.583 4.48-21.87Zm-101.225 10.71a88346.66 88346.66 0 0 0 5.229-25.525l84.215 17.18c-1.744 8.506-3.487 17.013-5.229 25.52l-84.215-17.175Zm99.855 112.389-89.772-18.317c5.906-28.823 11.813-57.645 17.721-86.465l56.917 11.61c.091.012.182.012.273 0a.801.801 0 0 0 .897-.679c1.85-9.025 3.693-18.051 5.531-27.079a.848.848 0 0 0 0-.293.84.84 0 0 0-.02-.741.852.852 0 0 0-.597-.443l-57.036-11.631a.58.58 0 0 0 0-.059c.268-1.325.54-2.645.812-3.969l65.031 13.265-4.918 24.043c-.01.085-.01.17 0 .255a.81.81 0 0 0 .677.934l23.744 4.839a.661.661 0 0 0 .154 0l-19.414 94.717v.013Z" fill="#000"/><path d="M381.09 202.782a1.124 1.124 0 0 0-.03-.216.875.875 0 0 0-.294-.586l-30.063-27.736a.853.853 0 0 0-.765-.374c-26.158 1.028-52.317 2.051-78.48 3.069a.943.943 0 0 0-.592.23.842.842 0 0 0-.425.789c.059 1.465.115 2.925.174 4.385.634 0 1.277.021 1.911.047-.051-1.194-.1-2.39-.145-3.587l76.633-2.972 1.111 28.28a.99.99 0 0 0 .072.34.853.853 0 0 0 .86.594l27.871-1.091a.96.96 0 0 0 .281-.055c1.464 37.208 2.923 74.413 4.378 111.616l-105.679 4.143-3.995-101.798 66.996-2.627a1.03 1.03 0 0 0 .375-.089h.025a.81.81 0 0 0 .549-.849c-.414-10.598-.829-21.198-1.246-31.799a1.236 1.236 0 0 0-.051-.284.846.846 0 0 0-.2-.741.848.848 0 0 0-.715-.278l-64.355 2.513c.369.556.549 1.215.515 1.88l62.912-2.458 1.187 30.25-63.691 2.492a3.066 3.066 0 0 1-2.523 1.613 3.333 3.333 0 0 0-1.701.454h.021l4.029 102.676c.009.149.051.294.123.425a.824.824 0 0 0 .851.543l107.522-4.198a.897.897 0 0 0 .761-.425.833.833 0 0 0 .247-.662l-4.454-113.514Zm-29.097.336c-.346-8.677-.688-17.356-1.026-26.039l27.119 25.016-26.093 1.023ZM185.877 232.089a.575.575 0 0 0-.042-.077L164.8 205.558a.796.796 0 0 0-.506-.314.99.99 0 0 0-.238-.06l-64.487-7.42a.757.757 0 0 0-.88.611 1.11 1.11 0 0 0-.128.391l-.524 4.58-26.08-3.001a.752.752 0 0 0-.851.531.974.974 0 0 0-.387.683c-1.004 8.708-2.01 17.416-3.017 26.123a.793.793 0 0 0 .924.905c.09.04.186.067.284.08l25.864 2.972-9.76 84.351a.748.748 0 0 0 .132.582.75.75 0 0 0 .515.305c.1.049.208.081.319.093l88.355 10.188a.76.76 0 0 0 .805-.385.768.768 0 0 0 .088-.303.849.849 0 0 0 .119-.373c3.597-31.093 7.19-62.187 10.781-93.283a.755.755 0 0 0-.251-.725Zm-21.145-23.568 18.584 23.372-21.005-2.419c.809-6.982 1.616-13.966 2.421-20.953Zm-95.039 18.334 2.834-24.545 81.156 9.339c-.945 8.184-1.891 16.366-2.838 24.544l-81.152-9.338Zm103.855 98.291c-28.841-3.322-57.685-6.642-86.534-9.959 3.213-27.779 6.424-55.555 9.632-83.328l55.037 6.33a.791.791 0 0 0 .325-.013.767.767 0 0 0 .573-.713c.024-.074.042-.149.055-.225 1.002-8.711 2.007-17.419 3.017-26.124a.923.923 0 0 0-.021-.331 1.013 1.013 0 0 0-.898-.912l-54.837-6.313a.816.816 0 0 0 .042-.182c.136-1.206.278-2.411.426-3.617l62.657 7.217v.067c-.894 7.752-1.79 15.504-2.689 23.258a.755.755 0 0 0 .386.805.772.772 0 0 0 .303.091c.085.033.174.056.264.068l22.838 2.628c-3.537 30.413-7.062 60.831-10.576 91.253Z" fill="#000"/><path d="m287.319 297.533-43.282-69.192-.064-.077a.853.853 0 0 0-.583-.424l-28.637-6.622a.845.845 0 0 0-.851.068l-47.822 29.786a.924.924 0 0 0-.4.493.844.844 0 0 0 .047.849c.707 1.132 1.416 2.264 2.128 3.396l-19.146 11.911a.891.891 0 0 0-.447.768.858.858 0 0 0-.091.431.855.855 0 0 0 .138.418l12.126 19.383a.932.932 0 0 0 1.246.331c.086-.029.168-.066.247-.111L181.108 277l39.005 62.354c.084.143.204.26.349.34a.857.857 0 0 0 .979 0l65.52-40.807a.897.897 0 0 0 .426-.7.858.858 0 0 0-.068-.654Zm-46.63-68.373-14.772 9.194-9.22-14.734 23.992 5.54Zm-79.123 57.812-11.245-17.978 59.99-37.355c3.752 5.999 7.504 11.993 11.253 17.982l-59.998 37.351Zm59.696 50.65c-12.843-20.528-25.686-41.06-38.529-61.594 13.538-8.43 27.074-16.858 40.61-25.283.132-.083.244-.194.327-.326a.848.848 0 0 0 0-.977l-12.121-19.378a1.102 1.102 0 0 0-.162-.199.876.876 0 0 0-1.276-.361l-40.657 25.317-1.625-2.603 46.43-28.92 10.522 16.818a.922.922 0 0 0 .293.306.856.856 0 0 0 1.021.051l16.768-10.443c14.119 22.583 28.243 45.165 42.371 67.745l-63.972 39.847Z" fill="#000"/><path d="M257.788 276.444c-1.429-2.385-4.561-1.494-6.526-.509a29.366 29.366 0 0 0-3.038 1.766c-.213.123-.426.254-.621.386a1.188 1.188 0 0 0-.175.149c-1.442.989-2.838 2.058-4.191 3.103a62.96 62.96 0 0 0-2.727 2.245 40.34 40.34 0 0 1-9.36-2.92 58.524 58.524 0 0 0-3.301-9.921c-1.464-3.353-3.885-8.49-8.467-7.513a4.665 4.665 0 0 0-2.174 1.052 3.95 3.95 0 0 0-.698.663.929.929 0 0 0-.23.543c-.072.132-.14.267-.204.425-.893 2.122.889 4.792 1.966 6.473 2.097 3.264 5.067 5.879 8.36 7.921a78.156 78.156 0 0 1 1.817 7.896c.462 2.665.722 5.361.778 8.065-2.786 3.061-5.356 6.367-6.526 10.383-.851 2.925-.426 7.599 3.063 7.552a.943.943 0 0 0 .26 0h.051a5.71 5.71 0 0 0 .987-.187c4.293-1.214 5.433-7.28 5.85-10.973.31-2.888.401-5.796.272-8.698a69.03 69.03 0 0 1 8.084-8.664c2.501.407 5.044.502 7.569.285 4.212-.399 12.508-3.944 9.181-9.522Zm-39.601-10.506c2.905-2.437 5.994 7.641 6.624 9.415.234.671.459 1.346.676 2.017-2.944-2.399-9.419-8.851-7.3-11.432Zm10.636 35.73a43.412 43.412 0 0 1-1.059 6.605c-.324 1.388-.702 3.582-2.255 4.037a1.65 1.65 0 0 1-1-.382c-.711-.582-.634-1.843-.604-2.649.072-1.817.787-3.608 1.599-5.209a25.238 25.238 0 0 1 3.447-4.932c0 .84-.051 1.685-.115 2.53h-.013Zm3.931-10.146a91.85 91.85 0 0 0-.519-4.873 64.206 64.206 0 0 0-.617-3.668 41.298 41.298 0 0 0 7.05 2.254 67.81 67.81 0 0 0-5.888 6.287h-.026Zm20.503-9.555a6.623 6.623 0 0 1-2.421 1.63l-.11.064c-2.494.691-5.204.619-7.757.305a67.045 67.045 0 0 1 5.48-4.177c.034-.021.073-.034.107-.059 1.497-1.002 3.629-2.301 5.258-.815.975.87.081 2.309-.544 3.052h-.013Z" fill="#FF490C"/><path d="m327.337 115.553-6.292-9.636-10.211-15.63-.251-.387-4.48 21.178 21.234 4.475Z" fill="#fff"/><path d="M304.993 112.398a.645.645 0 0 1-.532-.738.908.908 0 0 1 0-.221c1.623-7.641 3.241-15.291 4.855-22.952l.042-.187-.766-.161-62.687-13.202-.187-.043-.038.187c-.225 1.083-.455 2.157-.681 3.235l-.132.603-.068.2.209.046 55.309 11.652a.614.614 0 0 1 .451.301.751.751 0 0 1 .03.629V91.819a.79.79 0 0 1 0 .238l-5.561 26.28a.615.615 0 0 1-.638.531h-.127a.732.732 0 0 1-.175 0l-.336-.072-54.884-11.555-.187-.038-17.78 84.049-.038.187.187.038 87.074 18.338.187.039 19.563-92.404.038-.183-23.128-4.869Z" fill="#fff"/><path d="m293.913 117.221 5.31-25.088-82.041-17.277-5.31 25.088 81.854 17.239.187.038Z" fill="#fff"/><path d="M248.096 86.963c-.919-1.159-2.515-2.004-4.838-2.496a28.791 28.791 0 0 0-4.927-.662l-3.62 17.124 3.144.662 1.387-6.541a9.193 9.193 0 0 0 1.523.424c2.246.471 4.357.297 5.892-.696 1.175-.726 1.979-1.978 2.328-3.625a5.047 5.047 0 0 0-.889-4.19Zm-2.315 3.659c-.425 2.033-2.127 2.887-4.493 2.386a6.485 6.485 0 0 1-1.519-.454l1.243-5.871a9.38 9.38 0 0 1 1.863.233c2.2.463 3.319 1.775 2.91 3.706h-.004ZM264.565 91.051c-1.318-1.672-3.425-2.814-6.671-3.502a32.75 32.75 0 0 0-5.118-.7l-3.612 17.064c1.386.465 2.8.844 4.233 1.134 3.378.713 6.314.496 8.373-.709 1.966-1.146 3.514-3.239 4.17-6.33.608-2.958.025-5.238-1.375-6.957Zm-2.021 6.367c-.931 4.407-3.863 6.156-7.985 5.256a11.631 11.631 0 0 1-1.736-.425l2.625-12.412c.742.014 1.481.108 2.204.28 3.974.802 5.731 3.46 4.91 7.284l-.018.017ZM273.058 93.594l-1.017 4.788 6.404 1.346-.554 2.598-6.398-1.346-1.558 7.365-3.174-.671 3.672-17.349 10.032 2.11-.548 2.606-6.859-1.447Z" fill="#000"/><path d="M329.784 116.185 310.936 87.32a.805.805 0 0 0-.651-.57l-64.853-13.66a.921.921 0 0 0-.553.043.795.795 0 0 0-.68.67c-.324 1.54-.65 3.084-.979 4.632a.974.974 0 0 0 0 .153l-26.097-5.493a.927.927 0 0 0-.851.242.809.809 0 0 0-.63.662 51032.41 51032.41 0 0 1-5.557 26.276.96.96 0 0 0 .668 1.133c.081.042.167.074.256.094l26.199 5.518-17.954 84.695a.92.92 0 0 0 0 .391.802.802 0 0 0 .186.534.805.805 0 0 0 .495.276l88.878 18.721a.949.949 0 0 0 .761-.153.8.8 0 0 0 .481-.616c6.615-31.276 13.232-62.556 19.852-93.838a.937.937 0 0 0 0-.106.846.846 0 0 0-.123-.739Zm-19.103-25.796c5.411 8.294 10.826 16.587 16.244 24.879l-20.593-4.338c1.453-6.843 2.902-13.69 4.349-20.541Zm-98.583 9.406c1.741-8.24 3.484-16.477 5.229-24.71l81.688 17.197c-1.745 8.241-3.488 16.479-5.229 24.714l-81.688-17.2Zm96.272 109.808c-29.024-6.115-58.05-12.228-87.078-18.338 5.917-27.951 11.831-55.903 17.742-83.854l55.211 11.627c.098.012.196.012.294 0 .205.019.41-.04.573-.166a.803.803 0 0 0 .303-.514c1.855-8.772 3.709-17.533 5.561-26.28.021-.093.029-.189.021-.284a.843.843 0 0 0-.272-1.029.85.85 0 0 0-.349-.151L245.045 78.97a.192.192 0 0 0 0-.034c.273-1.274.541-2.547.809-3.82l63.278 13.324a20264.18 20264.18 0 0 0-4.859 22.953c-.01.088-.01.178 0 .267a.81.81 0 0 0 .681.913l22.928 4.83a2383194.3 2383194.3 0 0 1-19.512 92.2Z" fill="#000"/><path d="M302.218 167.395c-1.161-3.756-5.875-4.27-9.169-4.911a76.715 76.715 0 0 0-11.215-1.329 60.686 60.686 0 0 1-3.829-6.346 41.506 41.506 0 0 1-1.833-3.96 73.638 73.638 0 0 0 5.531-11.538c1.433-3.82 3.242-9.623-.928-12.472a5.296 5.296 0 0 0-3.587-1.031 3.372 3.372 0 0 0-.348.025.994.994 0 0 0-.451.17l-.179.068c-2.127.921-2.923 3.035-3.519 5.094-1.48 5.136-1.195 10.46.158 15.553a91.255 91.255 0 0 1-4.931 8.236 64.353 64.353 0 0 1-6.025 7.59c-3.982.263-7.969.755-11.679 2.296-2.859 1.189-8.743 4.767-6.701 8.698 1.953 3.769 7.067 2.577 10.152 1.218 4.574-2.012 8.373-6.079 11.751-9.636.425-.424.817-.874 1.217-1.316a82.11 82.11 0 0 1 14.223-.785c2.395 3.273 5.293 6.291 8.752 8.188.054.036.111.067.17.094a15.96 15.96 0 0 0 6.245 1.872c2.974.246 7.289-2.233 6.195-5.778Zm-44.247-.946a52.03 52.03 0 0 1-5.91 4.635c-1.647 1.117-4.527 3.443-6.531 2.123-.97-1.231.426-3.311 1.702-4.406 1.621-1.397 3.663-2.28 5.68-2.925a31.928 31.928 0 0 1 7.024-1.274c-.659.607-1.31 1.24-1.978 1.847h.013Zm15.707-28.836c.047-2.802.494-5.985 1.847-8.49a2.448 2.448 0 0 1 2.178-1.392c4.361.586-1.204 11.495-2.127 13.528a85.057 85.057 0 0 1-1.34 2.811 32.012 32.012 0 0 1-.57-6.457h.012Zm-5.16 24.022a78.985 78.985 0 0 0 6.471-8.804 50.531 50.531 0 0 0 2.68 5.289 62.063 62.063 0 0 0 1.834 2.972 82.61 82.61 0 0 0-10.985.543Zm22.213 8.023h-.039a20.977 20.977 0 0 1-3.08-2.097 28.52 28.52 0 0 1-4.305-4.406 79.62 79.62 0 0 1 7.088.802l1.395.212a.92.92 0 0 0 .294.09c2.153.284 4.961.993 5.131 3.599.204 2.959-4.91 2.462-6.48 1.8h-.004Z" fill="#FF490C"/><path d="m438.347 116.453-.038-.187c-1.949-9.418-3.893-18.84-5.833-28.267l-.039-.186-93.2 19.174 5.909 28.636 16.078-3.302 76.936-15.809.187-.059ZM447.674 104.218l.042.187.183-.038 23.762-4.882.451-.093-.383-.255-28.654-18.822-.387-.254.093.45c1.634 7.9 3.265 15.803 4.893 23.707Z" fill="#fff"/><path d="m492.428 190.99-18.622-90.213-.06-.213-.208.077-.081.025-26.119 5.366a.85.85 0 0 1-.362 0 .61.61 0 0 1-.591-.531l-5.365-26.009-.038-.186-72.098 14.815.931 4.512a.923.923 0 0 1 0 .246v.255l62.998-12.947a.813.813 0 0 1 .949.65c.028.065.051.133.068.203l6.147 29.787a.773.773 0 0 1 0 .254.612.612 0 0 1-.531.692l-63.006 12.952 19.711 95.51.038.187.188-.038 98.961-20.337.187-.039-3.097-15.018Z" fill="#fff"/><path d="m381.293 123.746-11.904 2.441-4.063-19.667 11.466-2.356.608 2.946-7.866 1.617 1.051 5.082 7.424-1.529.6 2.917-7.425 1.528 1.192 5.777 8.305-1.706.612 2.95ZM394.836 106.511a5.658 5.658 0 0 0-2.829-3.952c-1.472-.789-3.518-.951-6.152-.424a32.306 32.306 0 0 0-5.412 1.541l4.008 19.441 3.57-.734-1.536-7.412c.6-.032 1.196-.113 1.782-.242 2.553-.526 4.659-1.659 5.795-3.396.894-1.286 1.162-2.954.774-4.822Zm-7.147 5.396a7.627 7.627 0 0 1-1.787.212l-1.374-6.656a10.583 10.583 0 0 1 2.042-.599c2.484-.513 4.254.344 4.68 2.547.498 2.292-.868 3.939-3.561 4.496ZM405.303 119.113c-2.077.425-4.361.285-5.574-.136l.175-3.137c1.626.512 3.356.607 5.029.276 2.31-.475 3.373-1.817 3.042-3.425-.311-1.486-1.485-2.157-4.183-2.547-3.493-.506-5.922-1.796-6.509-4.627-.66-3.209 1.527-6.215 5.795-7.094a10.692 10.692 0 0 1 4.943 0l-.285 3.074a8.497 8.497 0 0 0-4.11-.132c-2.28.467-3.02 1.898-2.786 3.035.314 1.52 1.595 1.983 4.441 2.467 3.689.581 5.71 1.961 6.293 4.792.655 3.171-1.183 6.406-6.271 7.454ZM475.826 171.535l-3.939.823-.541-2.623-13.687-8.889a34.392 34.392 0 0 1 7.41 19.251 34.382 34.382 0 0 1-4.942 20.023l.498 2.416-3.966.81-.816-3.952 2.842-.581a32.448 32.448 0 0 0 3.873-23.126 32.507 32.507 0 0 0-12.727-19.71l-2.829.582-.562-2.73a32.633 32.633 0 0 0-23.237-3.243 32.568 32.568 0 0 0-19.39 13.181l.473 2.284-3.97.815-.813-3.957 3.021-.624a34.488 34.488 0 0 1 16.306-12.38 34.57 34.57 0 0 1 20.466-.97l-13.708-8.914-2.65.547-.817-3.96 3.961-.811.54 2.623 21.273 13.809 2.234-.463.451 2.208 21.775 14.14 2.654-.548.817 3.969Z" fill="#000"/><path d="M497.312 206.199c-7.315-35.462-14.632-70.92-21.953-106.373a.852.852 0 0 0-.315-.518.865.865 0 0 0-.183-.162l-32.696-21.479a1.373 1.373 0 0 0-.239-.114.962.962 0 0 0-.608-.06l-73.532 15.108a.81.81 0 0 0-.689.76 1.015 1.015 0 0 0 0 .484c.362 1.757.719 3.506 1.085 5.255a.72.72 0 0 0 .051.17l-29.833 6.129a.797.797 0 0 0-.702.739.91.91 0 0 0-.209.823c2.051 9.928 4.1 19.858 6.148 29.791a.852.852 0 0 0 1.179.62c.096.013.193.013.289 0l29.693-6.104c6.628 32.086 13.253 64.173 19.873 96.262a.788.788 0 0 0 .74.679.967.967 0 0 0 .46 0l100.748-20.702a.796.796 0 0 0 .681-.849.904.904 0 0 0 .012-.459Zm-25.689-106.9-23.762 4.882c-1.625-7.904-3.256-15.807-4.892-23.708L471.623 99.3Zm-126.326 36.082-5.834-28.267 92.827-19.077c1.94 9.424 3.884 18.847 5.833 28.268l-92.826 19.076Zm51.054 90.799c-6.554-31.769-13.112-63.536-19.673-95.303l62.832-12.913a.806.806 0 0 0 .685-.891.939.939 0 0 0 0-.28 23450.44 23450.44 0 0 1-6.174-29.796 1.281 1.281 0 0 0-.08-.233.974.974 0 0 0-.778-.767.97.97 0 0 0-.384.007l-62.763 12.892c.014-.1.014-.201 0-.301l-.907-4.343 71.72-14.721c1.792 8.668 3.581 17.337 5.365 26.008a.801.801 0 0 0 .261.48.813.813 0 0 0 .509.204c.14.03.285.03.425 0l26.119-5.366c.043 0 .081-.025.123-.038 7.225 35.009 14.457 70.017 21.699 105.024l-98.979 20.337Z" fill="#000"/><path d="M169.488 126.713v.186l20.32-1.379-21.698-18.877.034.458c.451 6.537.899 13.074 1.344 19.612ZM160.264 135.003c-.527-7.728-1.056-15.458-1.587-23.19v-.191l-77.335 5.268v.191c.527 7.726 1.056 15.456 1.587 23.19v.187l77.322-5.264.013-.191Z" fill="#fff"/><path d="M190.778 127.158v-.174h-.238l-21.745 1.477a.64.64 0 0 1-.639-.342.655.655 0 0 1-.072-.244.541.541 0 0 1-.038-.199l-1.511-22.019h-.191l-55.565 3.787-3.995.271v.191c.073 1.1.149 2.195.221 3.29l.03.403h.192l52.156-3.557a.617.617 0 0 1 .528.183.77.77 0 0 1 .151.267.774.774 0 0 1 .032.306v.076a.727.727 0 0 1 .047.221l1.702 24.807a.632.632 0 0 1-.558.701 1.043 1.043 0 0 1-.221.051l-52.029 3.54h-.187v.191c1.684 24.595 3.366 49.192 5.046 73.79l.37 5.403 82.432-5.611-5.918-86.809Z" fill="#fff"/><path d="M192.416 126.016v-.063a.797.797 0 0 0-.306-.705l-24.081-20.957a.802.802 0 0 0-.787-.382l-61.249 4.168c-.17.014-.335.071-.477.166a.786.786 0 0 0-.514.849c.102 1.457.201 2.916.298 4.376v.081l-24.55 1.672a.948.948 0 0 0-.752.425.793.793 0 0 0-.426.806l1.702 24.804a.958.958 0 0 0 .898.908c.098.028.2.038.302.03l24.676-1.698 5.463 79.864a.946.946 0 0 0 .085.339.803.803 0 0 0 .885.637l83.883-5.679a.965.965 0 0 0 .656-.306.797.797 0 0 0 .34-.756c-2.011-29.527-4.026-59.054-6.046-88.579Zm-3.08-.653-19.656 1.332c-.451-6.531-.899-13.067-1.345-19.607l21.001 18.275ZM83.133 140.258a67784.68 67784.68 0 0 0-1.587-23.19l76.944-5.243c.525 7.732 1.054 15.462 1.587 23.191l-76.944 5.242Zm31.331 79.143c-1.801-26.336-3.604-52.672-5.408-79.007l52.03-3.545c.091-.008.181-.027.268-.055a.805.805 0 0 0 .685-.896l-1.702-24.807a.796.796 0 0 0-.056-.272.85.85 0 0 0-.226-.698.846.846 0 0 0-.688-.261l-52.157 3.557-.238-3.502 59.368-4.045c.502 7.276 1.001 14.551 1.498 21.827a.77.77 0 0 0 .051.251.786.786 0 0 0 .096.302.801.801 0 0 0 .806.411l21.745-1.482h.046c1.986 28.866 3.963 57.746 5.931 86.639l-82.049 5.583Z" fill="#000"/><path d="m119.608 118.091-3.83.263-4.139 16.729 3.093-.208 1.098-4.737 5.207-.352 1.804 4.537 3.217-.22-6.45-16.012Zm-3.442 9.763.991-4.117c.225-.994.387-2.148.566-3.112h.051c.31.93.651 2.029 1.038 3.001l1.561 3.948-4.207.28ZM131.346 133.746l-2.995.2-1.119-16.373 2.995-.208 1.119 16.381ZM149.326 157.925l-9.807.662-10.615 42.891 7.931-.539 2.808-12.149 13.363-.909 4.621 11.644 8.241-.56-16.542-41.04Zm-8.832 25.007 2.553-10.562c.582-2.547 1.004-5.518 1.463-7.984h.123c.792 2.385 1.677 5.204 2.66 7.704l4.016 10.116-10.815.726ZM178.861 198.079l-7.739.522-2.077-30.338 7.744-.527 2.072 30.343ZM172.551 163.639c-2.552.178-4.369-1.511-4.527-3.82-.157-2.309 1.46-4.292 4.025-4.466 2.566-.174 4.366 1.52 4.591 3.88.157 2.305-1.404 4.211-4.089 4.406Z" fill="#000"/><path d="m479.285 236.389 22.549 4.602-17.95-27.108-.089.45c-1.492 7.287-2.987 14.577-4.484 21.87l-.026.186ZM467.129 242.472l4.102-20.019 1.204-5.879-84.59-17.252-5.267 25.708-.038.186.187.039 84.215 17.179.187.038Z" fill="#fff"/><path d="M502.005 242.565h-.09l-23.74-4.835a.64.64 0 0 1-.528-.752.836.836 0 0 1 0-.212l4.965-24.23-65.405-13.342-.851 4.156.179.055h-.192l-.068.204 57.275 11.623a.639.639 0 0 1 .451.305.768.768 0 0 1 .026.629v.08a.862.862 0 0 1 0 .238l-5.531 27.083a.609.609 0 0 1-.63.53h-.094a.744.744 0 0 1-.221 0l-56.917-11.614-.188-.038-17.801 86.66-.038.187.187.038 89.793 18.317.187.038 19.444-94.891.042-.212-.255-.017Z" fill="#fff"/><path d="m504.017 241.168-19.571-29.587a.803.803 0 0 0-.655-.573l-66.848-13.635a.943.943 0 0 0-.536.038.786.786 0 0 0-.698.671l-.978 4.78a.811.811 0 0 0-.022.191l-26.922-5.489a.911.911 0 0 0-.851.246.804.804 0 0 0-.634.667c-1.852 9.024-3.696 18.051-5.531 27.078a.961.961 0 0 0 .672 1.129.961.961 0 0 0 .26.098l27.033 5.518-17.941 87.306a1.018 1.018 0 0 0 0 .365.8.8 0 0 0 .685.849l91.588 18.678a.942.942 0 0 0 .753-.149.812.812 0 0 0 .493-.624c6.606-32.236 13.211-64.471 19.814-96.704a.937.937 0 0 0 0-.106.816.816 0 0 0-.111-.747Zm-20.022-26.785 17.444 26.344-21.924-4.475 4.48-21.869ZM382.766 225.08c1.745-8.49 3.487-16.997 5.229-25.521l84.215 17.175c-1.739 8.51-3.482 17.018-5.229 25.525l-84.215-17.179Zm99.859 112.393-89.771-18.317c5.908-28.823 11.815-57.646 17.72-86.469l56.918 11.614c.091.012.184.012.276 0a.8.8 0 0 0 .894-.679l5.552-27.083a.96.96 0 0 0 0-.293.843.843 0 0 0-.269-1.027.845.845 0 0 0-.348-.153l-57.058-11.635v-.06c.272-1.324.54-2.644.813-3.969l65.048 13.283c-1.643 8.014-3.283 16.03-4.923 24.047a.91.91 0 0 0-.021.255.812.812 0 0 0 .381.821.808.808 0 0 0 .3.108l23.74 4.844h.153c-6.467 31.568-12.935 63.135-19.405 94.7v.013Z" fill="#000"/><path d="M448.154 266.922c-2.429-3.043-6.662-5.255-12.797-6.507-5.663-1.155-9.901-1.596-13.015-1.664l-9.267 45.234 8.318 1.698 3.54-17.277c1.309.487 2.659.858 4.033 1.108 5.931 1.21 11.488.717 15.525-1.936 3.093-1.923 5.195-5.246 6.089-9.602.885-4.283-.158-8.252-2.426-11.054Zm-6.05 9.683c-1.097 5.374-5.531 7.641-11.815 6.368a17.694 17.694 0 0 1-4.024-1.176l3.182-15.507c1.657.017 3.307.211 4.923.577 5.811 1.193 8.798 4.636 7.734 9.738ZM461.301 288.385c-.425 2.123.928 3.447 4.846 5.807 5.557 3.396 7.722 7.034 6.807 11.945-1.229 5.986-6.807 9.382-15.618 7.586-4.025-.819-7.441-2.509-9.616-4.372l2.877-5.722a19.025 19.025 0 0 0 8.015 4.143c3.685.751 5.625-.425 6.071-2.59.46-2.245-.667-3.676-4.463-5.943-6.02-3.565-8.019-7.64-7.16-11.52 1.2-5.85 6.973-9.42 14.678-7.849 3.685.751 6.693 2.356 8.39 3.765l-2.85 5.586a15.152 15.152 0 0 0-6.629-3.336c-2.999-.637-4.931.458-5.348 2.5ZM419.764 211.611c-.949-1.188-2.6-2.054-4.991-2.546a28.969 28.969 0 0 0-5.08-.65l-3.612 17.638 3.242.662 1.383-6.733c.512.183 1.039.325 1.574.425 2.31.471 4.484.276 6.054-.756 1.204-.747 2.025-2.046 2.374-3.744a5.144 5.144 0 0 0-.944-4.296Zm-2.353 3.774c-.426 2.097-2.161 2.972-4.608 2.488a6.767 6.767 0 0 1-1.57-.459l1.238-6.049a9.493 9.493 0 0 1 1.923.225c2.26.459 3.425 1.804 3.034 3.795h-.017ZM426.473 216.319c-.285 1.384.622 2.233 2.825 3.647 2.872 1.799 4.068 3.676 3.54 6.248-.587 2.865-3.28 4.916-7.905 3.969-1.889-.382-3.748-1.316-4.612-2.122l1.277-2.547a9.314 9.314 0 0 0 4.101 2.025c2.102.424 3.472-.319 3.77-1.775.276-1.354-.464-2.335-2.583-3.621-2.731-1.664-4.301-3.616-3.774-6.189.6-2.92 3.502-4.669 7.386-3.854 1.494.26 2.906.87 4.119 1.778l-1.336 2.462a7.747 7.747 0 0 0-3.404-1.574c-2.063-.408-3.195.517-3.404 1.553ZM450.537 218.522c-1.365-1.698-3.539-2.878-6.888-3.562a34.112 34.112 0 0 0-5.288-.691l-3.604 17.591c1.431.466 2.889.846 4.365 1.137 3.481.709 6.493.467 8.607-.789 2.017-1.189 3.595-3.358 4.255-6.538.621-3.052-.009-5.391-1.447-7.148Zm-2.05 6.546c-.932 4.538-3.932 6.367-8.182 5.467a13.293 13.293 0 0 1-1.791-.45l2.621-12.786c.765.006 1.527.096 2.272.268 4.105.836 5.931 3.557 5.08 7.501Z" fill="#000"/><path d="M351.418 202.361v.191l1.277-.051 25-.976h.459l-.336-.314-27.102-25.032-.336-.293v.458c.352 8.677.698 17.349 1.038 26.017Z" fill="#fff"/><path d="M383.417 314.76c-1.435-36.906-2.883-73.813-4.344-110.721l-.047-1.155-.242.085a.835.835 0 0 1-.226.047h-.425l-27.502 1.091a.648.648 0 0 1-.655-.509.778.778 0 0 1-.064-.281l-1.115-28.47-77.007 3.005.072 1.753c.038 1.053.081 2.102.119 3.146v.025c.417 10.995.842 21.986 1.276 32.975l.051 1.337s2.694 67.864 4.03 101.798v.186l106.074-4.143.005-.169Z" fill="#fff"/><path d="m328.644 272.603-12.543.496a12.585 12.585 0 0 0-8.74 4.026 12.527 12.527 0 0 0 .707 17.733 12.59 12.59 0 0 0 9.033 3.32h.03a12.444 12.444 0 0 0 5.497-1.524l.2-.11a12.639 12.639 0 0 0 4.563-4.479 12.6 12.6 0 0 0 1.784-6.133v-.773c0-.272-.029-.526-.055-.773l-.476-11.783ZM340.952 245.829h-.03l-.098.106-.106-.093h-.03a12.459 12.459 0 0 0-4.68 1.409 9.208 9.208 0 0 0-.663.378 12.549 12.549 0 0 0-4.533 4.781 12.513 12.513 0 0 0 .493 12.693 12.562 12.562 0 0 0 5.584 4.744c1.517.66 3.152 1.01 4.808 1.027l.102-.106.11.097h.03a12.581 12.581 0 0 0 8.324-4.217 12.53 12.53 0 0 0 3.118-8.78 12.54 12.54 0 0 0-3.808-8.505 12.592 12.592 0 0 0-8.634-3.543l.013.009ZM316.054 271.91l12.542-.496-1-25.075-12.508.497h-.37a12.586 12.586 0 0 0-8.395 4.277 12.531 12.531 0 0 0 .938 17.413 12.597 12.597 0 0 0 8.806 3.355l-.013.029ZM314.654 245.664h.387l12.508-.492-.995-25.079-12.513.488a12.584 12.584 0 0 0-8.631 3.975 12.53 12.53 0 0 0 .429 17.557 12.587 12.587 0 0 0 8.815 3.551ZM340.569 244.636a12.585 12.585 0 0 0 8.409-4.28 12.536 12.536 0 0 0 3.055-8.912 12.537 12.537 0 0 0-4.021-8.522 12.592 12.592 0 0 0-8.83-3.331l-11.449.455.995 25.074 11.449-.45c.141-.017.268-.021.392-.034Z" fill="#000"/><path d="M344.492 245.087h-.03a13.833 13.833 0 0 0 7.358-6.243 13.78 13.78 0 0 0-3.545-17.6 13.853 13.853 0 0 0-9.131-2.925l-25.153.993a13.858 13.858 0 0 0-8.841 3.674 13.79 13.79 0 0 0-2.084 17.81 13.843 13.843 0 0 0 7.755 5.607 13.823 13.823 0 0 0-6.73 5.274 13.773 13.773 0 0 0 .626 16.226 13.829 13.829 0 0 0 7.117 4.742h.051l-.051.021a13.823 13.823 0 0 0-7.292 6.2 13.769 13.769 0 0 0-1.505 9.44 13.793 13.793 0 0 0 5.003 8.151 13.847 13.847 0 0 0 9.112 2.952h.03a13.857 13.857 0 0 0 6.522-1.944c2.01-1.2 3.682-2.89 4.86-4.911a13.78 13.78 0 0 0 1.871-6.643l-.851-21.267a13.85 13.85 0 0 0 5.65 5.773c.229.127.472.254.723.373 1.84.874 3.851 1.33 5.888 1.333h.043a13.877 13.877 0 0 0 2.429-.424c.413-.109.819-.239 1.217-.391a13.835 13.835 0 0 0 6.71-5.285 13.78 13.78 0 0 0-.644-16.211 13.847 13.847 0 0 0-7.108-4.738v.013Zm-42.452-11.461a12.474 12.474 0 0 1 3.309-8.968 12.538 12.538 0 0 1 8.693-4.013l12.444-.493.992 24.948-12.445.492h-.383a12.617 12.617 0 0 1-8.712-3.467 12.558 12.558 0 0 1-3.898-8.512v.013Zm1.046 26.255a12.553 12.553 0 0 1 3.209-8.8 12.607 12.607 0 0 1 8.415-4.147h.366l12.444-.493.996 24.943-12.475.497a12.546 12.546 0 0 1-8.963-3.338 12.493 12.493 0 0 1-3.992-8.675v.013Zm26.021 26.047a12.497 12.497 0 0 1-1.766 6.112 12.53 12.53 0 0 1-4.548 4.457l-.2.111a12.367 12.367 0 0 1-5.462 1.515h-.03a12.527 12.527 0 0 1-8.985-3.301 12.465 12.465 0 0 1-.704-17.638 12.524 12.524 0 0 1 8.693-4.004l12.475-.497.468 11.687a11.385 11.385 0 0 1 .059 1.545v.013Zm-1.276-65.797 11.381-.45a12.527 12.527 0 0 1 9.018 3.172 12.466 12.466 0 0 1 4.138 8.601c.183 3.3-.954 6.539-3.161 9.004a12.52 12.52 0 0 1-8.613 4.145h-.374l-11.385.45-1.004-24.922Zm1.042 26.251 6.633-.259c-.17.085-.336.178-.502.272a13.86 13.86 0 0 0-5.88 6.617l-.251-6.63Zm13.087 24.446-.132-.123-.119.132a12.388 12.388 0 0 1-5.458-1.354 12.493 12.493 0 0 1-4.869-4.391 12.45 12.45 0 0 1-.493-12.626 12.482 12.482 0 0 1 4.511-4.756 12.276 12.276 0 0 1 5.339-1.778l.128.119.123-.136a12.53 12.53 0 0 1 8.513 3.566 12.468 12.468 0 0 1 .681 17.11 12.525 12.525 0 0 1-8.203 4.229l-.021.008Z" fill="#fff"/><path d="M380.707 202.017a1.135 1.135 0 0 0-.03-.216.855.855 0 0 0-.293-.582l-30.063-27.736a.852.852 0 0 0-.766-.374l-78.484 3.07a.932.932 0 0 0-.592.225.843.843 0 0 0-.425.793c.071 1.874.145 3.743.221 5.608v.034c.502 13.018 1 26.026 1.494 39.024.003.089.02.178.051.263l3.829 97.731a.958.958 0 0 0 .119.424.82.82 0 0 0 .332.417.833.833 0 0 0 .519.127l107.526-4.203a.9.9 0 0 0 .761-.424.853.853 0 0 0 .243-.663c-1.475-37.836-2.956-75.675-4.442-113.518Zm-3-.683-26.097 1.019c-.343-8.677-.684-17.355-1.021-26.034 9.037 8.342 18.076 16.681 27.118 25.015ZM277.529 318.919c-1.336-33.934-4.029-101.798-4.029-101.798-.439-11.444-.876-22.886-1.31-34.325v-.029c-.06-1.571-.124-3.142-.183-4.712l76.633-2.993 1.102 28.284c.005.117.03.231.072.34a.824.824 0 0 0 .881.628l27.868-1.087c.097-.007.192-.025.285-.055l4.378 111.616-105.697 4.131Z" fill="#000"/><path d="m161.907 228.905 21.004 2.415.46.051-19.146-24.09-2.497 21.603.179.021ZM150.632 235.642l2.88-24.918-81.347-9.36-.188-.025-.02.191c-.8 6.939-1.602 13.872-2.405 20.8l-.45 3.939 81.338 9.339.192.034Z" fill="#fff"/><path d="m183.737 232.938-22.834-2.632a1.126 1.126 0 0 1-.222-.055h-.038a.58.58 0 0 1-.528-.684l2.694-23.271.046-.246-63.048-7.263-.426 3.821c0 .055-.02.101-.034.152l-.072.221.23.026 54.824 6.282a.85.85 0 0 1 .736.768.78.78 0 0 1 0 .264c-1.009 8.71-2.015 17.418-3.016 26.123a1.239 1.239 0 0 1-.047.191v.038a.578.578 0 0 1-.062.241.578.578 0 0 1-.378.308.581.581 0 0 1-.249.011c-18.346-2.114-36.69-4.225-55.033-6.333h-.192l-9.645 83.502-.021.191.302.034c28.809 3.317 57.616 6.632 86.419 9.946h.191l10.573-91.427v-.187l-.17-.021Z" fill="#fff"/><path d="M185.498 231.329c0-.026-.03-.056-.047-.077a15805.38 15805.38 0 0 1-21.03-26.454.856.856 0 0 0-.507-.319 1.326 1.326 0 0 0-.242-.055l-64.487-7.42a.76.76 0 0 0-.774.335.75.75 0 0 0-.106.276 1.035 1.035 0 0 0-.124.391c-.178 1.522-.354 3.048-.527 4.576l-26.08-2.997a.748.748 0 0 0-.852.526 1.021 1.021 0 0 0-.383.688c-1.01 8.705-2.015 17.413-3.016 26.123a.79.79 0 0 0 .923.9c.09.044.186.071.285.081l25.864 2.971-9.765 84.356a.752.752 0 0 0 .362.784.763.763 0 0 0 .29.099c.098.049.205.082.314.097 29.456 3.396 58.908 6.784 88.355 10.163a.765.765 0 0 0 .808-.381.77.77 0 0 0 .09-.303c.063-.116.104-.242.119-.373 3.591-31.093 7.184-62.187 10.781-93.283a.752.752 0 0 0-.251-.704Zm-21.145-23.573 18.579 23.373-21.005-2.415 2.426-20.958ZM69.31 226.09c.947-8.181 1.891-16.361 2.833-24.54l81.16 9.339c-.947 8.179-1.893 16.359-2.837 24.54L69.31 226.09Zm103.854 98.296-86.534-9.963 9.637-83.328 55.033 6.333a.77.77 0 0 0 .614-.158.767.767 0 0 0 .283-.567c.026-.073.045-.149.056-.225 1.004-8.711 2.009-17.419 3.016-26.124a.92.92 0 0 0 0-.331 1.014 1.014 0 0 0-.902-.912l-54.854-6.313a.662.662 0 0 0 .042-.186l.426-3.613 62.657 7.217v.067l-2.689 23.258a.76.76 0 0 0 .145.599.772.772 0 0 0 .54.297c.087.033.177.055.268.068l22.834 2.628c-3.531 30.413-7.055 60.831-10.572 91.253Z" fill="#000"/><path d="M87.822 207.239c1.618-.06 3.238.008 4.846.204 2.501.297 4.156.908 5.203 2.02a4.426 4.426 0 0 1 1.085 3.655 4.668 4.668 0 0 1-3.663 3.982v.076c1.183.607 1.791 1.906 2.03 3.634.289 2.224.514 4.287.795 5l-3.276-.386a24.662 24.662 0 0 1-.677-4.245c-.225-2.322-.965-3.141-2.765-3.396l-1.6-.186-.85 7.131-3.15-.369 2.022-17.12Zm2.242 8.044 1.885.221c2.127.25 3.616-.722 3.829-2.449.225-1.902-1.013-2.938-3.076-3.18a9.032 9.032 0 0 0-1.979-.076l-.659 5.484ZM104.717 221.6l-2.08 4.742-3.276-.387 7.624-16.699 4.05.475 3.604 18.02-3.404-.399-.991-5.094-5.527-.658Zm5.263-1.812-.851-4.432c-.208-1.095-.353-2.314-.493-3.349h-.051c-.379.972-.779 2.152-1.209 3.145l-1.851 4.118 4.455.518ZM118.416 228.2l-2.212-17.858 3.382.399.719 8.065c.191 2.161.34 4.423.425 6.185h.052c.502-1.796 1.233-3.795 1.982-5.943l2.812-7.641 3.328.391.787 8.184c.195 2.122.327 4.088.366 5.998h.051c.536-1.868 1.182-3.82 1.897-5.858l2.732-7.641 3.229.378-6.722 16.806-3.404-.399-.851-8.376a49.372 49.372 0 0 1-.302-5.624h-.051a62.438 62.438 0 0 1-1.813 5.374l-2.978 7.925-3.429-.365Z" fill="#000" stroke="#000" stroke-width=".731" stroke-miterlimit="10"/><path d="M144.757 255.792c-16.24-6.541-34.773 3.32-38.47 20.376-2.847 13.113 4.569 26.938 17.018 31.956 12.679 5.094 27.229.373 34.658-11.037 9.143-14.636 3.033-34.736-13.206-41.295Z" fill="#FF490C" stroke="#fff" stroke-width=".731" stroke-miterlimit="10"/><path d="M144.761 255.792c-16.244-6.542-34.777 3.324-38.478 20.376-2.842 13.112 4.574 26.938 17.018 31.951 12.679 5.094 27.229.378 34.658-11.037 9.147-14.632 3.038-34.732-13.198-41.29Zm-10.751 52.701c-9.186.085-17.835-4.954-22.656-12.667-4.744-7.586-5.105-17.302-1.306-25.334 3.889-8.214 11.998-13.826 20.988-14.895 10.211-1.219 20.277 3.871 25.672 12.501 5.395 8.63 5.046 19.629-.259 28.127a26.934 26.934 0 0 1-9.668 8.96 27.003 27.003 0 0 1-12.771 3.308Z" fill="#fff"/><path d="M156.512 271.869c-3.34-7.722-10.905-13.121-19.171-14.28a24.918 24.918 0 0 0-11.88 1.344 24.878 24.878 0 0 0-9.878 6.721c-5.578 6.185-7.429 14.934-5.297 22.923 2.514 9.415 10.857 16.432 20.443 17.777 9.586 1.346 18.924-3.238 24.123-11.198a24.957 24.957 0 0 0 1.66-23.287Zm.081 6.838-12.985 7.089c.255-8.068.509-16.133.761-24.196.519.255 1.03.526 1.528.824 2.9 1.73 5.37 4.095 7.223 6.915a22.272 22.272 0 0 1 3.473 9.368Zm-30.353 7.289.286-9.038 7.402-4.037 8.174 5.188c-.094 2.886-.186 5.773-.277 8.659l-7.726 4.216-7.859-4.988Zm16.406-25.168c-.162 5.093-.322 10.177-.481 15.252-6.926-4.392-13.851-8.787-20.775-13.185 6.301-4.211 14.33-4.814 21.256-2.067Zm-22.77 3.175 12.363 7.849-21.081 11.503a23.203 23.203 0 0 1 2.017-10.726 23.256 23.256 0 0 1 6.701-8.626Zm-8.152 23.122a20.903 20.903 0 0 1-.37-1.885l13.389-7.31c-.255 8.187-.514 16.376-.774 24.566a23.465 23.465 0 0 1-7.815-6.344 23.397 23.397 0 0 1-4.43-9.027Zm18.469 17.374a21.835 21.835 0 0 1-4.497-1.239c.159-5.077.319-10.155.481-15.235l20.422 12.968a23.175 23.175 0 0 1-16.406 3.506Zm23.149-10.247a23.317 23.317 0 0 1-5.199 5.646l-12.368-7.832 20.992-11.461a23.273 23.273 0 0 1-3.425 13.647ZM242.642 229.185l-.102-.161-5.335 3.319-11.594 7.217a.652.652 0 0 1-.817-.047.773.773 0 0 1-.23-.246l-5.16-8.244a2450.558 2450.558 0 0 1-5.344-8.575l-.098-.161-16.92 10.519a37338.843 37338.843 0 0 0-29.693 18.491l-.166.098.102.161.779 1.248.727 1.167c3.341 5.332 6.678 10.664 10.011 15.995l3.591 5.744.026.042 25.272 40.408 13.117 20.965 64.303-40.034-42.469-67.906Z" fill="#fff"/><path d="m286.936 296.773-43.282-69.192c0-.026-.042-.047-.059-.077a.865.865 0 0 0-.244-.277.864.864 0 0 0-.339-.147l-28.642-6.614a.828.828 0 0 0-.825.068l-47.847 29.778a.903.903 0 0 0-.4.493.848.848 0 0 0 .051.87c.425.662.825 1.32 1.238 1.982l14.142 22.6 39.006 62.358a.922.922 0 0 0 .353.34.85.85 0 0 0 .975 0l65.52-40.811a.885.885 0 0 0 .425-.7.848.848 0 0 0-.072-.671Zm-46.63-68.381-14.759 9.203-9.233-14.722 23.992 5.519Zm-19.439 108.47-38.291-61.224v-.03l-13.615-21.747c-.502-.802-1-1.609-1.506-2.415l46.417-28.9c3.512 5.604 7.02 11.21 10.526 16.819a.876.876 0 0 0 .294.305.847.847 0 0 0 1.017.051c5.587-3.486 11.176-6.967 16.767-10.442a290903.29 290903.29 0 0 1 42.371 67.745l-63.98 39.838Z" fill="#000"/><path d="m240.799 228.315-.451-.102-23.991-5.539-.426-.107 9.564 15.282 15.304-9.534Z" fill="#fff"/><path d="m239.587 268.141 1.893 2.878 7.658-4.436-14.585-6.079.341.522c1.585 2.369 3.15 4.74 4.693 7.115ZM207.715 293.288l.388.123 25.255 8.039 6.024 1.919-24.098-14.933-7.569 4.852ZM214.451 287.502l-6.22-10.927-1.238 15.706.323-.203 6.982-4.479.153-.097ZM213.234 282.854l1.753 3.081.098-.505c1.103-5.801 2.208-11.603 3.314-17.404l.196-1.036-3.259 2.509-6.616 5.073-.132.102.085.144c1.512 2.677 3.033 5.356 4.561 8.036ZM232.077 268.493l7.782 2.288-7.118-10.829-4.952 2.335-5.306 2.496-1.161.539.481.14 10.274 3.031ZM216.514 286.229l20.873-12.734 2.395-1.461-4.641-1.367-14.942-4.389-.205-.059-3.829 20.218.349-.208ZM216.463 287.71l.263.161 21.763 13.491 4.85 3.001-2.553-31.464-24.323 14.811ZM245.841 269.941l-3.787 2.173-.106.059 2.319 28.25 5.475-32.736-3.901 2.254Z" fill="#FF490C"/><path d="M251.35 266.447a.763.763 0 0 0-.306-.577.777.777 0 0 0-.264-.153l-17.15-7.153a1.946 1.946 0 0 0-.247-.085.852.852 0 0 0-.791 0 3.954 3.954 0 0 0-.536.217l-4.323 2.037-8.347 3.935a.553.553 0 0 0-.12.043h-.034a.63.63 0 0 0-.378.276l-6.935 5.319-3.944 3.022a6.496 6.496 0 0 0-.566.467.807.807 0 0 0-.426.785c0 .077-.025.157-.034.246l-1.467 18.614a.889.889 0 0 0 .744.849l37.534 11.95a.7.7 0 0 0 .608-.06.652.652 0 0 0 .477-.556c2.17-12.978 4.341-25.955 6.514-38.93a.781.781 0 0 0-.009-.246Zm-8.232 37.555-26.294-16.288 23.779-14.488 2.515 30.776Zm-1.562-33.234-6.467-9.848 13.653 5.676-7.186 4.172Zm-25.144 15.282c1.248-6.532 2.491-13.063 3.731-19.595l19.175 5.659-22.906 13.936Zm-1.128 2.619 22.69 14.055-29.812-9.492 7.122-4.563Zm-8.084 3.252 1.17-14.713 5.821 10.23-6.991 4.483Zm34.939-19.625 7.331-4.244-5.157 30.822c-.718-8.858-1.442-17.717-2.174-26.578Zm-14.274-9.839 4.48-2.123.319-.153 6.739 10.256-17.554-5.157 6.016-2.823Zm-9.552 4.987-3.403 17.948c-2.02-3.557-4.044-7.114-6.072-10.672l9.475-7.276Z" fill="#000"/><path d="M461.144 257.643a4.19 4.19 0 0 0 4.195-4.186 4.19 4.19 0 0 0-4.195-4.186 4.19 4.19 0 0 0-4.195 4.186 4.19 4.19 0 0 0 4.195 4.186Z" fill="#FF490C"/><path d="M461.14 258.216a4.766 4.766 0 0 1-4.768-4.717 4.76 4.76 0 0 1 .611-2.372 4.763 4.763 0 0 1 4.113-2.42 4.77 4.77 0 0 1 4.151 2.354 4.739 4.739 0 0 1 .022 4.763 4.772 4.772 0 0 1-4.129 2.392Zm0-8.376a3.626 3.626 0 0 0-3.032 1.636 3.613 3.613 0 0 0 .649 4.705 3.63 3.63 0 0 0 2.379.893 3.643 3.643 0 0 0 3.161-1.847 3.569 3.569 0 0 0 .327-2.746 3.613 3.613 0 0 0-1.296-1.902 3.64 3.64 0 0 0-2.184-.739h-.004Z" fill="#000"/><path d="M325.206 202.107a4.19 4.19 0 0 0 4.195-4.185 4.19 4.19 0 0 0-4.195-4.186 4.19 4.19 0 0 0-4.195 4.186 4.19 4.19 0 0 0 4.195 4.185Z" fill="#FF490C"/><path d="M325.201 202.68a4.764 4.764 0 0 1-4.406-2.937 4.751 4.751 0 0 1 3.476-6.488 4.775 4.775 0 0 1 4.896 2.023 4.75 4.75 0 0 1-.595 6.007 4.778 4.778 0 0 1-3.371 1.395Zm0-8.371a3.626 3.626 0 0 0-3.349 2.234 3.612 3.612 0 0 0 2.645 4.931 3.634 3.634 0 0 0 3.72-1.542 3.607 3.607 0 0 0-.454-4.565 3.631 3.631 0 0 0-2.562-1.058Z" fill="#000"/><path d="M213.302 259.057a4.16 4.16 0 0 0 4.165-4.156 4.16 4.16 0 0 0-4.165-4.156 4.16 4.16 0 0 0-4.165 4.156 4.16 4.16 0 0 0 4.165 4.156Z" fill="#FF490C"/><path d="M213.303 259.63h-.341a4.74 4.74 0 0 1-3.779-2.373 4.727 4.727 0 0 1-.12-4.454 4.738 4.738 0 0 1 7.813-.98 4.67 4.67 0 0 1 1.145 3.43 4.731 4.731 0 0 1-1.502 3.109 4.753 4.753 0 0 1-3.216 1.268Zm0-8.312a3.59 3.59 0 0 0-3.3 2.16 3.577 3.577 0 0 0 .675 3.879 3.6 3.6 0 0 0 5.494-.292 3.58 3.58 0 0 0 .717-1.926 3.574 3.574 0 0 0-.872-2.597 3.594 3.594 0 0 0-2.455-1.224c-.093-.004-.183-.004-.268-.004l.009.004Z" fill="#000"/><path d="M144.986 248.512a3.778 3.778 0 0 0 3.783-3.773 3.778 3.778 0 0 0-3.783-3.774 3.778 3.778 0 0 0-3.782 3.774 3.778 3.778 0 0 0 3.782 3.773Z" fill="#FF490C"/><path d="M144.991 249.085h-.222a4.381 4.381 0 0 1-3.043-1.337 4.367 4.367 0 0 1-1.224-3.085 4.366 4.366 0 0 1 1.302-3.052 4.38 4.38 0 0 1 3.076-1.26 4.378 4.378 0 0 1 4.378 4.312 4.363 4.363 0 0 1-1.224 3.085 4.381 4.381 0 0 1-3.043 1.337Zm0-7.547a3.22 3.22 0 0 0-3.14 3.253 3.215 3.215 0 0 0 3.221 3.173 3.215 3.215 0 0 0 3.22-3.173 3.22 3.22 0 0 0-3.14-3.253h-.161Z" fill="#000"/><path d="M153.087 129.905a4.033 4.033 0 0 0 4.037-4.029 4.032 4.032 0 0 0-4.037-4.028 4.033 4.033 0 0 0-4.038 4.028 4.034 4.034 0 0 0 4.038 4.029Z" fill="#FF490C"/><path d="M153.078 130.477a4.62 4.62 0 0 1-3.122-1.235 4.59 4.59 0 0 1-.469-6.225 4.612 4.612 0 0 1 2.902-1.688c.231-.034.464-.051.697-.051a4.617 4.617 0 0 1 3.139 1.223 4.59 4.59 0 0 1 .474 6.241 4.615 4.615 0 0 1-2.919 1.68 4.86 4.86 0 0 1-.702.055Zm0-8.065a3.465 3.465 0 0 0-2.795 1.409 3.452 3.452 0 0 0-.634 2.568c.128.812.54 1.552 1.163 2.09a3.498 3.498 0 0 0 2.24.848c.177-.002.353-.016.528-.043a3.456 3.456 0 0 0 2.94-3.677 3.462 3.462 0 0 0-3.459-3.195h.017Z" fill="#000"/><path d="M287.659 109.257a3.99 3.99 0 0 0 3.995-3.986 3.99 3.99 0 0 0-3.995-3.986 3.991 3.991 0 0 0-3.995 3.986 3.99 3.99 0 0 0 3.995 3.986Z" fill="#FF490C"/><path d="M287.663 109.831a4.576 4.576 0 0 1-3.087-1.201 4.551 4.551 0 0 1-.531-6.139 4.571 4.571 0 0 1 3.627-1.778 4.565 4.565 0 0 1 4.571 4.163 4.556 4.556 0 0 1-3.788 4.883 4.565 4.565 0 0 1-.792.072Zm0-7.976c-.199 0-.398.017-.595.051a3.424 3.424 0 0 0-2.11 1.289 3.408 3.408 0 0 0 .403 4.587 3.431 3.431 0 0 0 2.898.852 3.425 3.425 0 0 0 2.162-1.27 3.412 3.412 0 0 0-.401-4.64 3.429 3.429 0 0 0-2.348-.882l-.009.013Z" fill="#000"/><path d="M401.775 143.986a4.365 4.365 0 0 0 4.37-4.36 4.364 4.364 0 0 0-4.37-4.359 4.364 4.364 0 0 0-4.369 4.359 4.364 4.364 0 0 0 4.369 4.36Z" fill="#FF490C"/><path d="M401.776 144.558a4.84 4.84 0 0 1-1.106-.123 4.943 4.943 0 0 1-2.921-1.957 4.93 4.93 0 0 1 .735-6.52 4.958 4.958 0 0 1 3.283-1.261c.372.001.743.042 1.107.123 1.181.273 2.22.97 2.92 1.958a4.928 4.928 0 0 1-.735 6.519 4.946 4.946 0 0 1-3.283 1.261Zm0-8.719a3.807 3.807 0 0 0-2.527.965 3.79 3.79 0 0 0-.57 5.014 3.801 3.801 0 0 0 5.783.492 3.784 3.784 0 0 0 0-5.361 3.806 3.806 0 0 0-2.686-1.11ZM114.004 138.972a5.865 5.865 0 0 0-3.604.667.32.32 0 0 0-.115-.098c-.476-.238-.97.178-1.314.484-.357.309-.62.71-.762 1.159a.366.366 0 0 0 .319.492 7.287 7.287 0 0 0-.506 3.108c.03.535.851.7.974.131.281-1.231.256-2.428.958-3.532.893-1.4 2.693-1.163 4.05-1.604.357-.106.438-.739 0-.807ZM191.813 128.898a.29.29 0 0 0 0-.059c-.034-1.214-.945-1.999-2.051-2.377a3.733 3.733 0 0 0-.744-.319c.158-.113.291-.258.39-.426.1-.167.164-.353.188-.546.094-1.031-.94-2.097-1.782-2.547a.447.447 0 0 0-.541.697c.29.365 1.774 1.485 1.115 1.986l-.055.038-.256.102a4.521 4.521 0 0 1-.778.187.517.517 0 0 0-.362.361.421.421 0 0 0 0 .276c-.149 0-.293 0-.425.038a.464.464 0 0 0-.328.79.463.463 0 0 0 .328.135c.425 0 .812.022 1.212.047l.396.034a2.801 2.801 0 0 1 2.204 1.189c.561.849.387 1.91.851 2.759a.421.421 0 0 0 .398.172.427.427 0 0 0 .342-.266c.058-.246.081-.499.068-.751a3.1 3.1 0 0 0-.17-1.52ZM170.603 127.133c-.298-.424-.817-.484-.979-1.04-.136-.458-.076-1.205-.587-1.435a.298.298 0 0 0-.344.043c-.426.403-.162 1.477 0 1.969.204.561.876 1.181 1.502 1.147a.454.454 0 0 0 .467-.453.454.454 0 0 0-.059-.231ZM171.003 107.72a2.345 2.345 0 0 0-2.876-.501 1.363 1.363 0 0 0-.425.378 3.477 3.477 0 0 0-1.136-1.762 3.276 3.276 0 0 0-2.2-.993 3.379 3.379 0 0 0-.804 0 2.757 2.757 0 0 0-1.332.263.32.32 0 0 0-.15.268.318.318 0 0 0 .15.267c.94.476 2.085.187 3.08.645 1.396.646.996 1.906 1.515 3.031a.362.362 0 0 0 .105.125.359.359 0 0 0 .311.064.368.368 0 0 0 .146-.074.724.724 0 0 0 .344.463.36.36 0 0 0 .426-.056c.481-.424.042-1.158.489-1.647.447-.488 1.276.132 1.702.374.566.327 1-.403.655-.845ZM197.526 211.658c.056-.679.056-1.36 0-2.038a8.246 8.246 0 0 0-.37-2.369.384.384 0 0 0-.749.102c-.098 1.698.064 3.311-.425 4.971-.579 1.914-3.974 1.957-5.565 2.479a.518.518 0 0 0-.306.239.503.503 0 0 0 .192.69.502.502 0 0 0 .386.047c1.243-.203 2.8-.382 4.089-.925a.396.396 0 0 0 .106.076c.148.071.309.114.472.128a.49.49 0 0 0 .311.148c.373.013.737-.117 1.017-.365a.422.422 0 0 0 .547-.017.411.411 0 0 0 .112-.161c.336-.819.549-2.135.183-3.005ZM109.197 113.527c-.515-.135-.987-.118-1.434-.466a2.17 2.17 0 0 1-.761-1.669.423.423 0 0 0-.213-.382 1.394 1.394 0 0 1 .281-.87c.455-.501 1.276-.424 1.889-.531.612-.106.383-.925-.136-.976a3.354 3.354 0 0 0-2.553.726c-.553.48-.94 1.757-.477 2.386.063.086.15.151.251.186.044.675.329 1.31.804 1.792.532.569 1.558 1.027 2.332.806a.522.522 0 0 0 .017-1.002ZM160.966 132.803a.395.395 0 0 0-.383-.179.389.389 0 0 0-.323.273c-.221.526 0 1.121-.23 1.664-.23.543-.987.522-1.421.913a.459.459 0 0 0-.114.43.457.457 0 0 0 .31.321c.774.25 1.676-.348 2.089-.968.412-.62.515-1.842.072-2.454ZM158.584 111.033a3.984 3.984 0 0 0-2.923-.17c-.327.149-.174.577.09.679.638.251 1.412.144 2.084.293.788.174.651.904.975 1.456a.425.425 0 0 0 .8-.102 2.016 2.016 0 0 0-1.026-2.156ZM83.87 115.825h-.149a3.084 3.084 0 0 0-2.6.73c-.608.543-.927 1.936-.425 2.623a.42.42 0 0 0 .368.212.427.427 0 0 0 .368-.212c.302-.603-.043-1.324.455-1.872.498-.547 1.336-.424 1.953-.679a.358.358 0 0 0 .213-.318l.021-.026c.11-.157.055-.492-.204-.458ZM84.589 140.445c-.762-.204-1.251-.425-1.54-1.202-.213-.581-.137-1.239-.426-1.778a.372.372 0 0 0-.564-.094.373.373 0 0 0-.117.179c-.323.793 0 1.906.392 2.627a2.239 2.239 0 0 0 2.255 1.176c.476-.076.43-.798 0-.908ZM155.185 122.375a.636.636 0 0 0-.375-.246c-.851-.654-2.059.394-1.787 1.401.068.254.179.505.481.513a.244.244 0 0 0 .243-.187.369.369 0 0 0 .085-.203c.038-.306.03-.658.327-.849.298-.191.639.11.928-.077a.272.272 0 0 0 .098-.352ZM152.215 126.865a.177.177 0 0 0-.128-.165c-.297-.106-.582.115-.85.238a3.795 3.795 0 0 0-.388.22.857.857 0 0 0-.289.225 1.47 1.47 0 0 0-.204.221c-.37.48-.455 1.312.106 1.698.09.105.204.187.332.238a.594.594 0 0 0 .345.08.29.29 0 0 0 .276-.232.291.291 0 0 0-.004-.128c-.081-.399-.545-.561-.472-1.036.055-.34.357-.425.544-.599.353-.237.702-.454.732-.76ZM155.997 127.548c-.217-.314-.791-.848-1.191-.636a.195.195 0 0 0-.102.178c.038.297.268.369.498.526a.629.629 0 0 1 .324.385.62.62 0 0 1-.069.498c-.204.306.251.646.502.387a1.048 1.048 0 0 0 .038-1.338ZM157.193 125.473c-.115-.208-.506-.191-.544.072-.039.264 0 .374-.243.455a1.152 1.152 0 0 1-.706-.09.297.297 0 0 0-.151 0 .293.293 0 0 0-.13.077.268.268 0 0 0-.081.165v.034a.291.291 0 0 0 .209.276 1.53 1.53 0 0 0 1.251 0 .763.763 0 0 0 .395-.989ZM291.671 103.955v-.025a.348.348 0 0 0-.17-.425 1.366 1.366 0 0 0-1.128-.526.309.309 0 0 0-.268 0l-.042.03a1.46 1.46 0 0 0-.885.717 2.683 2.683 0 0 0-.243.268.345.345 0 0 0-.064.148.25.25 0 0 0-.035.125.251.251 0 0 0 .103.202.256.256 0 0 0 .126.034.256.256 0 0 0 .126-.034c.078-.044.154-.094.225-.149a.208.208 0 0 0 .085-.055v-.025c.094-.072.183-.149.268-.221l.119-.093c.122-.063.255-.102.392-.115.425-.025.6.335.787.628.187.293.595.166.57-.157v-.106a.27.27 0 0 0 .034-.221ZM286.127 104.987a1.146 1.146 0 0 0-.558-.263 4.38 4.38 0 0 0-.621-.136 1.091 1.091 0 0 0-.927.221c-.426.399-.66 1.341-.268 1.842.038.199.115.39.225.56.166.246.634.187.604-.161-.042-.488-.344-1.01 0-1.452.345-.441.979-.076 1.417-.195a.254.254 0 0 0 .185-.171.252.252 0 0 0-.057-.245ZM290.871 107.56a.426.426 0 0 0-.123-.127.346.346 0 0 0-.353 0 .555.555 0 0 1-.553.123c-.192-.081-.26-.259-.392-.403-.132-.145-.425-.022-.425.182a.944.944 0 0 0 .646.849 1.144 1.144 0 0 0 1.166-.212.34.34 0 0 0 .034-.412ZM288.229 106.961a.204.204 0 0 0-.208.055c-.268.276-.055.76-.06 1.103a.558.558 0 0 1-.327.514c-.183.076-.37 0-.536.136a.203.203 0 0 0-.073.276c.375.526 1.175.055 1.443-.348.268-.404.357-1.567-.239-1.736Z" fill="#000"/><path d="M405.583 141.112a1.576 1.576 0 0 0-.944-1.163.905.905 0 0 0-.945-.255.203.203 0 0 0-.15.209.197.197 0 0 0 .027.088c.126.158.288.285.472.37.304.198.526.5.625.849a1.353 1.353 0 0 1-.217 1.107c-.153.251-.357.332-.425.629a.203.203 0 0 0 .136.242.83.83 0 0 0 .889-.51c.515-.297.604-1.052.532-1.566ZM402.112 137.002a1.61 1.61 0 0 0-.757-1.396 1.671 1.671 0 0 0-1.766.233l-.038.03a2.586 2.586 0 0 0-1.03.717c-.136.174 0 .514.243.425.425-.153.774-.425 1.195-.603.269-.117.571-.134.851-.047.073.043.143.091.209.145.175.173.319.375.425.598 0 .06.038.119.055.174a.33.33 0 0 0 .405.229.326.326 0 0 0 .229-.403.837.837 0 0 1-.021-.102ZM399.252 140.857a.523.523 0 0 0-.425-.046.759.759 0 0 1-.562.025c-.251-.14-.2-.548-.425-.722a.188.188 0 0 0-.074-.042.184.184 0 0 0-.084-.008.19.19 0 0 0-.14.089c-.251.352.026.951.323 1.188.194.144.432.215.673.2.276.024.551-.061.765-.238a.274.274 0 0 0 .069-.108c.015-.041.02-.084.015-.127a.288.288 0 0 0-.135-.211ZM400.524 141.574a.185.185 0 0 0-.039-.108.188.188 0 0 0-.093-.066c-.476-.183-1.063.496-1.195.895a1.133 1.133 0 0 0 .463 1.354.36.36 0 0 0 .366 0l.043-.025a.276.276 0 0 0 .105-.104.274.274 0 0 0 .039-.142c0-.378-.506-.476-.319-.904.149-.34.626-.506.63-.9ZM329.133 198.911a.257.257 0 0 0-.251-.191.634.634 0 0 0-.463.297 5.802 5.802 0 0 1-.498.518.159.159 0 0 0-.047.072 1.554 1.554 0 0 0-.728-.255c-.136 0-.948-.089-.791.297.204.501 1.047.162 1.221.629.102.276-.361.628-.519.793a.765.765 0 0 0-.268.705.241.241 0 0 0 .201.173.266.266 0 0 0 .093-.007 2.67 2.67 0 0 0 .893-.824c.144-.186.243-.402.289-.632h.06a.482.482 0 0 0 .251-.62c.293-.263.638-.603.557-.955ZM144.029 241.512a.298.298 0 0 0 .061-.315.299.299 0 0 0-.265-.181c-1.277.038-1.736 2.177-.626 2.763a.332.332 0 0 0 .451-.424c-.187-.327-.425-.565-.353-.972.072-.408.421-.62.732-.871ZM145.561 247.919c-.456 0-.745-.123-.894-.59-.123-.387.068-.76 0-1.142a.255.255 0 0 0-.064-.117.25.25 0 0 0-.25-.062.251.251 0 0 0-.111.073c-.477.424-.354 1.324-.094 1.846a1.28 1.28 0 0 0 1.583.62c.34-.161.161-.628-.17-.628ZM147.08 241.509c-.098 0-.217.089-.205.203a.554.554 0 0 0 .183.382c.17.186.291.411.353.654.179.59-.731.501-.85.96a.225.225 0 0 0 .059.22c.511.425 1.221-.31 1.391-.764.171-.454-.323-1.694-.931-1.655ZM148.236 244.76a1.623 1.623 0 0 0-.944-.255 1.576 1.576 0 0 0-1.106.387.224.224 0 0 0-.055.21c.01.037.029.07.056.097a.23.23 0 0 0 .097.058c.425.119.85-.161 1.276-.077.744.149.362.807.4 1.304a.264.264 0 0 0 .317.255.273.273 0 0 0 .134-.073 1.305 1.305 0 0 0-.175-1.906ZM211.813 251.59c.225-.187 0-.607-.285-.497a1.92 1.92 0 0 0-.894.722.237.237 0 0 0-.127.102 3.02 3.02 0 0 0-.234.424.297.297 0 0 0-.085.064.925.925 0 0 0-.234.849.304.304 0 0 0 .307.212.302.302 0 0 0 .183-.073.3.3 0 0 0 .101-.169.9.9 0 0 0 .651.573c.247.043.549-.216.366-.471-.183-.254-.426-.386-.455-.726-.026-.437.4-.759.706-1.01ZM215.4 257.848c-.396.14-.787.34-1.106-.076-.319-.416 0-.93-.226-1.355a.278.278 0 0 0-.083-.091.257.257 0 0 0-.239-.028.25.25 0 0 0-.103.069 1.393 1.393 0 0 0-.238 1.044c.013.228.082.449.199.645a.365.365 0 0 0-.237.15.35.35 0 0 0-.056.275.696.696 0 0 0 .668.5.274.274 0 0 0 .289-.288 1.285 1.285 0 0 0 1.498-.331c.191-.255-.102-.612-.366-.514ZM216.613 252.164c-.094-.552-.924-1.308-1.49-1.015a.173.173 0 0 0-.063.234.685.685 0 0 0 .387.318 1.028 1.028 0 0 1 .54.633c.162.543-.587.815-.549 1.316 0 .058.024.114.065.156a.224.224 0 0 0 .157.064c.736-.008 1.05-1.146.953-1.706ZM216.863 254.401a1.885 1.885 0 0 0-1.825.356.312.312 0 0 0 .079.568.31.31 0 0 0 .236-.033c.365-.208.816-.45 1.246-.267.357.153.162.552.379.798a.269.269 0 0 0 .259.068h.056a.34.34 0 0 0 .246-.246 1.115 1.115 0 0 0-.676-1.244ZM459.693 249.773s0 .027 0 0c0 0 .017-.022 0 0ZM459.646 249.99a.237.237 0 0 0 .031-.104.241.241 0 0 0-.175-.248c-.626-.17-1.123.573-1.251 1.091a1.54 1.54 0 0 0 .927 1.749.36.36 0 0 0 .444-.39.358.358 0 0 0-.099-.204c-.353-.293-.664-.574-.545-1.079.085-.39.468-.518.668-.815ZM462.735 249.646c-.072.025-.153.098-.14.183.051.394.481.577.587.976.157.573-.63.811-.706 1.299a.25.25 0 0 0-.003.109.253.253 0 0 0 .046.098.243.243 0 0 0 .191.094c.689 0 1.183-.968 1.161-1.562-.021-.475-.57-1.396-1.136-1.197ZM461.73 256.523a1.437 1.437 0 0 0-.123-1.129c-.128-.195-.485-.195-.532.068-.072.382.064.772-.128 1.133-.191.361-.795.301-1.161.293a.248.248 0 0 0-.252.216.249.249 0 0 0 .184.276 1.696 1.696 0 0 0 1.331-.025.208.208 0 0 0 .034.072l.051.068a.341.341 0 0 0 .396.051c.215-.132.39-.32.506-.543a.317.317 0 0 0 0-.337.316.316 0 0 0-.306-.143ZM459.272 253.072a1.521 1.521 0 0 0-1.812-.081c-.592.467-.639 1.248-.498 1.932a.36.36 0 0 0 .259.259.354.354 0 0 0 .29-.034.403.403 0 0 0 .174-.425 1.365 1.365 0 0 1 .196-1.167c.298-.336.851-.043 1.191 0a.284.284 0 0 0 .2-.484ZM167.442 209.472a3.192 3.192 0 0 0-1.957-1.065 1.829 1.829 0 0 0-.426-.497l-.034-.026a.454.454 0 0 0-.229-.369.432.432 0 0 0-.494.034.537.537 0 0 0-.51.514c0 .178-.03.356-.043.535a.435.435 0 0 0 .028.182c.023.058.059.11.104.153-.826.76-1.438 2.386-.872 3.396a.352.352 0 0 0 .304.169.353.353 0 0 0 .304-.169c.426-.628.26-1.52.651-2.208.621-1.112 1.702-.505 2.391.136a.56.56 0 0 0 .751-.036.556.556 0 0 0 .032-.749Z" fill="#000"/><path d="M163.779 207.269c.123-.998-.783-1.749-1.915-2.208a5.18 5.18 0 0 0-3.403-.598.363.363 0 0 0-.217.501.3.3 0 0 0 .166.301c.646.331 1.425.357 2.127.535a7.28 7.28 0 0 1 1.234.424 2.555 2.555 0 0 1 .889 2.221c-.03.59.766.598.953.127.182-.409.24-.862.166-1.303ZM183.699 232.687a4.086 4.086 0 0 0-2.162-.947c.244-.089.469-.221.664-.391.077-.067.147-.143.209-.224.098.151.211.293.336.424a.568.568 0 0 0 .791 0 .575.575 0 0 0 0-.794 2.448 2.448 0 0 0-.583-.543.424.424 0 0 0-.144-.06 1.559 1.559 0 0 0-.673-1.591.425.425 0 0 0-.655.373c-.042.616.609 1.193-.055 1.698-.664.505-1.417.034-2.072.306-.234.093-.426.424-.166.624.246.193.54.318.851.361a.333.333 0 0 0-.013.2.33.33 0 0 0 .102.173c.66.586 1.621.48 2.4.849 1.166.526.502 2.123 1.034 3.044a.422.422 0 0 0 .409.186.428.428 0 0 0 .348-.284c.191-1.006.14-2.661-.621-3.404ZM163.332 229.121c-.664-.585-1.238-.849-1.204-1.867.025-.722.28-1.397-.068-2.068a.398.398 0 0 0-.384-.18.388.388 0 0 0-.201.09.384.384 0 0 0-.122.184c-.451 1.795-.502 3.871 1.502 4.669.46.17.83-.514.477-.828ZM102.041 230.59a6.62 6.62 0 0 0-3.791.378.535.535 0 0 0-.195-.456.538.538 0 0 0-.486-.104 4.053 4.053 0 0 0-.566.263.514.514 0 0 0-.021-.212.48.48 0 0 0-.8-.208 2.544 2.544 0 0 0-.528 1.112.444.444 0 0 0 .094.391 3.628 3.628 0 0 0-.306.454 1.942 1.942 0 0 0-.256.339.424.424 0 0 0-.038.297 3.808 3.808 0 0 0-.132.476.472.472 0 0 0 .15.458 8.028 8.028 0 0 0-1.022 3.94.43.43 0 0 0 .366.484.432.432 0 0 0 .485-.365c.676-1.656.761-3.354 1.953-4.801 1.191-1.448 3.199-1.524 4.944-1.482.557-.004.697-.866.149-.964ZM151.738 233.91a2.447 2.447 0 0 0-.051-.399.34.34 0 0 0-.613-.076c-.047.069-.09.141-.127.216a1.138 1.138 0 0 0-.132.306c-.109.37-.273.722-.485 1.044-.157.2-.375.342-.621.404-.277.076-.554-.128-.851-.115a.423.423 0 0 0-.441.353.423.423 0 0 0 .015.203c.209.603.851.726 1.421.607.029.021.06.036.094.047.97.293 2.114-1.618 1.791-2.59ZM153.862 210.512a2.88 2.88 0 0 0-2.472-1.035c-.507 0-.66.823-.124.916.63.107 1.23.145 1.702.641.379.425.319.934.362 1.44a.459.459 0 0 0 .851.229c.391-.684.115-1.588-.319-2.191ZM100.288 199.145c.604-.246 1.225.089 1.829-.055a.42.42 0 0 0 .27-.293.427.427 0 0 0-.091-.387 2.016 2.016 0 0 0-1.034-.399.42.42 0 0 0-.213-.28c-1.497-.696-2.838 1.919-2.43 3.112.011.028.024.055.04.08.028.814.327 1.595.85 2.221.506.645 1.757 1.485 2.574 1.048a.429.429 0 0 0 .189-.302.426.426 0 0 0-.108-.339 1.461 1.461 0 0 0-.757-.365 2.567 2.567 0 0 1-1.004-.637c-.634-.598-.728-1.443-.758-2.262.043-.132.068-.268.098-.399.11-.297.166-.59.545-.743ZM76.394 201.123a3.052 3.052 0 0 0-1.17-.387c-1.99-.539-4.837.701-4.544 3.035a.36.36 0 0 0 0 .064 6.084 6.084 0 0 0-.14 2.072c.06.492.787.675.923.123.32-1.274.2-2.526 1.124-3.557 1.008-1.125 2.48-.366 3.705-.65a.395.395 0 0 0 .264-.319.398.398 0 0 0-.162-.381ZM71.701 226.694c-1-.718-1.812-1.168-2.127-2.458v-.195c0-.158-.034-.319-.042-.484v-.039a1.147 1.147 0 0 0 0-.123c0-.297.046-.59.08-.887.14-.815.383-1.613.217-2.424a.243.243 0 0 0-.18-.182.242.242 0 0 0-.133.004.242.242 0 0 0-.112.072c-1.761 1.999-1.276 6.529 1.242 7.756a.506.506 0 0 0 .651-.128h.039c.544.263.8-.594.365-.912ZM174.492 321.606a3.58 3.58 0 0 0-.192-1.346.246.246 0 0 0-.476 0c-.349.849-.349 1.809-.634 2.696-.468 1.447-1.927 1.103-3.042 1.507a.424.424 0 1 0 0 .849c.364.085.739.106 1.11.063.83.289 1.826-.259 2.396-.849a3.518 3.518 0 0 0 .838-2.92ZM88.243 314.814a4.15 4.15 0 0 0-.783-.306 1.302 1.302 0 0 1-.612-.794c-.124-.675.046-1.54-.073-2.084a.338.338 0 0 0-.06-.136c0-.051 0-.102-.029-.152a.27.27 0 0 0-.226-.192.268.268 0 0 0-.267.128c-.102.14-.187.293-.251.454-.75 1.524.042 3.914 1.889 4.024a.464.464 0 0 0 .4-.148.475.475 0 0 0 .17-.621.473.473 0 0 0-.158-.173ZM246.126 232.678a3.536 3.536 0 0 0-.532-.747.424.424 0 0 0-.145-.547 6.6 6.6 0 0 0-1.783-1.044l-.178-.124a.679.679 0 0 0 .166-.072.456.456 0 0 0 .161-.611c-.2-.454-.851-.446-1.276-.378a2.186 2.186 0 0 0-.728.246.43.43 0 0 0-.435.218.434.434 0 0 0-.05.164l-.034.039a6.202 6.202 0 0 0-1.276.093 2.12 2.12 0 0 0 .608-1.015.535.535 0 0 0 .098 0 .569.569 0 1 0 0-1.137.571.571 0 0 0-.251.055c-.391-.654-1.251-1.172-1.914-.951a.38.38 0 0 0-.226.552c.328.463 1.051.463 1.277 1.023.225.56-.907.998-1.171 1.358a.39.39 0 0 0-.035.325.371.371 0 0 0 .231.231 4.794 4.794 0 0 0-1.553 1.189c-.306.352.081.93.515.667 1.881-1.138 3.74-1.669 5.608-.934.153.097.302.203.425.314.66.518 1.183 1.201 1.859 1.698.417.301.826-.23.639-.612ZM226.772 237.072c-.298 0-.566.123-.851.144a1.49 1.49 0 0 1-1.029-.399c-.251-.212-.605-1.151-1.081-.798-.477.352-.226.819.106 1.235.185.338.445.629.762.849a1.573 1.573 0 0 0 1.276.382.423.423 0 0 0 .26-.229c.367-.022.711-.185.961-.454a.46.46 0 0 0 .028-.492.466.466 0 0 0-.181-.182.468.468 0 0 0-.251-.056ZM215.434 222.848a.076.076 0 0 1 0-.03c-.157-.637-1.038-.942-1.634-.951-.761 0-1.897.2-2.318.9a.347.347 0 0 0-.019.305.359.359 0 0 0 .227.204.387.387 0 0 0 .498.264c.659-.208 1.068-.607 1.816-.425.609.166.749.815 1.277 1.036a.366.366 0 0 0 .44-.074.36.36 0 0 0 .079-.138 1.043 1.043 0 0 0-.366-1.091ZM222.381 336.213c-.464 0-.83.293-1.315.217-.612-.089-.791-.573-1.216-.913a.423.423 0 0 0-.466-.093.425.425 0 0 0-.262.395c0 .793.825 1.366 1.498 1.604.672.238 1.799.14 2.152-.526a.461.461 0 0 0-.001-.453.46.46 0 0 0-.39-.231ZM285.583 296.735a3 3 0 0 0-.252-1.347 3.03 3.03 0 0 0-.824-1.098.362.362 0 0 0-.167-.047.352.352 0 0 0-.361.315.336.336 0 0 0-.229.335c.051.633.493 1.121.561 1.757.068.637-.391.947-.668 1.414a1.36 1.36 0 0 0-.238.425c-.106.326.213.539.498.496.237-.039.46-.14.647-.293a2.175 2.175 0 0 0 1.042-1.698c.003-.086 0-.173-.009-.259ZM279.333 301.638c-1.974.136-4.199 2.708-3.829 4.75a1.315 1.315 0 0 0-.31-.208 1.742 1.742 0 0 0-1.932.569c-.145.182 0 .505.247.424.425-.136.795-.475 1.276-.399.481.077.383.641.583.947a.31.31 0 0 0 .404.103.313.313 0 0 0 .111-.103.737.737 0 0 0 .055-.718.464.464 0 0 0 .477-.309c.353-.926.387-1.805.965-2.67.579-.866 1.387-1.142 2.157-1.66.294-.2.213-.756-.204-.726ZM278.959 319.233c-.476-.213-.957-.242-1.276-.616a2.663 2.663 0 0 1-.145-.233c-.315-.574 0-1.274-.259-1.851a.366.366 0 0 0-.111-.17.353.353 0 0 0-.385-.05.346.346 0 0 0-.151.135.988.988 0 0 0-.106.204c-.4.653-.209 1.63.072 2.288a2.291 2.291 0 0 0 2.127 1.222c.43-.038.728-.726.234-.929ZM383.817 311.108a.282.282 0 0 0-.425.056c-.383.658-.09 1.575-.243 2.322-.272 1.333-1.442 1.354-2.467 1.766a.474.474 0 0 0-.324.519.478.478 0 0 0 .451.415 3.44 3.44 0 0 0 2.978-1.49c.6-.828.822-2.828.03-3.588ZM380.277 208.402a4.82 4.82 0 0 0-.783-3.188.48.48 0 0 0 .404-.65c-.272-.687-.54-1.375-.821-2.059-.281-.683-1.276-.424-1.059.285a2.035 2.035 0 0 0-.724-.289.423.423 0 0 0-.318.056.421.421 0 0 0-.188.263 3.52 3.52 0 0 0-.689-.145 9.46 9.46 0 0 0-.63-.174 2.401 2.401 0 0 0 1.187-.484.463.463 0 0 0 .596.111c.292-.211.597-.403.915-.573a.546.546 0 0 0 .247-.298.536.536 0 0 0-.286-.663.544.544 0 0 0-.387-.024c.106-.425-.179-.76-.4-1.078a3.334 3.334 0 0 0-.851-.905.389.389 0 0 0-.268-.059l-.085-.042a.377.377 0 0 0-.464.462c.188.569.664.951.719 1.575.064.777-.902.879-1.404 1.146a.47.47 0 0 0-.224.353.453.453 0 0 0 .152.39 5.794 5.794 0 0 0-2.323.11.428.428 0 1 0 .119.849c1.464.06 2.74.102 4.059.769a4.529 4.529 0 0 1 1.557 1.604c.766 1.35.494 3.014 1.128 4.407a.455.455 0 0 0 .515.227.45.45 0 0 0 .336-.452c0-.378-.056-.803-.115-1.253a.544.544 0 0 0 .085-.271ZM353.528 202.565c-.693-.297-1.599-.149-1.859-1.027-.132-.455-.132-.947-.23-1.414 0-.25-.029-.505-.046-.764-.03-.484-.8-.654-.894-.123a7.84 7.84 0 0 0 .247 3.353.48.48 0 0 0 .235.308.487.487 0 0 0 .386.04 2.68 2.68 0 0 0 2.051.463.462.462 0 0 0 .332-.381.46.46 0 0 0-.222-.455ZM348.879 174.905a5.059 5.059 0 0 0-2.553-.887 3.902 3.902 0 0 0-1.574-.051.292.292 0 0 0-.142.094.288.288 0 0 0-.069.155.292.292 0 0 0 .026.167.296.296 0 0 0 .112.128l.179.089a.42.42 0 0 0 .264.276 6.81 6.81 0 0 0 1.374.242c.317.081.624.194.919.335 1.042.526 1.323 1.379 1.391 2.458a.467.467 0 0 0 .401.444.47.47 0 0 0 .506-.321c.074-.194.114-.4.119-.607v-.03c.374-.908-.226-1.987-.953-2.492ZM248.007 108.217a16.32 16.32 0 0 0-2.745-.293.435.435 0 0 0-.051-.341.448.448 0 0 0-.28-.202 7.705 7.705 0 0 0-4.255.085.462.462 0 0 0-.026-.157.419.419 0 0 0-.114-.346.432.432 0 0 0-.341-.13 2.492 2.492 0 0 0-2.489 1.877.532.532 0 0 0 .247.607 4.74 4.74 0 0 0-.936 2.521.433.433 0 0 0 0 .072 6.687 6.687 0 0 0-.566 2.309c-.038.518.745.595.881.124.6-2.042 1.515-3.596 3.404-4.67 2.152-1.227 4.829-.632 7.147-.467a.502.502 0 0 0 .124-.989ZM223.879 191.923c-1.204-.403-1.8-1.014-1.978-2.326-.115-.87.255-1.783-.043-2.607-.064-.174-.319-.297-.46-.123a3.23 3.23 0 0 0-.612 1.843c-.332 1.129-.37 2.632.489 3.485a.48.48 0 0 0 .345.149.473.473 0 0 0 .344-.149 2.247 2.247 0 0 0 1.783.704.499.499 0 0 0 .401-.766.506.506 0 0 0-.269-.21ZM328.286 118.478l-.085-.968a.518.518 0 0 0-.545-.475.467.467 0 0 0-.409-.197.465.465 0 0 0-.387.239 4.874 4.874 0 0 0-1.535-1.418c.204-.046.404-.113.595-.199a.852.852 0 0 0 .362-.183.81.81 0 0 0 .196.357.916.916 0 0 0 1.101.178.538.538 0 0 0-.297-.993.52.52 0 0 0-.065-.243.523.523 0 0 0-.174-.182.478.478 0 0 0-.166-.055v-.051c.205-.586-.136-1.078-.272-1.621a.464.464 0 0 0-.247-.293 1.48 1.48 0 0 0-.893-.917.357.357 0 0 0-.332.093.354.354 0 0 0-.094.331c.059.223.161.432.298.616.121.213.213.441.273.679v.081a.53.53 0 0 0 .055.153c.008.038.018.077.03.114.075.245.075.507 0 .752a1.33 1.33 0 0 1-.26.237c-.365.189-.78.258-1.187.196-.425 0-.808-.213-1.17.055a.309.309 0 0 0-.106.424.393.393 0 0 0 .047.068l-.217.038c-.426.085-.324.62 0 .747 1.446.561 2.586.849 3.522 2.225 1.094 1.587.634 3.345.447 5.094-.047.424.579.543.774.208.664-1.117.741-2.666.366-4.126a.526.526 0 0 0 .247-.179.996.996 0 0 0 .128-.785ZM313.119 91.556c-.374-.87-1.804-1.612-2.71-1.197a1.803 1.803 0 0 0-.566.425c.558-2.229-1.868-4.449-4.105-4.13-.362.05-.337.539-.094.704.791.522 1.783.51 2.553 1.168.897.776.425 1.825.583 2.81a.412.412 0 0 0 .22.283.423.423 0 0 0 .358.014 4.66 4.66 0 0 0-.289 1.698.423.423 0 0 0 .477.368.428.428 0 0 0 .204-.084c.536-.526.425-1.35.782-1.982.545-.993 1.49.492 1.953.73a.428.428 0 0 0 .566-.148l.081-.107a.55.55 0 0 0-.013-.552ZM307.66 111.452a2.636 2.636 0 0 1-.911-.624 2.016 2.016 0 0 1-.272-1.274c0-.679.425-1.273.272-1.948-.051-.259-.362-.272-.532-.14-1.387 1.087-1.076 5.128 1.204 4.873a.481.481 0 0 0 .45-.355.485.485 0 0 0-.211-.532ZM248.385 74.347c-.927-.424-2.17-.097-2.931.548-.498.424-1.209 1.375-1.124 2.148a4.455 4.455 0 0 0 0 1.889c.158.747 1.136 1.23 1.787 1.447a.49.49 0 0 0 .471-.124.48.48 0 0 0 .125-.47 1.041 1.041 0 0 0-.468-.581c-.268-.179-.728-.225-.851-.56-.204-.51 0-1.062.026-1.593.115-.402.3-.78.544-1.12.609-.7 1.37-.595 2.191-.612.451-.012.724-.738.23-.972ZM219.883 74.386c-2.378-.85-4.641 1.723-4.254 4.007.064.373.587.382.761.102.426-.726.46-1.618.936-2.352.592-.904 1.507-.726 2.426-.73a.53.53 0 0 0 .495-.459.525.525 0 0 0-.364-.569ZM213.358 100.479c-.213-.204-.464-.314-.681-.518a1.695 1.695 0 0 1-.391-1.18c-.026-.696.399-1.32.34-2.003a.375.375 0 0 0-.63-.263c-.668.645-.919 2.041-.736 2.924.166.815.792 1.94 1.766 1.834a.475.475 0 0 0 .332-.794ZM295.249 114.679a.428.428 0 0 0-.607-.429.42.42 0 0 0-.205.212c-.311.56-.311 1.218-.775 1.698-.578.616-1.582.212-2.293.425a.42.42 0 0 0-.268.34.423.423 0 0 0 .17.398c1.808 1.125 4.212-.62 3.978-2.644ZM296.126 90.621c-.366.06-.324.527-.09.697.698.513 1.596.492 2.247 1.154.651.662.23 1.766.425 2.598a.427.427 0 0 0 .783.102c1.14-2.152-.991-4.933-3.365-4.55ZM316.314 171.934a4.168 4.168 0 0 1-1.587 2.165c-.758.496-1.621.365-2.396.713a.362.362 0 0 0-.127.128.36.36 0 0 0 0 .35.365.365 0 0 0 .127.129c.932.569 2.336-.034 3.17-.569a4.245 4.245 0 0 0 1.834-2.636.535.535 0 0 0-.383-.604.532.532 0 0 0-.638.324ZM394.236 319.963c-.48-.645-1.144-.849-1.165-1.791 0-.79.281-1.596.119-2.373a.391.391 0 0 0-.316-.265.386.386 0 0 0-.373.176c-.515.734-.57 2.122-.481 2.971a2.481 2.481 0 0 0 1.702 1.965c.353.119.765-.339.514-.683ZM484.046 334.824a.296.296 0 0 0-.171-.082.3.3 0 0 0-.186.035c-.298.136-.353.289-.426.595a3.742 3.742 0 0 1-.663 1.452c-.57.67-1.536.496-2.285.734-.426.136-.485.819 0 .917a3.683 3.683 0 0 0 2.88-.739c.626-.509 1.481-2.203.851-2.912ZM502.655 243.673a1.059 1.059 0 0 0-.136-.692c-.081-.2-.166-.395-.247-.594a.492.492 0 0 0-.587-.336.483.483 0 0 0-.259.191 4.625 4.625 0 0 0-1.051-.849c.625-.029 1.251-.276 1.425-.938a.526.526 0 0 0-.302-.598c.106-.803-.136-1.894-.893-2.123a.312.312 0 0 0-.371.212c-.212.59.354 1.168.243 1.796-.072.425-.387.539-.745.594-.672-.046-1.429-.267-1.991-.072a.341.341 0 0 0-.225.374 1.547 1.547 0 0 0-.366.029.35.35 0 0 0-.239.417c.015.057.045.11.086.152.107.093.226.171.353.234.927.666 2.195.849 3.072 1.698 1.229 1.193.791 2.997 1.076 4.491a.425.425 0 0 0 .851 0c.038-.171.066-.344.085-.518a6.02 6.02 0 0 0-.102-3.154.423.423 0 0 0 .323-.314ZM486.535 216.174a2.42 2.42 0 0 0-1.872-1.46.301.301 0 0 0-.093-.085c-.141-.081-.196-.323-.226-.505a.49.49 0 0 0-.477-.365.501.501 0 0 0-.497.496c.003.235.07.464.195.663a.45.45 0 0 0 .056.068c-.83.539-1.702 1.944-1.166 2.861a.365.365 0 0 0 .109.109.371.371 0 0 0 .145.052.365.365 0 0 0 .286-.093c.502-.425.426-1.236.851-1.745.677-.824 1.366-.081 1.736.56.37.641 1.242.081.953-.556Z" fill="#000"/><path d="M482.523 212.308a3.668 3.668 0 0 0-2.689-1.18.454.454 0 0 0-.443.39.455.455 0 0 0 .324.493c.626.255 1.277.28 1.842.734.66.552.481 1.354.532 2.097a.47.47 0 0 0 .726.388.466.466 0 0 0 .193-.265c.143-.448.174-.925.089-1.388a2.887 2.887 0 0 0-.574-1.269ZM480.821 236.967c-.289-.425-.736-.68-.949-1.185-.272-.645-.034-1.218 0-1.863a.425.425 0 0 0-.731-.302c-.575.578-.579 1.533-.392 2.276.187.742.791 1.634 1.532 1.761.357.077.77-.314.54-.687ZM384.072 225.39c-.583-.161-1.004-.144-1.098-.879a8.477 8.477 0 0 1 .064-1.647c.034-.552-.758-.603-.919-.123a3.837 3.837 0 0 0 .098 2.802c.319.649 1.331 1.061 1.961.653a.422.422 0 0 0 .131-.683.426.426 0 0 0-.237-.123ZM393.671 199.255c-.851-.692-1.804-1.095-2.553-1.944-.949-1.061-1.14-2.301-1.6-3.574-.119-.323-.685-.425-.753 0-.071.489-.049.987.064 1.468-.247 1.1.736 2.849 1.791 3.617a5.163 5.163 0 0 0-2.723.509 3.226 3.226 0 0 0-1.446 2.934c.017.061.05.118.095.163a.37.37 0 0 0 .517-.002c.664-.777.605-1.944 1.702-2.343.872-.31 1.859.123 2.693-.336a.427.427 0 0 0 .192-.394 3.927 3.927 0 0 0 1.702.675.456.456 0 0 0 .319-.773ZM416.628 233.026c-.502-.305-1.14-.225-1.702-.242h-.425a.36.36 0 0 0-.077-.063 3.106 3.106 0 0 0-2.208-.14.476.476 0 0 0-.097-.264.477.477 0 0 0-.231-.161 1.553 1.553 0 0 0-1.11.234c-.37.175-.716.398-1.03.662-.31.246-.097.7.213.819-.621.628-1.344 1.643-1.429 2.547a3.23 3.23 0 0 0-.226 1.881v.042a.372.372 0 0 0 .119.327c0 .034.026.072.043.11.161.357.638.191.749-.097.084-.239.145-.485.183-.735a6.105 6.105 0 0 1 2.259-2.992c.995-.675 2.042-.752 3.135-.726h.37l.851.029a.486.486 0 0 0 .468-.462c.062-.023.122-.05.179-.081a.396.396 0 0 0 .185-.354.4.4 0 0 0-.219-.334ZM468.584 239.513a.428.428 0 0 0-.686-.398.43.43 0 0 0-.165.283c-.281.697-.31 1.469-.8 2.076-.595.739-1.455.425-2.25.51-.426.038-.758.708-.251.938a2.644 2.644 0 0 0 2.348-.022.524.524 0 0 0 .455.24.521.521 0 0 0 .439-.269 8.42 8.42 0 0 0 .629-1.541c.056-.183.111-.369.153-.561.115-.408.159-.833.128-1.256ZM472.312 216.43a2.873 2.873 0 0 0-1.199-.849 11.746 11.746 0 0 0-1.804-.731.358.358 0 0 0-.332.094.347.347 0 0 0-.094.331c.213.751 1.055.976 1.702 1.239 1.672.658.957 2.446 1.196 3.821a.42.42 0 0 0 .358.32.425.425 0 0 0 .429-.218c.493-1.036.527-3.048-.256-4.007ZM420.657 199.161c-.702-.785-2.518-.789-3.403-.327-.885.463-1.511 1.397-1.349 2.344a3.206 3.206 0 0 0-.064 2.224c.298.849 1.102 1.18 1.838 1.562.426.217.983-.242.689-.692-.361-.552-1.076-.577-1.433-1.116-.311-.463-.183-1.011-.09-1.541a.428.428 0 0 0 .039-.077c.242-.849.183-1.579 1.208-1.884.851-.251 1.638.322 2.434.068a.347.347 0 0 0 .221-.244.338.338 0 0 0-.09-.317ZM385.31 127.99l-.978.204a6.532 6.532 0 0 0-4.706 1.761.428.428 0 0 0-.536-.182 3.791 3.791 0 0 0-1.115.577.463.463 0 0 0-.459 0l-.039.021a.49.49 0 0 0-.418-.163.486.486 0 0 0-.373.248l-.519.807a.527.527 0 0 0 .425.777c0 .174.03.348.056.526a.381.381 0 0 0 .048.146c.025.046.06.085.101.117-.065.224-.11.452-.137.684a.365.365 0 0 0 .091.302.367.367 0 0 0 .292.122 7.364 7.364 0 0 0 .077 5.226c.047.246.098.492.157.734a.495.495 0 0 0 .841.185.489.489 0 0 0 .125-.317c-.106-2.619-.349-4.937 1.017-7.322 1.276-2.263 4.021-2.827 6.327-3.481a.504.504 0 0 0 .108-.927.502.502 0 0 0-.385-.045ZM495.134 199.883c-.102-.31-.621-.374-.693 0-.222 1.167.246 2.301.4 3.459a2.927 2.927 0 0 1-.609 2.373c-.485.561-1.314.705-1.897 1.129-.315.225-.26.849.221.816 4.08-.4 3.523-4.984 2.578-7.777ZM474.269 101.986a.482.482 0 0 0 .076-.59.802.802 0 0 0-.378-.692 6.635 6.635 0 0 0-.592-.45.51.51 0 0 0-.731.628 4.853 4.853 0 0 0-2.834-.373c.267-.172.497-.396.677-.658a.529.529 0 0 0 .48 0l.294-.157a.599.599 0 0 0 .527.229.484.484 0 0 0 .426-.718.772.772 0 0 0-.153-.182.512.512 0 0 0-.418-.501.513.513 0 0 0-.233.009.468.468 0 0 0-.523-.234 1.94 1.94 0 0 0-.979-1.579.478.478 0 0 0-.426 0 10.017 10.017 0 0 0-1.816-1.363.426.426 0 0 0-.662.393.42.42 0 0 0 .143.278 24.57 24.57 0 0 0 1.965 1.72c.992.882.273 1.51-.493 2.007-.243.132-.498.255-.732.425-.264.046-.527.085-.77.144a.426.426 0 0 0-.368.482.43.43 0 0 0 .483.367c.178.01.357.01.536 0a.546.546 0 0 0 .285.042c.162-.027.32-.077.468-.148.236-.048.467-.114.693-.195-.144.301 0 .751.426.708a4.831 4.831 0 0 1 3.204.62c1.182.722 1.561 2 1.812 3.265.111.577.97.424.991-.132a4.415 4.415 0 0 0-1.378-3.345ZM449.912 103.964c-.987-.097-1.702 0-2.264-.976-.361-.637-.166-1.698-.723-2.156a.313.313 0 0 0-.426 0c-.215.299-.307.67-.255 1.035-.01.75.196 1.486.592 2.123.425.692 1.467 1.481 2.289 1.057.313.018.628-.006.936-.072.582-.145.383-.96-.149-1.011ZM446.682 81.724a1.414 1.414 0 0 0-.242-.305c-.124-.607-.69-.85-1.332-.879a3.231 3.231 0 0 0-1.085-.136.547.547 0 0 0-.328-.318 1.02 1.02 0 0 0-.931.115.968.968 0 0 0-.426.98c.031.11.095.208.183.28-.035.114-.062.23-.081.348a3.408 3.408 0 0 0-1.276-2.466 3.883 3.883 0 0 0-3.829-.11.422.422 0 0 0-.023.665c.065.056.146.09.231.099 1.004.042 1.881-.387 2.859.097.979.484.762 1.639 1.277 2.369a.425.425 0 0 0 .753-.068v.446a3.15 3.15 0 0 0 .54 2.037.427.427 0 0 0 .783-.212c-.034-.5-.1-.998-.2-1.49a2.89 2.89 0 0 0 0-.395c.015-.198.068-.39.157-.568a1.081 1.081 0 0 1 .932-.527l.145.034c.51.14.936.514 1.442.62a.427.427 0 0 0 .499-.387.423.423 0 0 0-.048-.229ZM371.729 98.874c-.268-.076-.544-.067-.812-.131a1.905 1.905 0 0 1-.89-.56c-.523-.544-.289-1.244-.57-1.847 0 0-.025 0-.034-.034a2.118 2.118 0 0 1 .204-1.698c.426-.726 1.217-.705 1.864-1.07a.426.426 0 0 0 .187-.408.425.425 0 0 0-.285-.347 1.615 1.615 0 0 0-1.336.131.468.468 0 0 0-.166-.055c-.591-.055-1.072.552-1.365.99l-.039.063a1.695 1.695 0 0 0-.446 1.09 1.548 1.548 0 0 0 .204 1.474c.055.243.156.474.298.679.04.598.26 1.17.629 1.643.536.662 1.672 1.341 2.553 1.006a.489.489 0 0 0 .004-.926ZM342.484 105.47c-2.459-.28-4.952 3.396-3.404 5.485.255.348.894.276.877-.238-.034-1.074-.29-1.872.272-2.891.511-.925 1.455-1.171 2.361-1.511a.425.425 0 1 0-.106-.845ZM349.419 135.219c-.566-.454-1.277-.36-1.966-.365h-.315a3.443 3.443 0 0 1-1.987-1.638c-.655-1.07-.638-2.365-1.225-3.439-.2-.369-.685-.157-.723.196-.07.857.055 1.719.366 2.521.029.178.068.353.098.522.042.552.201 1.089.468 1.575 0 .026.046.047.068.068a7.1 7.1 0 0 0 .221.522.41.41 0 0 0 .094.142.418.418 0 0 0 .476.087 2.693 2.693 0 0 0 2.425.786.397.397 0 0 0 .213-.111c.252.006.503-.02.749-.076a.91.91 0 0 0 .102-.042c.254.02.509 0 .757-.06a.414.414 0 0 0 .175-.113.419.419 0 0 0 .102-.391.438.438 0 0 0-.098-.184ZM438.701 113.804a3.993 3.993 0 0 0-.707-1.86.253.253 0 0 0-.359.002.24.24 0 0 0-.066.113c-.226.883.089 1.834.119 2.738.047 1.541-1.613 1.757-2.625 2.343-.366.212-.238.887.225.849a4.106 4.106 0 0 0 1.004-.233c.919 0 1.817-.849 2.204-1.596.323-.743.395-1.57.205-2.356ZM433.936 90.623c.085-1.52-1.09-2.717-2.481-3.095H431.383a3.246 3.246 0 0 0-1.8.03 3.631 3.631 0 0 0-1.348.284h-.022a1.414 1.414 0 0 0-.37.195.345.345 0 0 0-.077.509.34.34 0 0 0 .158.107c.502.19 1.085.038 1.608 0 .238-.021.489-.034.741-.051.413-.004.825.046 1.225.148 1.174.34 1.034 1.618 1.604 2.424a.4.4 0 0 0 .74-.2.795.795 0 0 0 0-.097.43.43 0 0 0 .094-.254ZM181.665 277.056a.3.3 0 0 0-.032-.124.298.298 0 0 0-.083-.097h-.034a.275.275 0 0 0-.21-.309.275.275 0 0 0-.326.182.808.808 0 0 0-.702.777.354.354 0 0 0 .076.208 1.01 1.01 0 0 0-.153.827.158.158 0 0 0 .034.077c.001.078.011.157.03.233a.197.197 0 0 0 .161.137.196.196 0 0 0 .192-.09c.217-.28.255-.645.515-.896.259-.25.685.162.991.204.045.043.094.083.145.119a.32.32 0 0 0 .432-.115.32.32 0 0 0 .044-.157c.034-.543-.553-.9-1.08-.976ZM408.808 232.637c-.362-.454-1.319-.794-1.846-.518a.213.213 0 0 0-.071.069.218.218 0 0 0 .028.275c.254.172.546.28.851.314a.912.912 0 0 1 .547.378.914.914 0 0 1 .142.649c0 .31-.2.603.051.849a.33.33 0 0 0 .464-.114 1.762 1.762 0 0 0-.166-1.902ZM176.7 217.295c-.23-.254-.642-.127-.936-.068-.345.07-.655.258-.876.531a1.073 1.073 0 0 0-.234.93c.068.31.238.734.587.785a.299.299 0 0 0 .357-.204.666.666 0 0 0-.157-.547.445.445 0 0 1 .076-.629c.336-.343.97-.131 1.217-.526a.23.23 0 0 0-.034-.272ZM115.477 199.046c-1.898-.637-2.655-2.084-2.804-3.994-.026-.293-.472-.395-.541-.072a3.72 3.72 0 0 0 .426 2.585.239.239 0 0 0 0 .182c.094.299.227.585.396.849.157.255.336.62.646.696a.24.24 0 0 0 .268-.107.235.235 0 0 0 .034-.096c.423.309.897.543 1.4.692a.379.379 0 0 0 .175-.735ZM186.889 237.212a2.245 2.245 0 0 1-.851.183c-.395 0-.365-.45-.353-.731a.312.312 0 0 0-.479-.251.306.306 0 0 0-.133.167c-.102.462-.102 1.086.374 1.362a1.904 1.904 0 0 0 1.651 0c.417-.212.23-.908-.209-.73ZM319.258 174.412c-.37-.076-.6-.118-.727-.517a2.29 2.29 0 0 1 .085-1.138c.063-.314-.426-.56-.549-.229a2.252 2.252 0 0 0-.098 1.893 1.103 1.103 0 0 0 1.366.598.34.34 0 0 0 .128-.14.34.34 0 0 0-.046-.362.342.342 0 0 0-.159-.105ZM375.06 131.637a1.202 1.202 0 0 0-.8-.093c-.357.055-.791.042-1.042.327a.198.198 0 0 0 .038.305c.46.28.987-.161 1.464.047.476.208.425.908.953 1.07a.218.218 0 0 0 .268-.208 1.99 1.99 0 0 0-.881-1.448Z" fill="#000"/><path d="m324.113 197.835-113.022 57.557.867 1.693 113.022-57.556-.867-1.694ZM326.311 195.045 141 244.829l.495 1.836 185.311-49.783-.495-1.837Z" fill="#FF490C"/><path d="m326.64 195.766-.742 1.752 138.67 58.415.741-1.752-138.669-58.415Z" fill="#FF490C"/><path d="m406.081 135.188-80.114 61.378 1.161 1.509 80.114-61.379-1.161-1.508Z" fill="#FF490C"/><path d="m150.35 123.657-.728 1.758 176.56 72.788.728-1.758-176.56-72.788Z" fill="#FF490C"/><path d="m287.509 102.219-1.758.737 39.926 94.763 1.757-.737-39.925-94.763ZM210.201 260.126a3.348 3.348 0 0 0 3.352-3.345 3.348 3.348 0 0 0-3.352-3.344 3.348 3.348 0 0 0-3.353 3.344 3.348 3.348 0 0 0 3.353 3.345Z" fill="#FF490C"/><path d="M210.204 260.696h-.285a3.94 3.94 0 0 1-3.805-4.007 3.939 3.939 0 0 1 1.181-2.74 3.957 3.957 0 0 1 5.533 0 3.93 3.93 0 0 1 .1 5.52 3.95 3.95 0 0 1-2.724 1.227Zm0-6.69a2.793 2.793 0 0 0-1.891.747 2.777 2.777 0 0 0-.208 3.848 2.784 2.784 0 0 0 4.588-.572 2.776 2.776 0 0 0-1.238-3.725 2.746 2.746 0 0 0-1.046-.285l-.205-.013Z" fill="#000"/><path d="M140.668 249.383a3.493 3.493 0 0 0 3.497-3.489 3.494 3.494 0 0 0-3.497-3.49 3.494 3.494 0 0 0-3.498 3.49 3.493 3.493 0 0 0 3.498 3.489Z" fill="#FF490C"/><path d="M140.668 249.952h-.213a4.08 4.08 0 0 1-2.836-1.246 4.066 4.066 0 0 1 .071-5.72 4.083 4.083 0 0 1 2.867-1.174 4.08 4.08 0 0 1 2.867 1.174 4.063 4.063 0 0 1 .072 5.72 4.082 4.082 0 0 1-2.836 1.246h.008Zm0-6.979a2.944 2.944 0 0 0-2.044.897 2.928 2.928 0 0 0 .05 4.123 2.946 2.946 0 0 0 4.132 0 2.928 2.928 0 0 0 .051-4.123 2.944 2.944 0 0 0-2.044-.897h-.145Z" fill="#000"/><path d="M149.794 127.397a3.494 3.494 0 0 0 3.498-3.49 3.493 3.493 0 0 0-3.498-3.489 3.493 3.493 0 0 0-3.497 3.489 3.494 3.494 0 0 0 3.497 3.49Z" fill="#FF490C"/><path d="M149.789 127.969a4.077 4.077 0 0 1-2.719-1.108 4.061 4.061 0 0 1-1.264-2.646 4.061 4.061 0 0 1 3.371-4.311 4.086 4.086 0 0 1 2.751.556 4.051 4.051 0 0 1 1.142 5.862 4.045 4.045 0 0 1-2.664 1.609c-.204.028-.41.041-.617.038Zm.026-6.974a2.945 2.945 0 0 0-1.499.421 2.927 2.927 0 0 0-1.326 1.799 2.909 2.909 0 0 0-.051 1.138 2.947 2.947 0 0 0 2.889 2.479 2.93 2.93 0 0 0 2.876-3.358 2.932 2.932 0 0 0-.988-1.77 2.945 2.945 0 0 0-1.901-.709Z" fill="#000"/><path d="M286.531 104.97a3.556 3.556 0 0 0 3.561-3.553 3.557 3.557 0 0 0-3.561-3.553 3.557 3.557 0 0 0-3.561 3.553 3.557 3.557 0 0 0 3.561 3.553Z" fill="#FF490C"/><path d="M286.527 105.544a4.168 4.168 0 0 1-2.878-1.145 4.141 4.141 0 0 1-.263-5.73 4.163 4.163 0 0 1 5.727-.51 4.14 4.14 0 0 1 .758 5.687 4.156 4.156 0 0 1-3.344 1.698Zm0-7.106a3.002 3.002 0 0 0-2.887 2.209 2.969 2.969 0 0 0 .957 3.058 2.986 2.986 0 0 0 2.441.65 2.983 2.983 0 0 0 1.953-1.076 2.968 2.968 0 0 0-.355-4.114 2.982 2.982 0 0 0-2.109-.727Z" fill="#000"/><path d="M405.541 140.092a3.57 3.57 0 0 0 3.574-3.565 3.57 3.57 0 0 0-3.574-3.566 3.57 3.57 0 0 0-3.573 3.566 3.57 3.57 0 0 0 3.573 3.565Z" fill="#FF490C"/><path d="M405.541 140.67a4.268 4.268 0 0 1-.928-.107 4.144 4.144 0 0 1-3.208-4.498 4.149 4.149 0 0 1 5.059-3.571 4.148 4.148 0 0 1 2.466 1.638 4.134 4.134 0 0 1-.62 5.488 4.154 4.154 0 0 1-2.769 1.05Zm0-7.14a3.004 3.004 0 0 0-2.997 2.829 2.993 2.993 0 0 0 .704 2.101 3.006 3.006 0 0 0 5.256-1.428 2.99 2.99 0 0 0-.461-2.167 3.002 3.002 0 0 0-2.528-1.335h.026Z" fill="#000"/><path d="M464.875 258.357a3.43 3.43 0 0 0 3.433-3.425 3.43 3.43 0 0 0-3.433-3.426 3.43 3.43 0 0 0-3.434 3.426 3.43 3.43 0 0 0 3.434 3.425Z" fill="#FF490C"/><path d="M464.87 258.93a4.015 4.015 0 0 1-2.623-.99 3.993 3.993 0 0 1-.716-5.195 4.007 4.007 0 0 1 2.259-1.66 4.012 4.012 0 0 1 4.939 2.768 3.992 3.992 0 0 1-.366 3.036 4.01 4.01 0 0 1-3.493 2.041Zm0-6.852c-.261 0-.522.036-.774.107a2.85 2.85 0 0 0-1.117 4.904 2.86 2.86 0 0 0 1.887.699c.262-.001.522-.037.774-.106a2.86 2.86 0 0 0 1.63-1.18 2.847 2.847 0 0 0-.512-3.725 2.867 2.867 0 0 0-1.888-.699Z" fill="#000"/><path d="M326.554 199.377c1.878 0 3.4-1.518 3.4-3.392a3.395 3.395 0 0 0-3.4-3.391 3.395 3.395 0 0 0-3.399 3.391 3.395 3.395 0 0 0 3.399 3.392Z" fill="#FF490C"/><path d="M326.555 199.951a3.97 3.97 0 0 1-3.671-2.448 3.955 3.955 0 0 1 .861-4.32 3.982 3.982 0 0 1 4.331-.86 3.974 3.974 0 0 1 2.453 3.663 3.967 3.967 0 0 1-1.165 2.803 3.983 3.983 0 0 1-2.809 1.162Zm0-6.792a2.834 2.834 0 0 0-2.614 1.744 2.82 2.82 0 0 0 2.065 3.848 2.833 2.833 0 0 0 2.904-1.204 2.82 2.82 0 0 0-.356-3.563 2.833 2.833 0 0 0-1.999-.825Z" fill="#000"/><path d="m593.444 111.757-263.467 82.889 1.161 1.506 263.467-82.889-1.161-1.506Z" fill="#FF490C"/><path d="M593.369 116.709a4.361 4.361 0 0 0 4.37-4.354 4.362 4.362 0 0 0-4.37-4.355 4.362 4.362 0 0 0-4.369 4.355 4.361 4.361 0 0 0 4.369 4.354ZM3.497 155.971a3.492 3.492 0 0 0 3.498-3.486A3.491 3.491 0 0 0 3.497 149 3.491 3.491 0 0 0 0 152.485a3.492 3.492 0 0 0 3.497 3.486Z" fill="#FF490C"/><path d="M314.566 197.711 3.618 152.176l.527 1.952 310.949 45.536-.528-1.953Z" fill="#FF490C"/></svg>