<svg width="615" height="315" fill="none" xmlns="http://www.w3.org/2000/svg"><path d="m332.563 67.756-18.848-28.865a.813.813 0 0 0-.651-.569l-64.865-13.664a.95.95 0 0 0-.553.042.807.807 0 0 0-.681.67c-.323 1.546-.65 3.091-.979 4.636a.974.974 0 0 0 0 .153l-26.101-5.518a.919.919 0 0 0-.851.242.807.807 0 0 0-.63.662 8863.283 8863.283 0 0 0-5.586 26.306.955.955 0 0 0 .668 1.129.75.75 0 0 0 .255.093l26.2 5.519-17.921 84.69a1.029 1.029 0 0 0 0 .391.806.806 0 0 0 .685.811l88.874 18.72a.93.93 0 0 0 .4.006.93.93 0 0 0 .366-.159.813.813 0 0 0 .481-.616c6.617-31.276 13.234-62.547 19.852-93.813a.47.47 0 0 0 0-.106.848.848 0 0 0-.115-.76ZM313.447 41.96c5.417 8.292 10.833 16.585 16.248 24.88L309.103 62.5c1.444-6.845 2.892-13.692 4.344-20.541Zm-98.587 9.407 5.229-24.714 81.688 17.196c-1.745 8.238-3.488 16.477-5.229 24.718l-81.688-17.2Zm96.277 109.803-87.074-18.338c5.908-27.948 11.82-55.9 17.737-83.854 18.405 3.88 36.809 7.755 55.212 11.627a.995.995 0 0 0 .293.021.814.814 0 0 0 .877-.683c1.849-8.756 3.702-17.516 5.56-26.28.013-.095.013-.19 0-.285a.843.843 0 0 0-.272-1.029.85.85 0 0 0-.349-.151l-55.309-11.653v-.034c.268-1.273.54-2.547.808-3.82l63.274 13.325c-1.617 7.64-3.235 15.291-4.854 22.952-.011.09-.011.182 0 .272a.81.81 0 0 0 .68.913l22.928 4.826c-6.506 30.73-13.01 61.461-19.511 92.191Z" fill="#000"/><path d="M304.98 118.967c-1.157-3.757-5.872-4.275-9.165-4.916a77.897 77.897 0 0 0-11.219-1.329 59.906 59.906 0 0 1-3.829-6.346 40.571 40.571 0 0 1-1.834-3.96 73.399 73.399 0 0 0 5.531-11.534c1.43-3.82 3.242-9.627-.927-12.476a5.312 5.312 0 0 0-3.587-1.031l-.349.025c-.163.021-.319.08-.455.174-.059.02-.118.043-.174.068-2.128.922-2.928 3.031-3.519 5.094-1.481 5.137-1.196 10.46.153 15.558a89.503 89.503 0 0 1-4.931 8.201 64.046 64.046 0 0 1-6.02 7.59c-3.982.263-7.969.756-11.679 2.297-2.863 1.188-8.743 4.767-6.701 8.697 1.953 3.77 7.067 2.577 10.152 1.223 4.573-2.016 8.373-6.083 11.751-9.64.425-.425.817-.849 1.217-1.312a81.553 81.553 0 0 1 14.218-.772c2.396 3.272 5.289 6.286 8.752 8.184.054.036.111.067.17.093a15.912 15.912 0 0 0 6.25 1.872c2.978.263 7.292-2.22 6.195-5.76Zm-44.248-.951a52.138 52.138 0 0 1-5.897 4.614c-1.65 1.117-4.531 3.443-6.53 2.123-.97-1.231.425-3.311 1.701-4.402 1.626-1.397 3.668-2.28 5.685-2.929a32.151 32.151 0 0 1 7.02-1.295 58.348 58.348 0 0 1-1.987 1.889h.008Zm15.7-28.81c.051-2.806.497-5.986 1.85-8.49a2.443 2.443 0 0 1 2.179-1.392c4.361.585-1.204 11.49-2.128 13.524a76.16 76.16 0 0 1-1.344 2.81 32.326 32.326 0 0 1-.557-6.452Zm-5.14 24.017a78.373 78.373 0 0 0 6.463-8.816 51.353 51.353 0 0 0 2.684 5.289 56.813 56.813 0 0 0 1.834 2.971 82.612 82.612 0 0 0-10.985.535l.004.021Zm22.213 8.023h-.038a20.666 20.666 0 0 1-3.08-2.097 28.507 28.507 0 0 1-4.31-4.406 77.93 77.93 0 0 1 7.092.802l1.391.217a.864.864 0 0 0 .298.085c2.153.288 4.957.993 5.131 3.599.192 2.942-4.922 2.446-6.488 1.779l.004.021Z" fill="#FF490C"/><path d="M500.077 157.765 478.124 51.391a.852.852 0 0 0-.315-.518 1.016 1.016 0 0 0-.187-.161l-32.709-21.475a.91.91 0 0 0-.243-.115.946.946 0 0 0-.604-.064l-73.515 15.108a.81.81 0 0 0-.689.764.967.967 0 0 0 0 .484c.363 1.752.723 3.503 1.08 5.255a.747.747 0 0 0 .056.166l-29.833 6.13a.805.805 0 0 0-.69.738.93.93 0 0 0-.204.828c2.048 9.927 4.097 19.856 6.148 29.787a.853.853 0 0 0 1.179.62c.096.012.193.012.289 0l29.676-6.1 19.873 96.262a.793.793 0 0 0 .74.683c.15.034.305.034.455 0 33.586-6.899 67.166-13.803 100.74-20.711a.79.79 0 0 0 .681-.849.913.913 0 0 0 .025-.458Zm-25.689-106.9-23.762 4.881-4.892-23.708 28.654 18.827ZM348.061 86.945c-1.945-9.423-3.891-18.844-5.837-28.262l92.831-19.077c1.94 9.418 3.883 18.84 5.828 28.267l-92.822 19.072Zm51.055 90.8-19.677-95.308 62.836-12.913a.799.799 0 0 0 .68-.891 1.01 1.01 0 0 0 0-.28c-2.05-9.928-4.1-19.857-6.147-29.787a1.653 1.653 0 0 0-.081-.238.973.973 0 0 0-1.162-.76L372.78 50.461a.897.897 0 0 0 0-.301c-.283-1.44-.58-2.882-.889-4.326l71.724-14.738a99936.78 99936.78 0 0 0 5.365 26.009.802.802 0 0 0 .766.683c.14.03.285.03.425 0l26.115-5.366a.62.62 0 0 0 .127-.038 214150.11 214150.11 0 0 0 21.699 105.028c-33.019 6.772-66.021 13.55-99.009 20.334h.013ZM195.168 77.583v-.063a.817.817 0 0 0-.306-.705l-24.081-20.957a.786.786 0 0 0-.787-.378l-61.227 4.164a.968.968 0 0 0-.477.166.787.787 0 0 0-.515.849c.098 1.456.2 2.92.298 4.376a.601.601 0 0 1 0 .085l-24.545 1.668a.955.955 0 0 0-.753.425.786.786 0 0 0-.425.806l1.702 24.804a.963.963 0 0 0 .893.912c.099.024.2.033.302.026l24.677-1.677c1.818 26.621 3.637 53.241 5.458 79.86a.958.958 0 0 0 .09.344.79.79 0 0 0 .885.632l83.883-5.713a.947.947 0 0 0 .651-.306.795.795 0 0 0 .344-.751c-2.016-29.522-4.039-59.045-6.067-88.567Zm-3.084-.653-19.652 1.337c-.442-6.532-.886-13.073-1.332-19.625l20.984 18.288ZM85.898 91.825c-.53-7.731-1.06-15.461-1.587-23.19l76.94-5.243c.528 7.732 1.057 15.462 1.587 23.19l-76.94 5.243Zm31.327 79.143-5.404-79.007a78984.49 78984.49 0 0 1 52.03-3.54c.088-.013.175-.034.259-.064a.808.808 0 0 0 .685-.896l-1.702-24.807a.935.935 0 0 0-.055-.272.85.85 0 0 0-.919-.955l-52.157 3.553c-.081-1.167-.157-2.33-.234-3.502 19.79-1.347 39.579-2.696 59.368-4.045.502 7.276 1.002 14.553 1.498 21.831a.767.767 0 0 0 .047.246.795.795 0 0 0 .303.547.803.803 0 0 0 .603.167l21.741-1.478h.051c1.985 28.866 3.961 57.746 5.927 86.64l-82.041 5.582Z" fill="#000"/><path d="m506.783 192.74-19.571-29.587a.796.796 0 0 0-.655-.577l-66.844-13.635a.97.97 0 0 0-.536.038.792.792 0 0 0-.698.675l-.978 4.78a.679.679 0 0 0 0 .191l-26.923-5.493a.93.93 0 0 0-.851.246.801.801 0 0 0-.634.667l-5.531 27.078a.961.961 0 0 0 .115.699.963.963 0 0 0 .561.434.931.931 0 0 0 .26.094l27.029 5.518-17.869 87.31a1.065 1.065 0 0 0 0 .365.793.793 0 0 0 .685.849l91.588 18.678a.959.959 0 0 0 .753-.149.806.806 0 0 0 .494-.624c6.603-32.233 13.207-64.466 19.813-96.699a.955.955 0 0 0 0-.107.85.85 0 0 0-.208-.751Zm-20.026-26.798 17.443 26.34-21.923-4.47 4.48-21.87Zm-101.225 10.71a88346.66 88346.66 0 0 0 5.229-25.525l84.215 17.179c-1.745 8.507-3.488 17.014-5.229 25.521l-84.215-17.175Zm99.855 112.389-89.772-18.317c5.905-28.823 11.812-57.645 17.72-86.465l56.918 11.61c.09.012.182.012.272 0a.8.8 0 0 0 .898-.68c1.849-9.024 3.693-18.05 5.531-27.078a.848.848 0 0 0 0-.293.842.842 0 0 0-.02-.742.84.84 0 0 0-.597-.442L419.3 155.003a.3.3 0 0 0 0-.06c.268-1.324.541-2.644.813-3.969l65.031 13.266-4.918 24.043c-.01.085-.01.17 0 .255a.812.812 0 0 0 .676.934l23.745 4.839a.653.653 0 0 0 .153 0l-19.413 94.717v.013Z" fill="#000"/><path d="M383.472 153.589a1.05 1.05 0 0 0-.029-.216.875.875 0 0 0-.294-.586l-30.063-27.737a.85.85 0 0 0-.766-.373c-26.157 1.027-52.317 2.05-78.479 3.069a.947.947 0 0 0-.592.229.852.852 0 0 0-.425.79c.059 1.464.115 2.924.174 4.385.634 0 1.276.021 1.91.046a697.862 697.862 0 0 1-.144-3.587l76.633-2.971 1.111 28.28a.99.99 0 0 0 .072.339.85.85 0 0 0 .859.595l27.872-1.091a.994.994 0 0 0 .281-.055c1.463 37.208 2.923 74.413 4.378 111.616l-105.68 4.143-3.995-101.798 66.997-2.628a.991.991 0 0 0 .375-.089h.025a.807.807 0 0 0 .549-.849c-.414-10.598-.83-21.197-1.247-31.798a1.145 1.145 0 0 0-.051-.285.843.843 0 0 0-.523-.964.858.858 0 0 0-.391-.055l-64.355 2.513a3.12 3.12 0 0 1 .515 1.881l62.912-2.458 1.187 30.249-63.691 2.492a3.06 3.06 0 0 1-2.523 1.613 3.357 3.357 0 0 0-1.702.454h.022l4.029 102.677a1 1 0 0 0 .123.424.824.824 0 0 0 .851.544l107.522-4.199a.888.888 0 0 0 .761-.424.846.846 0 0 0 .247-.662l-4.455-113.514Zm-29.097.335c-.346-8.676-.687-17.356-1.025-26.038l27.119 25.015-26.094 1.023ZM188.26 182.895a.707.707 0 0 0-.043-.076l-21.034-26.455a.8.8 0 0 0-.506-.314 1.032 1.032 0 0 0-.239-.059l-64.486-7.42a.756.756 0 0 0-.881.611c-.066.121-.11.254-.128.391l-.523 4.58-26.08-3.001a.747.747 0 0 0-.851.53.977.977 0 0 0-.388.684c-1.004 8.707-2.01 17.415-3.016 26.123a.793.793 0 0 0 .923.904c.09.041.187.068.285.081l25.864 2.971-9.76 84.351a.753.753 0 0 0 .646.887c.1.05.209.081.32.094l88.354 10.188a.765.765 0 0 0 .805-.385.753.753 0 0 0 .089-.303.857.857 0 0 0 .119-.374c3.596-31.092 7.19-62.186 10.781-93.282a.755.755 0 0 0-.251-.726Zm-21.145-23.568 18.584 23.373-21.005-2.42c.808-6.981 1.615-13.965 2.421-20.953Zm-95.039 18.334 2.834-24.544 81.156 9.339c-.945 8.184-1.891 16.365-2.838 24.544l-81.152-9.339Zm103.854 98.292c-28.84-3.323-57.685-6.642-86.534-9.959 3.214-27.779 6.425-55.555 9.633-83.328l55.037 6.329a.758.758 0 0 0 .615-.159.767.767 0 0 0 .283-.567 1.54 1.54 0 0 0 .055-.225c1.001-8.71 2.007-17.418 3.016-26.123a.9.9 0 0 0-.021-.331 1.01 1.01 0 0 0-.897-.913l-54.838-6.312a.817.817 0 0 0 .043-.182c.136-1.206.278-2.412.425-3.617l62.657 7.216v.068c-.893 7.751-1.789 15.504-2.688 23.258a.76.76 0 0 0 .689.896c.085.032.173.055.264.068l22.838 2.627c-3.537 30.414-7.062 60.832-10.577 91.254Z" fill="#000"/><path d="M289.701 248.34a2322626.2 2322626.2 0 0 0-43.281-69.193l-.064-.076a.843.843 0 0 0-.583-.425l-28.637-6.622a.86.86 0 0 0-.851.068l-47.822 29.787a.918.918 0 0 0-.4.492.858.858 0 0 0-.091.431.855.855 0 0 0 .138.418c.706 1.132 1.415 2.264 2.127 3.396l-19.145 11.912a.881.881 0 0 0-.447.768.847.847 0 0 0 .047.849l12.125 19.382a.936.936 0 0 0 1.247.331 1.33 1.33 0 0 0 .247-.11l19.179-11.941 39.006 62.354c.084.142.204.26.349.339a.848.848 0 0 0 .979 0l65.52-40.806a.903.903 0 0 0 .426-.701.852.852 0 0 0-.069-.653Zm-46.63-68.373-14.771 9.194-9.22-14.734 23.991 5.54Zm-79.122 57.811-11.245-17.977 59.99-37.355c3.752 5.999 7.503 11.993 11.253 17.981l-59.998 37.351Zm59.696 50.651c-12.843-20.529-25.686-41.06-38.529-61.594 13.538-8.431 27.074-16.858 40.609-25.283.133-.083.245-.195.328-.327a.845.845 0 0 0 0-.976l-12.121-19.378a1.117 1.117 0 0 0-.162-.2.863.863 0 0 0-.226-.296.87.87 0 0 0-.702-.198.875.875 0 0 0-.348.133l-40.657 25.317-1.625-2.602 46.43-28.921 10.522 16.819a.91.91 0 0 0 .293.305.85.85 0 0 0 1.021.051l16.767-10.442c14.12 22.583 28.244 45.164 42.372 67.745l-63.972 39.847Z" fill="#000"/><path d="M260.171 227.251c-1.429-2.386-4.561-1.494-6.526-.51a29.547 29.547 0 0 0-3.038 1.766c-.213.123-.426.255-.621.387a1.124 1.124 0 0 0-.175.148c-1.442.989-2.838 2.059-4.191 3.103a62.983 62.983 0 0 0-2.727 2.246 40.342 40.342 0 0 1-9.36-2.921 58.543 58.543 0 0 0-3.301-9.92c-1.464-3.354-3.885-8.49-8.467-7.514a4.658 4.658 0 0 0-2.174 1.053 3.98 3.98 0 0 0-.698.662.931.931 0 0 0-.23.544c-.072.131-.14.267-.204.424-.893 2.123.889 4.793 1.966 6.474 2.097 3.264 5.067 5.879 8.36 7.921a78.2 78.2 0 0 1 1.817 7.895c.462 2.665.722 5.362.778 8.066-2.786 3.06-5.356 6.367-6.526 10.383-.851 2.924-.426 7.598 3.063 7.551a.872.872 0 0 0 .26 0h.051c.334-.033.664-.095.987-.186 4.293-1.214 5.433-7.28 5.85-10.973.31-2.889.401-5.796.272-8.698a68.961 68.961 0 0 1 8.084-8.664c2.501.406 5.044.502 7.569.284 4.212-.399 12.508-3.943 9.181-9.521Zm-39.602-10.506c2.906-2.437 5.995 7.641 6.625 9.415.234.671.459 1.346.676 2.016-2.944-2.398-9.419-8.85-7.301-11.431Zm10.637 35.729a43.372 43.372 0 0 1-1.059 6.605c-.324 1.388-.703 3.583-2.255 4.037a1.643 1.643 0 0 1-1-.382c-.711-.581-.634-1.842-.604-2.649.072-1.816.787-3.608 1.599-5.208a25.215 25.215 0 0 1 3.447-4.933c0 .841-.052 1.685-.115 2.53h-.013Zm3.931-10.145a91.739 91.739 0 0 0-.519-4.873 64.058 64.058 0 0 0-.617-3.668 41.298 41.298 0 0 0 7.05 2.254 67.81 67.81 0 0 0-5.888 6.287h-.026Zm20.503-9.556a6.63 6.63 0 0 1-2.421 1.631l-.111.063c-2.493.692-5.203.62-7.756.306a66.82 66.82 0 0 1 5.48-4.177c.034-.021.073-.034.107-.06 1.497-1.001 3.629-2.3 5.258-.815.975.871.081 2.31-.544 3.052h-.013Z" fill="#FF490C"/><path d="m329.72 66.36-6.293-9.637-10.211-15.63-.251-.386-4.48 21.178 21.235 4.474Z" fill="#fff"/><path d="M307.376 63.205a.647.647 0 0 1-.532-.738.905.905 0 0 1 0-.221c1.622-7.641 3.241-15.292 4.855-22.953l.042-.186-.766-.162-62.687-13.201-.187-.043-.038.187c-.226 1.082-.455 2.156-.681 3.235l-.132.602-.068.2.209.047L302.7 41.624a.62.62 0 0 1 .451.301.767.767 0 0 1 .03.629V42.626a.79.79 0 0 1 0 .237l-5.561 26.28a.615.615 0 0 1-.638.531h-.128a.713.713 0 0 1-.174 0l-.336-.072-54.884-11.555-.187-.038-17.78 84.05-.039.187.188.038 87.074 18.338.187.038 19.562-92.403.039-.183-23.128-4.869Z" fill="#fff"/><path d="m296.296 68.028 5.31-25.088-82.041-17.277-5.31 25.088 81.854 17.238.187.038Z" fill="#fff"/><path d="M250.479 37.77c-.919-1.16-2.515-2.004-4.838-2.497a28.791 28.791 0 0 0-4.927-.662l-3.62 17.124 3.144.663 1.387-6.542a9.193 9.193 0 0 0 1.523.425c2.246.47 4.357.297 5.893-.697 1.174-.725 1.978-1.978 2.327-3.625a5.042 5.042 0 0 0-.889-4.19Zm-2.315 3.659c-.425 2.033-2.127 2.886-4.493 2.385a6.48 6.48 0 0 1-1.519-.454l1.243-5.87a9.38 9.38 0 0 1 1.863.233c2.2.463 3.319 1.774 2.91 3.706h-.004ZM266.948 41.858c-1.319-1.673-3.425-2.815-6.671-3.502a32.737 32.737 0 0 0-5.118-.7l-3.612 17.064c1.386.465 2.8.844 4.233 1.133 3.378.713 6.314.497 8.373-.709 1.966-1.146 3.514-3.238 4.169-6.329.609-2.959.026-5.238-1.374-6.957Zm-2.021 6.367c-.931 4.406-3.863 6.155-7.986 5.255a11.593 11.593 0 0 1-1.735-.424l2.625-12.412a10.3 10.3 0 0 1 2.204.28c3.973.802 5.73 3.46 4.909 7.284l-.017.017ZM275.441 44.4l-1.017 4.789 6.403 1.345-.553 2.598-6.399-1.345-1.557 7.365-3.174-.671 3.672-17.35 10.032 2.11-.549 2.607-6.858-1.448Z" fill="#000"/><path d="m332.166 66.992-18.847-28.866a.8.8 0 0 0-.651-.569l-64.853-13.66a.921.921 0 0 0-.553.043.802.802 0 0 0-.681.67c-.323 1.54-.649 3.084-.978 4.631a.974.974 0 0 0 0 .153l-26.098-5.493a.923.923 0 0 0-.851.242.801.801 0 0 0-.629.663c-1.85 8.755-3.702 17.514-5.557 26.276a.96.96 0 0 0 .668 1.133c.081.042.167.073.255.093l26.2 5.519-17.954 84.695a.916.916 0 0 0 0 .39.799.799 0 0 0 .681.811l88.878 18.72c.13.031.266.033.397.006a.921.921 0 0 0 .364-.159.798.798 0 0 0 .481-.615c6.614-31.277 13.232-62.556 19.852-93.839a.939.939 0 0 0 0-.106.844.844 0 0 0-.124-.738Zm-19.103-25.797c5.412 8.295 10.827 16.588 16.244 24.88l-20.592-4.339c1.452-6.842 2.902-13.69 4.348-20.54Zm-98.582 9.407c1.741-8.24 3.484-16.477 5.229-24.71l81.687 17.197-5.229 24.713-81.687-17.2Zm96.272 109.808c-29.025-6.116-58.051-12.228-87.078-18.338 5.916-27.952 11.83-55.903 17.741-83.855l55.212 11.627c.097.013.196.013.294 0a.81.81 0 0 0 .876-.679c1.855-8.773 3.709-17.533 5.561-26.28.021-.093.028-.19.021-.285a.853.853 0 0 0-.024-.74.857.857 0 0 0-.597-.44l-55.331-11.644a.193.193 0 0 0 0-.034c.272-1.273.54-2.547.808-3.82l63.279 13.325c-1.623 7.64-3.242 15.291-4.859 22.952-.01.089-.01.179 0 .268a.812.812 0 0 0 .681.912l22.928 4.831-19.512 92.2Z" fill="#000"/><path d="M304.601 118.202c-1.161-3.757-5.875-4.27-9.168-4.911a76.728 76.728 0 0 0-11.216-1.329 60.894 60.894 0 0 1-3.829-6.346 41.41 41.41 0 0 1-1.833-3.961 73.508 73.508 0 0 0 5.531-11.537c1.433-3.82 3.242-9.624-.928-12.472a5.296 5.296 0 0 0-3.587-1.031c-.116.002-.233.01-.348.025a.993.993 0 0 0-.451.17l-.179.068c-2.127.92-2.923 3.035-3.519 5.094-1.48 5.136-1.195 10.46.158 15.553a91.25 91.25 0 0 1-4.931 8.235 64.19 64.19 0 0 1-6.025 7.59c-3.982.263-7.969.756-11.679 2.297-2.859 1.188-8.743 4.767-6.701 8.698 1.953 3.769 7.067 2.576 10.152 1.218 4.574-2.012 8.373-6.079 11.751-9.636.426-.425.817-.875 1.217-1.316a82.012 82.012 0 0 1 14.223-.785c2.395 3.272 5.293 6.291 8.752 8.188.054.035.111.067.17.093a15.948 15.948 0 0 0 6.246 1.872c2.973.247 7.288-2.232 6.194-5.777Zm-44.247-.946a52.143 52.143 0 0 1-5.91 4.635c-1.647 1.116-4.527 3.443-6.531 2.122-.97-1.231.426-3.311 1.702-4.406 1.621-1.396 3.663-2.279 5.68-2.925a31.985 31.985 0 0 1 7.024-1.273c-.659.607-1.31 1.239-1.978 1.847h.013Zm15.707-28.836c.047-2.802.494-5.986 1.847-8.49a2.454 2.454 0 0 1 2.178-1.393c4.361.586-1.204 11.496-2.127 13.53-.425.946-.881 1.88-1.34 2.81a32.15 32.15 0 0 1-.57-6.457h.012Zm-5.16 24.022a78.985 78.985 0 0 0 6.471-8.804 50.531 50.531 0 0 0 2.68 5.289 61.548 61.548 0 0 0 1.834 2.971 82.61 82.61 0 0 0-10.985.544Zm22.213 8.023h-.038a21.09 21.09 0 0 1-3.081-2.097 28.526 28.526 0 0 1-4.305-4.407c2.374.162 4.736.429 7.088.803l1.395.212a.919.919 0 0 0 .294.089c2.153.285 4.961.993 5.131 3.6.204 2.959-4.91 2.462-6.48 1.8h-.004Z" fill="#FF490C"/><path d="m440.73 67.26-.039-.187c-1.948-9.418-3.892-18.84-5.833-28.267l-.038-.187-93.201 19.175 5.91 28.636 16.078-3.303 76.936-15.808.187-.06ZM450.057 55.025l.042.187.183-.038 23.762-4.882.451-.093-.383-.255-28.655-18.822-.387-.255.094.45c1.634 7.901 3.265 15.804 4.893 23.708Z" fill="#fff"/><path d="m494.811 141.796-18.622-90.213-.06-.212-.208.076-.081.026-26.119 5.365a.856.856 0 0 1-.362 0 .613.613 0 0 1-.591-.53l-5.365-26.009-.038-.187-72.098 14.815.931 4.513a.923.923 0 0 1 0 .246v.254l62.998-12.947a.813.813 0 0 1 .949.65c.028.066.051.134.068.204l6.148 29.786a.837.837 0 0 1 0 .255.627.627 0 0 1-.122.456.617.617 0 0 1-.41.236L378.823 81.53l19.711 95.511.038.187.188-.038 98.961-20.338.187-.038-3.097-15.019Z" fill="#fff"/><path d="m383.676 74.553-11.904 2.44-4.063-19.666 11.466-2.356.608 2.946-7.866 1.617 1.05 5.081 7.425-1.528.6 2.916-7.425 1.528 1.192 5.778 8.305-1.707.612 2.95ZM397.219 57.318a5.655 5.655 0 0 0-2.829-3.952c-1.472-.79-3.518-.951-6.152-.425-1.846.356-3.656.871-5.412 1.541l4.008 19.442 3.57-.734-1.536-7.412a11.078 11.078 0 0 0 1.782-.242c2.553-.526 4.659-1.66 5.795-3.396.894-1.286 1.162-2.954.774-4.822Zm-7.147 5.395a7.564 7.564 0 0 1-1.787.212l-1.374-6.656a10.56 10.56 0 0 1 2.042-.598c2.484-.514 4.254.344 4.68 2.547.498 2.292-.868 3.94-3.561 4.495ZM407.685 69.92c-2.076.424-4.36.284-5.573-.136l.174-3.137c1.627.511 3.356.606 5.029.276 2.311-.475 3.374-1.817 3.042-3.426-.31-1.486-1.485-2.156-4.182-2.547-3.493-.505-5.922-1.795-6.509-4.627-.66-3.209 1.527-6.214 5.794-7.093a10.696 10.696 0 0 1 4.944 0l-.285 3.073a8.492 8.492 0 0 0-4.11-.131c-2.28.467-3.021 1.897-2.787 3.035.315 1.52 1.596 1.982 4.442 2.466 3.689.582 5.71 1.961 6.293 4.793.655 3.17-1.183 6.405-6.272 7.454ZM478.209 122.342l-3.94.823-.54-2.623-13.687-8.889a34.396 34.396 0 0 1 7.41 19.251 34.382 34.382 0 0 1-4.942 20.023l.497 2.415-3.965.811-.817-3.952 2.842-.581a32.443 32.443 0 0 0 3.873-23.126 32.499 32.499 0 0 0-12.726-19.71l-2.83.581-.561-2.729a32.63 32.63 0 0 0-23.237-3.243 32.568 32.568 0 0 0-19.39 13.18l.472 2.284-3.969.815-.813-3.956 3.021-.624a34.488 34.488 0 0 1 16.306-12.38 34.573 34.573 0 0 1 20.466-.97l-13.708-8.915-2.651.548-.816-3.96 3.961-.812.54 2.624 21.273 13.809 2.233-.463.451 2.207 21.775 14.14 2.655-.547.817 3.969Z" fill="#000"/><path d="M499.695 157.006a598145.29 598145.29 0 0 0-21.953-106.374.852.852 0 0 0-.315-.517.862.862 0 0 0-.183-.162l-32.697-21.48a1.33 1.33 0 0 0-.238-.114.962.962 0 0 0-.608-.06l-73.532 15.108a.81.81 0 0 0-.689.76 1.015 1.015 0 0 0 0 .484c.361 1.758.719 3.506 1.085 5.255.01.059.027.116.051.17l-29.833 6.13a.802.802 0 0 0-.702.739.909.909 0 0 0-.209.823c2.051 9.927 4.1 19.858 6.148 29.791a.853.853 0 0 0 1.179.62c.096.012.193.012.289 0l29.693-6.105c6.628 32.087 13.253 64.174 19.873 96.263a.788.788 0 0 0 .74.679.963.963 0 0 0 .459 0l100.749-20.703a.792.792 0 0 0 .68-.849.89.89 0 0 0 .013-.458Zm-25.689-106.9-23.762 4.882c-1.625-7.904-3.256-15.807-4.892-23.708l28.654 18.826ZM347.679 86.188l-5.833-28.267 92.827-19.077c1.94 9.424 3.884 18.846 5.833 28.267l-92.827 19.077Zm51.055 90.799c-6.555-31.769-13.112-63.537-19.673-95.303l62.832-12.913a.807.807 0 0 0 .685-.892.94.94 0 0 0 0-.28c-2.065-9.933-4.123-19.865-6.174-29.795a1.211 1.211 0 0 0-.081-.233.968.968 0 0 0-1.161-.76l-62.764 12.892c.015-.1.015-.202 0-.302l-.906-4.342 71.719-14.722c1.793 8.668 3.581 17.338 5.365 26.009a.812.812 0 0 0 .771.684c.14.03.285.03.425 0l26.119-5.366c.042 0 .081-.026.123-.038 7.224 35.009 14.457 70.017 21.699 105.023l-98.979 20.338Z" fill="#000"/><path d="M171.871 77.52v.186l20.32-1.38-21.699-18.877.034.459c.451 6.537.9 13.074 1.345 19.611ZM162.647 85.81l-1.587-23.19v-.191l-77.335 5.268v.19c.527 7.726 1.056 15.457 1.587 23.19v.188L162.634 86l.013-.191Z" fill="#fff"/><path d="M193.161 77.964v-.174h-.239l-21.745 1.478a.645.645 0 0 1-.71-.586.545.545 0 0 1-.038-.2l-1.511-22.018h-.191l-55.565 3.786-3.995.272v.191c.072 1.1.149 2.195.221 3.29l.03.403h.191l52.157-3.557a.625.625 0 0 1 .528.182.769.769 0 0 1 .183.574v.076c.027.07.043.145.047.22l1.701 24.808a.633.633 0 0 1-.557.7 1.051 1.051 0 0 1-.221.051L111.418 91h-.188v.192c1.685 24.595 3.367 49.191 5.046 73.789l.371 5.404 82.432-5.612-5.918-86.809Z" fill="#fff"/><path d="M194.799 76.823v-.064a.797.797 0 0 0-.306-.704l-24.081-20.958a.8.8 0 0 0-.787-.382l-61.249 4.169a.996.996 0 0 0-.477.165.787.787 0 0 0-.514.85c.102 1.457.201 2.916.297 4.376v.08l-24.549 1.673a.937.937 0 0 0-.753.425.795.795 0 0 0-.425.806l1.702 24.803a.958.958 0 0 0 .897.909c.099.028.2.038.302.03l24.677-1.699 5.463 79.865a.951.951 0 0 0 .085.339.8.8 0 0 0 .885.637l83.883-5.68a.957.957 0 0 0 .655-.305.8.8 0 0 0 .341-.756c-2.011-29.528-4.026-59.054-6.046-88.58Zm-3.08-.654-19.656 1.333c-.451-6.531-.9-13.067-1.345-19.607l21.001 18.274ZM85.516 91.065l-1.587-23.19 76.944-5.243c.525 7.732 1.054 15.462 1.587 23.19l-76.944 5.243Zm31.331 79.142c-1.801-26.335-3.604-52.671-5.408-79.006l52.029-3.545c.091-.009.181-.027.268-.055a.803.803 0 0 0 .685-.896l-1.701-24.807a.816.816 0 0 0-.056-.272.837.837 0 0 0-.227-.698.845.845 0 0 0-.688-.261l-52.156 3.557-.239-3.502 59.369-4.046c.502 7.276 1.001 14.552 1.497 21.828.004.086.021.17.051.25a.81.81 0 0 0 .902.713l21.746-1.481h.046c1.986 28.866 3.963 57.745 5.931 86.639l-82.049 5.582Z" fill="#000"/><path d="m121.99 68.897-3.829.264-4.14 16.729 3.094-.208 1.097-4.737 5.208-.353 1.804 4.538 3.216-.22-6.45-16.013Zm-3.442 9.764.992-4.118c.225-.993.387-2.148.566-3.111h.051c.31.93.651 2.029 1.038 3l1.561 3.949-4.208.28ZM133.729 84.553l-2.995.2-1.119-16.373 2.995-.208 1.119 16.381ZM151.709 108.731l-9.807.663-10.615 42.89 7.93-.539 2.808-12.149 13.364-.908 4.62 11.644 8.242-.561-16.542-41.04Zm-8.833 25.007 2.553-10.561c.583-2.547 1.004-5.518 1.464-7.985h.123c.791 2.386 1.676 5.205 2.659 7.705l4.016 10.115-10.815.726ZM181.243 148.886l-7.739.522-2.076-30.339 7.744-.526 2.071 30.343ZM174.934 114.446c-2.552.178-4.369-1.511-4.526-3.821-.158-2.309 1.459-4.291 4.024-4.465 2.566-.174 4.366 1.519 4.591 3.88.157 2.305-1.404 4.211-4.089 4.406Z" fill="#000"/><path d="m481.668 187.196 22.549 4.602-17.95-27.109-.089.45c-1.492 7.288-2.987 14.578-4.485 21.87l-.025.187ZM469.512 193.279l4.102-20.019 1.204-5.88-84.59-17.251-5.267 25.707-.038.187.187.038 84.215 17.179.187.039Z" fill="#fff"/><path d="M504.388 193.371h-.09l-23.74-4.835a.64.64 0 0 1-.526-.497.639.639 0 0 1-.002-.254.836.836 0 0 1 0-.212l4.965-24.23-65.405-13.342-.851 4.156.178.055h-.191l-.068.204 57.275 11.622a.646.646 0 0 1 .451.306.768.768 0 0 1 .026.628V167.053a.862.862 0 0 1 0 .238l-5.531 27.082a.609.609 0 0 1-.63.531h-.094a.818.818 0 0 1-.221 0l-56.918-11.614-.187-.038-17.801 86.66-.038.187.187.038 89.793 18.317.187.038 19.443-94.891.043-.213-.255-.017Z" fill="#fff"/><path d="m506.4 191.975-19.571-29.588a.807.807 0 0 0-.655-.573l-66.848-13.634a.934.934 0 0 0-.536.038.791.791 0 0 0-.465.215.79.79 0 0 0-.233.456l-.978 4.779a.773.773 0 0 0-.022.191l-26.923-5.488a.919.919 0 0 0-.851.246.798.798 0 0 0-.633.666c-1.853 9.025-3.696 18.051-5.531 27.079a.965.965 0 0 0 .672 1.129.955.955 0 0 0 .259.098l27.034 5.518-17.942 87.305a1.071 1.071 0 0 0 0 .366.8.8 0 0 0 .685.849l91.589 18.677a.958.958 0 0 0 .753-.148.818.818 0 0 0 .493-.624c6.606-32.236 13.211-64.471 19.814-96.704a.937.937 0 0 0 0-.106.808.808 0 0 0-.111-.747Zm-20.022-26.786 17.444 26.344-21.924-4.474 4.48-21.87Zm-101.229 10.697c1.744-8.489 3.487-16.996 5.229-25.52l84.215 17.175c-1.739 8.51-3.482 17.018-5.229 25.525l-84.215-17.18Zm99.859 112.393-89.771-18.316c5.908-28.824 11.815-57.647 17.72-86.47l56.918 11.614a.981.981 0 0 0 .276 0 .798.798 0 0 0 .894-.679l5.552-27.082a1.027 1.027 0 0 0 0-.293.85.85 0 0 0-.617-1.18l-57.058-11.636v-.059c.272-1.325.54-2.645.812-3.969l65.049 13.282c-1.643 8.015-3.284 16.03-4.923 24.048a.868.868 0 0 0-.021.254.81.81 0 0 0 .68.93l23.741 4.843h.153c-6.467 31.569-12.935 63.135-19.405 94.701v.012Z" fill="#000"/><path d="M450.537 217.729c-2.429-3.043-6.662-5.255-12.798-6.507-5.662-1.155-9.9-1.596-13.014-1.664l-9.267 45.234 8.318 1.698 3.54-17.277c1.309.487 2.659.857 4.033 1.108 5.931 1.209 11.487.717 15.525-1.936 3.093-1.923 5.195-5.247 6.088-9.602.885-4.283-.157-8.252-2.425-11.054Zm-6.05 9.683c-1.097 5.374-5.531 7.641-11.815 6.367a17.586 17.586 0 0 1-4.025-1.176l3.183-15.506a23.29 23.29 0 0 1 4.922.577c5.812 1.193 8.799 4.635 7.735 9.738ZM463.684 239.192c-.426 2.122.927 3.447 4.846 5.807 5.556 3.396 7.722 7.034 6.807 11.945-1.229 5.985-6.807 9.381-15.618 7.586-4.025-.82-7.442-2.509-9.616-4.373l2.876-5.722a19.035 19.035 0 0 0 8.016 4.143c3.685.752 5.625-.424 6.071-2.589.46-2.246-.668-3.676-4.463-5.943-6.02-3.566-8.02-7.641-7.16-11.521 1.2-5.849 6.973-9.419 14.678-7.849 3.685.752 6.693 2.356 8.39 3.766l-2.85 5.586a15.141 15.141 0 0 0-6.629-3.336c-3-.637-4.931.458-5.348 2.5ZM422.147 162.418c-.949-1.188-2.6-2.054-4.991-2.547a28.967 28.967 0 0 0-5.08-.649l-3.612 17.637 3.242.663 1.383-6.733c.513.183 1.039.325 1.574.425 2.31.471 4.484.276 6.054-.756 1.204-.747 2.025-2.046 2.374-3.744a5.144 5.144 0 0 0-.944-4.296Zm-2.353 3.774c-.425 2.097-2.161 2.971-4.608 2.487a6.716 6.716 0 0 1-1.57-.458l1.238-6.049a9.432 9.432 0 0 1 1.924.225c2.259.458 3.424 1.804 3.033 3.795h-.017ZM428.856 167.126c-.285 1.384.621 2.233 2.825 3.646 2.872 1.8 4.068 3.676 3.54 6.249-.587 2.865-3.28 4.915-7.905 3.969-1.889-.382-3.748-1.316-4.612-2.123l1.276-2.547a9.318 9.318 0 0 0 4.102 2.025c2.102.425 3.472-.318 3.769-1.774.277-1.354-.463-2.335-2.582-3.621-2.732-1.664-4.301-3.617-3.774-6.189.6-2.921 3.502-4.67 7.386-3.855a9.641 9.641 0 0 1 4.118 1.779l-1.335 2.462a7.738 7.738 0 0 0-3.404-1.575c-2.064-.407-3.195.518-3.404 1.554ZM452.92 169.329c-1.366-1.698-3.54-2.878-6.888-3.562-1.742-.368-3.51-.6-5.288-.692l-3.604 17.591a37.72 37.72 0 0 0 4.365 1.138c3.48.709 6.493.467 8.607-.79 2.017-1.188 3.595-3.357 4.255-6.537.621-3.052-.009-5.391-1.447-7.148Zm-2.051 6.545c-.931 4.538-3.931 6.368-8.181 5.468a13.445 13.445 0 0 1-1.791-.45l2.621-12.786c.764.006 1.526.095 2.272.268 4.105.836 5.93 3.557 5.079 7.5Z" fill="#000"/><path d="M353.801 153.168v.191l1.276-.051 25-.976h.46l-.336-.314-27.102-25.033-.336-.293v.459c.352 8.676.698 17.349 1.038 26.017Z" fill="#fff"/><path d="M385.8 265.566a171497.11 171497.11 0 0 0-4.344-110.72l-.047-1.155-.243.085a.859.859 0 0 1-.225.047h-.426l-27.501 1.091a.65.65 0 0 1-.655-.51.768.768 0 0 1-.064-.28l-1.115-28.471-77.008 3.006.073 1.753c.038 1.053.081 2.101.119 3.145v.026c.417 10.994.842 21.986 1.276 32.974l.051 1.338s2.693 67.863 4.029 101.797v.187l106.075-4.143.005-.17Z" fill="#fff"/><path d="m331.027 223.409-12.543.497a12.588 12.588 0 0 0-8.74 4.025 12.528 12.528 0 0 0 .707 17.734 12.595 12.595 0 0 0 9.033 3.32h.03a12.445 12.445 0 0 0 4.765-1.155c.264-.123.506-.242.732-.369l.2-.11a12.647 12.647 0 0 0 4.563-4.479 12.6 12.6 0 0 0 1.784-6.134v-.772c0-.272-.029-.527-.055-.773l-.476-11.784ZM343.335 196.635h-.03l-.098.107-.106-.094h-.03a12.495 12.495 0 0 0-5.343 1.787 12.561 12.561 0 0 0-4.534 4.782 12.522 12.522 0 0 0 .494 12.693 12.556 12.556 0 0 0 5.584 4.743 12.372 12.372 0 0 0 4.808 1.028l.102-.107.11.098h.03a12.586 12.586 0 0 0 8.324-4.217 12.532 12.532 0 0 0 3.118-8.78 12.54 12.54 0 0 0-3.808-8.505 12.594 12.594 0 0 0-8.634-3.543l.013.008ZM318.437 222.717l12.542-.497-1-25.074-12.508.496h-.37a12.59 12.59 0 0 0-8.395 4.277 12.534 12.534 0 0 0-3.058 8.896 12.538 12.538 0 0 0 3.996 8.517 12.59 12.59 0 0 0 8.805 3.355l-.012.03ZM317.036 196.471h.388l12.508-.493-.996-25.079-12.512.489a12.584 12.584 0 0 0-8.631 3.975 12.531 12.531 0 0 0-3.378 8.866 12.54 12.54 0 0 0 3.806 8.691 12.595 12.595 0 0 0 8.815 3.551ZM342.952 195.443a12.587 12.587 0 0 0 8.409-4.281 12.533 12.533 0 0 0 3.055-8.912 12.537 12.537 0 0 0-4.021-8.522 12.592 12.592 0 0 0-8.83-3.33l-11.449.454.995 25.075 11.449-.45c.141-.017.268-.021.392-.034Z" fill="#000"/><path d="M346.874 195.894h-.029a13.828 13.828 0 0 0 7.358-6.244 13.777 13.777 0 0 0 1.486-9.453 13.798 13.798 0 0 0-5.031-8.146 13.854 13.854 0 0 0-9.132-2.926l-25.153.994a13.857 13.857 0 0 0-8.84 3.674 13.781 13.781 0 0 0-2.084 17.809 13.837 13.837 0 0 0 7.755 5.608 13.827 13.827 0 0 0-6.73 5.273 13.778 13.778 0 0 0 .626 16.227 13.826 13.826 0 0 0 7.116 4.742h.051l-.051.021a13.817 13.817 0 0 0-7.291 6.2 13.772 13.772 0 0 0-1.506 9.439 13.798 13.798 0 0 0 5.004 8.152 13.858 13.858 0 0 0 9.112 2.952h.029a13.86 13.86 0 0 0 6.523-1.944c2.01-1.2 3.682-2.89 4.859-4.911a13.777 13.777 0 0 0 1.871-6.644l-.851-21.267a13.847 13.847 0 0 0 5.651 5.773c.229.128.472.255.723.374a13.783 13.783 0 0 0 5.888 1.333h.043a13.787 13.787 0 0 0 3.646-.815 13.84 13.84 0 0 0 6.71-5.285 13.782 13.782 0 0 0-.645-16.211 13.833 13.833 0 0 0-7.108-4.738v.013Zm-42.452-11.462a12.48 12.48 0 0 1 3.31-8.968 12.536 12.536 0 0 1 8.693-4.013l12.444-.492.991 24.947-12.444.493h-.383a12.615 12.615 0 0 1-8.712-3.467 12.564 12.564 0 0 1-3.899-8.512v.012Zm1.047 26.255a12.558 12.558 0 0 1 3.208-8.8 12.616 12.616 0 0 1 8.415-4.147h.366l12.445-.492.996 24.943-12.475.497a12.555 12.555 0 0 1-8.963-3.338 12.497 12.497 0 0 1-3.992-8.675v.012Zm26.021 26.047a12.505 12.505 0 0 1-1.766 6.112 12.54 12.54 0 0 1-4.548 4.458l-.2.11a12.367 12.367 0 0 1-5.463 1.516h-.029a12.53 12.53 0 0 1-8.985-3.302 12.465 12.465 0 0 1-.704-17.637 12.52 12.52 0 0 1 8.693-4.004l12.474-.497.468 11.686c.026.247.047.501.056.764.008.264.012.531.004.781v.013Zm-1.276-65.796 11.381-.45a12.527 12.527 0 0 1 9.018 3.171 12.472 12.472 0 0 1 4.138 8.601 12.467 12.467 0 0 1-3.161 9.005 12.522 12.522 0 0 1-8.613 4.145h-.374l-11.385.45-1.004-24.922Zm1.042 26.25 6.633-.258c-.17.084-.336.178-.502.271a13.844 13.844 0 0 0-5.88 6.618l-.251-6.631Zm13.087 24.447-.132-.123-.119.131a12.37 12.37 0 0 1-5.459-1.354 12.495 12.495 0 0 1-4.868-4.39 12.455 12.455 0 0 1-.493-12.626 12.48 12.48 0 0 1 4.51-4.756 12.311 12.311 0 0 1 5.34-1.779l.128.119.123-.135a12.523 12.523 0 0 1 8.512 3.566 12.465 12.465 0 0 1 .681 17.11 12.52 12.52 0 0 1-8.202 4.229l-.021.008Z" fill="#fff"/><path d="M383.09 152.824a1.124 1.124 0 0 0-.03-.216.843.843 0 0 0-.294-.582l-30.062-27.736a.863.863 0 0 0-.333-.29.864.864 0 0 0-.433-.084l-78.484 3.069a.938.938 0 0 0-.592.225.849.849 0 0 0-.425.794c.071 1.873.144 3.743.221 5.608v.034c.502 13.017 1 26.025 1.493 39.023.004.09.021.179.051.263l3.83 97.731a.962.962 0 0 0 .119.425.823.823 0 0 0 .851.543l107.525-4.202a.9.9 0 0 0 .762-.425.851.851 0 0 0 .243-.662c-1.475-37.836-2.956-75.676-4.442-113.518Zm-3-.683-26.097 1.018c-.344-8.676-.684-17.354-1.021-26.034 9.036 8.343 18.076 16.681 27.118 25.016ZM279.912 269.725c-1.336-33.934-4.029-101.797-4.029-101.797-.44-11.445-.876-22.886-1.31-34.325v-.03c-.06-1.57-.124-3.141-.183-4.712l76.633-2.992 1.102 28.284c.005.116.029.231.072.339a.83.83 0 0 0 .881.629l27.867-1.087a1.25 1.25 0 0 0 .285-.055l4.378 111.616-105.696 4.13Z" fill="#000"/><path d="m164.289 179.712 21.005 2.415.46.051-19.146-24.09-2.497 21.602.178.022ZM153.015 186.449l2.88-24.918-81.348-9.36-.187-.025-.021.191c-.8 6.939-1.601 13.872-2.404 20.8l-.45 3.939 81.338 9.339.192.034Z" fill="#fff"/><path d="m186.12 183.744-22.835-2.632a1.007 1.007 0 0 1-.221-.055h-.038a.575.575 0 0 1-.522-.442.576.576 0 0 1-.006-.241l2.693-23.271.047-.246-63.048-7.263-.426 3.82c0 .055-.021.102-.034.153l-.072.221.23.025 54.824 6.283a.848.848 0 0 1 .736.768.774.774 0 0 1 0 .263c-1.01 8.711-2.015 17.419-3.016 26.124a1.438 1.438 0 0 1-.047.191v.038a.578.578 0 0 1-.062.241.578.578 0 0 1-.378.308.603.603 0 0 1-.25.011c-18.345-2.114-36.69-4.225-55.032-6.333h-.192l-9.645 83.502-.021.191.302.034c28.809 3.316 57.615 6.632 86.419 9.946h.191l10.573-91.428v-.187l-.17-.021Z" fill="#fff"/><path d="M187.881 182.135c0-.025-.03-.055-.047-.076a16785.945 16785.945 0 0 1-21.031-26.455.85.85 0 0 0-.506-.318 1.265 1.265 0 0 0-.242-.055l-64.487-7.42a.757.757 0 0 0-.774.335.746.746 0 0 0-.107.276 1.017 1.017 0 0 0-.123.39c-.179 1.523-.355 3.048-.528 4.577l-26.08-2.997a.748.748 0 0 0-.851.526 1.009 1.009 0 0 0-.383.688c-1.01 8.705-2.015 17.412-3.016 26.123a.791.791 0 0 0 .923.9c.09.043.186.07.285.081l25.863 2.971-9.764 84.355a.757.757 0 0 0 .651.883c.099.05.205.083.315.098 29.456 3.396 58.907 6.783 88.355 10.162a.765.765 0 0 0 .602-.141.751.751 0 0 0 .295-.542c.064-.116.104-.243.119-.374 3.591-31.093 7.185-62.187 10.782-93.282a.757.757 0 0 0-.251-.705Zm-21.146-23.572 18.58 23.373-21.005-2.416 2.425-20.957Zm-95.043 18.334c.948-8.181 1.892-16.361 2.834-24.54l81.16 9.339c-.947 8.178-1.893 16.358-2.838 24.54l-81.156-9.339Zm103.855 98.296-86.534-9.963 9.636-83.328 55.033 6.333a.758.758 0 0 0 .615-.159.767.767 0 0 0 .283-.567c.026-.073.044-.148.055-.225 1.004-8.71 2.01-17.418 3.017-26.123a.92.92 0 0 0 0-.331 1.016 1.016 0 0 0-.902-.913l-54.854-6.312a.668.668 0 0 0 .042-.187l.426-3.612 62.657 7.216v.068l-2.689 23.258a.756.756 0 0 0 .145.598.773.773 0 0 0 .54.298c.086.032.176.055.268.068l22.834 2.627c-3.531 30.414-7.055 60.832-10.572 91.254Z" fill="#000"/><path d="M90.205 158.046a30.651 30.651 0 0 1 4.846.203c2.501.298 4.156.909 5.203 2.021a4.419 4.419 0 0 1 1.085 3.655 4.678 4.678 0 0 1-3.663 3.982v.076c1.183.607 1.791 1.906 2.03 3.634.288 2.224.514 4.287.795 5l-3.276-.386a24.678 24.678 0 0 1-.677-4.245c-.225-2.322-.966-3.141-2.765-3.396l-1.6-.187-.85 7.132-3.15-.37 2.022-17.119Zm2.242 8.044 1.885.22c2.127.251 3.616-.721 3.829-2.449.225-1.902-1.013-2.937-3.076-3.179a9.032 9.032 0 0 0-1.979-.077l-.66 5.485ZM107.1 172.407l-2.081 4.741-3.276-.386 7.625-16.7 4.05.476 3.604 18.02-3.404-.399-.991-5.094-5.527-.658Zm5.263-1.813-.851-4.432c-.209-1.095-.353-2.313-.494-3.349h-.051c-.378.972-.778 2.152-1.208 3.146l-1.851 4.117 4.455.518ZM120.799 179.007l-2.213-17.859 3.383.399.719 8.066c.191 2.16.34 4.423.425 6.185h.051c.502-1.796 1.234-3.795 1.983-5.943l2.812-7.641 3.327.39.787 8.185c.196 2.122.328 4.088.366 5.998h.051c.536-1.868 1.183-3.821 1.898-5.858l2.731-7.641 3.23.378-6.723 16.805-3.403-.399-.851-8.375a49.155 49.155 0 0 1-.302-5.624h-.051a62.554 62.554 0 0 1-1.813 5.374l-2.978 7.925-3.429-.365Z" fill="#000" stroke="#000" stroke-width=".731" stroke-miterlimit="10"/><path d="M147.139 206.599c-16.24-6.541-34.772 3.32-38.47 20.376-2.846 13.112 4.57 26.938 17.019 31.956 12.678 5.093 27.229.373 34.657-11.037 9.143-14.637 3.034-34.737-13.206-41.295Z" fill="#FF490C" stroke="#fff" stroke-width=".731" stroke-miterlimit="10"/><path d="M147.144 206.599c-16.244-6.542-34.777 3.323-38.478 20.375-2.842 13.113 4.573 26.939 17.018 31.952 12.678 5.094 27.229.378 34.658-11.037 9.147-14.632 3.037-34.732-13.198-41.29Zm-10.751 52.7c-9.186.085-17.836-4.953-22.656-12.667-4.744-7.585-5.105-17.302-1.306-25.333 3.889-8.214 11.998-13.826 20.988-14.896 10.211-1.218 20.277 3.872 25.672 12.502s5.046 19.628-.26 28.127a26.92 26.92 0 0 1-9.667 8.959 26.994 26.994 0 0 1-12.771 3.308Z" fill="#fff"/><path d="M158.895 222.675c-3.34-7.721-10.905-13.121-19.171-14.28a24.918 24.918 0 0 0-11.88 1.345 24.857 24.857 0 0 0-9.878 6.721c-5.578 6.185-7.429 14.933-5.297 22.922 2.514 9.416 10.857 16.432 20.443 17.778 9.586 1.346 18.924-3.239 24.123-11.198a24.96 24.96 0 0 0 1.66-23.288Zm.081 6.839-12.985 7.089c.255-8.068.509-16.134.761-24.196.519.254 1.03.526 1.528.823a22.339 22.339 0 0 1 7.223 6.916 22.275 22.275 0 0 1 3.473 9.368Zm-30.353 7.288.285-9.037 7.403-4.037 8.173 5.187c-.093 2.887-.185 5.773-.276 8.66l-7.726 4.215-7.859-4.988Zm16.406-25.168c-.162 5.094-.322 10.178-.481 15.252-6.926-4.392-13.851-8.787-20.775-13.185 6.301-4.211 14.33-4.813 21.256-2.067Zm-22.77 3.175 12.363 7.849-21.081 11.504a23.194 23.194 0 0 1 2.017-10.727 23.245 23.245 0 0 1 6.701-8.626Zm-8.152 23.123a20.971 20.971 0 0 1-.37-1.885l13.389-7.31a33931.3 33931.3 0 0 1-.775 24.565 23.457 23.457 0 0 1-7.814-6.343 23.397 23.397 0 0 1-4.43-9.027Zm18.469 17.374a21.898 21.898 0 0 1-4.497-1.239c.159-5.077.319-10.156.481-15.236l20.422 12.969a23.185 23.185 0 0 1-16.406 3.506Zm23.149-10.247a23.355 23.355 0 0 1-5.199 5.646l-12.368-7.832 20.992-11.462a23.274 23.274 0 0 1-3.425 13.648ZM245.025 179.992l-.102-.162-5.336 3.32-11.593 7.216a.647.647 0 0 1-.817-.046.755.755 0 0 1-.23-.247l-5.161-8.243a2652.307 2652.307 0 0 1-5.343-8.575l-.098-.161-16.921 10.519a34644.927 34644.927 0 0 0-29.692 18.491l-.166.097.102.162.778 1.248.728 1.167c3.341 5.332 6.678 10.663 10.011 15.995l3.591 5.743.025.043 25.272 40.407 13.117 20.966 64.304-40.034-42.469-67.906Z" fill="#fff"/><path d="m289.319 247.58-43.282-69.193c0-.025-.042-.046-.059-.076a.846.846 0 0 0-.583-.424l-28.642-6.614a.829.829 0 0 0-.826.068l-47.846 29.778a.904.904 0 0 0-.4.492.852.852 0 0 0 .051.871c.425.662.825 1.32 1.238 1.982l14.142 22.6 39.006 62.358a.93.93 0 0 0 .353.34.857.857 0 0 0 .974 0l65.521-40.811a.888.888 0 0 0 .425-.7.848.848 0 0 0-.072-.671Zm-46.63-68.382-14.759 9.203-9.233-14.721 23.992 5.518ZM223.25 287.669l-38.292-61.225v-.029l-13.614-21.747c-.502-.802-1-1.609-1.506-2.416l46.417-28.899c3.512 5.603 7.02 11.209 10.526 16.818a.885.885 0 0 0 .293.306.852.852 0 0 0 1.017.051 11908.07 11908.07 0 0 1 16.768-10.443c14.125 22.578 28.249 45.159 42.371 67.745l-63.98 39.839Z" fill="#000"/><path d="m243.182 179.122-.451-.102-23.992-5.54-.425-.106 9.564 15.282 15.304-9.534Z" fill="#fff"/><path d="m241.969 218.947 1.894 2.878 7.658-4.436-14.585-6.078.341.522a631.006 631.006 0 0 1 4.692 7.114ZM210.098 244.094l.388.123 25.255 8.04 6.024 1.919-24.098-14.934-7.569 4.852ZM216.834 238.308l-6.22-10.926-1.238 15.706.323-.204 6.982-4.478.153-.098ZM215.617 233.66l1.753 3.082.098-.505c1.103-5.802 2.208-11.603 3.314-17.404l.196-1.036-3.259 2.509-6.616 5.072-.132.102.085.145c1.512 2.677 3.032 5.355 4.561 8.035ZM234.46 219.3l7.782 2.288-7.118-10.829-4.952 2.334-5.306 2.497-1.161.539.48.14 10.275 3.031ZM218.897 237.036l20.873-12.735 2.395-1.46-4.642-1.367-14.942-4.389-.204-.06-3.829 20.219.349-.208ZM218.845 238.517l.264.161 21.762 13.49 4.851 3.001-2.553-31.463-24.324 14.811ZM248.224 220.747l-3.787 2.174-.106.059 2.319 28.25 5.475-32.737-3.901 2.254Z" fill="#FF490C"/><path d="M253.733 217.254a.776.776 0 0 0-.306-.578.794.794 0 0 0-.264-.153l-17.15-7.152a1.848 1.848 0 0 0-.247-.085.853.853 0 0 0-.792 0 4.002 4.002 0 0 0-.536.216l-4.322 2.038-8.348 3.935a.623.623 0 0 0-.119.042h-.034a.632.632 0 0 0-.379.276l-6.935 5.319-3.944 3.023a6.14 6.14 0 0 0-.565.467.801.801 0 0 0-.426.785c0 .076-.025.157-.034.246l-1.468 18.614a.893.893 0 0 0 .745.849l37.534 11.95a.713.713 0 0 0 .608-.06.659.659 0 0 0 .477-.556c2.169-12.978 4.341-25.955 6.513-38.93a.752.752 0 0 0-.008-.246Zm-8.233 37.554-26.293-16.287 23.779-14.488 2.514 30.775Zm-1.561-33.233-6.467-9.848 13.653 5.675-7.186 4.173Zm-25.145 15.282c1.248-6.532 2.492-13.063 3.732-19.595l19.175 5.659-22.907 13.936Zm-1.127 2.619 22.689 14.055-29.811-9.492 7.122-4.563Zm-8.084 3.251 1.17-14.713 5.82 10.231-6.99 4.482Zm34.939-19.624 7.33-4.245-5.156 30.823a18646.63 18646.63 0 0 0-2.174-26.578Zm-14.274-9.84 4.48-2.122.319-.153 6.739 10.256-17.554-5.158 6.016-2.823Zm-9.552 4.988-3.404 17.948a6041.605 6041.605 0 0 0-6.071-10.672l9.475-7.276Z" fill="#000"/><path d="M463.527 208.449a4.19 4.19 0 0 0 4.195-4.185 4.19 4.19 0 0 0-4.195-4.186 4.19 4.19 0 0 0-4.195 4.186 4.19 4.19 0 0 0 4.195 4.185Z" fill="#FF490C"/><path d="M463.523 209.022a4.766 4.766 0 0 1-4.768-4.716 4.75 4.75 0 0 1 .611-2.373 4.775 4.775 0 0 1 6.505-1.799 4.752 4.752 0 0 1 1.781 6.497 4.762 4.762 0 0 1-4.129 2.391Zm0-8.375a3.626 3.626 0 0 0-3.032 1.636 3.612 3.612 0 0 0 .649 4.705 3.628 3.628 0 0 0 2.378.892 3.634 3.634 0 0 0 3.601-3.187 3.616 3.616 0 0 0-1.409-3.307 3.63 3.63 0 0 0-2.183-.739h-.004Z" fill="#000"/><path d="M327.589 152.914a4.191 4.191 0 0 0 4.195-4.186 4.19 4.19 0 0 0-4.195-4.185 4.19 4.19 0 0 0-4.195 4.185 4.19 4.19 0 0 0 4.195 4.186Z" fill="#FF490C"/><path d="M327.584 153.487a4.761 4.761 0 0 1-4.678-5.687 4.76 4.76 0 0 1 3.748-3.739 4.784 4.784 0 0 1 2.755.271 4.762 4.762 0 0 1 2.944 4.396 4.758 4.758 0 0 1-1.398 3.364 4.778 4.778 0 0 1-3.371 1.395Zm0-8.371a3.626 3.626 0 0 0-3.349 2.234 3.604 3.604 0 0 0 .787 3.941 3.628 3.628 0 0 0 6.187-2.563 3.613 3.613 0 0 0-1.063-2.554 3.627 3.627 0 0 0-2.562-1.058Z" fill="#000"/><path d="M215.685 209.863a4.16 4.16 0 0 0 4.165-4.155 4.16 4.16 0 0 0-4.165-4.156 4.16 4.16 0 0 0-4.165 4.156 4.16 4.16 0 0 0 4.165 4.155Z" fill="#FF490C"/><path d="M215.686 210.436h-.341a4.74 4.74 0 0 1-3.779-2.373 4.723 4.723 0 0 1-.121-4.453 4.734 4.734 0 0 1 3.645-2.574 4.746 4.746 0 0 1 5.088 3.194c.196.589.273 1.211.226 1.83a4.731 4.731 0 0 1-1.502 3.109 4.752 4.752 0 0 1-3.216 1.267Zm0-8.311a3.59 3.59 0 0 0-3.544 4.2 3.598 3.598 0 0 0 7.13-.38 3.586 3.586 0 0 0-3.327-3.82c-.094-.004-.183-.004-.268-.004l.009.004Z" fill="#000"/><path d="M147.369 199.319a3.778 3.778 0 0 0 3.782-3.774 3.778 3.778 0 0 0-3.782-3.774 3.778 3.778 0 0 0-3.782 3.774 3.778 3.778 0 0 0 3.782 3.774Z" fill="#FF490C"/><path d="M147.374 199.892h-.222a4.369 4.369 0 0 1-4.267-4.422 4.367 4.367 0 0 1 1.302-3.053 4.383 4.383 0 0 1 6.152 0 4.367 4.367 0 0 1 1.302 3.053 4.369 4.369 0 0 1-4.267 4.422Zm0-7.548a3.226 3.226 0 0 0-2.239.984 3.207 3.207 0 0 0 .056 4.515 3.225 3.225 0 0 0 4.526 0 3.207 3.207 0 0 0 .057-4.515 3.226 3.226 0 0 0-2.239-.984h-.161Z" fill="#000"/><path d="M155.469 80.711a4.033 4.033 0 0 0 4.038-4.028 4.033 4.033 0 0 0-4.038-4.029 4.033 4.033 0 0 0-4.037 4.029 4.033 4.033 0 0 0 4.037 4.028Z" fill="#FF490C"/><path d="M155.461 81.284a4.616 4.616 0 0 1-3.122-1.236 4.594 4.594 0 0 1-.469-6.225 4.612 4.612 0 0 1 2.902-1.687c.231-.034.464-.051.697-.051a4.613 4.613 0 0 1 3.139 1.223 4.59 4.59 0 0 1 .473 6.24 4.61 4.61 0 0 1-2.918 1.68 4.889 4.889 0 0 1-.702.056Zm0-8.066a3.467 3.467 0 0 0-2.795 1.409 3.454 3.454 0 0 0-.634 2.569c.128.812.54 1.552 1.163 2.09a3.495 3.495 0 0 0 2.24.847 3.69 3.69 0 0 0 .528-.042 3.455 3.455 0 0 0 2.94-3.677 3.466 3.466 0 0 0-3.459-3.196h.017Z" fill="#000"/><path d="M290.042 60.064a3.99 3.99 0 0 0 3.995-3.986 3.99 3.99 0 0 0-3.995-3.986 3.99 3.99 0 0 0-3.995 3.986 3.99 3.99 0 0 0 3.995 3.986Z" fill="#FF490C"/><path d="M290.046 60.638a4.575 4.575 0 0 1-3.087-1.2 4.554 4.554 0 0 1 2.304-7.85c.262-.046.526-.07.792-.068a4.571 4.571 0 0 1 3.1 1.19 4.547 4.547 0 0 1 .532 6.152 4.564 4.564 0 0 1-2.849 1.703 4.507 4.507 0 0 1-.792.073Zm0-7.977c-.199 0-.399.017-.595.051a3.413 3.413 0 0 0-1.708 5.876 3.431 3.431 0 0 0 2.899.853 3.429 3.429 0 0 0 2.162-1.27 3.412 3.412 0 0 0-.402-4.64 3.427 3.427 0 0 0-2.347-.882l-.009.012Z" fill="#000"/><path d="M404.158 94.792a4.365 4.365 0 0 0 4.37-4.36 4.365 4.365 0 0 0-4.37-4.359 4.364 4.364 0 0 0-4.369 4.36 4.364 4.364 0 0 0 4.369 4.36Z" fill="#FF490C"/><path d="M404.159 95.365a4.887 4.887 0 0 1-1.107-.123 4.944 4.944 0 0 1-2.92-1.957 4.921 4.921 0 0 1 .735-6.52 4.95 4.95 0 0 1 4.389-1.138 4.946 4.946 0 0 1 2.921 1.957 4.921 4.921 0 0 1-.735 6.52 4.952 4.952 0 0 1-3.283 1.26Zm0-8.72a3.803 3.803 0 0 0-2.527.966 3.786 3.786 0 0 0-.57 5.013 3.798 3.798 0 0 0 6.896-2.188c0-1.005-.4-1.969-1.113-2.68a3.803 3.803 0 0 0-2.686-1.11ZM116.387 89.779a5.863 5.863 0 0 0-3.604.666.317.317 0 0 0-.115-.097c-.476-.238-.97.178-1.314.484-.357.308-.62.71-.762 1.159a.367.367 0 0 0 .319.492 7.285 7.285 0 0 0-.506 3.107c.03.535.851.7.974.132.281-1.231.255-2.428.957-3.532.894-1.4 2.694-1.163 4.051-1.605.357-.106.438-.738 0-.806ZM194.196 79.705a.295.295 0 0 0 0-.06c-.034-1.213-.945-1.999-2.051-2.377a3.66 3.66 0 0 0-.744-.318 1.412 1.412 0 0 0 .578-.972c.094-1.032-.94-2.097-1.782-2.547a.449.449 0 0 0-.662.412.444.444 0 0 0 .121.284c.29.365 1.774 1.486 1.115 1.987l-.055.038-.256.102a4.511 4.511 0 0 1-.778.187.51.51 0 0 0-.362.36.42.42 0 0 0 0 .276c-.149 0-.293 0-.425.039a.465.465 0 0 0-.464.462.462.462 0 0 0 .464.463c.425 0 .812.021 1.212.047l.396.034a2.806 2.806 0 0 1 2.204 1.188c.561.85.387 1.91.851 2.76a.426.426 0 0 0 .74-.094c.058-.246.081-.499.068-.751a3.086 3.086 0 0 0-.17-1.52ZM172.986 77.94c-.298-.425-.817-.484-.979-1.04-.136-.459-.076-1.206-.587-1.435a.298.298 0 0 0-.345.042c-.425.404-.161 1.478 0 1.97.205.56.877 1.18 1.502 1.146a.463.463 0 0 0 .403-.223.462.462 0 0 0 .006-.46ZM173.386 58.527a2.346 2.346 0 0 0-2.876-.501 1.371 1.371 0 0 0-.426.378 3.46 3.46 0 0 0-1.136-1.762 3.27 3.27 0 0 0-2.199-.993 3.41 3.41 0 0 0-.804 0 2.754 2.754 0 0 0-1.332.263.32.32 0 0 0-.15.267.316.316 0 0 0 .15.268c.94.475 2.085.187 3.08.645 1.396.645.996 1.906 1.515 3.03a.373.373 0 0 0 .253.194.366.366 0 0 0 .309-.079.717.717 0 0 0 .344.463.358.358 0 0 0 .426-.055c.48-.424.042-1.159.489-1.647s1.276.132 1.702.374c.566.326 1-.404.655-.845ZM199.909 162.464c.055-.678.055-1.359 0-2.037a8.27 8.27 0 0 0-.37-2.369.382.382 0 0 0-.651-.143.382.382 0 0 0-.098.245c-.098 1.698.064 3.311-.425 4.971-.579 1.914-3.974 1.957-5.565 2.479a.485.485 0 0 0-.177.089.497.497 0 0 0-.176.535.502.502 0 0 0 .625.352c1.242-.204 2.799-.382 4.089-.925a.396.396 0 0 0 .106.076c.148.071.308.114.472.127a.487.487 0 0 0 .311.149c.373.013.737-.118 1.017-.365a.42.42 0 0 0 .374.076.422.422 0 0 0 .285-.254c.336-.82.549-2.136.183-3.006ZM111.58 64.334c-.515-.136-.987-.119-1.434-.467a2.166 2.166 0 0 1-.762-1.668.42.42 0 0 0-.212-.382c-.007-.313.092-.62.28-.87.456-.501 1.277-.425 1.89-.531.612-.106.382-.925-.137-.976a3.345 3.345 0 0 0-2.552.726c-.553.48-.941 1.757-.477 2.385.063.087.15.152.251.187a2.81 2.81 0 0 0 .804 1.791c.532.57 1.557 1.028 2.332.807a.52.52 0 0 0 .285-.81.522.522 0 0 0-.268-.192ZM163.349 83.61a.392.392 0 0 0-.706.094c-.222.526 0 1.12-.23 1.664-.23.543-.987.522-1.421.912a.45.45 0 0 0-.001.632.454.454 0 0 0 .197.12c.774.25 1.676-.349 2.089-.968.412-.62.514-1.843.072-2.454ZM160.967 61.84a3.986 3.986 0 0 0-2.923-.17c-.327.148-.174.577.09.679.638.25 1.412.144 2.084.293.787.174.651.904.975 1.456a.427.427 0 0 0 .672.125c.065-.06.11-.14.127-.227a2.017 2.017 0 0 0-1.025-2.157ZM86.252 66.631H86.105a3.087 3.087 0 0 0-2.6.73c-.608.544-.928 1.936-.425 2.624a.424.424 0 0 0 .736 0c.302-.603-.043-1.325.455-1.872.498-.548 1.336-.425 1.953-.68a.36.36 0 0 0 .212-.318l.022-.025c.11-.157.055-.493-.204-.459ZM86.972 91.251c-.762-.203-1.251-.424-1.54-1.201-.213-.581-.137-1.24-.426-1.779a.375.375 0 0 0-.68.085c-.324.794 0 1.906.39 2.628a2.24 2.24 0 0 0 2.256 1.176c.476-.077.43-.798 0-.909ZM157.567 73.182a.633.633 0 0 0-.374-.247c-.851-.653-2.059.395-1.787 1.401.068.255.179.505.481.514a.243.243 0 0 0 .242-.187.359.359 0 0 0 .085-.204c.039-.305.03-.658.328-.849.298-.19.638.11.928-.076a.272.272 0 0 0 .097-.352ZM154.598 77.672a.177.177 0 0 0-.128-.165c-.298-.107-.583.114-.851.237-.133.066-.262.14-.387.221a.857.857 0 0 0-.289.225c-.076.066-.144.14-.204.22-.37.48-.456 1.312.106 1.699.09.105.204.186.332.237.104.062.224.09.344.081a.287.287 0 0 0 .276-.232.28.28 0 0 0-.003-.129c-.081-.399-.545-.56-.472-1.035.055-.34.357-.425.544-.6.353-.237.702-.453.732-.759ZM158.38 78.355c-.217-.314-.791-.849-1.191-.637a.198.198 0 0 0-.102.179c.038.297.268.369.498.526a.619.619 0 0 1 .255.883c-.204.306.251.645.502.386a1.044 1.044 0 0 0 .038-1.337ZM159.576 76.28c-.115-.208-.506-.191-.545.072-.038.263 0 .374-.242.454a1.16 1.16 0 0 1-.706-.089.286.286 0 0 0-.281.076.264.264 0 0 0-.081.166v.034a.29.29 0 0 0 .208.276 1.532 1.532 0 0 0 1.251 0 .765.765 0 0 0 .396-.99ZM294.054 54.762v-.025a.342.342 0 0 0-.006-.244.346.346 0 0 0-.164-.18 1.37 1.37 0 0 0-1.128-.527.318.318 0 0 0-.268 0l-.042.03a1.472 1.472 0 0 0-.885.717 2.769 2.769 0 0 0-.243.267.34.34 0 0 0-.064.149.24.24 0 0 0 0 .25c.018.03.041.055.068.077a.253.253 0 0 0 .251 0c.079-.044.154-.094.226-.149a.208.208 0 0 0 .085-.055v-.026c.094-.072.183-.148.268-.22l.119-.094c.122-.063.255-.101.392-.114.425-.026.599.335.787.628.187.293.595.165.57-.157v-.106a.273.273 0 0 0 .034-.22ZM288.51 55.794a1.156 1.156 0 0 0-.558-.264 4.406 4.406 0 0 0-.621-.136 1.084 1.084 0 0 0-.927.221c-.426.4-.66 1.342-.268 1.843.038.199.115.39.225.56.166.246.634.187.604-.162-.042-.488-.344-1.01 0-1.451.345-.442.979-.077 1.417-.196a.257.257 0 0 0 .116-.06.254.254 0 0 0 .073-.24.251.251 0 0 0-.061-.115ZM293.254 58.367a.426.426 0 0 0-.124-.128.346.346 0 0 0-.353 0 .551.551 0 0 1-.553.123c-.191-.08-.259-.259-.391-.403-.132-.144-.426-.021-.426.183a.949.949 0 0 0 .647.849 1.145 1.145 0 0 0 1.166-.212.346.346 0 0 0 .087-.2.343.343 0 0 0-.053-.212ZM290.612 57.767a.21.21 0 0 0-.208.055c-.268.276-.056.76-.06 1.104a.56.56 0 0 1-.327.514c-.183.076-.37 0-.536.135a.203.203 0 0 0-.073.276c.375.527 1.174.056 1.443-.348.268-.403.357-1.566-.239-1.736Z" fill="#000"/><path d="M407.966 91.918a1.583 1.583 0 0 0-.945-1.163.902.902 0 0 0-.944-.254.202.202 0 0 0-.135.118.2.2 0 0 0 .011.179c.127.158.289.284.473.37.304.198.525.5.625.848.046.19.05.386.012.578a1.346 1.346 0 0 1-.229.53c-.153.25-.357.331-.425.628a.204.204 0 0 0 .136.242.825.825 0 0 0 .889-.51c.515-.296.604-1.052.532-1.566ZM404.495 87.809a1.61 1.61 0 0 0-.757-1.397 1.675 1.675 0 0 0-1.766.234l-.038.03a2.592 2.592 0 0 0-1.03.717c-.136.174 0 .513.243.424.425-.152.774-.424 1.195-.602a1.22 1.22 0 0 1 .851-.047c.073.042.143.09.209.144.175.174.319.376.425.599 0 .06.038.119.055.174a.328.328 0 0 0 .404.229.33.33 0 0 0 .23-.403.88.88 0 0 1-.021-.102ZM401.635 91.664a.513.513 0 0 0-.425-.047.76.76 0 0 1-.562.026c-.251-.14-.2-.548-.425-.722a.197.197 0 0 0-.298.038c-.251.353.026.951.323 1.189.194.144.432.214.673.2.276.024.551-.062.765-.238a.278.278 0 0 0 .069-.108c.015-.041.02-.085.015-.128a.29.29 0 0 0-.135-.21ZM402.907 92.38a.191.191 0 0 0-.132-.174c-.477-.182-1.064.497-1.196.896a1.137 1.137 0 0 0 .464 1.354.364.364 0 0 0 .366 0l.043-.025a.286.286 0 0 0 .144-.246c0-.378-.506-.476-.319-.905.149-.34.626-.505.63-.9ZM331.516 149.717a.263.263 0 0 0-.093-.138.266.266 0 0 0-.158-.053.658.658 0 0 0-.464.298 5.785 5.785 0 0 1-.498.517.165.165 0 0 0-.046.073 1.55 1.55 0 0 0-.728-.255c-.136 0-.949-.089-.791.297.204.501 1.046.161 1.221.628.102.276-.362.629-.519.794a.77.77 0 0 0-.268.705c.008.03.022.058.041.083.02.024.044.045.071.06a.229.229 0 0 0 .088.029.225.225 0 0 0 .093-.007 2.67 2.67 0 0 0 .894-.823c.144-.186.243-.402.289-.633h.059a.48.48 0 0 0 .251-.62c.294-.263.639-.602.558-.955ZM146.411 192.319a.295.295 0 0 0 .061-.315.296.296 0 0 0-.265-.182c-1.276.038-1.736 2.178-.625 2.764a.335.335 0 0 0 .372-.058.334.334 0 0 0 .097-.171.338.338 0 0 0-.018-.196c-.187-.327-.426-.564-.353-.972.072-.407.421-.62.731-.87ZM147.943 198.725c-.455 0-.744-.123-.893-.59-.123-.386.068-.76 0-1.142a.24.24 0 0 0-.065-.116.242.242 0 0 0-.249-.062.244.244 0 0 0-.112.072c-.476.425-.353 1.325-.093 1.847a1.273 1.273 0 0 0 1.583.619c.34-.161.161-.628-.171-.628ZM149.463 192.315c-.098 0-.217.089-.205.204a.556.556 0 0 0 .183.382c.17.186.291.41.353.654.179.59-.731.501-.851.959a.24.24 0 0 0 0 .119.23.23 0 0 0 .06.102c.511.424 1.221-.31 1.391-.764.17-.454-.323-1.694-.931-1.656ZM150.619 195.567a1.625 1.625 0 0 0-.944-.255 1.58 1.58 0 0 0-1.107.386.226.226 0 0 0-.054.21.219.219 0 0 0 .152.155c.426.119.851-.161 1.277-.076.744.149.361.807.4 1.303a.262.262 0 0 0 .316.255.262.262 0 0 0 .135-.072 1.298 1.298 0 0 0 .328-.991 1.294 1.294 0 0 0-.503-.915ZM214.196 202.397c.225-.187 0-.607-.285-.497a1.908 1.908 0 0 0-.894.722.237.237 0 0 0-.127.102 3.02 3.02 0 0 0-.234.424.297.297 0 0 0-.085.064.919.919 0 0 0-.234.849.308.308 0 0 0 .307.212.308.308 0 0 0 .284-.242.896.896 0 0 0 .651.573c.247.042.549-.216.366-.471-.183-.255-.426-.386-.455-.726-.026-.437.4-.76.706-1.01ZM217.783 208.655c-.396.14-.787.339-1.106-.077-.32-.416 0-.929-.226-1.354a.261.261 0 0 0-.2-.134.264.264 0 0 0-.225.083 1.4 1.4 0 0 0-.239 1.044c.014.228.083.45.2.646a.346.346 0 0 0-.237.149.36.36 0 0 0-.057.132.362.362 0 0 0 .001.143.69.69 0 0 0 .668.501.274.274 0 0 0 .289-.289c.252.115.534.144.804.084.27-.059.514-.205.694-.415.191-.254-.102-.611-.366-.513ZM218.996 202.97c-.094-.551-.924-1.307-1.489-1.014a.17.17 0 0 0-.064.233.687.687 0 0 0 .387.319 1.028 1.028 0 0 1 .54.632c.162.544-.587.815-.549 1.316a.221.221 0 0 0 .222.221c.736-.009 1.05-1.146.953-1.707ZM219.246 205.207a1.887 1.887 0 0 0-1.825.357.31.31 0 0 0-.111.424c.042.071.11.123.19.144.08.02.164.008.235-.033.366-.208.817-.45 1.247-.268.357.153.162.552.379.798a.257.257 0 0 0 .259.068h.055a.338.338 0 0 0 .247-.246 1.112 1.112 0 0 0-.676-1.244ZM462.075 200.58s0 .027 0 0c0 0 .018-.022 0 0ZM462.029 200.797a.241.241 0 0 0-.144-.352c-.626-.17-1.124.573-1.251 1.091a1.54 1.54 0 0 0 .927 1.748.354.354 0 0 0 .398-.166.356.356 0 0 0-.053-.428c-.353-.293-.664-.573-.545-1.078.085-.391.468-.518.668-.815ZM465.118 200.453c-.072.025-.153.097-.14.182.051.395.48.577.587.976.157.574-.63.811-.706 1.299a.236.236 0 0 0 .043.208.235.235 0 0 0 .084.069c.033.016.07.025.107.025.689 0 1.182-.968 1.161-1.562-.021-.476-.57-1.397-1.136-1.197ZM464.113 207.33a1.45 1.45 0 0 0-.123-1.13c-.128-.195-.485-.195-.532.068-.073.382.064.773-.128 1.134-.191.361-.795.301-1.161.293a.247.247 0 0 0-.167.06.246.246 0 0 0-.085.156.247.247 0 0 0 .184.276 1.714 1.714 0 0 0 1.331-.025c.006.026.018.05.034.072l.051.068a.341.341 0 0 0 .396.051c.215-.132.39-.32.506-.544a.313.313 0 0 0-.306-.479ZM461.655 203.879a1.521 1.521 0 0 0-1.812-.081c-.592.467-.639 1.248-.498 1.931a.358.358 0 0 0 .259.259.343.343 0 0 0 .29-.034.398.398 0 0 0 .174-.424 1.365 1.365 0 0 1 .196-1.168c.298-.335.851-.042 1.191 0 .056 0 .11-.017.157-.048a.287.287 0 0 0 .043-.435ZM169.825 160.279a3.193 3.193 0 0 0-1.957-1.066 1.824 1.824 0 0 0-.426-.496l-.034-.026a.463.463 0 0 0-.23-.369.42.42 0 0 0-.493.034.54.54 0 0 0-.511.513c0 .179-.029.357-.042.535a.43.43 0 0 0 .132.336c-.826.759-1.438 2.385-.873 3.395a.362.362 0 0 0 .13.125.364.364 0 0 0 .349 0 .362.362 0 0 0 .13-.125c.425-.628.259-1.519.651-2.207.621-1.112 1.702-.505 2.391.136a.558.558 0 0 0 .783-.785Z" fill="#000"/><path d="M166.162 158.075c.123-.997-.783-1.749-1.915-2.207a5.18 5.18 0 0 0-3.403-.599.37.37 0 0 0-.222.202.362.362 0 0 0 .005.299.301.301 0 0 0 .165.302c.647.331 1.426.356 2.128.535.423.103.836.246 1.234.424a2.545 2.545 0 0 1 .889 2.22c-.03.59.766.599.953.128a2.28 2.28 0 0 0 .166-1.304ZM186.082 183.493a4.085 4.085 0 0 0-2.162-.946c.244-.089.469-.221.664-.391.077-.068.147-.143.209-.225.098.152.211.294.336.425a.566.566 0 0 0 .791 0 .579.579 0 0 0 0-.794 2.453 2.453 0 0 0-.583-.544.443.443 0 0 0-.144-.059 1.562 1.562 0 0 0-.673-1.592.424.424 0 0 0-.441-.011.423.423 0 0 0-.214.385c-.042.615.609 1.193-.055 1.698-.664.505-1.417.034-2.072.305-.234.094-.426.425-.166.624.246.194.54.319.851.361a.345.345 0 0 0-.014.201.343.343 0 0 0 .103.173c.66.586 1.621.479 2.4.849 1.166.526.502 2.122 1.034 3.043a.427.427 0 0 0 .409.187.42.42 0 0 0 .348-.284c.191-1.006.14-2.662-.621-3.405ZM165.714 179.928c-.663-.586-1.238-.849-1.204-1.868.026-.721.281-1.396-.068-2.067a.39.39 0 0 0-.585-.091.399.399 0 0 0-.121.184c-.451 1.796-.502 3.872 1.502 4.67.459.17.83-.514.476-.828ZM104.423 181.397a6.607 6.607 0 0 0-3.79.378.546.546 0 0 0-.195-.456.54.54 0 0 0-.486-.104c-.195.072-.385.16-.566.263a.52.52 0 0 0-.148-.423.482.482 0 0 0-.673.002 2.548 2.548 0 0 0-.528 1.113.443.443 0 0 0 .094.39 3.78 3.78 0 0 0-.306.454 1.988 1.988 0 0 0-.256.34.424.424 0 0 0-.038.297 3.76 3.76 0 0 0-.132.476.468.468 0 0 0 .149.458 8.027 8.027 0 0 0-1.021 3.939.427.427 0 0 0 .366.484.43.43 0 0 0 .485-.365c.676-1.655.761-3.353 1.953-4.801 1.191-1.447 3.199-1.524 4.943-1.481.558-.005.698-.866.149-.964ZM154.121 184.717a2.433 2.433 0 0 0-.051-.399.343.343 0 0 0-.282-.233.338.338 0 0 0-.331.157c-.047.069-.09.141-.127.216a1.108 1.108 0 0 0-.132.306c-.109.37-.273.722-.485 1.044a1.148 1.148 0 0 1-.622.403c-.276.077-.553-.127-.85-.114a.422.422 0 0 0-.426.556c.209.602.851.726 1.421.607.029.02.06.036.094.046.97.293 2.114-1.617 1.791-2.589ZM156.245 161.319a2.877 2.877 0 0 0-2.472-1.036c-.507 0-.66.824-.124.917.63.106 1.23.144 1.702.641.379.425.319.934.362 1.439a.46.46 0 0 0 .851.229c.391-.683.114-1.587-.319-2.19ZM102.67 149.951c.604-.246 1.226.09 1.83-.055a.427.427 0 0 0 .272-.497.423.423 0 0 0-.094-.182 2.004 2.004 0 0 0-1.033-.399.443.443 0 0 0-.076-.163.44.44 0 0 0-.137-.117c-1.498-.696-2.838 1.919-2.429 3.111.01.028.023.055.038.081.028.814.328 1.595.851 2.22.506.645 1.757 1.486 2.574 1.049a.429.429 0 0 0 .172-.484.434.434 0 0 0-.091-.157 1.45 1.45 0 0 0-.758-.365 2.597 2.597 0 0 1-1.004-.637c-.634-.599-.727-1.443-.757-2.263.042-.131.068-.267.098-.399.11-.297.166-.59.544-.743ZM78.777 151.929a3.05 3.05 0 0 0-1.17-.386c-1.99-.539-4.837.7-4.544 3.035a.342.342 0 0 0 0 .064 6.073 6.073 0 0 0-.14 2.071c.06.493.787.675.923.123.32-1.273.2-2.525 1.123-3.557 1.009-1.125 2.48-.365 3.706-.649a.403.403 0 0 0 .264-.32.397.397 0 0 0-.162-.381ZM74.084 177.5c-1-.717-1.812-1.167-2.127-2.458v-.195c0-.157-.034-.318-.043-.484v-.038a1.147 1.147 0 0 0 0-.123c0-.297.047-.59.081-.887.14-.815.383-1.613.217-2.424a.252.252 0 0 0-.064-.117.251.251 0 0 0-.25-.062.252.252 0 0 0-.111.073c-1.762 1.999-1.277 6.528 1.242 7.755a.507.507 0 0 0 .651-.127h.038c.545.263.8-.594.366-.913ZM176.874 272.413a3.577 3.577 0 0 0-.191-1.346.247.247 0 0 0-.477 0c-.348.849-.348 1.808-.634 2.695-.468 1.448-1.927 1.104-3.042 1.507a.423.423 0 0 0-.3.125.421.421 0 0 0 0 .6c.079.08.188.124.3.124.364.086.74.107 1.111.064.83.289 1.825-.259 2.395-.849a3.51 3.51 0 0 0 .838-2.92ZM90.626 265.621a4.083 4.083 0 0 0-.783-.306 1.32 1.32 0 0 1-.612-.794c-.124-.675.046-1.541-.073-2.084a.331.331 0 0 0-.06-.136c0-.051 0-.102-.03-.153a.272.272 0 0 0-.493-.063c-.102.14-.186.293-.25.454-.75 1.524.042 3.913 1.888 4.024a.463.463 0 0 0 .4-.149.466.466 0 0 0 .225-.393.47.47 0 0 0-.212-.4ZM248.508 183.485a3.496 3.496 0 0 0-.531-.747.424.424 0 0 0-.145-.548 6.626 6.626 0 0 0-1.783-1.044l-.179-.123a.701.701 0 0 0 .166-.072.458.458 0 0 0 .162-.611c-.2-.455-.851-.446-1.276-.378a2.156 2.156 0 0 0-.728.246.43.43 0 0 0-.435.218.417.417 0 0 0-.05.164l-.034.038a6.274 6.274 0 0 0-1.276.094 2.12 2.12 0 0 0 .608-1.015.535.535 0 0 0 .098 0 .57.57 0 1 0-.251-1.082c-.391-.654-1.251-1.172-1.915-.951a.375.375 0 0 0-.245.222.382.382 0 0 0 .02.33c.328.462 1.051.462 1.276 1.023.226.56-.906.997-1.17 1.358a.388.388 0 0 0-.055.158.392.392 0 0 0 .019.167.386.386 0 0 0 .232.231 4.78 4.78 0 0 0-1.553 1.189c-.306.352.081.929.515.666 1.88-1.137 3.74-1.668 5.607-.934.154.098.303.204.426.314.659.518 1.183 1.202 1.859 1.698.417.302.826-.229.638-.611ZM229.155 187.878c-.298 0-.566.123-.851.144a1.49 1.49 0 0 1-1.03-.399c-.251-.212-.604-1.15-1.08-.798-.477.353-.226.82.106 1.236.185.338.445.628.762.849a1.59 1.59 0 0 0 1.276.382.427.427 0 0 0 .26-.23c.367-.022.711-.185.961-.454a.46.46 0 0 0-.154-.673.463.463 0 0 0-.25-.057ZM217.817 173.654a.07.07 0 0 1 0-.029c-.158-.637-1.038-.943-1.634-.951-.762 0-1.898.199-2.319.9a.343.343 0 0 0-.018.304.355.355 0 0 0 .227.205.382.382 0 0 0 .192.239.389.389 0 0 0 .305.024c.66-.208 1.068-.607 1.817-.424.609.165.749.815 1.277 1.036a.37.37 0 0 0 .31.017.372.372 0 0 0 .209-.23 1.048 1.048 0 0 0-.366-1.091ZM224.764 287.02c-.464 0-.83.293-1.315.216-.612-.089-.791-.573-1.216-.912a.423.423 0 0 0-.466-.093.425.425 0 0 0-.262.394c0 .794.825 1.367 1.498 1.605.672.238 1.799.14 2.153-.527a.46.46 0 0 0-.392-.683ZM287.966 247.542a3.015 3.015 0 0 0-1.076-2.445.353.353 0 0 0-.528.267.342.342 0 0 0-.23.336c.051.632.494 1.12.562 1.757.068.637-.391.947-.668 1.414a1.354 1.354 0 0 0-.238.424c-.107.327.213.539.498.497.237-.04.46-.141.646-.293a2.176 2.176 0 0 0 1.043-1.698 2.242 2.242 0 0 0-.009-.259ZM281.716 252.445c-1.974.135-4.199 2.708-3.829 4.75a1.3 1.3 0 0 0-.311-.208 1.734 1.734 0 0 0-1.931.568c-.145.183 0 .506.247.425.425-.136.795-.476 1.276-.399.481.076.383.641.583.946a.305.305 0 0 0 .404.103.305.305 0 0 0 .111-.103.748.748 0 0 0 .055-.717.46.46 0 0 0 .476-.31c.354-.925.388-1.804.966-2.67.579-.866 1.387-1.142 2.157-1.66.294-.199.213-.755-.204-.725ZM281.342 270.039c-.477-.212-.957-.242-1.277-.615a2.826 2.826 0 0 1-.144-.234c-.315-.573 0-1.273-.26-1.851a.359.359 0 0 0-.296-.251.355.355 0 0 0-.35.167 1.036 1.036 0 0 0-.107.203c-.4.654-.208 1.63.073 2.288a2.287 2.287 0 0 0 2.127 1.223c.43-.038.727-.726.234-.93ZM386.2 261.915a.282.282 0 0 0-.425.055c-.383.658-.09 1.575-.243 2.322-.272 1.333-1.442 1.354-2.468 1.766a.482.482 0 0 0-.172.808c.082.076.188.12.3.126a3.43 3.43 0 0 0 2.978-1.49c.6-.828.821-2.827.03-3.587ZM382.66 159.208a4.822 4.822 0 0 0-.783-3.188.481.481 0 0 0 .404-.649c-.272-.688-.54-1.375-.821-2.059-.281-.683-1.276-.424-1.059.285a1.999 1.999 0 0 0-.724-.289.427.427 0 0 0-.506.318 3.517 3.517 0 0 0-.689-.144 9.46 9.46 0 0 0-.63-.174 2.401 2.401 0 0 0 1.187-.484.467.467 0 0 0 .596.11c.292-.21.597-.402.914-.573a.538.538 0 0 0-.425-.985c.106-.424-.179-.759-.4-1.078a3.36 3.36 0 0 0-.851-.904.384.384 0 0 0-.268-.059l-.085-.043a.383.383 0 0 0-.366.098.383.383 0 0 0-.098.365c.188.569.664.951.719 1.575.064.777-.902.878-1.404 1.146a.46.46 0 0 0-.225.353.47.47 0 0 0 .153.39 5.776 5.776 0 0 0-2.323.11.43.43 0 0 0-.366.484.43.43 0 0 0 .485.365c1.464.06 2.74.102 4.059.768a4.517 4.517 0 0 1 1.557 1.605c.766 1.35.494 3.014 1.128 4.406a.448.448 0 0 0 .515.228.446.446 0 0 0 .336-.453c0-.378-.056-.802-.115-1.252a.545.545 0 0 0 .085-.272ZM355.912 153.372c-.694-.298-1.6-.149-1.86-1.028-.132-.454-.132-.946-.229-1.413 0-.251-.03-.505-.047-.764-.03-.484-.8-.654-.894-.124a7.843 7.843 0 0 0 .247 3.354.49.49 0 0 0 .621.348 2.679 2.679 0 0 0 2.051.463.462.462 0 0 0 .332-.382.456.456 0 0 0-.221-.454ZM351.261 125.712a5.043 5.043 0 0 0-2.552-.887 3.884 3.884 0 0 0-1.574-.051.298.298 0 0 0-.211.248.299.299 0 0 0 .138.295l.179.089a.42.42 0 0 0 .264.276 6.74 6.74 0 0 0 1.374.242c.316.082.624.194.919.336 1.042.526 1.323 1.379 1.391 2.457a.465.465 0 0 0 .906.123 1.771 1.771 0 0 0 .119-.636c.375-.909-.225-1.987-.953-2.492ZM250.389 59.024a16.287 16.287 0 0 0-2.744-.293.434.434 0 0 0-.052-.341.433.433 0 0 0-.28-.203 7.704 7.704 0 0 0-4.254.085.493.493 0 0 0-.026-.157.417.417 0 0 0-.114-.345.43.43 0 0 0-.341-.13 2.484 2.484 0 0 0-2.489 1.876.537.537 0 0 0 .247.607 4.743 4.743 0 0 0-.936 2.522.29.29 0 0 0 0 .072 6.662 6.662 0 0 0-.566 2.31c-.038.517.744.593.881.122.599-2.042 1.514-3.595 3.403-4.67 2.153-1.226 4.829-.632 7.148-.466a.502.502 0 0 0 .123-.99ZM226.262 142.73c-1.204-.404-1.8-1.015-1.979-2.327-.115-.87.256-1.782-.042-2.606-.064-.174-.319-.297-.46-.123a3.229 3.229 0 0 0-.612 1.842c-.332 1.129-.371 2.632.489 3.485a.472.472 0 0 0 .689 0 2.24 2.24 0 0 0 1.783.705.504.504 0 0 0 .473-.433.5.5 0 0 0-.341-.543ZM330.669 69.285l-.086-.968a.52.52 0 0 0-.544-.475.47.47 0 0 0-.41-.197.469.469 0 0 0-.386.239 4.866 4.866 0 0 0-1.536-1.418c.205-.047.405-.113.596-.2a.85.85 0 0 0 .362-.182.818.818 0 0 0 .195.356.923.923 0 0 0 1.102.179.54.54 0 0 0 .227-.609.539.539 0 0 0-.525-.385.503.503 0 0 0-.238-.424.472.472 0 0 0-.166-.055v-.051c.204-.586-.136-1.078-.272-1.622a.46.46 0 0 0-.247-.293 1.487 1.487 0 0 0-.893-.917.354.354 0 0 0-.426.425c.059.222.16.431.298.615.121.214.213.442.272.68v.08c.011.054.03.105.056.153.008.039.018.077.03.115.075.245.075.506 0 .751-.076.09-.163.17-.26.238a1.94 1.94 0 0 1-1.187.195c-.425 0-.808-.212-1.17.055a.312.312 0 0 0-.106.425.376.376 0 0 0 .046.068l-.217.038c-.425.085-.323.62 0 .747 1.447.56 2.587.85 3.523 2.224 1.094 1.588.634 3.345.447 5.094-.047.425.579.544.774.208.664-1.116.741-2.665.366-4.126a.53.53 0 0 0 .247-.178 1 1 0 0 0 .128-.785ZM315.502 42.363c-.374-.87-1.804-1.613-2.71-1.197a1.803 1.803 0 0 0-.566.425c.558-2.229-1.868-4.45-4.105-4.13-.362.05-.337.538-.094.704.791.522 1.783.51 2.553 1.167.897.777.425 1.826.583 2.81a.411.411 0 0 0 .22.283.423.423 0 0 0 .358.015 4.66 4.66 0 0 0-.289 1.698.423.423 0 0 0 .476.368.429.429 0 0 0 .205-.084c.536-.526.425-1.35.782-1.982.545-.994 1.49.492 1.953.73a.428.428 0 0 0 .566-.149l.081-.106a.55.55 0 0 0-.013-.552ZM310.043 62.258a2.632 2.632 0 0 1-.911-.623 2.015 2.015 0 0 1-.272-1.274c0-.68.425-1.273.272-1.948-.051-.26-.362-.272-.532-.14-1.387 1.086-1.076 5.127 1.204 4.873a.48.48 0 0 0 .239-.888ZM250.768 25.154c-.928-.424-2.17-.098-2.931.547-.498.425-1.209 1.376-1.124 2.148a4.456 4.456 0 0 0 0 1.89c.158.747 1.136 1.23 1.787 1.447a.485.485 0 0 0 .596-.594 1.04 1.04 0 0 0-.468-.582c-.268-.178-.728-.225-.851-.56-.204-.51 0-1.061.026-1.592.115-.402.3-.781.544-1.12.609-.701 1.37-.595 2.191-.612.451-.013.723-.739.23-.972ZM222.266 25.192c-2.378-.849-4.641 1.724-4.254 4.008.064.373.587.381.761.101.426-.725.46-1.617.936-2.351.592-.904 1.506-.726 2.425-.73a.526.526 0 0 0 .132-1.028ZM215.74 51.286c-.212-.204-.463-.314-.68-.518a1.696 1.696 0 0 1-.392-1.18c-.025-.696.4-1.32.341-2.004a.372.372 0 0 0-.23-.334.377.377 0 0 0-.4.071c-.668.645-.919 2.042-.736 2.925.166.815.791 1.94 1.766 1.834a.472.472 0 0 0 .331-.794ZM297.632 65.485a.42.42 0 0 0-.313-.456.426.426 0 0 0-.5.24c-.31.56-.31 1.218-.774 1.698-.579.615-1.583.212-2.293.424a.426.426 0 0 0-.098.739c1.808 1.125 4.212-.62 3.978-2.645ZM298.508 41.428c-.366.06-.323.526-.089.696.698.514 1.595.493 2.246 1.155s.23 1.766.426 2.598a.42.42 0 0 0 .357.315.425.425 0 0 0 .426-.213c1.14-2.152-.992-4.933-3.366-4.55ZM318.697 122.74a4.17 4.17 0 0 1-1.587 2.165c-.758.497-1.621.365-2.396.713a.357.357 0 0 0-.173.304.354.354 0 0 0 .173.303c.932.569 2.336-.034 3.17-.568a4.248 4.248 0 0 0 1.834-2.637.526.526 0 0 0-.075-.375.527.527 0 0 0-.69-.19.53.53 0 0 0-.256.285ZM396.62 270.77c-.481-.646-1.145-.849-1.166-1.792 0-.789.281-1.596.119-2.373a.385.385 0 0 0-.316-.264.386.386 0 0 0-.373.175c-.515.735-.57 2.123-.481 2.972a2.485 2.485 0 0 0 1.702 1.965c.353.119.766-.339.515-.683ZM486.429 285.631a.31.31 0 0 0-.171-.083.308.308 0 0 0-.186.036c-.298.136-.354.289-.426.594a3.723 3.723 0 0 1-.664 1.452c-.57.671-1.535.497-2.284.735-.426.135-.485.819 0 .916a3.666 3.666 0 0 0 2.88-.738c.625-.51 1.481-2.203.851-2.912ZM505.038 194.479a1.057 1.057 0 0 0-.136-.691c-.081-.2-.166-.395-.247-.595a.497.497 0 0 0-.587-.335.48.48 0 0 0-.26.191 4.582 4.582 0 0 0-1.051-.849c.626-.03 1.251-.276 1.426-.938a.53.53 0 0 0-.302-.599c.106-.802-.136-1.893-.894-2.122a.31.31 0 0 0-.37.212c-.213.59.353 1.167.243 1.796-.073.424-.388.539-.745.594-.672-.047-1.429-.267-1.991-.072a.341.341 0 0 0-.226.373 1.493 1.493 0 0 0-.365.03.34.34 0 0 0-.151.09.346.346 0 0 0-.003.479c.108.093.226.171.354.233.927.667 2.195.849 3.071 1.698 1.23 1.193.792 2.997 1.077 4.491 0 .113.045.221.124.301a.429.429 0 0 0 .602 0 .425.425 0 0 0 .125-.301c.037-.17.066-.343.085-.517a6.03 6.03 0 0 0-.102-3.154.429.429 0 0 0 .323-.315ZM488.918 166.981a2.422 2.422 0 0 0-1.872-1.46.294.294 0 0 0-.094-.085c-.14-.081-.195-.323-.225-.506a.494.494 0 0 0-.974.132c.002.235.07.464.195.662a.369.369 0 0 0 .056.068c-.83.539-1.702 1.944-1.166 2.861a.354.354 0 0 0 .54.068c.502-.424.426-1.235.851-1.744.676-.824 1.366-.081 1.736.56.37.641 1.242.081.953-.556Z" fill="#000"/><path d="M484.906 163.115a3.67 3.67 0 0 0-2.689-1.18.446.446 0 0 0-.443.39.446.446 0 0 0 .324.493c.625.254 1.276.28 1.842.734.66.552.481 1.354.532 2.097a.464.464 0 0 0 .406.461.47.47 0 0 0 .513-.338 2.882 2.882 0 0 0-.485-2.657ZM483.204 187.773c-.289-.424-.736-.679-.949-1.184-.272-.645-.034-1.218 0-1.864a.429.429 0 0 0-.512-.422.429.429 0 0 0-.22.121c-.574.577-.578 1.532-.391 2.275.187.743.791 1.634 1.532 1.762.357.076.77-.314.54-.688ZM386.455 176.197c-.583-.162-1.005-.145-1.098-.879a8.477 8.477 0 0 1 .064-1.647c.034-.552-.758-.603-.919-.123a3.839 3.839 0 0 0 .097 2.801c.32.65 1.332 1.062 1.962.654a.425.425 0 0 0-.106-.806ZM396.053 150.062c-.85-.692-1.803-1.096-2.552-1.945-.949-1.061-1.14-2.3-1.6-3.574-.119-.322-.685-.424-.753 0-.071.489-.05.988.064 1.469-.247 1.099.736 2.848 1.791 3.617a5.154 5.154 0 0 0-2.723.509 3.23 3.23 0 0 0-1.446 2.933.35.35 0 0 0 .095.163.37.37 0 0 0 .354.094.368.368 0 0 0 .163-.095c.664-.777.604-1.945 1.702-2.344.872-.31 1.859.123 2.693-.335a.423.423 0 0 0 .192-.395 3.923 3.923 0 0 0 1.701.675.45.45 0 0 0 .416-.281.454.454 0 0 0-.097-.491ZM419.011 183.833c-.502-.306-1.14-.225-1.702-.242h-.425a.391.391 0 0 0-.077-.064 3.117 3.117 0 0 0-2.208-.14.47.47 0 0 0-.328-.424 1.552 1.552 0 0 0-1.11.233 4.85 4.85 0 0 0-1.03.662c-.31.247-.098.701.213.82-.621.628-1.345 1.642-1.43 2.547a3.227 3.227 0 0 0-.225 1.88v.043a.372.372 0 0 0 .119.326c0 .034.026.073.043.111.161.356.638.191.748-.098.085-.238.146-.484.183-.734a6.12 6.12 0 0 1 2.259-2.993c.996-.675 2.043-.751 3.136-.726h.37l.851.03a.488.488 0 0 0 .468-.463c.062-.022.121-.049.179-.08a.4.4 0 0 0 .185-.354.407.407 0 0 0-.064-.197.402.402 0 0 0-.155-.137ZM470.967 190.32a.428.428 0 0 0-.686-.398.428.428 0 0 0-.165.283c-.281.696-.311 1.469-.8 2.076-.595.738-1.455.424-2.25.509-.426.038-.758.709-.251.938a2.631 2.631 0 0 0 2.348-.021.514.514 0 0 0 .455.24.524.524 0 0 0 .438-.27 8.298 8.298 0 0 0 .63-1.541c.055-.182.111-.369.153-.56.115-.408.158-.833.128-1.256ZM474.695 167.236a2.878 2.878 0 0 0-1.2-.849 11.701 11.701 0 0 0-1.804-.73.347.347 0 0 0-.331.094.347.347 0 0 0-.094.331c.213.751 1.055.976 1.702 1.239 1.672.658.957 2.445 1.195 3.821a.428.428 0 0 0 .607.277.419.419 0 0 0 .18-.176c.494-1.035.528-3.047-.255-4.007ZM423.04 149.968c-.702-.785-2.518-.79-3.403-.327-.885.463-1.511 1.397-1.349 2.343a3.209 3.209 0 0 0-.064 2.225c.298.849 1.102 1.18 1.838 1.562.426.216.983-.242.689-.692-.361-.552-1.076-.577-1.433-1.117-.311-.462-.183-1.01-.09-1.541a.42.42 0 0 0 .039-.076c.242-.849.183-1.579 1.208-1.885.851-.25 1.638.323 2.434.068a.335.335 0 0 0 .221-.244.334.334 0 0 0-.09-.316ZM387.693 78.796l-.979.204a6.538 6.538 0 0 0-4.705 1.762.424.424 0 0 0-.536-.183c-.401.13-.778.325-1.115.578a.465.465 0 0 0-.459 0l-.039.021a.482.482 0 0 0-.418-.164.487.487 0 0 0-.373.249l-.519.806a.528.528 0 0 0 .425.777c0 .174.03.348.056.527a.382.382 0 0 0 .149.263 4.083 4.083 0 0 0-.137.683.368.368 0 0 0 .224.397c.05.02.105.03.159.028a7.362 7.362 0 0 0 .077 5.225c.047.246.098.493.157.735a.492.492 0 0 0 .841.185.49.49 0 0 0 .125-.317c-.106-2.62-.349-4.937 1.017-7.323 1.276-2.262 4.021-2.827 6.327-3.48a.504.504 0 0 0 .108-.928.508.508 0 0 0-.385-.044ZM497.517 150.689c-.102-.309-.621-.373-.694 0-.221 1.168.247 2.301.4 3.46a2.927 2.927 0 0 1-.608 2.373c-.485.56-1.315.705-1.898 1.129-.315.225-.259.849.222.815 4.08-.399 3.522-4.983 2.578-7.777ZM476.652 52.793a.483.483 0 0 0 .076-.59.804.804 0 0 0-.112-.417.81.81 0 0 0-.266-.275 6.841 6.841 0 0 0-.592-.45.51.51 0 0 0-.732.628 4.853 4.853 0 0 0-2.833-.374c.267-.172.497-.395.676-.658a.535.535 0 0 0 .481 0l.294-.157a.603.603 0 0 0 .527.23.485.485 0 0 0 .426-.718.797.797 0 0 0-.153-.182.526.526 0 0 0-.204-.407.515.515 0 0 0-.447-.086.467.467 0 0 0-.524-.233 1.928 1.928 0 0 0-.978-1.58.478.478 0 0 0-.426 0 10.052 10.052 0 0 0-1.816-1.362.427.427 0 0 0-.663.392.425.425 0 0 0 .144.279 24.55 24.55 0 0 0 1.965 1.719c.991.883.272 1.511-.493 2.008-.243.131-.498.255-.732.424-.264.047-.528.085-.77.145a.43.43 0 1 0 .115.849c.178.01.357.01.536 0 .089.039.188.054.285.042.162-.028.319-.078.468-.149a4.96 4.96 0 0 0 .693-.195c-.144.302 0 .752.426.71a4.824 4.824 0 0 1 3.203.619c1.183.721 1.562 2 1.813 3.264.11.578.97.425.991-.131a4.414 4.414 0 0 0-1.378-3.345ZM452.295 54.771c-.988-.098-1.702 0-2.264-.976-.362-.637-.166-1.698-.723-2.157a.315.315 0 0 0-.426 0c-.215.3-.307.67-.255 1.036-.01.75.195 1.486.591 2.122.426.692 1.468 1.482 2.289 1.057.314.019.629-.006.936-.072.583-.144.383-.96-.148-1.01ZM449.065 32.531a1.39 1.39 0 0 0-.243-.306c-.123-.607-.689-.849-1.331-.878a3.235 3.235 0 0 0-1.085-.136.536.536 0 0 0-.328-.319 1.024 1.024 0 0 0-.932.115.967.967 0 0 0-.425.98c.03.11.094.209.183.28-.036.115-.062.231-.081.349a3.42 3.42 0 0 0-1.276-2.466 3.884 3.884 0 0 0-3.829-.11.425.425 0 0 0 .208.763c1.004.043 1.881-.386 2.859.098.979.484.762 1.638 1.277 2.369a.419.419 0 0 0 .397.195.427.427 0 0 0 .356-.263v.446a3.15 3.15 0 0 0 .54 2.037.426.426 0 0 0 .783-.212c-.034-.5-.101-.998-.2-1.49a3.25 3.25 0 0 0 0-.395c.015-.198.068-.391.157-.569a1.075 1.075 0 0 1 .932-.526l.145.034c.51.14.936.513 1.442.62a.427.427 0 0 0 .499-.387.432.432 0 0 0-.048-.229ZM374.112 49.681c-.268-.076-.545-.068-.813-.131a1.908 1.908 0 0 1-.889-.56c-.523-.544-.289-1.245-.57-1.847 0 0-.025 0-.034-.034a2.118 2.118 0 0 1 .204-1.698c.426-.726 1.217-.705 1.864-1.07a.427.427 0 0 0 .187-.408.425.425 0 0 0-.285-.347 1.615 1.615 0 0 0-1.336.13.477.477 0 0 0-.166-.054c-.591-.055-1.072.552-1.366.989l-.038.063a1.697 1.697 0 0 0-.447 1.091 1.56 1.56 0 0 0 .205 1.473c.055.244.156.474.297.68.041.598.26 1.17.63 1.642.536.663 1.672 1.342 2.553 1.006a.49.49 0 0 0 .244-.746.486.486 0 0 0-.24-.179ZM344.867 56.277c-2.459-.28-4.953 3.396-3.404 5.484.255.348.894.276.876-.237-.034-1.074-.289-1.872.273-2.891.51-.926 1.455-1.172 2.361-1.511a.427.427 0 0 0-.106-.845ZM351.802 86.026c-.566-.454-1.277-.36-1.966-.365h-.315a3.445 3.445 0 0 1-1.987-1.639c-.655-1.07-.638-2.364-1.225-3.438-.2-.37-.685-.157-.723.195-.07.858.055 1.72.366 2.522.029.178.068.352.097.522.043.552.202 1.089.468 1.575 0 .025.047.047.069.068.068.178.14.352.221.522a.414.414 0 0 0 .236.236.423.423 0 0 0 .334-.007 2.693 2.693 0 0 0 2.425.785.393.393 0 0 0 .213-.11c.252.005.503-.02.749-.076a.744.744 0 0 0 .102-.043c.254.02.509 0 .757-.06a.423.423 0 0 0 .277-.503.43.43 0 0 0-.098-.184ZM441.083 64.61a3.98 3.98 0 0 0-.706-1.859.257.257 0 0 0-.359.001.244.244 0 0 0-.066.114c-.226.883.089 1.833.119 2.738.047 1.54-1.613 1.757-2.625 2.343-.366.212-.239.887.225.849a4.109 4.109 0 0 0 1.004-.234c.919 0 1.817-.849 2.204-1.596a3.71 3.71 0 0 0 .204-2.356ZM436.318 41.43c.086-1.52-1.089-2.718-2.48-3.095H433.766a3.244 3.244 0 0 0-1.8.03 3.634 3.634 0 0 0-1.349.284h-.021a1.413 1.413 0 0 0-.37.195.339.339 0 0 0-.125.144.343.343 0 0 0 .206.471c.502.192 1.085.039 1.608 0 .238-.02.489-.034.74-.05.414-.005.825.045 1.226.148 1.174.34 1.033 1.617 1.604 2.424a.399.399 0 0 0 .74-.2.795.795 0 0 0 0-.097.422.422 0 0 0 .093-.255ZM184.047 227.863a.284.284 0 0 0-.114-.221h-.034a.275.275 0 0 0-.409-.282.282.282 0 0 0-.128.154.812.812 0 0 0-.702.777c.003.076.03.149.077.208a1.023 1.023 0 0 0-.153.828.15.15 0 0 0 .034.076c.001.079.011.157.03.234a.197.197 0 0 0 .161.137.195.195 0 0 0 .192-.09c.217-.281.255-.646.515-.896.259-.251.685.161.991.204.045.043.094.083.145.119a.32.32 0 0 0 .432-.115.323.323 0 0 0 .044-.157c.034-.543-.553-.9-1.081-.976ZM411.191 183.443c-.362-.454-1.319-.793-1.847-.517a.22.22 0 0 0-.105.161.217.217 0 0 0 .011.098c.01.032.028.061.052.084.253.173.545.281.851.314a.915.915 0 0 1 .689 1.028c0 .31-.2.603.051.849.037.024.08.04.124.048a.33.33 0 0 0 .34-.163 1.774 1.774 0 0 0-.166-1.902ZM179.083 168.102c-.23-.255-.643-.127-.936-.068a1.52 1.52 0 0 0-.877.531 1.076 1.076 0 0 0-.234.929c.068.31.239.735.588.786a.299.299 0 0 0 .357-.204.666.666 0 0 0-.158-.548.455.455 0 0 1-.092-.33.444.444 0 0 1 .169-.298c.336-.344.97-.132 1.217-.526a.23.23 0 0 0-.034-.272ZM117.86 149.853c-1.898-.637-2.655-2.084-2.804-3.995-.026-.293-.473-.394-.541-.072a3.72 3.72 0 0 0 .426 2.585.242.242 0 0 0 0 .183c.094.299.227.584.396.849.157.255.336.62.646.696a.24.24 0 0 0 .103.004.244.244 0 0 0 .199-.208c.423.31.897.544 1.4.692a.378.378 0 0 0 .175-.734ZM189.272 188.019a2.263 2.263 0 0 1-.851.182c-.395 0-.366-.45-.353-.73a.317.317 0 0 0-.271-.295.313.313 0 0 0-.341.21c-.103.463-.103 1.087.374 1.363a1.915 1.915 0 0 0 1.651 0c.417-.212.229-.909-.209-.73ZM321.641 125.219c-.37-.076-.6-.119-.728-.518a2.31 2.31 0 0 1 .085-1.137c.064-.315-.425-.561-.548-.23a2.256 2.256 0 0 0-.098 1.894 1.105 1.105 0 0 0 1.366.598.333.333 0 0 0 .158-.328.338.338 0 0 0-.235-.279ZM377.443 82.444a1.207 1.207 0 0 0-.8-.094c-.357.056-.791.043-1.042.327a.201.201 0 0 0-.053.162c.003.03.013.057.029.082a.201.201 0 0 0 .062.062c.46.28.987-.161 1.464.047.476.208.425.908.953 1.07a.216.216 0 0 0 .245-.115.218.218 0 0 0 .023-.094 2.003 2.003 0 0 0-.881-1.447Z" fill="#000"/><path d="m326.496 148.642-113.022 57.556.867 1.694 113.022-57.556-.867-1.694ZM328.694 145.852l-185.311 49.784.495 1.836 185.311-49.784-.495-1.836Z" fill="#FF490C"/><path d="m329.023 146.572-.742 1.752 138.67 58.415.741-1.752-138.669-58.415Z" fill="#FF490C"/><path d="m408.463 85.995-80.113 61.378 1.161 1.508 80.113-61.378-1.161-1.508Z" fill="#FF490C"/><path d="m152.733 74.464-.728 1.758 176.56 72.788.728-1.758-176.56-72.788Z" fill="#FF490C"/><path d="m289.891 53.026-1.757.737 39.926 94.763 1.757-.737-39.926-94.763ZM212.584 210.933a3.348 3.348 0 0 0 3.352-3.345 3.349 3.349 0 0 0-3.352-3.345 3.35 3.35 0 0 0-3.353 3.345 3.348 3.348 0 0 0 3.353 3.345Z" fill="#FF490C"/><path d="M212.587 211.503h-.285a3.95 3.95 0 0 1-2.724-1.228 3.935 3.935 0 0 1 .1-5.519 3.95 3.95 0 0 1 6.714 2.739 3.93 3.93 0 0 1-1.081 2.78 3.95 3.95 0 0 1-2.724 1.228Zm0-6.69a2.788 2.788 0 0 0-2.77 2.577 2.781 2.781 0 0 0 .67 2.018 2.78 2.78 0 0 0 3.478.596 2.773 2.773 0 0 0-1.174-5.178l-.204-.013Z" fill="#000"/><path d="M143.05 200.19a3.494 3.494 0 0 0 3.498-3.49 3.493 3.493 0 0 0-3.498-3.489 3.493 3.493 0 0 0-3.497 3.489 3.494 3.494 0 0 0 3.497 3.49Z" fill="#FF490C"/><path d="M143.051 200.759h-.213a4.088 4.088 0 0 1-2.837-1.246 4.065 4.065 0 0 1 .072-5.72 4.084 4.084 0 0 1 5.734 0 4.065 4.065 0 0 1 .072 5.72 4.088 4.088 0 0 1-2.837 1.246h.009Zm0-6.979a2.942 2.942 0 0 0-2.045.897 2.931 2.931 0 0 0 2.117 4.969 2.941 2.941 0 0 0 2.94-2.898 2.931 2.931 0 0 0-.823-2.071 2.944 2.944 0 0 0-2.045-.897h-.144Z" fill="#000"/><path d="M152.177 78.203a3.493 3.493 0 0 0 3.497-3.489 3.493 3.493 0 0 0-3.497-3.49 3.493 3.493 0 0 0-3.497 3.49 3.493 3.493 0 0 0 3.497 3.49Z" fill="#FF490C"/><path d="M152.172 78.776a4.075 4.075 0 0 1-2.719-1.109 4.059 4.059 0 0 1 2.106-6.956 4.07 4.07 0 0 1 4.249 2.182 4.05 4.05 0 0 1-.356 4.236 4.037 4.037 0 0 1-2.663 1.609 4.3 4.3 0 0 1-.617.038Zm.026-6.974a2.927 2.927 0 0 0-2.342 1.19 2.909 2.909 0 0 0 .454 3.936 2.948 2.948 0 0 0 1.9.71 2.932 2.932 0 0 0 2.339-1.191 2.92 2.92 0 0 0 .537-2.166 2.932 2.932 0 0 0-2.888-2.48Z" fill="#000"/><path d="M288.914 55.777a3.557 3.557 0 0 0 3.561-3.553 3.557 3.557 0 0 0-3.561-3.553 3.557 3.557 0 0 0-3.561 3.553 3.557 3.557 0 0 0 3.561 3.553Z" fill="#FF490C"/><path d="M288.91 56.35a4.162 4.162 0 0 1-2.878-1.144 4.141 4.141 0 0 1-.263-5.731 4.164 4.164 0 0 1 5.727-.51 4.14 4.14 0 0 1 .758 5.687 4.156 4.156 0 0 1-3.344 1.698Zm0-7.106a3.007 3.007 0 0 0-2.287 1.067 2.986 2.986 0 0 0-.661 2.431c.119.691.48 1.318 1.018 1.77a2.983 2.983 0 0 0 2.441.65 2.98 2.98 0 0 0 1.953-1.077 2.967 2.967 0 0 0-.355-4.113 2.983 2.983 0 0 0-2.109-.728Z" fill="#000"/><path d="M407.924 90.9a3.57 3.57 0 0 0 3.574-3.567 3.57 3.57 0 0 0-3.574-3.565 3.57 3.57 0 0 0-3.574 3.565 3.57 3.57 0 0 0 3.574 3.566Z" fill="#FF490C"/><path d="M407.924 91.476a4.284 4.284 0 0 1-.928-.106 4.145 4.145 0 0 1-3.208-4.498 4.138 4.138 0 0 1 1.359-2.626 4.156 4.156 0 0 1 3.7-.945 4.15 4.15 0 0 1 2.466 1.638 4.135 4.135 0 0 1-.62 5.487 4.152 4.152 0 0 1-2.769 1.05Zm0-7.14a3.01 3.01 0 0 0-2.063.82 2.995 2.995 0 0 0 1.727 5.155 3 3 0 0 0 3.299-2.472 2.995 2.995 0 0 0-2.287-3.426 3.064 3.064 0 0 0-.702-.077h.026Z" fill="#000"/><path d="M467.258 209.164a3.43 3.43 0 0 0 3.433-3.426 3.43 3.43 0 0 0-3.433-3.426 3.43 3.43 0 0 0-3.434 3.426 3.43 3.43 0 0 0 3.434 3.426Z" fill="#FF490C"/><path d="M467.253 209.736a4.01 4.01 0 0 1-3.954-3.454 3.991 3.991 0 0 1 .615-2.73 4.008 4.008 0 0 1 2.258-1.66 4.022 4.022 0 0 1 3.502.665 4.01 4.01 0 0 1 1.438 2.102 3.999 3.999 0 0 1-3.859 5.077Zm0-6.851a2.85 2.85 0 0 0-.774.106 2.855 2.855 0 0 0-2.076 3.138 2.857 2.857 0 0 0 2.846 2.466c.262-.002.522-.037.774-.107a2.853 2.853 0 0 0 2.076-3.138 2.855 2.855 0 0 0-2.846-2.465Z" fill="#000"/><path d="M328.937 150.184c1.878 0 3.4-1.519 3.4-3.392a3.396 3.396 0 0 0-3.4-3.392 3.396 3.396 0 0 0-3.399 3.392 3.396 3.396 0 0 0 3.399 3.392Z" fill="#FF490C"/><path d="M328.938 150.758a3.98 3.98 0 0 1-3.671-2.448 3.958 3.958 0 0 1 2.896-5.406 3.984 3.984 0 0 1 4.079 1.686 3.957 3.957 0 0 1-.495 5.005 3.986 3.986 0 0 1-2.809 1.163Zm0-6.792a2.826 2.826 0 0 0-2.775 3.375 2.822 2.822 0 0 0 2.226 2.217 2.833 2.833 0 0 0 2.903-1.204 2.813 2.813 0 0 0-.355-3.563 2.833 2.833 0 0 0-1.999-.825Z" fill="#000"/><path d="M374 148 3 113M374 148l238-35" stroke="#FF490C" stroke-width="2"/><path d="M3.497 115.971a3.492 3.492 0 0 0 3.498-3.486A3.491 3.491 0 0 0 3.497 109 3.491 3.491 0 0 0 0 112.485a3.492 3.492 0 0 0 3.497 3.486ZM611.497 115.971a3.492 3.492 0 0 0 3.498-3.486 3.491 3.491 0 0 0-3.498-3.485 3.491 3.491 0 0 0-3.497 3.485 3.492 3.492 0 0 0 3.497 3.486Z" fill="#FF490C"/></svg>