<svg xmlns="http://www.w3.org/2000/svg" width="715" height="414" fill="none"><path fill="#000" d="m378.633 134.286-23.215-35.554a1.005 1.005 0 0 0-.802-.7l-79.894-16.83a1.17 1.17 0 0 0-.681.051.992.992 0 0 0-.839.826c-.398 1.904-.8 3.807-1.205 5.71a1.184 1.184 0 0 0 0 .188l-32.15-6.797a1.128 1.128 0 0 0-1.048.298.996.996 0 0 0-.775.816 10895.67 10895.67 0 0 0-6.881 32.401c-.067.293-.019.6.134.858.153.259.4.449.689.533a.928.928 0 0 0 .314.115l32.27 6.797-22.072 104.313a1.256 1.256 0 0 0 0 .481.992.992 0 0 0 .844.999l109.466 23.057a1.166 1.166 0 0 0 .943-.188 1.01 1.01 0 0 0 .592-.758c8.15-38.523 16.301-77.04 24.451-115.549a.479.479 0 0 0 0-.131 1.036 1.036 0 0 0-.141-.936Zm-23.545-31.774a80658.665 80658.665 0 0 1 20.013 30.645l-25.363-5.344c1.778-8.432 3.561-16.865 5.35-25.301Zm-121.43 11.587c2.149-10.15 4.296-20.297 6.441-30.44l100.615 21.18a68086.049 68086.049 0 0 0-6.441 30.446l-100.615-21.186Zm118.585 135.245-107.25-22.587c7.277-34.424 14.56-68.852 21.847-103.284 22.67 4.779 45.338 9.553 68.005 14.321.118.027.24.036.361.026a1.004 1.004 0 0 0 1.08-.841 37735.89 37735.89 0 0 1 6.849-32.37 1.367 1.367 0 0 0 0-.35 1.055 1.055 0 0 0-.03-.912 1.043 1.043 0 0 0-.735-.542l-68.125-14.352v-.042c.33-1.568.666-3.137.996-4.705l77.934 16.412-5.979 28.27a1.444 1.444 0 0 0 0 .335.995.995 0 0 0 .189.733c.156.211.39.351.65.391l28.24 5.945c-8.014 37.85-16.025 75.701-24.032 113.552Z"/><path fill="#FF490C" d="M344.659 197.362c-1.425-4.627-7.232-5.265-11.288-6.055a95.93 95.93 0 0 0-13.818-1.636 73.647 73.647 0 0 1-4.717-7.817 49.98 49.98 0 0 1-2.258-4.878 90.449 90.449 0 0 0 6.812-14.206c1.761-4.705 3.993-11.858-1.142-15.366a6.541 6.541 0 0 0-4.418-1.271l-.43.032a1.263 1.263 0 0 0-.56.214 2.08 2.08 0 0 0-.215.084c-2.62 1.134-3.606 3.733-4.334 6.274-1.824 6.326-1.473 12.883.189 19.162a110.622 110.622 0 0 1-6.074 10.102 78.894 78.894 0 0 1-7.415 9.348c-4.905.324-9.815.931-14.385 2.829-3.527 1.464-10.769 5.871-8.253 10.713 2.405 4.643 8.704 3.174 12.503 1.506 5.633-2.484 10.313-7.493 14.474-11.874a29.621 29.621 0 0 0 1.499-1.616 100.469 100.469 0 0 1 17.513-.951c2.95 4.031 6.514 7.743 10.779 10.08.067.045.137.083.21.115 2.378 1.292 5 2.077 7.698 2.306 3.668.324 8.982-2.735 7.63-7.095Zm-54.5-1.171a64.406 64.406 0 0 1-7.263 5.683c-2.033 1.375-5.581 4.24-8.044 2.614-1.195-1.516.524-4.078 2.096-5.422 2.002-1.72 4.518-2.807 7.001-3.607a39.593 39.593 0 0 1 8.647-1.595 72.55 72.55 0 0 1-2.447 2.327h.01Zm19.337-35.486c.063-3.456.613-7.372 2.28-10.457a3 3 0 0 1 2.683-1.715c5.371.722-1.483 14.154-2.62 16.658a95.363 95.363 0 0 1-1.656 3.461 39.892 39.892 0 0 1-.687-7.947Zm-6.33 29.583a96.618 96.618 0 0 0 7.96-10.86 63.41 63.41 0 0 0 3.307 6.515 70.187 70.187 0 0 0 2.258 3.66c-4.52-.082-9.04.138-13.53.659l.005.026Zm27.36 9.882h-.047a25.546 25.546 0 0 1-3.794-2.583 35.165 35.165 0 0 1-5.309-5.428c2.93.199 5.843.523 8.736.989l1.713.266c.115.057.24.093.367.105 2.652.355 6.105 1.223 6.32 4.434.236 3.623-6.063 3.011-7.991 2.19l.005.027Z"/><path fill="#000" d="m584.961 245.15-27.04-131.02a1.052 1.052 0 0 0-.388-.638 1.252 1.252 0 0 0-.231-.199l-40.288-26.45a1.104 1.104 0 0 0-.298-.142 1.168 1.168 0 0 0-.745-.078l-90.548 18.608a.998.998 0 0 0-.849.941c-.05.196-.05.401 0 .596.447 2.158.891 4.315 1.331 6.473.015.07.038.139.068.204l-36.745 7.55a.993.993 0 0 0-.849.91 1.15 1.15 0 0 0-.251 1.019c2.522 12.228 5.046 24.457 7.572 36.688a1.04 1.04 0 0 0 .541.731 1.045 1.045 0 0 0 .91.033c.119.015.239.015.357 0l36.551-7.514 24.478 118.567a.982.982 0 0 0 .912.841c.184.043.376.043.561 0 41.367-8.498 82.727-17.001 124.081-25.509a.98.98 0 0 0 .838-1.046 1.14 1.14 0 0 0 .032-.565Zm-31.642-131.669-29.267 6.013-6.026-29.2 35.293 23.187Zm-155.596 44.443a297475.71 297475.71 0 0 0-7.19-34.812l114.339-23.496c2.39 11.6 4.783 23.205 7.18 34.816l-114.329 23.492Zm62.884 111.837c-8.081-39.13-16.16-78.26-24.237-117.39l77.395-15.905a.982.982 0 0 0 .839-1.098 1.328 1.328 0 0 0 0-.345c-2.526-12.228-5.05-24.457-7.573-36.688a1.889 1.889 0 0 0-.099-.293 1.194 1.194 0 0 0-.958-.943 1.203 1.203 0 0 0-.473.007l-77.332 15.879a1.1 1.1 0 0 0 0-.371 318.735 318.735 0 0 0-1.095-5.328l88.342-18.154c2.201 10.677 4.404 21.355 6.608 32.035a.99.99 0 0 0 .943.842c.173.036.352.036.524 0l32.166-6.609a.788.788 0 0 0 .157-.047c8.898 43.125 17.807 86.246 26.726 129.363-40.669 8.342-81.318 16.69-121.949 25.045h.016ZM209.405 146.389v-.078a1.005 1.005 0 0 0-.378-.868l-29.66-25.813a.972.972 0 0 0-.97-.465l-75.414 5.129c-.21.015-.412.085-.587.204a.969.969 0 0 0-.634 1.046c.121 1.793.247 3.597.367 5.39a.614.614 0 0 1 0 .105l-30.231 2.054a1.175 1.175 0 0 0-.928.523.97.97 0 0 0-.524.994l2.096 30.55a1.187 1.187 0 0 0 1.1 1.124c.122.029.248.04.373.031l30.394-2.065c2.239 32.79 4.48 65.577 6.723 98.363.01.147.047.291.11.424a.98.98 0 0 0 1.09.779l103.319-7.038a1.154 1.154 0 0 0 .802-.376.976.976 0 0 0 .341-.404.973.973 0 0 0 .083-.521c-2.484-36.363-4.975-72.725-7.472-109.088Zm-3.8-.805-24.205 1.647-1.64-24.171 25.845 22.524ZM74.817 163.931c-.654-9.523-1.305-19.044-1.955-28.563l94.766-6.457c.65 9.522 1.302 19.044 1.955 28.563l-94.766 6.457Zm38.584 97.48-6.655-97.313c21.36-1.46 42.721-2.914 64.084-4.36a1.61 1.61 0 0 0 .32-.079.995.995 0 0 0 .844-1.103l-2.096-30.555a1.136 1.136 0 0 0-.069-.335 1.029 1.029 0 0 0-.283-.859 1.05 1.05 0 0 0-.849-.317l-64.241 4.376c-.1-1.438-.194-2.87-.288-4.313 24.374-1.66 48.749-3.32 73.124-4.983.618 8.961 1.233 17.925 1.844 26.89a.98.98 0 0 0 .058.303.982.982 0 0 0 .373.673 1.005 1.005 0 0 0 .743.206l26.778-1.82h.063c2.446 35.554 4.879 71.125 7.3 106.713l-101.05 6.876Z"/><path fill="#000" d="m593.22 288.228-24.106-36.442a.982.982 0 0 0-.807-.711l-82.331-16.794a1.197 1.197 0 0 0-.66.047.976.976 0 0 0-.86.831l-1.205 5.887a.932.932 0 0 0 0 .236l-33.161-6.766a1.142 1.142 0 0 0-1.048.303.988.988 0 0 0-.781.821l-6.812 33.353c-.064.294-.014.602.141.861a1.2 1.2 0 0 0 .692.535c.1.054.208.092.32.115l33.292 6.797-22.01 107.539a1.308 1.308 0 0 0 0 .45.976.976 0 0 0 .844 1.045l112.809 23.006a1.187 1.187 0 0 0 .928-.183.999.999 0 0 0 .607-.769c8.133-39.701 16.268-79.403 24.405-119.105a1.41 1.41 0 0 0 0-.13 1.045 1.045 0 0 0-.257-.926Zm-24.666-33.007 21.485 32.443-27.003-5.506 5.518-26.937Zm-124.679 13.191a72711.47 72711.47 0 0 0 6.44-31.439l103.728 21.16c-2.148 10.478-4.295 20.956-6.44 31.434l-103.728-21.155Zm122.991 138.429-110.571-22.56c7.273-35.502 14.549-71.001 21.826-106.499l70.105 14.3c.112.015.224.015.336 0a.987.987 0 0 0 1.105-.837c2.278-11.116 4.549-22.233 6.813-33.352.02-.12.02-.242 0-.361.065-.144.097-.302.093-.46a1.048 1.048 0 0 0-.853-.999l-70.252-14.326a.445.445 0 0 0 0-.073c.33-1.632.665-3.258 1.001-4.889l80.099 16.339-6.058 29.614c-.013.104-.013.21 0 .314a.977.977 0 0 0 .013.392.992.992 0 0 0 .82.758l29.246 5.961a.853.853 0 0 0 .189 0c-7.972 38.9-15.943 77.787-23.912 116.663v.015Z"/><path fill="#000" d="M441.338 240.006a1.34 1.34 0 0 0-.036-.267 1.076 1.076 0 0 0-.362-.721l-37.028-34.163a1.048 1.048 0 0 0-.944-.46c-32.217 1.265-64.439 2.525-96.663 3.78a1.162 1.162 0 0 0-.729.282 1.052 1.052 0 0 0-.524.973c.074 1.803.142 3.602.215 5.401.781 0 1.572.026 2.353.057a910.76 910.76 0 0 1-.178-4.418l94.389-3.66 1.368 34.832c.005.144.035.285.089.419a1.053 1.053 0 0 0 1.059.732l34.329-1.344c.118-.006.235-.029.346-.068 1.803 45.829 3.6 91.655 5.392 137.478l-130.165 5.103-4.921-125.385 82.52-3.236c.16-.007.316-.044.462-.11h.031a.998.998 0 0 0 .676-1.046c-.51-13.053-1.022-26.109-1.535-39.166a1.478 1.478 0 0 0-.063-.35 1.046 1.046 0 0 0-1.127-1.255l-79.266 3.095c.454.685.676 1.496.634 2.316l77.49-3.027 1.462 37.258-78.449 3.069a3.769 3.769 0 0 1-3.107 1.987 4.124 4.124 0 0 0-2.096.559h.026c1.656 42.159 3.31 84.315 4.963 126.467.01.183.062.362.152.523a1.02 1.02 0 0 0 1.048.669l132.434-5.171a1.092 1.092 0 0 0 .938-.523 1.041 1.041 0 0 0 .304-.815l-5.487-139.815Zm-35.839.413a30479.31 30479.31 0 0 1-1.262-32.072l33.402 30.812-32.14 1.26ZM200.895 276.103a.862.862 0 0 0-.052-.094l-25.908-32.584a.988.988 0 0 0-.624-.387 1.233 1.233 0 0 0-.293-.073l-79.428-9.14a.952.952 0 0 0-.7.152.935.935 0 0 0-.385.601c-.082.15-.135.313-.157.481l-.645 5.642-32.123-3.697a.927.927 0 0 0-1.048.654 1.207 1.207 0 0 0-.477.842c-1.237 10.725-2.476 21.45-3.716 32.176a.976.976 0 0 0 1.137 1.113c.112.051.23.084.352.1l31.856 3.66-12.022 103.895a.927.927 0 0 0 .441.97c.11.065.23.106.356.123.123.06.256.099.393.115L186.678 393.2a.944.944 0 0 0 .74-.178.932.932 0 0 0 .361-.669c.084-.14.134-.297.147-.46 4.429-38.297 8.856-76.596 13.279-114.896a.924.924 0 0 0-.31-.894Zm-26.044-29.029 22.89 28.788-25.872-2.98c.996-8.599 1.99-17.201 2.982-25.808Zm-117.06 22.582 3.49-30.231 99.961 11.503c-1.164 10.08-2.329 20.157-3.496 30.231l-99.954-11.503ZM185.71 390.722c-35.523-4.093-71.051-8.181-106.584-12.266 3.958-34.216 7.913-68.427 11.864-102.635l67.79 7.795a.926.926 0 0 0 .399-.016.931.931 0 0 0 .608-.491.927.927 0 0 0 .098-.387c.03-.09.053-.183.068-.277 1.234-10.729 2.472-21.454 3.716-32.176a1.144 1.144 0 0 0-.026-.408 1.246 1.246 0 0 0-1.106-1.124l-67.543-7.775c.026-.072.044-.148.052-.224.168-1.485.343-2.97.524-4.455l77.175 8.888v.084c-1.1 9.547-2.204 19.096-3.312 28.647a.94.94 0 0 0 .849 1.103c.105.04.214.068.325.084l28.13 3.236c-4.356 37.46-8.699 74.926-13.027 112.397Z"/><path fill="#000" d="m325.841 356.711-53.31-85.225-.079-.094a1.048 1.048 0 0 0-.718-.523l-35.273-8.156a1.049 1.049 0 0 0-1.048.084l-58.901 36.688a1.127 1.127 0 0 0-.493.606 1.05 1.05 0 0 0 .058 1.046c.87 1.394 1.743 2.789 2.62 4.183l-23.582 14.671a1.099 1.099 0 0 0-.55.946 1.05 1.05 0 0 0 .058 1.046l14.935 23.873a1.15 1.15 0 0 0 1.535.408 1.69 1.69 0 0 0 .304-.136l23.624-14.708 48.043 76.802c.103.175.251.32.43.418a1.046 1.046 0 0 0 1.205 0l80.702-50.261a1.11 1.11 0 0 0 .524-.863 1.058 1.058 0 0 0-.084-.805Zm-57.435-84.216-18.194 11.325-11.356-18.148 29.55 6.823Zm-97.454 71.207-13.851-22.142 73.889-46.011c4.622 7.389 9.243 14.772 13.861 22.148l-73.899 46.005Zm73.527 62.386a719017.191 719017.191 0 0 1-47.457-75.865c16.675-10.384 33.348-20.764 50.02-31.141.163-.102.301-.24.403-.402a1.045 1.045 0 0 0 0-1.203l-14.93-23.868a1.42 1.42 0 0 0-.199-.246 1.079 1.079 0 0 0-1.572-.444l-50.077 31.183-2.002-3.205 57.188-35.622 12.96 20.715c.089.152.213.281.361.377a1.05 1.05 0 0 0 1.258.062l20.652-12.862c17.391 27.816 34.787 55.63 52.189 83.442l-78.794 49.079Z"/><path fill="#FF490C" d="M289.468 330.736c-1.761-2.939-5.618-1.841-8.039-.628a36.683 36.683 0 0 0-3.741 2.175c-.262.152-.524.314-.765.476-.078.054-.15.115-.215.183-1.777 1.218-3.496 2.536-5.162 3.822a76.678 76.678 0 0 0-3.359 2.766 49.707 49.707 0 0 1-11.529-3.597 72.11 72.11 0 0 0-4.066-12.219c-1.803-4.131-4.785-10.457-10.429-9.255a5.74 5.74 0 0 0-2.677 1.297c-.319.236-.608.51-.86.816a1.139 1.139 0 0 0-.283.669 4.72 4.72 0 0 0-.251.523c-1.101 2.614 1.095 5.903 2.421 7.973 2.583 4.021 6.241 7.242 10.297 9.757a96.635 96.635 0 0 1 2.238 9.725 66.18 66.18 0 0 1 .959 9.934c-3.433 3.769-6.598 7.842-8.039 12.789-1.048 3.602-.524 9.359 3.773 9.301.106.016.214.016.32 0h.062a7.05 7.05 0 0 0 1.216-.23c5.288-1.495 6.692-8.967 7.206-13.516.381-3.557.494-7.138.335-10.713a84.978 84.978 0 0 1 9.957-10.671c3.081.501 6.212.618 9.322.35 5.188-.491 15.407-4.857 11.309-11.727Zm-48.777-12.941c3.579-3.001 7.383 9.412 8.159 11.597.288.826.566 1.657.833 2.484-3.626-2.955-11.602-10.902-8.992-14.081Zm13.101 44.008a53.398 53.398 0 0 1-1.305 8.136c-.398 1.71-.865 4.413-2.778 4.972a2.027 2.027 0 0 1-1.231-.47c-.875-.717-.781-2.27-.744-3.263.089-2.238.969-4.444 1.97-6.415a31.046 31.046 0 0 1 4.245-6.076 41.23 41.23 0 0 1-.142 3.116h-.015Zm4.842-12.496c-.163-2.013-.372-4.02-.64-6.002a78.354 78.354 0 0 0-.759-4.517 50.91 50.91 0 0 0 8.683 2.776 83.464 83.464 0 0 0-7.253 7.743h-.031Zm25.253-11.769a8.173 8.173 0 0 1-2.982 2.008l-.136.078c-3.071.852-6.409.764-9.553.377a82.152 82.152 0 0 1 6.749-5.145c.042-.026.09-.042.131-.073 1.845-1.234 4.471-2.834 6.478-1.004 1.2 1.072.099 2.844-.671 3.759h-.016Z"/><path fill="#fff" d="m375.132 132.566-7.751-11.869-12.577-19.251-.309-.476-5.518 26.085 26.155 5.511Z"/><path fill="#fff" d="M347.61 128.681a.796.796 0 0 1-.655-.91 1.125 1.125 0 0 1 0-.272c1.999-9.411 3.992-18.834 5.98-28.27l.052-.23-.943-.199-77.212-16.26-.23-.053-.048.23c-.277 1.334-.56 2.656-.838 3.984l-.163.743-.083.246.256.057 68.125 14.352a.776.776 0 0 1 .556.372.944.944 0 0 1 .036.773v.089a.96.96 0 0 1 0 .293l-6.849 32.37a.759.759 0 0 1-.786.653h-.157a.86.86 0 0 1-.215 0l-.414-.089-67.601-14.232-.23-.047-21.9 103.524-.047.23.231.047 107.249 22.587.231.047 24.095-113.813.047-.225-28.487-5.997Z"/><path fill="#fff" d="m333.963 134.62 6.54-30.9-101.05-21.28-6.54 30.9 100.819 21.233.231.047Z"/><path fill="#000" d="M277.53 97.351c-1.132-1.427-3.097-2.467-5.959-3.074a35.456 35.456 0 0 0-6.068-.816l-4.459 21.092 3.872.816 1.709-8.057a11.47 11.47 0 0 0 1.876.523c2.767.58 5.366.366 7.257-.858 1.447-.894 2.437-2.436 2.867-4.465a6.205 6.205 0 0 0-1.095-5.16Zm-2.851 4.507c-.524 2.505-2.62 3.556-5.534 2.939a7.955 7.955 0 0 1-1.871-.56l1.531-7.23c.772.018 1.541.114 2.295.287 2.709.57 4.087 2.185 3.584 4.564h-.005ZM297.816 102.387c-1.625-2.06-4.219-3.467-8.217-4.314a40.37 40.37 0 0 0-6.304-.863l-4.45 21.019a43.48 43.48 0 0 0 5.215 1.396c4.16.878 7.776.612 10.313-.873 2.421-1.412 4.328-3.99 5.135-7.796.75-3.644.032-6.452-1.692-8.569Zm-2.49 7.842c-1.147 5.428-4.758 7.582-9.836 6.473a14.279 14.279 0 0 1-2.138-.523l3.233-15.288c.915.017 1.825.133 2.715.345 4.894.989 7.059 4.262 6.047 8.972l-.021.021ZM308.276 105.519l-1.252 5.898 7.886 1.657-.681 3.2-7.881-1.657-1.918 9.071-3.91-.826 4.523-21.369 12.357 2.599-.676 3.21-8.448-1.783Z"/><path fill="#000" d="M378.145 133.345 354.93 97.791a.99.99 0 0 0-.802-.7L274.25 80.264a1.137 1.137 0 0 0-.682.052.986.986 0 0 0-.838.826c-.398 1.897-.8 3.798-1.205 5.705a1.183 1.183 0 0 0 0 .188L239.38 80.27a1.138 1.138 0 0 0-1.048.298.988.988 0 0 0-.775.816 79872.61 79872.61 0 0 1-6.844 32.364 1.178 1.178 0 0 0 .822 1.396c.1.052.206.091.315.115l32.27 6.797-22.114 104.319a1.147 1.147 0 0 0 0 .481.981.981 0 0 0 .838.999l109.471 23.057a1.157 1.157 0 0 0 .938-.188.982.982 0 0 0 .592-.758c8.147-38.524 16.298-77.051 24.452-115.581a1.43 1.43 0 0 0 0-.131 1.047 1.047 0 0 0-.152-.909Zm-23.529-31.774a55472.035 55472.035 0 0 0 20.007 30.644l-25.363-5.343c1.789-8.429 3.574-16.862 5.356-25.301Zm-121.425 11.586c2.145-10.15 4.292-20.295 6.441-30.435l100.615 21.181c-2.149 10.15-4.296 20.297-6.441 30.44l-100.615-21.186ZM351.77 248.408c-35.75-7.533-71.501-15.062-107.254-22.587 7.287-34.428 14.571-68.856 21.852-103.284l68.004 14.321c.12.015.242.015.362 0a.994.994 0 0 0 1.079-.836c2.285-10.806 4.568-21.596 6.849-32.37.027-.115.036-.233.027-.35a1.04 1.04 0 0 0-.335-1.267 1.055 1.055 0 0 0-.43-.187l-68.151-14.341a.292.292 0 0 0 0-.042c.335-1.569.665-3.137.995-4.706l77.94 16.412a23067.58 23067.58 0 0 0-5.984 28.271c-.013.109-.013.22 0 .329a.995.995 0 0 0 .838 1.124l28.24 5.95c-8.01 37.858-16.021 75.712-24.032 113.563Z"/><path fill="#FF490C" d="M344.193 196.421c-1.431-4.627-7.237-5.26-11.293-6.049a94.319 94.319 0 0 0-13.814-1.637 74.777 74.777 0 0 1-4.716-7.816 51.19 51.19 0 0 1-2.259-4.879 90.463 90.463 0 0 0 6.813-14.211c1.766-4.705 3.993-11.853-1.143-15.361a6.52 6.52 0 0 0-4.417-1.27 3.85 3.85 0 0 0-.43.031c-.2.023-.391.095-.556.209l-.22.084c-2.62 1.134-3.6 3.738-4.334 6.274-1.823 6.326-1.472 12.883.194 19.157a112.144 112.144 0 0 1-6.073 10.143 79.24 79.24 0 0 1-7.421 9.349c-4.905.324-9.815.931-14.384 2.828-3.522 1.464-10.769 5.872-8.254 10.714 2.405 4.642 8.704 3.173 12.504 1.5 5.633-2.478 10.313-7.487 14.473-11.868.524-.523 1.007-1.078 1.499-1.621 5.8-.83 11.662-1.154 17.519-.968 2.95 4.032 6.519 7.749 10.779 10.086.067.044.137.082.21.115a19.642 19.642 0 0 0 7.693 2.306c3.663.303 8.976-2.75 7.63-7.116Zm-54.5-1.166a64.09 64.09 0 0 1-7.279 5.71c-2.028 1.375-5.576 4.24-8.044 2.614-1.195-1.516.524-4.078 2.096-5.427 1.997-1.721 4.512-2.808 6.996-3.603a39.31 39.31 0 0 1 8.652-1.568c-.812.747-1.614 1.526-2.437 2.274h.016Zm19.347-35.517c.058-3.451.608-7.372 2.275-10.457a3.027 3.027 0 0 1 2.683-1.715c5.371.722-1.483 14.159-2.621 16.663a104.384 104.384 0 0 1-1.65 3.461 39.575 39.575 0 0 1-.703-7.952h.016Zm-6.356 29.588a97.326 97.326 0 0 0 7.97-10.844 62.185 62.185 0 0 0 3.302 6.515 76.148 76.148 0 0 0 2.258 3.66c-4.52-.078-9.04.145-13.53.669Zm27.36 9.882h-.048a25.991 25.991 0 0 1-3.794-2.583 35.256 35.256 0 0 1-5.303-5.427c2.924.198 5.834.528 8.731.988l1.718.261c.114.057.236.094.362.11 2.652.35 6.11 1.224 6.32 4.434.251 3.644-6.047 3.032-7.981 2.217h-.005Z"/><path fill="#fff" d="m511.862 133.674-.047-.23c-2.4-11.6-4.795-23.206-7.184-34.816l-.047-.23-114.796 23.617 7.279 35.271 19.803-4.068 94.762-19.471.23-.073ZM523.35 118.605l.053.23.225-.047 29.267-6.012.556-.115-.472-.314-35.294-23.183-.476-.314.115.554c2.012 9.732 4.021 19.466 6.026 29.201Z"/><path fill="#fff" d="m578.474 225.481-22.937-111.115-.074-.262-.256.094-.1.032-32.17 6.608a1.048 1.048 0 0 1-.446 0 .754.754 0 0 1-.728-.653l-6.608-32.035-.048-.23-88.803 18.247 1.148 5.558c.014.101.014.203 0 .303v.314l77.594-15.947a1.003 1.003 0 0 1 1.169.8c.035.081.063.165.083.251l7.573 36.688c.016.104.016.21 0 .314a.757.757 0 0 1-.655.852l-77.605 15.953 24.279 117.64.047.23.231-.047 121.89-25.049.231-.047-3.815-18.499Z"/><path fill="#000" d="m441.589 142.657-14.662 3.006-5.005-24.224 14.123-2.901.749 3.628-9.689 1.992 1.294 6.259 9.145-1.883.739 3.592-9.145 1.883 1.468 7.116 10.229-2.102.754 3.634ZM458.271 121.429a6.983 6.983 0 0 0-3.485-4.868c-1.813-.972-4.334-1.171-7.578-.522a39.777 39.777 0 0 0-6.666 1.897l4.937 23.947 4.396-.905-1.891-9.129a13.518 13.518 0 0 0 2.195-.298c3.145-.648 5.739-2.044 7.138-4.182 1.1-1.585 1.43-3.639.954-5.94Zm-8.804 6.645a9.279 9.279 0 0 1-2.201.262l-1.693-8.198c.812-.33 1.654-.577 2.515-.738 3.061-.632 5.241.424 5.765 3.138.613 2.823-1.069 4.852-4.386 5.536ZM471.162 136.952c-2.558.522-5.372.35-6.865-.168l.215-3.864c2.003.63 4.133.747 6.194.34 2.845-.585 4.155-2.237 3.747-4.219-.383-1.83-1.829-2.656-5.152-3.137-4.302-.622-7.294-2.212-8.017-5.699-.813-3.953 1.881-7.655 7.137-8.737a13.16 13.16 0 0 1 6.089 0l-.351 3.785a10.476 10.476 0 0 0-5.062-.162c-2.809.576-3.721 2.338-3.433 3.739.388 1.872 1.966 2.441 5.471 3.037 4.544.717 7.033 2.416 7.751 5.903.807 3.906-1.457 7.89-7.724 9.182ZM558.026 201.519l-4.853 1.014-.665-3.231-16.859-10.948a42.368 42.368 0 0 1 9.127 23.711 42.349 42.349 0 0 1-6.087 24.663l.613 2.975-4.884.998-1.006-4.867 3.5-.717a39.963 39.963 0 0 0 4.771-28.483 40.032 40.032 0 0 0-15.676-24.277l-3.485.716-.692-3.362a40.19 40.19 0 0 0-28.62-3.995 40.118 40.118 0 0 0-23.883 16.235l.582 2.813-4.889 1.004-1.001-4.873 3.721-.769a42.48 42.48 0 0 1 20.083-15.248 42.587 42.587 0 0 1 25.209-1.195l-16.884-10.98-3.265.674-1.006-4.878 4.878-.999.666 3.232 26.202 17.008 2.751-.57.555 2.719 26.821 17.416 3.27-.675 1.006 4.889Z"/><path fill="#000" d="M584.49 244.215c-9.01-43.679-18.023-87.352-27.04-131.021a1.047 1.047 0 0 0-.388-.638 1.063 1.063 0 0 0-.225-.198l-40.272-26.456a1.683 1.683 0 0 0-.294-.142 1.186 1.186 0 0 0-.749-.073l-90.569 18.608a.997.997 0 0 0-.849.936 1.251 1.251 0 0 0 0 .596c.445 2.165.885 4.319 1.336 6.473a.841.841 0 0 0 .063.209l-36.746 7.55a.99.99 0 0 0-.596.3.979.979 0 0 0-.268.61 1.129 1.129 0 0 0-.257 1.014c2.526 12.228 5.05 24.459 7.572 36.694a1.05 1.05 0 0 0 1.452.763c.118.016.238.016.356 0l36.573-7.518c8.164 39.52 16.323 79.042 24.477 118.566a.976.976 0 0 0 .912.836c.186.045.38.045.566 0l124.092-25.499a.98.98 0 0 0 .838-1.046c.054-.183.059-.378.016-.564Zm-31.641-131.669-29.268 6.013c-2.001-9.736-4.01-19.47-6.026-29.201l35.294 23.188Zm-155.597 44.442-7.184-34.816 114.334-23.497c2.389 11.607 4.784 23.213 7.184 34.816l-114.334 23.497Zm62.884 111.837c-8.073-39.13-16.15-78.258-24.231-117.384l77.39-15.905a.995.995 0 0 0 .843-1.098 1.109 1.109 0 0 0 0-.345 29493.166 29493.166 0 0 1-7.604-36.7 1.544 1.544 0 0 0-.099-.287 1.198 1.198 0 0 0-.957-.944 1.199 1.199 0 0 0-.474.008l-77.305 15.879a1.281 1.281 0 0 0 0-.371l-1.117-5.349 88.337-18.132c2.208 10.677 4.411 21.355 6.608 32.035a.994.994 0 0 0 .949.842c.172.036.351.036.524 0l32.17-6.609c.053 0 .1-.032.152-.047 8.898 43.121 17.807 86.24 26.726 129.358l-121.912 25.049Z"/><path fill="#fff" d="M180.709 146.312v.23l25.028-1.7-26.726-23.251.042.565c.555 8.052 1.107 16.104 1.656 24.156ZM169.348 156.523c-.65-9.52-1.301-19.041-1.955-28.564v-.235l-95.254 6.489v.235c.65 9.516 1.302 19.037 1.955 28.563v.23l95.238-6.483.016-.235Z"/><path fill="#fff" d="M206.932 146.861v-.215h-.294l-26.783 1.82a.81.81 0 0 1-.589-.178.788.788 0 0 1-.286-.544.663.663 0 0 1-.047-.245l-1.861-27.121h-.236l-68.439 4.664-4.92.335v.235c.089 1.354.183 2.703.272 4.052l.037.497h.236l64.241-4.382a.778.778 0 0 1 .65.225.939.939 0 0 1 .225.706v.094a.876.876 0 0 1 .058.272l2.096 30.555a.776.776 0 0 1-.686.863c-.089.031-.18.052-.273.063l-64.084 4.36h-.231v.236c2.075 30.293 4.147 60.589 6.215 90.886l.456 6.656 101.532-6.912-7.289-106.922Z"/><path fill="#000" d="M208.95 145.454v-.078a.988.988 0 0 0-.378-.868l-29.66-25.813a.992.992 0 0 0-.97-.471l-75.44 5.134c-.21.017-.412.087-.587.204a.977.977 0 0 0-.634 1.046c.126 1.795.248 3.592.367 5.391v.099l-30.237 2.06a1.152 1.152 0 0 0-.927.523.978.978 0 0 0-.525.993l2.097 30.55a1.182 1.182 0 0 0 1.105 1.119c.121.035.247.047.372.037l30.394-2.092 6.729 98.369c.009.145.044.287.105.418a.995.995 0 0 0 1.09.785l103.319-6.996c.308-.015.598-.151.807-.377a.975.975 0 0 0 .419-.93c-2.477-36.37-4.959-72.737-7.446-109.103Zm-3.794-.805-24.211 1.642c-.555-8.045-1.107-16.095-1.656-24.151l25.867 22.509Zm-130.81 18.347c-.65-9.52-1.302-19.041-1.955-28.564l94.772-6.457c.646 9.523 1.298 19.044 1.955 28.563l-94.772 6.458Zm38.59 97.479c-2.219-32.437-4.439-64.875-6.661-97.312l64.084-4.366c.113-.01.223-.033.331-.068a.995.995 0 0 0 .843-1.103l-2.096-30.555a.986.986 0 0 0-.068-.335 1.035 1.035 0 0 0-.666-1.117 1.05 1.05 0 0 0-.461-.065l-64.241 4.382-.294-4.314 73.124-4.982c.619 8.961 1.234 17.923 1.845 26.885a.961.961 0 0 0 .063.308.987.987 0 0 0 .72.849c.127.035.26.045.391.029l26.783-1.824h.058c2.445 35.553 4.88 71.124 7.305 106.713l-101.06 6.875Z"/><path fill="#000" d="m119.271 135.692-4.716.325-5.099 20.605 3.81-.256 1.352-5.835 6.414-.434 2.222 5.589 3.961-.272-7.944-19.722Zm-4.239 12.026 1.221-5.072c.277-1.223.476-2.645.697-3.832h.062c.383 1.145.802 2.499 1.279 3.696l1.923 4.863-5.182.345ZM133.729 154.975l-3.689.246-1.378-20.166 3.689-.257 1.378 20.177ZM155.875 184.756l-12.079.816-13.074 52.829 9.768-.664 3.458-14.964 16.46-1.119 5.691 14.341 10.151-.69-20.375-50.549Zm-10.878 30.801 3.144-13.008c.718-3.137 1.236-6.797 1.802-9.835h.152c.975 2.939 2.065 6.41 3.276 9.49l4.947 12.459-13.321.894ZM192.253 234.212l-9.532.644-2.557-37.368 9.537-.649 2.552 37.373ZM184.482 191.794c-3.144.219-5.382-1.861-5.576-4.706-.194-2.844 1.798-5.286 4.958-5.5 3.16-.214 5.376 1.872 5.654 4.779.194 2.839-1.729 5.186-5.036 5.427Z"/><path fill="#fff" d="m562.286 281.4 27.774 5.667-22.109-33.389-.11.554c-1.838 8.976-3.679 17.955-5.524 26.938l-.031.23ZM547.314 288.892l5.051-24.657 1.483-7.242-104.189-21.248-6.487 31.663-.047.23.23.047 103.728 21.16.231.047Z"/><path fill="#fff" d="M590.27 289.007h-.11l-29.241-5.955a.799.799 0 0 1-.523-.325.797.797 0 0 1-.127-.601 1.036 1.036 0 0 1 0-.261l6.115-29.844-80.56-16.434-1.048 5.119.22.068h-.236l-.083.251 70.545 14.316a.787.787 0 0 1 .556.376.93.93 0 0 1 .031.774v.099c.014.097.014.196 0 .293l-6.812 33.358a.752.752 0 0 1-.776.653h-.115a.96.96 0 0 1-.273 0l-70.105-14.305-.231-.047-21.925 106.74-.048.23.231.047 110.598 22.561.23.047 23.949-116.878.052-.261-.314-.021Z"/><path fill="#000" d="m592.748 287.287-24.105-36.443a.993.993 0 0 0-.807-.706l-82.337-16.793a1.153 1.153 0 0 0-.66.047.966.966 0 0 0-.859.826l-1.206 5.887a.979.979 0 0 0-.026.235l-33.161-6.76a1.13 1.13 0 0 0-1.048.303.988.988 0 0 0-.781.821 18240.511 18240.511 0 0 0-6.812 33.352 1.185 1.185 0 0 0 .828 1.391c.1.056.208.096.319.121l33.298 6.797-22.099 107.534a1.302 1.302 0 0 0 0 .449.987.987 0 0 0 .844 1.046l112.809 23.005a1.156 1.156 0 0 0 .928-.183 1.003 1.003 0 0 0 .607-.768c8.137-39.705 16.272-79.409 24.405-119.11a.955.955 0 0 0 0-.131 1.004 1.004 0 0 0-.137-.92Zm-24.661-32.992 21.486 32.448-27.004-5.511 5.518-26.937Zm-124.683 13.176c2.148-10.457 4.295-20.935 6.44-31.434l103.728 21.155a33013.872 33013.872 0 0 1-6.441 31.439l-103.727-21.16ZM566.4 405.905l-110.572-22.561c7.278-35.501 14.553-71.002 21.827-106.504l70.105 14.305c.113.016.228.016.341 0a.984.984 0 0 0 1.1-.836l6.839-33.358a1.213 1.213 0 0 0 0-.361 1.045 1.045 0 0 0-.76-1.453l-70.279-14.331v-.074c.336-1.631.666-3.257 1.001-4.888l80.12 16.36a64538.82 64538.82 0 0 0-6.063 29.619 1.068 1.068 0 0 0-.026.314.99.99 0 0 0 .469 1.011 1 1 0 0 0 .369.134l29.242 5.965h.188c-7.965 38.883-15.932 77.764-23.901 116.643v.015Z"/><path fill="#000" d="M523.942 319.008c-2.992-3.749-8.206-6.473-15.763-8.015-6.975-1.422-12.194-1.966-16.03-2.05l-11.414 55.715 10.245 2.092 4.36-21.28a29.372 29.372 0 0 0 4.968 1.364c7.305 1.49 14.149.884 19.122-2.384 3.81-2.369 6.399-6.462 7.499-11.827 1.09-5.275-.194-10.164-2.987-13.615Zm-7.452 11.926c-1.352 6.62-6.812 9.412-14.552 7.843a21.729 21.729 0 0 1-4.958-1.448l3.92-19.1c2.041.021 4.073.259 6.063.711 7.159 1.469 10.837 5.71 9.527 11.994ZM540.135 345.444c-.524 2.614 1.142 4.245 5.969 7.152 6.844 4.183 9.511 8.664 8.384 14.713-1.514 7.372-8.384 11.555-19.237 9.343-4.957-1.009-9.166-3.09-11.843-5.385l3.542-7.048a23.446 23.446 0 0 0 9.873 5.103c4.538.925 6.928-.523 7.478-3.189.566-2.766-.823-4.528-5.497-7.32-7.415-4.392-9.878-9.411-8.82-14.19 1.478-7.205 8.589-11.602 18.08-9.668 4.538.926 8.243 2.902 10.334 4.638l-3.511 6.881a18.662 18.662 0 0 0-8.165-4.11c-3.694-.784-6.074.565-6.587 3.08ZM488.973 250.881c-1.168-1.464-3.201-2.531-6.146-3.137a35.726 35.726 0 0 0-6.257-.8l-4.449 21.724 3.993.816 1.703-8.293c.631.225 1.28.4 1.939.523 2.845.581 5.523.34 7.457-.93 1.483-.921 2.494-2.52 2.924-4.612a6.338 6.338 0 0 0-1.164-5.291Zm-2.897 4.648c-.524 2.583-2.663 3.66-5.676 3.064a8.294 8.294 0 0 1-1.933-.565l1.525-7.45c.797.011 1.59.103 2.368.277 2.783.564 4.219 2.222 3.737 4.674h-.021ZM497.238 256.68c-.351 1.704.765 2.75 3.479 4.491 3.537 2.217 5.01 4.528 4.36 7.696-.723 3.529-4.04 6.055-9.736 4.889-2.327-.471-4.617-1.621-5.681-2.614l1.572-3.137a11.485 11.485 0 0 0 5.052 2.494c2.589.522 4.276-.393 4.643-2.186.34-1.668-.571-2.876-3.181-4.46-3.364-2.049-5.298-4.455-4.648-7.623.739-3.597 4.313-5.751 9.097-4.747a11.87 11.87 0 0 1 5.073 2.19l-1.646 3.033a9.538 9.538 0 0 0-4.192-1.94c-2.542-.502-3.936.638-4.192 1.914ZM526.877 259.393c-1.682-2.092-4.36-3.545-8.484-4.387a41.89 41.89 0 0 0-6.514-.852l-4.438 21.667a46.348 46.348 0 0 0 5.376 1.401c4.287.873 7.997.575 10.602-.973 2.484-1.464 4.428-4.135 5.24-8.051.765-3.76-.011-6.641-1.782-8.805Zm-2.526 8.062c-1.147 5.589-4.842 7.843-10.077 6.734a16.29 16.29 0 0 1-2.206-.554l3.228-15.748a12.85 12.85 0 0 1 2.798.329c5.057 1.03 7.305 4.382 6.257 9.239Z"/><path fill="#fff" d="M404.792 239.488v.235l1.573-.062 30.792-1.203h.566l-.414-.387-33.381-30.832-.414-.361v.565c.433 10.687.859 21.368 1.278 32.045Z"/><path fill="#fff" d="M444.205 377.928c-1.768-45.456-3.551-90.915-5.351-136.375l-.057-1.422-.299.105a1.011 1.011 0 0 1-.278.057h-.524l-33.873 1.344a.799.799 0 0 1-.807-.627.964.964 0 0 1-.079-.345l-1.373-35.068-94.85 3.702.089 2.159c.047 1.297.099 2.588.146 3.875v.031c.514 13.542 1.038 27.08 1.573 40.615l.062 1.647s3.318 83.588 4.963 125.384v.23l130.653-5.103.005-.209Z"/><path fill="#000" d="m376.741 326.004-15.449.612a15.504 15.504 0 0 0-10.765 4.958 15.436 15.436 0 0 0 .87 21.842 15.515 15.515 0 0 0 11.127 4.089h.036a15.32 15.32 0 0 0 5.87-1.422c.324-.151.623-.298.901-.455l.246-.136a15.571 15.571 0 0 0 5.622-5.516 15.534 15.534 0 0 0 2.197-7.555v-.951c0-.335-.037-.649-.068-.952l-.587-14.514ZM391.901 293.028h-.037l-.12.13-.131-.115h-.037a15.367 15.367 0 0 0-5.764 1.736 15.476 15.476 0 0 0-6.401 6.355 15.415 15.415 0 0 0 .608 15.633 15.462 15.462 0 0 0 6.878 5.843 15.234 15.234 0 0 0 5.921 1.266l.126-.131.136.12h.037a15.502 15.502 0 0 0 10.253-5.194 15.436 15.436 0 0 0-.85-21.29 15.514 15.514 0 0 0-10.635-4.364l.016.011ZM361.234 325.152l15.448-.612-1.231-30.885-15.407.612h-.456c-4 .352-7.707 2.241-10.339 5.268a15.434 15.434 0 0 0-3.767 10.957 15.444 15.444 0 0 0 4.922 10.491 15.513 15.513 0 0 0 10.846 4.132l-.016.037ZM359.509 292.824h.477l15.407-.606-1.227-30.89-15.411.601a15.506 15.506 0 0 0-10.631 4.897 15.433 15.433 0 0 0 .528 21.625 15.506 15.506 0 0 0 10.857 4.373ZM391.429 291.559a15.5 15.5 0 0 0 10.357-5.273 15.429 15.429 0 0 0-1.189-21.473 15.507 15.507 0 0 0-10.876-4.102l-14.102.559 1.226 30.885 14.102-.554c.173-.021.33-.027.482-.042Z"/><path fill="#fff" d="M396.261 292.113h-.037a17.032 17.032 0 0 0 9.063-7.69 16.975 16.975 0 0 0-4.366-21.678 17.073 17.073 0 0 0-11.247-3.603l-30.981 1.223a17.07 17.07 0 0 0-10.889 4.526 16.978 16.978 0 0 0-2.567 21.936 17.04 17.04 0 0 0 9.552 6.906 17.038 17.038 0 0 0-8.29 6.496 16.976 16.976 0 0 0-2.873 10.118 16.986 16.986 0 0 0 3.644 9.869 17.041 17.041 0 0 0 8.766 5.84h.063l-.063.026a17.027 17.027 0 0 0-8.981 7.636 16.968 16.968 0 0 0 4.308 21.667 17.07 17.07 0 0 0 11.223 3.637h.037a17.082 17.082 0 0 0 7.09-1.872 17.022 17.022 0 0 0 6.929-6.572 16.983 16.983 0 0 0 2.305-8.183l-1.048-26.195a17.06 17.06 0 0 0 6.959 7.111c.283.157.581.314.891.46a16.969 16.969 0 0 0 7.252 1.642h.053a17.054 17.054 0 0 0 2.992-.523 14.853 14.853 0 0 0 1.499-.481 17.034 17.034 0 0 0 8.264-6.509 16.971 16.971 0 0 0-.793-19.967 17.042 17.042 0 0 0-8.755-5.836v.016Zm-52.289-14.117a15.375 15.375 0 0 1 4.077-11.046 15.438 15.438 0 0 1 10.707-4.943l15.328-.606 1.221 30.727-15.328.607h-.472a15.542 15.542 0 0 1-10.731-4.271 15.472 15.472 0 0 1-4.802-10.484v.016Zm1.29 32.338a15.466 15.466 0 0 1 3.951-10.839 15.536 15.536 0 0 1 10.365-5.108h.451l15.328-.606 1.226 30.722-15.364.612a15.46 15.46 0 0 1-11.041-4.111 15.39 15.39 0 0 1-4.916-10.686v.016Zm32.05 32.082a15.408 15.408 0 0 1-2.175 7.528 15.448 15.448 0 0 1-5.602 5.491l-.246.136c-.273.151-.566.298-.891.449a15.212 15.212 0 0 1-5.838 1.417h-.037a15.423 15.423 0 0 1-11.066-4.066 15.352 15.352 0 0 1-.867-21.724 15.42 15.42 0 0 1 10.707-4.932l15.365-.612.576 14.394a14.762 14.762 0 0 1 .074 1.903v.016Zm-1.572-81.042 14.018-.554a15.424 15.424 0 0 1 11.107 3.907 15.358 15.358 0 0 1 5.097 10.593 15.357 15.357 0 0 1-3.893 11.091 15.423 15.423 0 0 1-10.608 5.106H391l-14.024.554-1.236-30.697Zm1.283 32.333 8.17-.319c-.209.105-.414.22-.618.335a17.052 17.052 0 0 0-7.242 8.151l-.31-8.167Zm16.12 30.111-.163-.151-.146.162a15.257 15.257 0 0 1-6.724-1.668 15.391 15.391 0 0 1-5.996-5.408 15.34 15.34 0 0 1 4.948-21.409 15.15 15.15 0 0 1 6.577-2.191l.157.147.152-.168a15.43 15.43 0 0 1 10.485 4.393 15.354 15.354 0 0 1 .838 21.074 15.419 15.419 0 0 1-10.102 5.209l-.026.01Z"/><path fill="#000" d="M440.867 239.064a1.418 1.418 0 0 0-.037-.267 1.045 1.045 0 0 0-.361-.716l-37.029-34.163a1.05 1.05 0 0 0-.943-.46l-96.669 3.78a1.153 1.153 0 0 0-.728.277 1.049 1.049 0 0 0-.524.978c.087 2.308.178 4.61.272 6.907v.042c.619 16.034 1.232 32.056 1.84 48.065.004.111.025.22.063.324l4.716 120.376c.008.183.058.362.147.523a1.02 1.02 0 0 0 1.048.669l132.439-5.176a1.104 1.104 0 0 0 .938-.523c.106-.107.187-.235.238-.376a1.03 1.03 0 0 0 .061-.44c-1.817-46.603-3.64-93.21-5.471-139.82Zm-3.694-.842-32.145 1.255c-.423-10.687-.842-21.376-1.257-32.066a50951.587 50951.587 0 0 0 33.402 30.811Zm-123.39 144.829c-1.645-41.796-4.962-125.384-4.962-125.384a88685.862 88685.862 0 0 1-1.615-42.314c-.073-1.935-.151-3.869-.225-5.804l94.389-3.686 1.358 34.838c.006.143.036.284.089.418a1.013 1.013 0 0 0 1.085.774l34.324-1.339c.119-.008.237-.031.351-.068l5.392 137.478-130.186 5.087Z"/><path fill="#fff" d="m171.371 272.182 25.871 2.975.566.062-23.581-29.671-3.076 26.608.22.026ZM157.484 280.479l3.547-30.691-100.195-11.529-.231-.031-.026.235c-.985 8.547-1.972 17.087-2.961 25.62l-.555 4.852 100.185 11.502.236.042Z"/><path fill="#fff" d="m198.259 277.149-28.125-3.242a1.218 1.218 0 0 1-.272-.068h-.048a.714.714 0 0 1-.514-.275.704.704 0 0 1-.135-.566l3.317-28.663.057-.303-77.656-8.946-.524 4.706c0 .068-.027.125-.042.188l-.09.272.283.031 67.528 7.738a1.05 1.05 0 0 1 .906.947.979.979 0 0 1 0 .324 38297.43 38297.43 0 0 0-3.715 32.176c-.013.08-.032.158-.058.235v.047a.714.714 0 0 1-.076.297.719.719 0 0 1-.773.393c-22.596-2.603-45.191-5.204-67.784-7.801h-.236l-11.88 102.85-.026.235.372.042c35.485 4.085 70.965 8.169 106.443 12.25h.235l13.023-112.611v-.23l-.21-.026Z"/><path fill="#000" d="M200.428 275.167c0-.031-.037-.068-.058-.094a20178.58 20178.58 0 0 1-25.903-32.584 1.05 1.05 0 0 0-.623-.392 1.6 1.6 0 0 0-.299-.068l-79.428-9.139a.917.917 0 0 0-.7.15.92.92 0 0 0-.385.603 1.263 1.263 0 0 0-.152.481c-.22 1.875-.436 3.754-.65 5.636l-32.123-3.691a.922.922 0 0 0-1.048.648 1.245 1.245 0 0 0-.472.847 31129.653 31129.653 0 0 0-3.715 32.176.97.97 0 0 0 .678 1.082.993.993 0 0 0 .459.027c.11.053.23.087.351.099l31.856 3.66-12.026 103.9a.927.927 0 0 0 .446.967c.109.064.23.105.355.121.122.061.253.101.388.12 36.281 4.183 72.556 8.355 108.827 12.517a.928.928 0 0 0 .741-.174.934.934 0 0 0 .364-.668c.079-.142.129-.299.147-.46a686605.5 686605.5 0 0 1 13.279-114.896.926.926 0 0 0-.309-.868Zm-26.045-29.033 22.885 28.788-25.872-2.975 2.987-25.813ZM57.319 268.715a47510.24 47510.24 0 0 0 3.49-30.225l99.965 11.502a71468.37 71468.37 0 0 0-3.495 30.226l-99.96-11.503Zm127.917 121.071L78.653 377.515 90.522 274.88l67.784 7.801a.949.949 0 0 0 1.007-.508.943.943 0 0 0 .099-.386c.032-.09.054-.183.068-.278 1.237-10.728 2.475-21.454 3.715-32.176a1.114 1.114 0 0 0 0-.407 1.244 1.244 0 0 0-.355-.76 1.26 1.26 0 0 0-.756-.365l-67.564-7.774a.827.827 0 0 0 .053-.23l.524-4.45 77.175 8.889v.083l-3.312 28.647a.952.952 0 0 0 .011.387.952.952 0 0 0 .461.603.937.937 0 0 0 .371.113c.107.04.218.069.331.084l28.125 3.236c-4.35 37.461-8.691 74.926-13.023 112.397Z"/><path fill="#000" stroke="#000" stroke-miterlimit="10" stroke-width=".9" d="M80.12 245.496c1.994-.074 3.99.01 5.97.251 3.08.366 5.12 1.119 6.408 2.489a5.444 5.444 0 0 1 1.337 4.501 5.745 5.745 0 0 1-1.473 3.17 5.767 5.767 0 0 1-3.04 1.735v.094c1.458.747 2.207 2.347 2.5 4.475.357 2.74.635 5.281.98 6.159l-4.035-.475a30.404 30.404 0 0 1-.833-5.229c-.278-2.86-1.19-3.869-3.406-4.183l-1.97-.23-1.049 8.784-3.877-.455 2.489-21.086Zm2.762 9.908 2.322.272c2.62.308 4.454-.889 4.716-3.017.278-2.343-1.247-3.618-3.789-3.916a11.1 11.1 0 0 0-2.436-.094l-.813 6.755ZM100.93 263.183l-2.562 5.841-4.035-.476 9.391-20.569 4.988.586 4.439 22.194-4.192-.491-1.221-6.274-6.808-.811Zm6.483-2.232-1.048-5.459c-.257-1.349-.435-2.849-.608-4.125h-.063c-.466 1.197-.959 2.651-1.488 3.874l-2.28 5.072 5.487.638ZM117.803 271.314l-2.725-21.996 4.167.491.885 9.934c.236 2.662.419 5.449.524 7.618h.063c.618-2.211 1.52-4.674 2.442-7.32l3.464-9.411 4.098.481.969 10.081c.241 2.614.404 5.035.451 7.388h.063c.66-2.301 1.457-4.706 2.337-7.216l3.364-9.411 3.978.465-8.28 20.7-4.192-.492-1.048-10.315a60.754 60.754 0 0 1-.372-6.928h-.063c-.655 2.238-1.31 4.251-2.233 6.619l-3.668 9.762-4.224-.45Z"/><path fill="#FF490C" stroke="#fff" stroke-miterlimit="10" stroke-width=".9" d="M150.247 305.299c-20.003-8.057-42.83 4.089-47.383 25.097-3.506 16.15 5.628 33.18 20.961 39.36 15.616 6.274 33.538.46 42.688-13.594 11.262-18.028 3.736-42.785-16.266-50.863Z"/><path fill="#fff" d="M150.253 305.299c-20.008-8.057-42.835 4.094-47.394 25.097-3.5 16.151 5.633 33.18 20.961 39.355 15.617 6.274 33.539.465 42.688-13.594 11.267-18.023 3.742-42.78-16.255-50.858Zm-13.243 64.912c-11.314.104-21.967-6.102-27.904-15.602-5.843-9.343-6.289-21.311-1.609-31.203 4.789-10.118 14.778-17.03 25.85-18.347 12.577-1.501 24.976 4.768 31.621 15.398 6.644 10.629 6.215 24.176-.32 34.644a33.16 33.16 0 0 1-11.907 11.035 33.255 33.255 0 0 1-15.731 4.075Z"/><path fill="#fff" d="M164.726 325.1c-4.114-9.511-13.431-16.162-23.613-17.589a30.703 30.703 0 0 0-14.633 1.656 30.63 30.63 0 0 0-12.166 8.278c-6.87 7.618-9.15 18.394-6.525 28.234 3.097 11.597 13.374 20.239 25.18 21.897 11.807 1.657 23.309-3.989 29.713-13.793a30.736 30.736 0 0 0 2.044-28.683Zm.099 8.423-15.993 8.731c.314-9.937.627-19.871.938-29.802.639.314 1.268.648 1.881 1.014a27.506 27.506 0 0 1 8.897 8.518 27.424 27.424 0 0 1 4.277 11.539Zm-37.384 8.977.351-11.131 9.118-4.973 10.067 6.39c-.115 3.555-.229 7.11-.341 10.666l-9.516 5.192-9.679-6.144Zm20.207-31c-.2 6.275-.397 12.537-.593 18.786-8.531-5.409-17.06-10.823-25.588-16.239 7.761-5.187 17.649-5.929 26.181-2.547Zm-28.047 3.911 15.229 9.668-25.966 14.169a28.572 28.572 0 0 1 2.484-13.212 28.641 28.641 0 0 1 8.253-10.625Zm-10.04 28.48a25.718 25.718 0 0 1-.456-2.322l16.491-9.003c-.314 10.084-.632 20.17-.954 30.257a28.915 28.915 0 0 1-9.625-7.813 28.827 28.827 0 0 1-5.456-11.119Zm22.748 21.4a26.914 26.914 0 0 1-5.539-1.527c.196-6.253.393-12.508.592-18.765l25.154 15.973a28.545 28.545 0 0 1-20.207 4.319Zm28.513-12.622a28.712 28.712 0 0 1-6.404 6.954l-15.234-9.646 25.856-14.117a28.668 28.668 0 0 1-4.218 16.809ZM270.813 272.527l-.126-.199-6.572 4.089-14.28 8.888a.798.798 0 0 1-1.006-.057.942.942 0 0 1-.283-.303l-6.356-10.154a3312.793 3312.793 0 0 1-6.582-10.562l-.121-.198-20.841 12.956a45934.902 45934.902 0 0 0-36.572 22.775l-.204.12.125.199.959 1.537.896 1.438c4.116 6.567 8.226 13.134 12.331 19.701l4.423 7.074.031.052 31.128 49.77 16.156 25.824 79.203-49.31-52.309-83.64Z"/><path fill="#000" d="m325.369 355.775-53.31-85.225c0-.031-.052-.057-.073-.094a1.058 1.058 0 0 0-.718-.523l-35.278-8.145a1.013 1.013 0 0 0-1.017.083l-58.933 36.678a1.113 1.113 0 0 0-.492.606 1.042 1.042 0 0 0 .063 1.072c.524.816 1.016 1.626 1.525 2.442l17.418 27.836 48.044 76.807c.105.176.255.32.435.418a1.045 1.045 0 0 0 1.2 0l80.702-50.267a1.092 1.092 0 0 0 .524-.862 1.045 1.045 0 0 0-.09-.826Zm-57.434-84.226-18.179 11.335-11.371-18.132 29.55 6.797Zm-23.943 133.603a1657694.58 1657694.58 0 0 0-47.163-75.41v-.037L180.06 302.92c-.619-.988-1.232-1.982-1.855-2.975l57.172-35.596c4.325 6.902 8.646 13.807 12.964 20.716.089.153.213.282.362.376a1.046 1.046 0 0 0 1.253.063 14095.39 14095.39 0 0 1 20.652-12.862 350017 350017 0 0 1 52.188 83.441l-78.804 49.069Z"/><path fill="#fff" d="m268.543 271.455-.556-.125-29.55-6.823-.524-.131 11.78 18.822 18.85-11.743Z"/><path fill="#FF490C" d="m267.049 320.509 2.332 3.544 9.433-5.463-17.964-7.487.419.643a755.09 755.09 0 0 1 5.78 8.763ZM227.794 351.482l.476.152 31.107 9.903 7.421 2.363-29.682-18.394-9.322 5.976ZM236.09 344.356l-7.662-13.459-1.524 19.346.398-.251 8.599-5.516.189-.12ZM234.591 338.631l2.159 3.795.121-.622c1.359-7.145 2.719-14.291 4.082-21.436l.241-1.276-4.014 3.09-8.149 6.248-.162.125.104.178c1.863 3.298 3.735 6.597 5.618 9.898ZM257.8 320.943l9.585 2.818-8.767-13.338-6.1 2.876-6.535 3.074-1.43.664.592.172 12.655 3.734ZM238.631 342.787l25.709-15.685 2.95-1.799-5.717-1.683-18.404-5.407-.252-.073-4.716 24.903.43-.256ZM238.567 344.612l.325.199 26.805 16.616 5.974 3.697-3.144-38.754-29.96 18.242ZM274.753 322.726l-4.664 2.677-.131.073 2.856 34.795 6.744-40.322-4.805 2.777Z"/><path fill="#000" d="M281.538 318.423a.94.94 0 0 0-.377-.712.97.97 0 0 0-.325-.188l-21.124-8.81a2.475 2.475 0 0 0-.304-.104 1.044 1.044 0 0 0-.974 0 4.778 4.778 0 0 0-.661.266l-5.324 2.51-10.282 4.847a.706.706 0 0 0-.146.052h-.042a.775.775 0 0 0-.467.34l-8.541 6.551-4.858 3.723a7.82 7.82 0 0 0-.697.575.99.99 0 0 0-.524.967c0 .094-.032.194-.042.304l-1.808 22.926a1.103 1.103 0 0 0 .917 1.046l46.231 14.718a.874.874 0 0 0 .749-.073.806.806 0 0 0 .587-.685c2.672-15.985 5.347-31.968 8.023-47.95a.962.962 0 0 0-.011-.303Zm-10.14 46.256-32.385-20.062 29.288-17.845 3.097 37.907Zm-1.923-40.934-7.965-12.13 16.816 6.991-8.851 5.139Zm-30.971 18.823c1.538-8.045 3.07-16.09 4.596-24.135l23.619 6.97-28.215 17.165Zm-1.388 3.226 27.947 17.311-36.72-11.691 8.773-5.62Zm-9.957 4.005 1.441-18.122 7.169 12.6-8.61 5.522Zm43.034-24.172 9.029-5.228-6.351 37.964c-.884-10.91-1.777-21.822-2.678-32.736Zm-17.581-12.119 5.518-2.614.393-.189 8.3 12.632-21.621-6.352 7.41-3.477Zm-11.765 6.143-4.192 22.106c-2.488-4.381-4.98-8.763-7.478-13.144l11.67-8.962Z"/><path fill="#FF490C" d="M539.941 307.579a5.161 5.161 0 0 0 5.167-5.156 5.16 5.16 0 0 0-5.167-5.155 5.161 5.161 0 0 0-5.167 5.155 5.162 5.162 0 0 0 5.167 5.156Z"/><path fill="#000" d="M539.936 308.285a5.89 5.89 0 0 1-2.921-.778 5.863 5.863 0 0 1-2.951-5.032 5.842 5.842 0 0 1 2.884-5.091 5.882 5.882 0 0 1 5.881-.047 5.853 5.853 0 0 1-2.893 10.948Zm0-10.316a4.464 4.464 0 0 0-3.734 2.015 4.445 4.445 0 0 0 .799 5.795 4.475 4.475 0 0 0 2.93 1.099 4.487 4.487 0 0 0 3.894-2.274 4.414 4.414 0 0 0 .403-3.383 4.474 4.474 0 0 0-4.286-3.252h-.006Z"/><path fill="#FF490C" d="M372.506 239.174a5.16 5.16 0 0 0 5.167-5.155 5.16 5.16 0 0 0-5.167-5.155 5.161 5.161 0 0 0-5.167 5.155 5.161 5.161 0 0 0 5.167 5.155Z"/><path fill="#000" d="M372.501 239.881a5.869 5.869 0 0 1-5.428-3.619 5.85 5.85 0 0 1 1.274-6.387 5.872 5.872 0 0 1 3.008-1.604 5.872 5.872 0 0 1 6.03 2.492 5.848 5.848 0 0 1-.732 7.399 5.889 5.889 0 0 1-4.152 1.719Zm0-10.311a4.467 4.467 0 0 0-4.126 2.751 4.45 4.45 0 0 0 3.258 6.073 4.468 4.468 0 0 0 4.582-1.898 4.45 4.45 0 0 0-.559-5.623 4.47 4.47 0 0 0-3.155-1.303Z"/><path fill="#FF490C" d="M234.674 309.32a5.125 5.125 0 0 0 5.131-5.119 5.124 5.124 0 0 0-5.131-5.118 5.124 5.124 0 0 0-5.13 5.118 5.125 5.125 0 0 0 5.13 5.119Z"/><path fill="#000" d="M234.675 310.026h-.419a5.843 5.843 0 0 1-4.654-2.923 5.81 5.81 0 0 1 1.697-7.632 5.849 5.849 0 0 1 5.457-.684 5.83 5.83 0 0 1 2.321 1.624 5.738 5.738 0 0 1 1.41 4.224 5.83 5.83 0 0 1-1.849 3.829 5.86 5.86 0 0 1-3.963 1.562Zm0-10.238a4.435 4.435 0 0 0-4.063 2.661 4.41 4.41 0 0 0 .83 4.778 4.437 4.437 0 0 0 6.768-.36c.52-.688.827-1.513.883-2.373a4.405 4.405 0 0 0-1.074-3.198 4.431 4.431 0 0 0-3.024-1.508c-.115-.005-.225-.005-.33-.005l.01.005Z"/><path fill="#FF490C" d="M150.53 296.332a4.654 4.654 0 0 0 4.659-4.648 4.654 4.654 0 0 0-4.659-4.648 4.654 4.654 0 0 0-4.659 4.648 4.654 4.654 0 0 0 4.659 4.648Z"/><path fill="#000" d="M150.535 297.038h-.272a5.39 5.39 0 0 1-5.256-5.446 5.374 5.374 0 0 1 1.603-3.76 5.398 5.398 0 0 1 7.578 0 5.374 5.374 0 0 1 .096 7.559 5.394 5.394 0 0 1-3.749 1.647Zm0-9.296a3.967 3.967 0 0 0-3.867 4.006 3.954 3.954 0 0 0 1.18 2.767 3.971 3.971 0 0 0 5.574 0 3.954 3.954 0 0 0 .07-5.562 3.969 3.969 0 0 0-2.757-1.211h-.2Z"/><path fill="#FF490C" d="M160.507 150.243a4.967 4.967 0 0 0 4.973-4.962 4.967 4.967 0 0 0-4.973-4.962 4.968 4.968 0 0 0-4.973 4.962 4.967 4.967 0 0 0 4.973 4.962Z"/><path fill="#000" d="M160.496 150.949a5.688 5.688 0 0 1-3.845-1.522 5.661 5.661 0 0 1-.578-7.667 5.683 5.683 0 0 1 3.575-2.079c.284-.041.571-.062.859-.062a5.682 5.682 0 0 1 3.866 1.506 5.656 5.656 0 0 1 .583 7.686 5.677 5.677 0 0 1-3.595 2.07 6.1 6.1 0 0 1-.865.068Zm0-9.934a4.268 4.268 0 0 0-3.442 1.735 4.256 4.256 0 0 0-.781 3.164 4.297 4.297 0 0 0 4.192 3.618c.218-.002.435-.019.65-.052a4.272 4.272 0 0 0 2.702-1.555 4.253 4.253 0 0 0-3.342-6.91h.021Z"/><path fill="#FF490C" d="M326.26 124.811a4.915 4.915 0 0 0 4.921-4.909 4.915 4.915 0 0 0-4.921-4.91 4.915 4.915 0 0 0-4.92 4.91 4.915 4.915 0 0 0 4.92 4.909Z"/><path fill="#000" d="M326.265 125.518a5.63 5.63 0 0 1-3.802-1.478 5.608 5.608 0 0 1-.654-7.562 5.635 5.635 0 0 1 4.467-2.19 5.632 5.632 0 0 1 3.819 1.466 5.604 5.604 0 0 1 .655 7.578 5.626 5.626 0 0 1-3.51 2.098 5.49 5.49 0 0 1-.975.088Zm0-9.824c-.245 0-.491.021-.733.063a4.22 4.22 0 0 0-2.599 1.588 4.199 4.199 0 0 0 .496 5.649 4.227 4.227 0 0 0 2.836 1.113c.246-.001.492-.022.734-.063a4.222 4.222 0 0 0 2.663-1.564 4.201 4.201 0 0 0-.494-5.716 4.224 4.224 0 0 0-2.892-1.086l-.011.016Z"/><path fill="#FF490C" d="M466.817 167.586a5.376 5.376 0 0 0 5.382-5.369c0-2.966-2.41-5.37-5.382-5.37a5.376 5.376 0 0 0-5.382 5.37 5.376 5.376 0 0 0 5.382 5.369Z"/><path fill="#000" d="M466.818 168.292a6.007 6.007 0 0 1-1.363-.151 6.097 6.097 0 0 1-3.597-2.411 6.065 6.065 0 0 1 .905-8.03 6.102 6.102 0 0 1 4.044-1.554c.459.001.916.052 1.363.152a6.085 6.085 0 0 1 3.597 2.411 6.064 6.064 0 0 1-.905 8.03 6.096 6.096 0 0 1-4.044 1.553Zm0-10.739a4.687 4.687 0 0 0-3.113 1.189 4.664 4.664 0 0 0-.702 6.175 4.688 4.688 0 0 0 3.815 1.974 4.685 4.685 0 0 0 3.309-1.368 4.664 4.664 0 0 0 0-6.603 4.688 4.688 0 0 0-3.309-1.367ZM112.369 161.411a7.223 7.223 0 0 0-4.438.821.402.402 0 0 0-.142-.12c-.587-.293-1.195.22-1.619.596a3.13 3.13 0 0 0-.938 1.427.443.443 0 0 0 .043.402.452.452 0 0 0 .35.205 8.97 8.97 0 0 0-.624 3.827c.037.659 1.048.863 1.2.162.346-1.516.315-2.99 1.179-4.35 1.101-1.725 3.317-1.432 4.989-1.976.44-.131.54-.91 0-.994ZM208.206 149.004a.297.297 0 0 0 0-.073c-.042-1.496-1.163-2.463-2.525-2.928a4.507 4.507 0 0 0-.918-.392 1.752 1.752 0 0 0 .713-1.198c.115-1.27-1.158-2.583-2.196-3.137a.556.556 0 0 0-.7.145.552.552 0 0 0 .035.713c.356.449 2.185 1.83 1.373 2.447l-.068.047-.315.125a5.535 5.535 0 0 1-.959.23.637.637 0 0 0-.445.445.521.521 0 0 0 0 .34c-.184 0-.362 0-.524.047a.57.57 0 1 0 0 1.139c.524 0 1.001.027 1.493.058l.488.042a3.455 3.455 0 0 1 2.714 1.464c.692 1.045.477 2.353 1.048 3.398a.522.522 0 0 0 .746.106.519.519 0 0 0 .166-.221c.071-.303.099-.614.084-.925a3.803 3.803 0 0 0-.21-1.872ZM182.082 146.829c-.367-.523-1.006-.596-1.205-1.281-.168-.564-.095-1.485-.723-1.767a.37.37 0 0 0-.425.052c-.524.497-.199 1.82 0 2.426.252.69 1.08 1.454 1.85 1.412a.566.566 0 0 0 .503-.842ZM182.575 122.919a2.888 2.888 0 0 0-3.543-.617 1.703 1.703 0 0 0-.524.465 4.26 4.26 0 0 0-1.399-2.17 4.031 4.031 0 0 0-2.709-1.223 4.203 4.203 0 0 0-.99 0 3.401 3.401 0 0 0-1.641.324.388.388 0 0 0 0 .659c1.158.586 2.568.23 3.794.795 1.719.794 1.227 2.347 1.866 3.733a.457.457 0 0 0 .312.237.44.44 0 0 0 .201-.005.441.441 0 0 0 .179-.091.893.893 0 0 0 .424.57.443.443 0 0 0 .524-.068c.592-.523.053-1.427.603-2.029.55-.601 1.572.162 2.096.46.697.403 1.231-.496.807-1.04ZM215.243 250.938c.069-.835.069-1.674 0-2.509a10.165 10.165 0 0 0-.455-2.918.47.47 0 0 0-.802-.176.47.47 0 0 0-.121.302c-.12 2.091.079 4.078-.524 6.122-.712 2.358-4.894 2.41-6.854 3.054a.626.626 0 0 0-.14 1.144.616.616 0 0 0 .475.058c1.53-.251 3.448-.47 5.036-1.14.038.039.083.07.131.094.183.088.38.141.582.157a.596.596 0 0 0 .382.183c.46.016.909-.145 1.253-.449a.523.523 0 0 0 .674-.022.518.518 0 0 0 .138-.198c.414-1.009.676-2.63.225-3.702ZM106.448 130.072c-.634-.167-1.215-.146-1.766-.575a2.67 2.67 0 0 1-.938-2.055.526.526 0 0 0-.262-.471 1.723 1.723 0 0 1 .346-1.071c.561-.617 1.572-.523 2.327-.654.754-.131.471-1.14-.168-1.203a4.112 4.112 0 0 0-3.144.895c-.681.59-1.158 2.164-.587 2.938a.644.644 0 0 0 .309.23c.054.83.405 1.614.991 2.206.655.701 1.918 1.266 2.871.994a.646.646 0 0 0 .474-.609.648.648 0 0 0-.453-.625ZM170.212 153.814a.478.478 0 0 0-.472-.222.478.478 0 0 0-.398.337c-.272.648 0 1.38-.283 2.049-.283.67-1.215.643-1.75 1.124a.565.565 0 0 0-.14.531.562.562 0 0 0 .381.395c.954.308 2.065-.429 2.573-1.192.508-.764.634-2.269.089-3.022ZM167.279 126.998a4.906 4.906 0 0 0-3.6-.209c-.404.183-.215.711.11.836.786.309 1.739.178 2.567.361.97.214.802 1.114 1.201 1.793a.529.529 0 0 0 .828.155.531.531 0 0 0 .157-.28 2.487 2.487 0 0 0-1.263-2.656ZM75.253 132.901h-.184a3.795 3.795 0 0 0-3.202.899c-.749.669-1.142 2.384-.524 3.231a.528.528 0 0 0 .454.261.523.523 0 0 0 .453-.261c.372-.742-.052-1.631.56-2.306.614-.674 1.646-.523 2.406-.836a.446.446 0 0 0 .262-.392l.026-.032c.136-.193.068-.606-.251-.564ZM76.138 163.225c-.938-.251-1.54-.523-1.897-1.479-.262-.717-.167-1.527-.524-2.191a.459.459 0 0 0-.453-.221.46.46 0 0 0-.385.325c-.398.978 0 2.348.482 3.237a2.763 2.763 0 0 0 2.777 1.448c.587-.094.53-.983 0-1.119ZM163.091 140.968a.78.78 0 0 0-.461-.303c-1.048-.806-2.536.486-2.201 1.725.084.314.22.622.592.633a.309.309 0 0 0 .19-.064.297.297 0 0 0 .109-.167.455.455 0 0 0 .105-.25c.047-.377.037-.811.403-1.046.367-.235.787.136 1.143-.094a.339.339 0 0 0 .144-.194.328.328 0 0 0-.024-.24ZM159.434 146.5a.22.22 0 0 0-.157-.204c-.367-.131-.718.141-1.048.293a4.653 4.653 0 0 0-.477.271c-.138.066-.26.16-.357.278a1.743 1.743 0 0 0-.251.271c-.456.591-.561 1.616.131 2.092.11.129.25.23.409.293.128.075.276.11.424.099a.358.358 0 0 0 .275-.142.35.35 0 0 0 .06-.302c-.099-.492-.67-.691-.581-1.276.068-.419.44-.523.67-.737.435-.293.865-.56.902-.936ZM164.092 147.341c-.267-.387-.975-1.046-1.467-.784a.249.249 0 0 0-.126.219c.047.366.33.455.613.649a.766.766 0 0 1 .422.789.752.752 0 0 1-.107.298c-.252.377.309.795.618.476a1.287 1.287 0 0 0 .047-1.647ZM165.565 144.785c-.141-.257-.623-.236-.67.088-.048.325 0 .461-.299.56a1.432 1.432 0 0 1-.87-.11.348.348 0 0 0-.346.094.327.327 0 0 0-.099.204v.042a.351.351 0 0 0 .256.34 1.896 1.896 0 0 0 1.541 0 .941.941 0 0 0 .487-1.218ZM331.201 118.281v-.032a.425.425 0 0 0-.209-.522 1.696 1.696 0 0 0-.616-.492 1.702 1.702 0 0 0-.773-.157.392.392 0 0 0-.33 0l-.052.037a1.798 1.798 0 0 0-1.09.884 3.324 3.324 0 0 0-.299.329.428.428 0 0 0-.079.183.298.298 0 0 0 0 .308.38.38 0 0 0 .084.095.31.31 0 0 0 .309 0 2.47 2.47 0 0 0 .278-.183.272.272 0 0 0 .105-.068v-.032c.115-.089.225-.183.33-.272l.147-.115c.15-.077.314-.125.482-.141.524-.031.739.413.969.774.231.361.734.204.703-.194v-.13a.332.332 0 0 0 .041-.272ZM324.373 119.552a1.426 1.426 0 0 0-.687-.324 5.376 5.376 0 0 0-.765-.167 1.335 1.335 0 0 0-1.142.272c-.524.491-.812 1.652-.33 2.269.047.245.141.48.277.69.205.303.781.23.744-.199-.052-.601-.424-1.244 0-1.788.425-.544 1.206-.094 1.746-.24a.31.31 0 0 0 .233-.371.322.322 0 0 0-.076-.142ZM330.216 122.72a.53.53 0 0 0-.152-.157.436.436 0 0 0-.435 0 .675.675 0 0 1-.681.152c-.236-.099-.32-.319-.482-.497-.162-.177-.524-.026-.524.225a1.168 1.168 0 0 0 .796 1.046 1.419 1.419 0 0 0 1.436-.262.415.415 0 0 0 .042-.507ZM326.963 121.983a.259.259 0 0 0-.257.068c-.33.34-.068.936-.074 1.36a.688.688 0 0 1-.403.632c-.225.095-.456 0-.66.168a.246.246 0 0 0-.114.152.248.248 0 0 0 .025.188c.461.648 1.446.068 1.776-.429.33-.497.44-1.929-.293-2.139Z"/><path fill="#000" d="M471.507 164.046a1.942 1.942 0 0 0-1.163-1.432 1.113 1.113 0 0 0-1.164-.314.25.25 0 0 0-.184.258.242.242 0 0 0 .032.108c.156.195.355.35.582.455.374.245.648.616.77 1.046a1.664 1.664 0 0 1-.267 1.364c-.189.309-.44.408-.524.774a.25.25 0 0 0 .168.298 1.018 1.018 0 0 0 1.095-.627c.634-.366.744-1.297.655-1.93ZM467.232 158.985a1.98 1.98 0 0 0-.933-1.72 2.058 2.058 0 0 0-2.175.288l-.047.036c-.489.187-.924.49-1.268.884-.168.214 0 .632.299.523.524-.189.953-.523 1.472-.743a1.502 1.502 0 0 1 1.048-.057c.09.052.176.112.257.177.216.214.394.463.524.738 0 .073.047.146.068.214a.406.406 0 0 0 .781-.214 1.083 1.083 0 0 1-.026-.126ZM463.709 163.733a.628.628 0 0 0-.524-.058.933.933 0 0 1-.691.032c-.309-.173-.247-.675-.524-.889a.245.245 0 0 0-.195-.062.238.238 0 0 0-.172.109c-.309.434.031 1.171.398 1.464.238.177.532.264.828.246.341.03.68-.075.943-.293a.349.349 0 0 0-.063-.549ZM465.276 164.617a.237.237 0 0 0-.163-.215c-.587-.224-1.31.612-1.472 1.104a1.39 1.39 0 0 0 .571 1.667.445.445 0 0 0 .451 0l.052-.031a.346.346 0 0 0 .178-.303c0-.466-.623-.586-.393-1.114.184-.418.771-.622.776-1.108ZM377.344 235.238a.319.319 0 0 0-.309-.236.799.799 0 0 0-.572.366c-.19.226-.395.439-.613.638a.21.21 0 0 0-.057.089 1.922 1.922 0 0 0-.896-.314c-.168 0-1.169-.109-.975.366.251.617 1.289.199 1.504.774.126.34-.446.774-.639.978a.942.942 0 0 0-.331.868.299.299 0 0 0 .139.177.292.292 0 0 0 .223.027c.44-.249.817-.596 1.1-1.014.178-.229.3-.496.357-.78h.073a.597.597 0 0 0 .309-.763c.362-.324.786-.742.687-1.176ZM149.351 287.71a.357.357 0 0 0 .075-.388.363.363 0 0 0-.327-.223c-1.572.047-2.138 2.682-.77 3.403.074.036.158.049.24.036a.406.406 0 0 0 .315-.558c-.23-.403-.524-.696-.435-1.198.089-.502.519-.763.902-1.072ZM151.237 295.6c-.56 0-.917-.151-1.1-.727-.152-.475.084-.935 0-1.406a.304.304 0 0 0-.386-.22.311.311 0 0 0-.138.089c-.587.523-.435 1.632-.115 2.275a1.57 1.57 0 0 0 1.949.763c.419-.199.199-.774-.21-.774ZM153.108 287.705c-.12 0-.267.11-.251.251.01.18.091.35.225.471.209.228.359.505.435.805.22.727-.901.617-1.048 1.181a.278.278 0 0 0 .073.272c.629.523 1.504-.381 1.714-.941.21-.559-.398-2.086-1.148-2.039ZM154.533 291.71a2 2 0 0 0-1.163-.314 1.947 1.947 0 0 0-1.363.476.284.284 0 0 0-.067.121.269.269 0 0 0 .188.329c.524.146 1.048-.199 1.572-.094.917.183.445.993.493 1.605a.324.324 0 0 0 .555.225 1.614 1.614 0 0 0 .405-1.221 1.617 1.617 0 0 0-.62-1.127ZM232.84 300.123c.278-.23 0-.748-.351-.612a2.358 2.358 0 0 0-1.1.889.295.295 0 0 0-.157.125 3.81 3.81 0 0 0-.289.523.382.382 0 0 0-.104.079 1.127 1.127 0 0 0-.277.486 1.15 1.15 0 0 0-.012.559.379.379 0 0 0 .729-.036 1.105 1.105 0 0 0 .802.706c.304.052.676-.267.45-.581-.225-.313-.524-.475-.56-.894-.032-.538.492-.936.869-1.244ZM237.258 307.83c-.487.172-.969.418-1.362-.094-.393-.513 0-1.145-.278-1.668a.328.328 0 0 0-.246-.166.323.323 0 0 0-.278.103 1.72 1.72 0 0 0-.293 1.286c.017.281.101.554.246.795a.438.438 0 0 0-.362.523c.052.178.16.334.308.446a.86.86 0 0 0 .515.171.345.345 0 0 0 .334-.217.348.348 0 0 0 .023-.139 1.575 1.575 0 0 0 1.844-.408c.236-.313-.126-.753-.451-.632ZM238.752 300.829c-.115-.68-1.137-1.611-1.834-1.25a.214.214 0 0 0-.079.288.857.857 0 0 0 .477.392 1.262 1.262 0 0 1 .666.779c.199.669-.723 1.004-.676 1.621a.272.272 0 0 0 .272.271c.907-.01 1.295-1.411 1.174-2.101ZM239.06 303.584a2.325 2.325 0 0 0-2.248.439.38.38 0 0 0-.136.523.382.382 0 0 0 .524.136c.451-.256 1.006-.554 1.535-.33.441.189.2.68.467.983a.322.322 0 0 0 .32.084h.068a.424.424 0 0 0 .304-.303 1.38 1.38 0 0 0-.834-1.532ZM538.154 297.886s0 .032 0 0c0 0 .021-.028 0 0ZM538.097 298.152a.302.302 0 0 0-.061-.37.299.299 0 0 0-.117-.064c-.771-.209-1.384.706-1.541 1.344a1.895 1.895 0 0 0 1.142 2.154.44.44 0 0 0 .425-.732c-.435-.361-.818-.706-.671-1.328.105-.481.576-.638.823-1.004ZM541.901 297.728c-.089.032-.188.12-.173.225.063.486.593.711.724 1.202.194.706-.776.999-.87 1.6a.303.303 0 0 0 .053.256.296.296 0 0 0 .235.116c.849 0 1.457-1.192 1.431-1.924-.027-.586-.703-1.721-1.4-1.475ZM540.663 306.198a1.763 1.763 0 0 0-.152-1.391c-.157-.24-.597-.24-.655.084-.089.471.079.952-.157 1.396-.236.444-.98.371-1.43.361a.309.309 0 0 0-.084.606 2.091 2.091 0 0 0 1.64-.031.251.251 0 0 0 .042.089l.063.083a.415.415 0 0 0 .487.063c.265-.162.481-.394.624-.669a.39.39 0 0 0-.001-.415.383.383 0 0 0-.377-.176ZM537.636 301.948a1.875 1.875 0 0 0-2.233-.1c-.728.575-.786 1.537-.613 2.379a.438.438 0 0 0 .32.319.42.42 0 0 0 .356-.042.492.492 0 0 0 .215-.523 1.665 1.665 0 0 1 .241-1.437c.367-.413 1.048-.053 1.467 0a.35.35 0 0 0 .321-.217.354.354 0 0 0-.074-.379ZM178.189 248.246a3.932 3.932 0 0 0-2.411-1.313 2.273 2.273 0 0 0-.524-.611l-.042-.032a.574.574 0 0 0-.283-.455.53.53 0 0 0-.608.042.665.665 0 0 0-.629.633c0 .219-.036.439-.052.659a.52.52 0 0 0 .162.413c-1.016.936-1.771 2.938-1.074 4.182a.442.442 0 0 0 .75 0c.524-.773.319-1.871.801-2.718.765-1.37 2.096-.623 2.945.167a.69.69 0 0 0 .925-.044.683.683 0 0 0 .04-.923Z"/><path fill="#000" d="M173.677 245.532c.152-1.229-.964-2.154-2.358-2.719a6.387 6.387 0 0 0-4.193-.737.454.454 0 0 0-.272.249.448.448 0 0 0 .005.368.37.37 0 0 0 .204.371c.797.408 1.756.439 2.621.659a8.85 8.85 0 0 1 1.519.523 3.133 3.133 0 0 1 1.096 2.734c-.037.727.943.738 1.173.157a2.8 2.8 0 0 0 .205-1.605ZM198.212 276.84a5.042 5.042 0 0 0-2.662-1.166c.3-.109.577-.272.818-.481.095-.083.181-.176.256-.277.122.187.26.362.414.523a.701.701 0 0 0 .975 0 .711.711 0 0 0 0-.978 3.026 3.026 0 0 0-.718-.669.524.524 0 0 0-.178-.073 1.916 1.916 0 0 0-.828-1.961.538.538 0 0 0-.27-.083.533.533 0 0 0-.472.27.52.52 0 0 0-.065.273c-.052.759.749 1.47-.068 2.092-.818.622-1.745.042-2.552.376-.288.115-.524.523-.204.769a2.17 2.17 0 0 0 1.048.444.417.417 0 0 0 .11.46c.812.722 1.996.591 2.955 1.046 1.436.648.619 2.614 1.274 3.749a.53.53 0 0 0 .504.23.527.527 0 0 0 .428-.35c.236-1.239.173-3.279-.765-4.194ZM173.126 272.449c-.817-.722-1.525-1.046-1.483-2.301.032-.889.346-1.72-.084-2.546a.478.478 0 0 0-.472-.222.483.483 0 0 0-.398.337c-.555 2.212-.618 4.768 1.85 5.751.566.209 1.022-.632.587-1.019ZM97.634 274.257a8.145 8.145 0 0 0-4.67.466.66.66 0 0 0-.24-.562.658.658 0 0 0-.598-.128c-.24.089-.473.198-.697.324a.64.64 0 0 0-.182-.521.589.589 0 0 0-.566-.147.587.587 0 0 0-.263.15 3.136 3.136 0 0 0-.65 1.37.548.548 0 0 0 .115.481c-.14.177-.265.364-.377.559-.12.128-.225.268-.314.419a.521.521 0 0 0-.048.366 4.618 4.618 0 0 0-.162.585.582.582 0 0 0 .183.565 9.885 9.885 0 0 0-1.257 4.852.53.53 0 1 0 1.048.146c.833-2.039.938-4.13 2.405-5.913 1.467-1.783 3.94-1.877 6.09-1.825.686-.005.859-1.066.183-1.187ZM158.846 278.346a3.126 3.126 0 0 0-.063-.491.417.417 0 0 0-.579-.25.413.413 0 0 0-.175.156 2.23 2.23 0 0 0-.158.267 1.38 1.38 0 0 0-.162.376 4.811 4.811 0 0 1-.597 1.286 1.407 1.407 0 0 1-.766.497c-.34.094-.681-.157-1.048-.141a.523.523 0 0 0-.524.685c.257.742 1.048.894 1.751.747a.39.39 0 0 0 .115.058c1.195.361 2.604-1.992 2.206-3.19ZM161.462 249.527a3.554 3.554 0 0 0-3.045-1.275c-.623 0-.812 1.014-.152 1.129.776.131 1.515.178 2.096.789.467.523.393 1.151.446 1.773a.566.566 0 0 0 1.048.282c.482-.842.141-1.955-.393-2.698ZM95.475 235.525c.744-.303 1.509.11 2.253-.068a.517.517 0 0 0 .332-.36.522.522 0 0 0-.112-.476 2.472 2.472 0 0 0-1.273-.492.526.526 0 0 0-.262-.345c-1.845-.857-3.496 2.363-2.992 3.832a.578.578 0 0 0 .047.1 4.506 4.506 0 0 0 1.048 2.734c.623.795 2.164 1.83 3.17 1.292a.532.532 0 0 0 .232-.372.52.52 0 0 0-.132-.418 1.794 1.794 0 0 0-.933-.449 3.183 3.183 0 0 1-1.237-.785c-.78-.737-.896-1.777-.933-2.786.053-.163.084-.33.121-.492.136-.366.204-.727.67-.915ZM66.046 237.961a3.738 3.738 0 0 0-1.442-.475c-2.452-.664-5.958.862-5.596 3.738a.423.423 0 0 0 0 .078 7.49 7.49 0 0 0-.173 2.552c.073.606.97.831 1.137.151.393-1.568.246-3.11 1.383-4.381 1.242-1.386 3.056-.45 4.565-.8a.498.498 0 0 0 .325-.393.492.492 0 0 0-.2-.47ZM60.265 269.458c-1.231-.884-2.232-1.438-2.62-3.027v-.241c0-.193-.042-.392-.053-.596v-.047c.003-.05.003-.101 0-.152 0-.366.058-.726.1-1.092.173-1.004.472-1.987.267-2.986a.3.3 0 0 0-.222-.224.305.305 0 0 0-.302.093c-2.17 2.463-1.572 8.042 1.53 9.553a.627.627 0 0 0 .802-.157h.047c.671.324.986-.732.451-1.124ZM186.872 386.361a4.401 4.401 0 0 0-.236-1.657.302.302 0 0 0-.109-.162.301.301 0 0 0-.369 0 .302.302 0 0 0-.109.162c-.43 1.045-.43 2.227-.781 3.32-.576 1.783-2.374 1.359-3.747 1.856a.523.523 0 1 0 0 1.046c.448.105.911.131 1.368.078 1.022.356 2.248-.319 2.95-1.046a4.325 4.325 0 0 0 1.033-3.597ZM80.64 377.995a5.195 5.195 0 0 0-.965-.376 1.618 1.618 0 0 1-.754-.978c-.152-.831.057-1.898-.09-2.567a.407.407 0 0 0-.073-.167c0-.063 0-.126-.036-.188a.337.337 0 0 0-.467-.207.339.339 0 0 0-.141.128c-.126.173-.23.361-.31.56-.922 1.877.053 4.82 2.327 4.956a.571.571 0 0 0 .493-.183.577.577 0 0 0 .209-.764.586.586 0 0 0-.193-.214ZM275.103 276.83a4.252 4.252 0 0 0-.655-.92.522.522 0 0 0-.178-.675 8.144 8.144 0 0 0-2.196-1.286l-.22-.152a.811.811 0 0 0 .205-.089.565.565 0 0 0 .199-.752c-.247-.56-1.048-.549-1.572-.466-.315.047-.618.15-.896.303a.523.523 0 0 0-.537.269.532.532 0 0 0-.061.202l-.042.047a7.743 7.743 0 0 0-1.572.115c.363-.337.623-.771.749-1.249a.814.814 0 0 0 .121 0 .703.703 0 0 0 .702-.701.7.7 0 0 0-.702-.701.7.7 0 0 0-.309.068c-.482-.805-1.541-1.443-2.358-1.171a.48.48 0 0 0-.303.273.486.486 0 0 0-.034.206.487.487 0 0 0 .059.201c.403.57 1.294.57 1.572 1.26.278.69-1.116 1.229-1.441 1.673a.47.47 0 0 0-.044.4.464.464 0 0 0 .285.285 5.881 5.881 0 0 0-1.913 1.464c-.377.434.1 1.145.634.821 2.317-1.401 4.607-2.055 6.907-1.151.189.121.372.251.524.387.812.638 1.457 1.48 2.29 2.092.514.371 1.017-.283.786-.753ZM251.266 282.241c-.367 0-.697.152-1.049.178a1.833 1.833 0 0 1-1.268-.491c-.309-.262-.744-1.417-1.331-.983-.587.434-.278 1.009.131 1.521.227.417.549.775.938 1.046a1.948 1.948 0 0 0 1.572.47.511.511 0 0 0 .32-.282 1.762 1.762 0 0 0 1.184-.559.565.565 0 0 0 .035-.606.574.574 0 0 0-.532-.294ZM237.3 264.721a.109.109 0 0 1 0-.036c-.193-.784-1.278-1.161-2.012-1.171-.938 0-2.337.245-2.856 1.108a.43.43 0 0 0 .088.533.428.428 0 0 0 .169.094.469.469 0 0 0 .236.295.485.485 0 0 0 .377.03c.812-.257 1.315-.748 2.238-.523.749.204.922 1.004 1.572 1.276a.457.457 0 0 0 .382.02.438.438 0 0 0 .257-.282 1.283 1.283 0 0 0-.451-1.344ZM245.857 404.352c-.571 0-1.022.361-1.619.267-.755-.11-.975-.706-1.499-1.124a.518.518 0 0 0-.269-.144.519.519 0 0 0-.54.223.531.531 0 0 0-.087.292c0 .978 1.017 1.684 1.845 1.977.828.292 2.216.172 2.651-.649a.556.556 0 0 0-.001-.557.573.573 0 0 0-.481-.285ZM323.703 355.728a3.712 3.712 0 0 0-1.325-3.012.44.44 0 0 0-.415-.011.437.437 0 0 0-.235.341.416.416 0 0 0-.283.413c.063.779.608 1.38.692 2.164.083.785-.483 1.166-.823 1.741a1.69 1.69 0 0 0-.294.523c-.131.403.262.664.614.612.292-.049.567-.173.796-.361a2.686 2.686 0 0 0 1.284-2.091c.003-.107 0-.213-.011-.319ZM316.005 361.767c-2.431.167-5.172 3.335-4.716 5.85a1.643 1.643 0 0 0-.383-.256 2.136 2.136 0 0 0-2.379.701c-.178.224 0 .622.304.522.524-.167.98-.585 1.572-.491.592.094.472.789.718 1.166a.369.369 0 0 0 .137.126.372.372 0 0 0 .497-.126.913.913 0 0 0 .068-.884.568.568 0 0 0 .587-.381c.435-1.14.477-2.222 1.19-3.289.712-1.067 1.708-1.406 2.657-2.044.361-.246.262-.931-.252-.894ZM315.544 383.439c-.587-.262-1.179-.299-1.572-.759a3.355 3.355 0 0 1-.178-.287c-.388-.706 0-1.569-.32-2.28a.433.433 0 0 0-.364-.309.442.442 0 0 0-.432.205 1.222 1.222 0 0 0-.131.251c-.493.805-.257 2.007.089 2.818a2.819 2.819 0 0 0 2.62 1.506c.529-.047.896-.895.288-1.145ZM444.698 373.431a.34.34 0 0 0-.278-.087.337.337 0 0 0-.246.155c-.472.811-.11 1.94-.299 2.86-.335 1.642-1.776 1.668-3.039 2.175a.594.594 0 0 0-.399.64.593.593 0 0 0 .556.511 4.244 4.244 0 0 0 2.072-.444 4.22 4.22 0 0 0 1.596-1.392c.739-1.019 1.012-3.482.037-4.418ZM440.337 246.928a5.94 5.94 0 0 0-.964-3.927.59.59 0 0 0 .498-.8c-.336-.847-.666-1.694-1.012-2.536-.345-.841-1.572-.522-1.304.351a2.5 2.5 0 0 0-.891-.356.523.523 0 0 0-.624.392 4.388 4.388 0 0 0-.849-.177 11.575 11.575 0 0 0-.775-.215 2.97 2.97 0 0 0 1.462-.596.569.569 0 0 0 .733.136c.36-.26.736-.495 1.127-.706a.66.66 0 0 0 .286-.842.66.66 0 0 0-.334-.34.663.663 0 0 0-.476-.031c.131-.523-.22-.936-.493-1.328a4.1 4.1 0 0 0-1.048-1.113.48.48 0 0 0-.33-.074l-.105-.052a.469.469 0 0 0-.571.329.469.469 0 0 0 0 .241c.231.701.818 1.171.886 1.94.078.957-1.111 1.082-1.729 1.411a.564.564 0 0 0-.277.435.562.562 0 0 0 .187.48 7.131 7.131 0 0 0-2.861.136.527.527 0 1 0 .147 1.046c1.803.073 3.375.126 4.999.946a5.577 5.577 0 0 1 1.918 1.977c.943 1.662.608 3.712 1.389 5.427a.552.552 0 0 0 .94.074.552.552 0 0 0 .108-.351c0-.465-.068-.988-.142-1.543a.661.661 0 0 0 .105-.334ZM407.392 239.739c-.855-.366-1.971-.183-2.291-1.265-.162-.56-.162-1.166-.283-1.742 0-.308-.036-.622-.057-.941-.037-.596-.985-.805-1.101-.151a9.679 9.679 0 0 0 .304 4.13.599.599 0 0 0 .523.453c.081.009.164 0 .242-.024a3.308 3.308 0 0 0 2.526.57.568.568 0 0 0 .41-.47.564.564 0 0 0-.273-.56ZM401.664 205.671a6.22 6.22 0 0 0-3.144-1.093 4.799 4.799 0 0 0-1.939-.063.376.376 0 0 0-.26.306.374.374 0 0 0 .171.363l.22.11a.528.528 0 0 0 .325.34c.552.157 1.12.257 1.693.298a6.25 6.25 0 0 1 1.131.413c1.284.648 1.63 1.699 1.714 3.027a.569.569 0 0 0 .878.463.57.57 0 0 0 .238-.311 2.202 2.202 0 0 0 .147-.784c.461-1.119-.278-2.447-1.174-3.069ZM277.42 123.531a20.08 20.08 0 0 0-3.38-.361.547.547 0 0 0-.409-.669 9.488 9.488 0 0 0-5.24.104.604.604 0 0 0-.031-.193.519.519 0 0 0-.333-.553.539.539 0 0 0-.228-.033 3.063 3.063 0 0 0-3.066 2.311.662.662 0 0 0 .304.748 5.847 5.847 0 0 0-1.153 3.106.66.66 0 0 0 0 .089 8.226 8.226 0 0 0-.697 2.844c-.047.638.917.732 1.085.151.739-2.514 1.866-4.428 4.192-5.751 2.652-1.511 5.948-.779 8.804-.575a.621.621 0 0 0 .628-.541.615.615 0 0 0-.476-.677ZM247.702 226.631c-1.483-.497-2.217-1.25-2.437-2.865-.141-1.072.315-2.196-.052-3.21-.079-.215-.393-.366-.566-.152a3.973 3.973 0 0 0-.755 2.269c-.408 1.391-.456 3.242.603 4.293a.576.576 0 0 0 .656.135.576.576 0 0 0 .193-.135 2.754 2.754 0 0 0 2.196.868.617.617 0 0 0 .162-1.203ZM376.3 136.168l-.105-1.192a.638.638 0 0 0-.671-.586.583.583 0 0 0-.98.053 5.995 5.995 0 0 0-1.891-1.747c.252-.057.497-.139.733-.245.165-.038.318-.116.446-.225.042.164.125.315.241.439a1.133 1.133 0 0 0 1.357.22.66.66 0 0 0 .279-.75.664.664 0 0 0-.646-.474.628.628 0 0 0-.293-.523.597.597 0 0 0-.205-.068v-.062c.252-.722-.167-1.328-.335-1.998a.576.576 0 0 0-.304-.36 1.827 1.827 0 0 0-1.101-1.13.441.441 0 0 0-.408.115.433.433 0 0 0-.116.408c.073.274.198.531.367.758.15.263.262.544.336.837v.099a.662.662 0 0 0 .068.188c.01.048.022.095.036.141.094.302.094.624 0 .926-.093.111-.2.21-.319.293-.45.233-.962.317-1.462.24-.524 0-.996-.261-1.441.068a.38.38 0 0 0-.131.523c.016.03.035.058.057.084l-.267.047c-.524.104-.398.763 0 .92 1.782.69 3.186 1.046 4.339 2.74 1.347 1.955.781 4.12.55 6.274-.057.523.713.669.954.256.818-1.375.912-3.283.451-5.082a.655.655 0 0 0 .304-.22 1.233 1.233 0 0 0 .157-.967ZM357.619 103.009c-.461-1.072-2.222-1.987-3.338-1.474a2.219 2.219 0 0 0-.697.523c.687-2.745-2.3-5.48-5.057-5.088-.445.063-.414.664-.115.868.975.643 2.196.628 3.144 1.438 1.106.957.524 2.248.718 3.461a.518.518 0 0 0 .713.366 5.72 5.72 0 0 0-.356 2.092.514.514 0 0 0 .317.417c.085.036.178.048.27.036a.515.515 0 0 0 .251-.103c.66-.648.524-1.663.964-2.442.671-1.223 1.834.607 2.406.9a.526.526 0 0 0 .697-.183l.099-.131a.683.683 0 0 0-.016-.68ZM350.895 127.515a3.235 3.235 0 0 1-1.122-.769 2.482 2.482 0 0 1-.335-1.568c0-.837.524-1.569.335-2.4-.063-.319-.445-.335-.655-.172-1.708 1.338-1.326 6.316 1.483 6.002a.596.596 0 0 0 .554-.438.587.587 0 0 0-.26-.655ZM277.886 81.813c-1.142-.523-2.672-.12-3.61.674-.613.523-1.489 1.695-1.384 2.646a5.465 5.465 0 0 0 0 2.327c.194.92 1.399 1.516 2.201 1.783a.6.6 0 0 0 .735-.422.592.592 0 0 0-.001-.31 1.28 1.28 0 0 0-.577-.717c-.33-.22-.896-.277-1.048-.69-.251-.627 0-1.307.032-1.96a4.48 4.48 0 0 1 .67-1.38c.75-.864 1.688-.733 2.699-.754.556-.015.891-.91.283-1.197ZM242.781 81.86c-2.93-1.046-5.717 2.123-5.241 4.936.079.46.724.47.938.125.525-.894.566-1.992 1.153-2.896.729-1.114 1.855-.894 2.987-.9a.65.65 0 0 0 .514-.996.65.65 0 0 0-.351-.269ZM234.743 113.999c-.262-.251-.571-.387-.838-.638a2.083 2.083 0 0 1-.482-1.453c-.032-.858.492-1.626.419-2.468a.466.466 0 0 0-.283-.412.46.46 0 0 0-.493.088c-.823.795-1.132 2.515-.906 3.602.204 1.004.974 2.39 2.174 2.259a.583.583 0 0 0 .558-.684.582.582 0 0 0-.149-.294ZM335.609 131.488a.524.524 0 0 0-1.001-.266c-.383.69-.383 1.5-.954 2.091-.713.758-1.949.261-2.824.523a.528.528 0 0 0-.331.419.525.525 0 0 0 .21.491c2.227 1.385 5.188-.764 4.9-3.258ZM336.688 101.859c-.45.073-.398.648-.11.857.86.633 1.965.607 2.767 1.422.802.816.283 2.175.524 3.2a.526.526 0 0 0 .964.126c1.405-2.651-1.221-6.076-4.145-5.605ZM361.554 202.011a5.127 5.127 0 0 1-1.955 2.666c-.932.612-1.996.45-2.95.878a.44.44 0 0 0-.157.59.44.44 0 0 0 .157.158c1.148.701 2.877-.042 3.904-.7a5.23 5.23 0 0 0 2.259-3.247.65.65 0 0 0-.092-.463.66.66 0 0 0-.85-.234.653.653 0 0 0-.316.352ZM457.531 384.338c-.592-.795-1.409-1.046-1.435-2.206 0-.973.346-1.966.146-2.923a.472.472 0 0 0-.849-.11c-.634.905-.702 2.614-.592 3.66a3.052 3.052 0 0 0 2.096 2.421c.435.146.944-.418.634-.842ZM568.15 402.643a.372.372 0 0 0-.44-.058c-.367.167-.435.356-.524.732a4.581 4.581 0 0 1-.818 1.788c-.702.826-1.891.612-2.814.905-.524.167-.597 1.009 0 1.129a4.535 4.535 0 0 0 3.548-.91c.77-.627 1.824-2.713 1.048-3.586ZM591.071 290.372a1.318 1.318 0 0 0-.168-.853c-.099-.245-.204-.486-.304-.732a.609.609 0 0 0-.723-.413.601.601 0 0 0-.32.236 5.653 5.653 0 0 0-1.294-1.046c.77-.037 1.541-.34 1.756-1.156a.65.65 0 0 0-.373-.737c.131-.988-.167-2.332-1.1-2.614a.385.385 0 0 0-.456.261c-.262.727.435 1.438.299 2.212-.089.523-.477.664-.917.732-.828-.057-1.761-.329-2.453-.089a.416.416 0 0 0-.277.46 1.842 1.842 0 0 0-.451.037.428.428 0 0 0-.294.512.422.422 0 0 0 .105.188c.132.115.278.211.435.288 1.143.821 2.704 1.046 3.784 2.091 1.514 1.47.974 3.692 1.325 5.532a.524.524 0 0 0 1.048 0c.047-.21.082-.423.105-.638a7.42 7.42 0 0 0-.125-3.884.522.522 0 0 0 .398-.387ZM571.216 256.501a2.99 2.99 0 0 0-2.306-1.798.36.36 0 0 0-.115-.105c-.173-.099-.241-.397-.278-.622a.608.608 0 0 0-1.019-.269.612.612 0 0 0-.181.431c.003.289.087.571.241.816.02.03.043.058.068.083-1.022.664-2.096 2.395-1.436 3.524.035.054.08.1.135.134a.426.426 0 0 0 .367.047.44.44 0 0 0 .164-.097c.618-.523.524-1.521 1.048-2.149.833-1.014 1.682-.099 2.138.69.456.79 1.53.1 1.174-.685Z"/><path fill="#000" d="M566.274 251.738a4.516 4.516 0 0 0-3.312-1.453.556.556 0 0 0-.46.858.554.554 0 0 0 .314.229c.77.314 1.572.345 2.269.905.812.679.592 1.668.655 2.583a.581.581 0 0 0 .894.478.583.583 0 0 0 .238-.327 3.541 3.541 0 0 0-.598-3.273ZM564.178 282.111c-.357-.523-.907-.837-1.169-1.459-.335-.795-.042-1.501 0-2.295a.52.52 0 0 0-.324-.492.529.529 0 0 0-.577.12c-.708.711-.713 1.888-.482 2.803.23.915.974 2.013 1.886 2.17.44.094.949-.387.666-.847ZM445.012 267.852c-.718-.199-1.237-.178-1.352-1.082-.04-.677-.014-1.357.078-2.029.042-.68-.933-.742-1.132-.151a4.726 4.726 0 0 0 .121 3.45c.393.8 1.64 1.307 2.416.805a.518.518 0 0 0 .305-.545.521.521 0 0 0-.436-.448ZM456.835 235.661c-1.049-.852-2.222-1.349-3.145-2.395-1.168-1.307-1.404-2.834-1.97-4.402-.147-.398-.844-.523-.928 0a4.853 4.853 0 0 0 .079 1.809c-.304 1.354.907 3.508 2.206 4.454a6.361 6.361 0 0 0-3.354.628 3.972 3.972 0 0 0-1.781 3.613.452.452 0 0 0 .754.198c.818-.956.744-2.394 2.096-2.886 1.075-.381 2.29.152 3.318-.413a.514.514 0 0 0 .235-.486 4.84 4.84 0 0 0 2.096.831.563.563 0 0 0 .512-.346.557.557 0 0 0-.118-.605ZM485.111 277.258c-.618-.376-1.404-.277-2.096-.298h-.524a.47.47 0 0 0-.094-.078 3.836 3.836 0 0 0-2.72-.173.583.583 0 0 0-.404-.522 1.91 1.91 0 0 0-1.367.287 5.888 5.888 0 0 0-1.268.816c-.383.303-.121.862.262 1.009-.766.774-1.656 2.023-1.761 3.137a3.977 3.977 0 0 0-.278 2.316v.052a.458.458 0 0 0 .147.403c0 .042.031.089.052.136.199.439.786.235.922-.12.104-.294.18-.597.226-.905a7.533 7.533 0 0 1 2.782-3.686c1.227-.831 2.516-.925 3.863-.894h.456l1.048.037a.606.606 0 0 0 .576-.57c.076-.028.149-.061.22-.1a.486.486 0 0 0-.042-.847ZM549.105 285.248a.527.527 0 0 0-.844-.491.529.529 0 0 0-.204.349c-.345.858-.382 1.809-.985 2.557-.733.91-1.792.523-2.772.628-.524.047-.933.873-.309 1.155a3.257 3.257 0 0 0 2.893-.026.642.642 0 0 0 1.1-.037c.321-.605.581-1.241.776-1.898.068-.224.136-.454.188-.69a4.49 4.49 0 0 0 .157-1.547ZM553.698 256.815a3.551 3.551 0 0 0-1.478-1.045 14.494 14.494 0 0 0-2.222-.9.44.44 0 0 0-.52.304.44.44 0 0 0-.004.219c.262.926 1.299 1.203 2.096 1.527 2.059.81 1.179 3.011 1.472 4.706a.528.528 0 0 0 .748.341.525.525 0 0 0 .222-.216c.608-1.276.65-3.754-.314-4.936ZM490.074 235.546c-.865-.967-3.102-.973-4.192-.403-1.09.57-1.86 1.72-1.661 2.886a3.945 3.945 0 0 0-.079 2.74c.367 1.046 1.357 1.454 2.264 1.924.524.267 1.21-.298.849-.852-.446-.68-1.326-.711-1.766-1.375-.383-.57-.225-1.245-.11-1.898a.55.55 0 0 0 .047-.094c.299-1.046.225-1.945 1.488-2.322 1.048-.308 2.018.398 2.998.084a.418.418 0 0 0 .162-.69ZM446.537 147.885l-1.205.251a8.036 8.036 0 0 0-5.796 2.17.525.525 0 0 0-.661-.225c-.494.159-.958.4-1.373.711a.57.57 0 0 0-.566 0l-.047.026a.592.592 0 0 0-.514-.201.597.597 0 0 0-.46.306l-.64.993a.647.647 0 0 0 .524.957c0 .214.037.429.068.648a.489.489 0 0 0 .184.324c-.08.276-.136.557-.168.842a.46.46 0 0 0 .112.373.457.457 0 0 0 .36.15 9.068 9.068 0 0 0 .094 6.436c.058.304.121.607.194.905a.61.61 0 0 0 .664.425.607.607 0 0 0 .526-.587c-.131-3.226-.43-6.081 1.252-9.019 1.572-2.787 4.952-3.483 7.792-4.288a.623.623 0 1 0-.34-1.197ZM581.807 236.435c-.126-.382-.765-.461-.854 0-.273 1.437.304 2.833.493 4.261a3.603 3.603 0 0 1-.75 2.922c-.597.691-1.619.868-2.337 1.391-.388.277-.32 1.046.272 1.004 5.026-.491 4.34-6.138 3.176-9.578ZM556.107 115.855a.587.587 0 0 0 .095-.727 1.011 1.011 0 0 0-.467-.852 8.163 8.163 0 0 0-.728-.554.63.63 0 0 0-.939.417.624.624 0 0 0 .037.357 5.973 5.973 0 0 0-3.49-.46c.33-.212.613-.488.834-.811a.646.646 0 0 0 .592 0l.361-.193a.752.752 0 0 0 .65.282.596.596 0 0 0 .524-.884.941.941 0 0 0-.188-.224.648.648 0 0 0-.067-.28.645.645 0 0 0-.447-.338.637.637 0 0 0-.288.011.574.574 0 0 0-.645-.287 2.378 2.378 0 0 0-1.205-1.945.58.58 0 0 0-.524 0 12.382 12.382 0 0 0-2.238-1.679.528.528 0 0 0-.709.113.526.526 0 0 0 .07.713 30.247 30.247 0 0 0 2.421 2.118c1.221 1.087.335 1.861-.608 2.473-.299.162-.613.314-.901.523-.325.057-.65.104-.949.178a.524.524 0 0 0-.453.593.527.527 0 0 0 .595.452c.22.013.44.013.66 0 .11.049.232.067.351.053.2-.034.394-.096.577-.183.29-.06.575-.14.854-.241-.178.371 0 .925.524.873a5.946 5.946 0 0 1 3.946.764c1.457.888 1.923 2.462 2.232 4.02.136.711 1.195.523 1.221-.162a5.446 5.446 0 0 0-1.698-4.12ZM526.107 118.292c-1.216-.12-2.097 0-2.788-1.203-.446-.784-.205-2.091-.891-2.656a.39.39 0 0 0-.524 0 1.758 1.758 0 0 0-.315 1.276c-.012.923.241 1.83.729 2.614.524.852 1.808 1.825 2.819 1.302a4.25 4.25 0 0 0 1.153-.089c.718-.178.472-1.181-.183-1.244ZM522.129 90.9a1.73 1.73 0 0 0-.299-.376c-.152-.748-.849-1.046-1.64-1.083a3.985 3.985 0 0 0-1.337-.167.654.654 0 0 0-.403-.392 1.26 1.26 0 0 0-1.148.141 1.194 1.194 0 0 0-.524 1.208.684.684 0 0 0 .226.345 3 3 0 0 0-.1.429 4.207 4.207 0 0 0-1.572-3.038 4.781 4.781 0 0 0-4.716-.136.52.52 0 0 0 .256.941c1.237.052 2.317-.476 3.522.12 1.205.596.938 2.019 1.572 2.918a.53.53 0 0 0 .489.24.524.524 0 0 0 .439-.324v.55a3.884 3.884 0 0 0 .665 2.509.523.523 0 0 0 .85.043.514.514 0 0 0 .114-.305 13.833 13.833 0 0 0-.246-1.835c.01-.162.01-.324 0-.486.018-.244.084-.482.194-.7a1.327 1.327 0 0 1 1.148-.65l.178.043c.629.172 1.153.632 1.776.763a.525.525 0 0 0 .556-.758ZM429.809 112.023c-.33-.094-.671-.084-1.001-.162a2.35 2.35 0 0 1-1.095-.69c-.644-.67-.356-1.532-.702-2.275 0 0-.031 0-.042-.042a2.61 2.61 0 0 1 .252-2.091c.524-.894 1.498-.868 2.295-1.318a.527.527 0 0 0 .23-.502.523.523 0 0 0-.351-.428 1.98 1.98 0 0 0-1.645.162.597.597 0 0 0-.205-.068c-.728-.068-1.32.68-1.682 1.218l-.047.079a2.09 2.09 0 0 0-.55 1.343 1.914 1.914 0 0 0 .252 1.815c.067.299.192.583.366.836.051.737.321 1.441.776 2.024.66.815 2.059 1.652 3.144 1.239a.603.603 0 0 0 .301-.92.603.603 0 0 0-.296-.22ZM393.788 120.148c-3.029-.345-6.1 4.183-4.193 6.755.315.429 1.101.34 1.08-.293-.042-1.322-.356-2.305.335-3.56.629-1.14 1.793-1.443 2.909-1.861a.527.527 0 0 0 .257-.935.53.53 0 0 0-.388-.106ZM402.329 156.789c-.697-.559-1.572-.444-2.421-.449h-.387a4.245 4.245 0 0 1-2.448-2.019c-.807-1.317-.786-2.912-1.509-4.235-.246-.454-.844-.193-.891.241a7.02 7.02 0 0 0 .451 3.106c.037.219.084.434.12.643.053.68.249 1.341.577 1.94 0 .031.058.057.084.083.084.22.173.434.272.643a.515.515 0 0 0 .291.291.532.532 0 0 0 .411-.008 3.337 3.337 0 0 0 2.987.967.482.482 0 0 0 .262-.136c.311.007.62-.025.923-.094a.983.983 0 0 0 .126-.052c.312.025.627 0 .932-.074a.515.515 0 0 0 .341-.62.512.512 0 0 0-.121-.227ZM512.298 130.411a4.924 4.924 0 0 0-.87-2.29.32.32 0 0 0-.141-.08.317.317 0 0 0-.302.081.31.31 0 0 0-.081.14c-.278 1.088.11 2.259.147 3.373.057 1.897-1.987 2.164-3.234 2.886-.45.261-.293 1.092.278 1.045.423-.043.838-.14 1.237-.287 1.132 0 2.237-1.046 2.714-1.966a4.57 4.57 0 0 0 .252-2.902ZM506.429 101.859c.105-1.872-1.342-3.346-3.055-3.812h-.089a3.998 3.998 0 0 0-2.217.037 4.473 4.473 0 0 0-1.661.35h-.026a1.72 1.72 0 0 0-.456.24.423.423 0 0 0 .099.759c.619.235 1.337.047 1.981 0 .294-.026.603-.042.912-.063a5.822 5.822 0 0 1 1.509.183c1.446.418 1.274 1.992 1.976 2.985a.486.486 0 0 0 .548.217.49.49 0 0 0 .364-.462 1.2 1.2 0 0 0 0-.12.53.53 0 0 0 .115-.314ZM195.707 331.489a.35.35 0 0 0-.142-.272h-.042a.339.339 0 0 0-.503-.347.343.343 0 0 0-.157.19 1 1 0 0 0-.865.957.43.43 0 0 0 .095.256 1.257 1.257 0 0 0-.189 1.02c.005.034.02.067.042.094.002.097.014.193.037.287a.236.236 0 0 0 .199.169.24.24 0 0 0 .236-.111c.267-.345.314-.795.634-1.103.319-.309.843.198 1.221.251.055.053.115.102.178.146a.4.4 0 0 0 .389 0 .388.388 0 0 0 .198-.334c.042-.67-.681-1.109-1.331-1.203ZM475.479 276.778c-.445-.56-1.624-.978-2.274-.638a.275.275 0 0 0-.129.199.276.276 0 0 0 .012.121.278.278 0 0 0 .065.103c.312.213.672.346 1.048.387a1.12 1.12 0 0 1 .849 1.266c0 .381-.247.742.062 1.045a.41.41 0 0 0 .464-.017.414.414 0 0 0 .108-.124 2.174 2.174 0 0 0-.205-2.342ZM189.592 257.882c-.283-.314-.791-.157-1.153-.084a1.866 1.866 0 0 0-1.08.654 1.342 1.342 0 0 0-.288 1.145c.084.382.294.904.723.967a.366.366 0 0 0 .441-.251.839.839 0 0 0-.194-.674.538.538 0 0 1-.115-.407.547.547 0 0 1 .209-.367c.414-.424 1.195-.162 1.499-.648a.28.28 0 0 0 .034-.175.279.279 0 0 0-.076-.16ZM114.183 235.405c-2.337-.785-3.27-2.567-3.453-4.92-.032-.361-.582-.487-.666-.089a4.583 4.583 0 0 0 .524 3.184.302.302 0 0 0 0 .225c.116.368.28.72.487 1.045.194.314.414.764.797.858a.305.305 0 0 0 .243-.041.302.302 0 0 0 .129-.21c.521.381 1.104.67 1.724.852a.467.467 0 0 0 .561-.345.465.465 0 0 0-.346-.559ZM202.142 282.414a2.776 2.776 0 0 1-1.048.225c-.487 0-.451-.554-.435-.9a.382.382 0 0 0-.101-.241.382.382 0 0 0-.233-.122.381.381 0 0 0-.257.054.38.38 0 0 0-.163.205c-.126.57-.126 1.338.461 1.678a2.35 2.35 0 0 0 2.033 0c.513-.261.283-1.119-.257-.899ZM365.181 205.064c-.456-.094-.739-.147-.896-.638a2.825 2.825 0 0 1 .104-1.401c.079-.387-.524-.69-.676-.283a2.784 2.784 0 0 0-.12 2.332 1.362 1.362 0 0 0 1.682.738.412.412 0 0 0-.094-.748ZM433.912 152.376a1.49 1.49 0 0 0-.985-.115c-.44.068-.975.053-1.284.403a.24.24 0 0 0-.065.199.24.24 0 0 0 .112.177c.566.345 1.216-.198 1.803.058s.524 1.119 1.174 1.317a.266.266 0 0 0 .33-.256 2.466 2.466 0 0 0-1.085-1.783Z"/><path fill="#FF490C" d="m371.161 233.913-139.209 70.892 1.067 2.086 139.209-70.892-1.067-2.086ZM373.867 230.477 145.62 291.795l.61 2.262 228.248-61.318-.611-2.262Z"/><path fill="#FF490C" d="m374.273 231.364-.914 2.158 170.799 71.95.914-2.158-170.799-71.95Z"/><path fill="#FF490C" d="m472.12 156.75-98.676 75.599 1.43 1.858 98.676-75.6-1.43-1.857Z"/><path fill="#FF490C" d="m157.136 142.548-.896 2.165 217.469 89.653.897-2.165-217.47-89.653Z"/><path fill="#FF490C" d="m326.075 116.142-2.165.908 49.176 116.72 2.165-.908-49.176-116.72ZM230.855 310.637a4.125 4.125 0 0 0 4.129-4.12 4.125 4.125 0 0 0-4.129-4.12 4.125 4.125 0 0 0-4.13 4.12 4.125 4.125 0 0 0 4.13 4.12Z"/><path fill="#000" d="M230.859 311.338h-.351a4.87 4.87 0 0 1-3.355-1.512 4.847 4.847 0 0 1 .123-6.798 4.865 4.865 0 0 1 6.815 0 4.847 4.847 0 0 1-3.232 8.31Zm0-8.24a3.44 3.44 0 0 0-2.329.92 3.42 3.42 0 0 0-.918 3.578 3.413 3.413 0 0 0 1.716 1.981 3.44 3.44 0 0 0 1.29.355 3.427 3.427 0 0 0 3.643-3.835 3.415 3.415 0 0 0-.808-1.812 3.383 3.383 0 0 0-2.342-1.171l-.252-.016Z"/><path fill="#FF490C" d="M145.211 297.404a4.302 4.302 0 0 0 4.307-4.298 4.302 4.302 0 0 0-4.307-4.297 4.303 4.303 0 0 0-4.308 4.297 4.303 4.303 0 0 0 4.308 4.298Z"/><path fill="#000" d="M145.211 298.104h-.262a5.032 5.032 0 0 1-3.494-1.534 5.005 5.005 0 0 1 .089-7.046 5.028 5.028 0 0 1 3.531-1.446c1.322 0 2.591.519 3.531 1.446a5.005 5.005 0 0 1 .089 7.046 5.032 5.032 0 0 1-3.494 1.534h.01Zm0-8.595a3.613 3.613 0 0 0-3.532 3.656c.012.95.399 1.858 1.077 2.526a3.625 3.625 0 0 0 5.089 0 3.61 3.61 0 0 0-2.456-6.182h-.178Z"/><path fill="#FF490C" d="M156.452 147.153a4.303 4.303 0 0 0 4.308-4.298 4.303 4.303 0 0 0-4.308-4.298 4.302 4.302 0 0 0-4.307 4.298 4.302 4.302 0 0 0 4.307 4.298Z"/><path fill="#000" d="M156.446 147.859a5.023 5.023 0 0 1-3.349-1.366 4.994 4.994 0 0 1-.51-6.715 5.017 5.017 0 0 1 3.104-1.853 5.029 5.029 0 0 1 3.389.684 4.995 4.995 0 0 1-.035 8.539 4.997 4.997 0 0 1-1.839.664 5.367 5.367 0 0 1-.76.047Zm.031-8.591a3.606 3.606 0 0 0-2.883 1.465 3.577 3.577 0 0 0 .558 4.85 3.635 3.635 0 0 0 2.341.875 3.61 3.61 0 0 0 3.543-4.136 3.617 3.617 0 0 0-3.559-3.054Z"/><path fill="#FF490C" d="M324.871 119.531a4.382 4.382 0 0 0 4.386-4.376 4.382 4.382 0 0 0-4.386-4.377 4.381 4.381 0 0 0-4.386 4.377 4.381 4.381 0 0 0 4.386 4.376Z"/><path fill="#000" d="M324.866 120.237a5.128 5.128 0 0 1-3.545-1.41 5.102 5.102 0 0 1-.324-7.059 5.124 5.124 0 0 1 7.054-.628 5.102 5.102 0 0 1 .934 7.005 5.124 5.124 0 0 1-4.119 2.092Zm0-8.753a3.706 3.706 0 0 0-2.818 1.314 3.7 3.7 0 0 0-.738 1.408 3.663 3.663 0 0 0 1.179 3.766 3.674 3.674 0 0 0 3.006.801 3.673 3.673 0 0 0 2.406-1.326 3.653 3.653 0 0 0-.437-5.066 3.674 3.674 0 0 0-2.598-.897Z"/><path fill="#FF490C" d="M471.456 162.792a4.398 4.398 0 0 0 4.402-4.392 4.397 4.397 0 0 0-4.402-4.392 4.396 4.396 0 0 0-4.402 4.392 4.397 4.397 0 0 0 4.402 4.392Z"/><path fill="#000" d="M471.455 163.503a5.293 5.293 0 0 1-1.143-.131 5.113 5.113 0 0 1-3.036-2.017 5.09 5.09 0 0 1 .759-6.757 5.113 5.113 0 0 1 4.557-1.166 5.11 5.11 0 0 1 3.037 2.019 5.091 5.091 0 0 1-.763 6.758 5.116 5.116 0 0 1-3.411 1.294Zm0-8.795a3.704 3.704 0 0 0-2.54 1.01 3.687 3.687 0 0 0-.284 5.063 3.707 3.707 0 0 0 5.049.57 3.683 3.683 0 0 0 .857-4.997 3.698 3.698 0 0 0-3.114-1.646h.032Z"/><path fill="#FF490C" d="M544.537 308.457a4.224 4.224 0 0 0 4.229-4.219 4.224 4.224 0 0 0-4.229-4.219 4.225 4.225 0 0 0-4.23 4.219 4.225 4.225 0 0 0 4.23 4.219Z"/><path fill="#000" d="M544.531 309.163a4.942 4.942 0 0 1-3.231-1.22 4.92 4.92 0 0 1 6.213-7.622 4.93 4.93 0 0 1 1.771 2.589 4.914 4.914 0 0 1-.451 3.739 4.94 4.94 0 0 1-4.302 2.514Zm0-8.439c-.322 0-.643.044-.953.131a3.52 3.52 0 0 0-2.007 1.453 3.508 3.508 0 0 0 .63 4.588 3.524 3.524 0 0 0 2.325.861c.322-.002.643-.046.954-.131a3.527 3.527 0 0 0 2.007-1.453 3.507 3.507 0 0 0-.631-4.588 3.524 3.524 0 0 0-2.325-.861Z"/><path fill="#FF490C" d="M374.167 235.813a4.182 4.182 0 0 0 4.187-4.178 4.182 4.182 0 0 0-4.187-4.177 4.182 4.182 0 0 0-4.187 4.177 4.183 4.183 0 0 0 4.187 4.178Z"/><path fill="#000" d="M374.168 236.518a4.899 4.899 0 0 1-4.522-3.014 4.878 4.878 0 0 1 1.061-5.322 4.906 4.906 0 0 1 5.334-1.059c.895.37 1.659.996 2.197 1.799a4.873 4.873 0 0 1-.61 6.164 4.903 4.903 0 0 1-3.46 1.432Zm0-8.365a3.491 3.491 0 0 0-3.22 2.147 3.475 3.475 0 0 0 2.544 4.74 3.485 3.485 0 0 0 4.161-3.416 3.473 3.473 0 0 0-1.022-2.455 3.49 3.49 0 0 0-2.463-1.016Z"/><path fill="#FF490C" d="M673.312 151.406 378.384 230.95l1.43 1.858 294.928-79.544-1.43-1.858Z"/><path fill="#000" d="M671.021 158.735a6.066 6.066 0 0 1-1.363-.152 6.088 6.088 0 0 1-3.597-2.411 6.064 6.064 0 0 1 .905-8.03 6.096 6.096 0 0 1 5.407-1.402 6.094 6.094 0 0 1 3.597 2.411 6.067 6.067 0 0 1-.905 8.03 6.102 6.102 0 0 1-4.044 1.554Zm0-10.74a4.687 4.687 0 0 0-3.113 1.189 4.663 4.663 0 0 0-.702 6.175 4.679 4.679 0 0 0 8.494-2.695 4.664 4.664 0 0 0-1.37-3.301 4.685 4.685 0 0 0-3.309-1.368Z"/><path fill="#FF490C" d="M671.02 158.029a5.376 5.376 0 0 0 5.382-5.37 5.376 5.376 0 0 0-5.382-5.369 5.376 5.376 0 0 0-5.382 5.369c0 2.966 2.41 5.37 5.382 5.37Z"/><path fill="#000" d="M5.82 186.656h-.263a5.031 5.031 0 0 1-3.494-1.535 5.008 5.008 0 0 1 .089-7.046 5.034 5.034 0 0 1 7.062 0 5.009 5.009 0 0 1 .089 7.046 5.031 5.031 0 0 1-3.494 1.535h.01Zm0-8.596a3.621 3.621 0 0 0-3.532 3.656 3.608 3.608 0 0 0 1.076 2.526 3.626 3.626 0 0 0 5.09 0 3.608 3.608 0 0 0 .062-5.077 3.621 3.621 0 0 0-2.518-1.105h-.179Z"/><path fill="#FF490C" d="M5.819 185.955a4.302 4.302 0 0 0 4.307-4.297 4.303 4.303 0 0 0-4.307-4.298 4.303 4.303 0 0 0-4.308 4.298 4.302 4.302 0 0 0 4.308 4.297Z"/><path fill="#FF490C" d="M373.35 231.139 6.228 180.347l.61 2.262 367.123 50.792-.611-2.262Z"/></svg>