<svg width="193" height="20" viewBox="0 0 193 20" fill="none" xmlns="http://www.w3.org/2000/svg">
<g id="Logo">
<g id="humbleteam">
<path d="M0 19.5522V0H4.08963V6.41721H4.23569C4.48885 5.95948 4.84913 5.54155 5.31652 5.16342C6.38761 4.30765 7.58529 3.87977 8.90955 3.87977C10.7596 3.87977 12.191 4.42706 13.2037 5.52164C14.2358 6.61623 14.7519 8.20835 14.7519 10.298V19.5522H10.6622V10.8951C10.6622 9.78057 10.3896 8.93476 9.84432 8.35761C9.31851 7.76057 8.56874 7.46204 7.59502 7.46204C6.6213 7.46204 5.79364 7.84017 5.11204 8.59643C4.43043 9.35269 4.08963 10.3179 4.08963 11.4921V19.5522H0Z" fill="#1D1D1F"/>
<path fill-rule="evenodd" clip-rule="evenodd" d="M114.041 11.9399C114.041 14.1888 114.811 16.0993 116.349 17.6715C117.907 19.2238 119.816 20 122.075 20C124.704 20 126.797 19.1044 128.355 17.3133C128.998 16.5371 129.485 15.6416 129.816 14.6266H125.434C125.259 14.9649 125.025 15.2634 124.733 15.5222C123.993 16.1192 123.107 16.4177 122.075 16.4177C121.14 16.4177 120.312 16.0695 119.592 15.3729C118.871 14.6764 118.433 13.8305 118.277 12.8355H129.962V11.9399C129.962 9.67112 129.222 7.76057 127.742 6.20825C126.262 4.65594 124.373 3.87978 122.075 3.87978C119.816 3.87978 117.907 4.66589 116.349 6.23811C114.811 7.79043 114.041 9.69102 114.041 11.9399ZM125.58 10.298H118.423C118.657 9.48205 119.095 8.8054 119.738 8.26806C120.38 7.73072 121.159 7.46205 122.075 7.46205C122.99 7.46205 123.759 7.74067 124.382 8.29791C125.025 8.83525 125.424 9.50196 125.58 10.298Z" fill="#1D1D1F"/>
<path fill-rule="evenodd" clip-rule="evenodd" d="M130.827 11.9399C130.827 14.348 131.479 16.2983 132.784 17.7909C134.108 19.2636 135.744 20 137.691 20C138.996 20 140.174 19.602 141.226 18.8059C141.674 18.4278 142.054 18.0298 142.365 17.6118H142.511V19.5522H146.601V4.32756H142.511V6.26796H142.365C142.054 5.85002 141.674 5.452 141.226 5.07387C140.174 4.27781 138.996 3.87978 137.691 3.87978C135.744 3.87978 134.108 4.62608 132.784 6.1187C131.479 7.59141 130.827 9.53181 130.827 11.9399ZM135.062 11.9399C135.062 10.5468 135.403 9.4522 136.085 8.65614C136.766 7.86008 137.643 7.46205 138.714 7.46205C139.843 7.46205 140.759 7.86008 141.46 8.65614C142.161 9.4323 142.511 10.5269 142.511 11.9399C142.511 13.3529 142.161 14.4574 141.46 15.2535C140.759 16.0297 139.843 16.4177 138.714 16.4177C137.643 16.4177 136.766 16.0197 136.085 15.2236C135.403 14.4276 135.062 13.333 135.062 11.9399Z" fill="#1D1D1F"/>
<path d="M148.938 4.32756H153.028V6.41722H153.174C153.446 5.91968 153.777 5.50175 154.167 5.16343C155.121 4.30766 156.251 3.87978 157.555 3.87978C159.113 3.87978 160.418 4.35741 161.47 5.31268C161.898 5.73062 162.249 6.1983 162.521 6.71574H162.667C162.94 6.1983 163.291 5.73062 163.719 5.31268C164.771 4.35741 166.027 3.87978 167.487 3.87978C169.279 3.87978 170.671 4.43702 171.665 5.5515C172.677 6.64609 173.184 8.22826 173.184 10.298V19.5522H169.094V10.7458C169.094 8.55663 168.169 7.46205 166.319 7.46205C165.423 7.46205 164.664 7.82028 164.04 8.53673C163.417 9.25319 163.106 10.1886 163.106 11.3428V19.5522H159.016V10.7458C159.016 8.55663 158.091 7.46205 156.241 7.46205C155.345 7.46205 154.586 7.82028 153.962 8.53673C153.339 9.25319 153.028 10.1886 153.028 11.3428V19.5522H148.938V4.32756Z" fill="#1D1D1F"/>
<path d="M107.341 1.04361H103.252V16.0409C103.252 17.98 104.802 19.552 106.713 19.552H113.471V15.9697H107.341V7.90964H113.296V4.32736H107.341V1.04361Z" fill="#1D1D1F"/>
<path fill-rule="evenodd" clip-rule="evenodd" d="M60.0518 19.5522V0H64.1414V6.26795H64.2875C64.5991 5.85002 64.9788 5.45199 65.4268 5.07386C66.4784 4.2778 67.6566 3.87977 68.9614 3.87977C70.9088 3.87977 72.5349 4.62608 73.8397 6.11869C75.164 7.5914 75.8261 9.5318 75.8261 11.9399C75.8261 14.348 75.164 16.2983 73.8397 17.7909C72.5349 19.2636 70.9088 20 68.9614 20C67.6566 20 66.4784 19.602 65.4268 18.8059C64.9788 18.4278 64.5991 18.0297 64.2875 17.6118H64.1414V19.5522H60.0518ZM65.1931 8.65613C64.492 9.43229 64.1414 10.5269 64.1414 11.9399C64.1414 13.3529 64.492 14.4574 65.1931 15.2535C65.8941 16.0296 66.8094 16.4177 67.939 16.4177C69.01 16.4177 69.8864 16.0197 70.568 15.2236C71.2496 14.4276 71.5904 13.333 71.5904 11.9399C71.5904 10.5468 71.2496 9.4522 70.568 8.65613C69.8864 7.86007 69.01 7.46204 67.939 7.46204C66.8094 7.46204 65.8941 7.86007 65.1931 8.65613Z" fill="#1D1D1F"/>
<path d="M33.6278 19.5522V4.32755H37.7175V6.41721H37.8635C38.1362 5.91968 38.4672 5.50174 38.8567 5.16342C39.811 4.30765 40.9405 3.87977 42.2453 3.87977C43.8032 3.87977 45.108 4.35741 46.1596 5.31268C46.5881 5.73061 46.9386 6.1983 47.2112 6.71574H47.3573C47.6299 6.1983 47.9805 5.73061 48.4089 5.31268C49.4605 4.35741 50.7166 3.87977 52.1772 3.87977C53.9689 3.87977 55.3613 4.43701 56.3545 5.5515C57.3672 6.64608 57.8735 8.22825 57.8735 10.298V19.5522H53.7839V10.7458C53.7839 8.55663 52.8588 7.46204 51.0088 7.46204C50.1129 7.46204 49.3534 7.82027 48.7303 8.53673C48.1071 9.25318 47.7955 10.1886 47.7955 11.3428V19.5522H43.7058V10.7458C43.7058 8.55663 42.7808 7.46204 40.9307 7.46204C40.0349 7.46204 39.2754 7.82027 38.6522 8.53673C38.0291 9.25318 37.7175 10.1886 37.7175 11.3428V19.5522H33.6278Z" fill="#1D1D1F"/>
<path d="M77.4327 16.0411C77.4327 17.9802 78.9826 19.5522 80.8944 19.5522H84.8817V15.9699H81.5224V0H77.4327V16.0411Z" fill="#1D1D1F"/>
<path fill-rule="evenodd" clip-rule="evenodd" d="M87.3446 17.6715C85.8061 16.0993 85.0369 14.1888 85.0369 11.9399C85.0369 9.69101 85.8061 7.79042 87.3446 6.2381C88.9026 4.66588 90.811 3.87977 93.0701 3.87977C95.3681 3.87977 97.2571 4.65593 98.7371 6.20825C100.217 7.76057 100.957 9.67111 100.957 11.9399V12.8355H89.2726C89.4284 13.8305 89.8665 14.6763 90.5871 15.3729C91.3076 16.0694 92.1353 16.4177 93.0701 16.4177C94.1022 16.4177 94.9883 16.1192 95.7283 15.5222C96.0205 15.2634 96.2542 14.9649 96.4294 14.6266H100.811C100.48 15.6416 99.9932 16.5371 99.3506 17.3133C97.7926 19.1044 95.6991 20 93.0701 20C90.811 20 88.9026 19.2238 87.3446 17.6715ZM89.4186 10.298H96.5755C96.4197 9.50195 96.0205 8.83525 95.3778 8.29791C94.7546 7.74066 93.9854 7.46204 93.0701 7.46204C92.1548 7.46204 91.3758 7.73071 90.7332 8.26805C90.0905 8.8054 89.6523 9.48205 89.4186 10.298Z" fill="#1D1D1F"/>
<path d="M31.61 4.32606H27.5549V12.0506L27.5525 12.0505C27.5306 13.1225 27.3546 14.0086 26.7186 14.709C26.0338 15.4632 25.1908 15.8404 24.1898 15.8404C23.1888 15.8404 22.3458 15.4632 21.6609 14.709C21.025 14.0086 20.909 13.1226 20.8938 12.0506V4.32606H16.8139V12.5522H16.8175C16.8734 14.4731 17.5746 16.1135 18.9213 17.4733C20.3262 18.8741 22.0824 19.5745 24.1898 19.5745C26.2796 19.5745 28.027 18.8741 29.4319 17.4733C30.7954 16.1135 31.5535 14.4731 31.61 12.5522V4.32606Z" fill="#1D1D1F"/>
</g>
<ellipse id="dot" cx="184.588" cy="11.5162" rx="7.91241" ry="8.02552" fill="#FF490C"/>
</g>
</svg>
