<svg width="300" height="283" viewBox="0 0 300 283" fill="none" xmlns="http://www.w3.org/2000/svg">
<g clip-path="url(#clip0_164_4068)">
<path d="M149.723 6.78703C179.589 6.78703 211.357 23.1883 211.357 72.7262L211.259 88.935C211.919 88.8289 212.591 88.77 213.275 88.77C221.098 88.77 227.6 95.8468 228.928 105.163L262.649 94.6719C263.477 94.4126 264.305 94.2947 265.117 94.2947C269.539 94.2947 273.409 97.9019 273.409 102.656V147.349C277.194 146.308 280.763 145.797 283.735 145.797C287.981 145.797 290.996 146.842 291.644 148.878C292.832 152.611 285.63 158.261 275.557 161.503C275.514 161.519 275.467 161.531 275.424 161.542C279.314 160.58 282.923 160.104 285.895 160.104C290.105 160.104 293.035 161.067 293.644 162.981C294.831 166.713 286.735 172.655 275.557 176.246C274.835 176.478 274.12 176.694 273.409 176.895V177.264C276.948 176.301 280.295 175.83 283.114 175.834C287.36 175.834 290.402 176.902 291.062 178.981C292.25 182.714 285.305 188.282 275.557 191.418C274.835 191.649 274.12 191.862 273.409 192.054V192.341C276.725 191.441 279.865 190.997 282.505 190.997C286.485 190.997 289.336 191.999 289.953 193.948C291.066 197.449 284.56 202.667 275.42 205.607C274.745 205.823 274.073 206.023 273.405 206.2V235.183C273.405 238.845 271.034 242.083 267.555 243.164L159.725 276.709H140.268L32.442 243.168C28.9621 242.087 26.5914 238.849 26.5914 235.187V206.204C25.9275 206.023 25.2557 205.827 24.5761 205.611C15.4371 202.671 8.93036 197.449 10.0435 193.952C10.6605 192.003 13.5116 191.001 17.4914 191.001C20.1316 191.001 23.2717 191.441 26.5875 192.345V192.058C25.8767 191.866 25.162 191.657 24.4395 191.422C14.6911 188.286 7.75087 182.718 8.93426 178.985C9.59431 176.906 12.6329 175.838 16.8821 175.838C19.6981 175.838 23.0491 176.309 26.5875 177.268V176.898C25.8767 176.698 25.162 176.482 24.4395 176.25C13.2656 172.655 5.16928 166.713 6.35658 162.981C6.96585 161.067 9.89113 160.104 14.1053 160.104C17.0774 160.104 20.6862 160.584 24.5761 161.542C24.5332 161.527 24.4863 161.515 24.4434 161.503C14.3708 158.265 7.16894 152.611 8.35624 148.878C9.00456 146.839 12.0197 145.797 16.2651 145.797C19.2372 145.797 22.8069 146.308 26.5914 147.349V102.656C26.5914 97.9019 30.458 94.2947 34.883 94.2947C35.6915 94.2947 36.5233 94.4165 37.3513 94.6719L71.0722 105.163C72.4001 95.8468 78.899 88.77 86.7258 88.77C87.2218 88.77 87.71 88.8014 88.1904 88.8564L88.0927 72.7262C88.0927 54.7021 86.7258 30.1944 107.937 27.1492C111.741 15.7264 126.188 6.78703 149.723 6.78703ZM149.723 0.5C137.623 0.5 126.844 2.78298 118.556 7.10139C111.558 10.7479 106.402 15.7303 103.453 21.648C98.9737 22.8308 95.1384 24.9644 92.0179 28.0097C88.6669 31.2829 86.1361 35.6563 84.4957 41.0081C81.7462 49.9868 81.7891 60.4351 81.8282 69.6534C81.8321 70.6947 81.836 71.7203 81.836 72.7262C81.836 72.738 81.836 72.7498 81.836 72.7655L81.8985 83.0998C75.2551 84.8288 69.6857 90.0667 66.7643 97.2457L39.1909 88.6678C37.7849 88.2316 36.3359 88.0077 34.8791 88.0077C31.0633 88.0077 27.4507 89.4969 24.705 92.1964C21.8891 94.9666 20.3386 98.6799 20.3386 102.653V139.742C18.9248 139.585 17.5578 139.506 16.2611 139.506C6.26284 139.506 3.28678 144.178 2.40021 146.96C1.78313 148.898 1.44334 152.269 4.22412 156.155C1.79875 157.743 0.802827 159.802 0.404457 161.059C-0.103269 162.662 -0.583657 165.904 1.93935 169.645C2.77124 170.879 3.88824 172.105 5.27473 173.303C4.00151 174.584 3.33365 175.967 2.98605 177.06C2.26742 179.319 1.90811 183.547 6.41516 188.258C5.11069 189.535 4.43893 190.93 4.09133 192.027C3.29069 194.549 2.93528 199.575 9.57088 204.895C12.3829 207.151 16.1479 209.198 20.3425 210.774V235.179C20.3425 241.639 24.4629 247.258 30.5986 249.168L138.428 282.713C139.026 282.898 139.647 282.992 140.275 282.992H159.733C160.358 282.992 160.983 282.898 161.58 282.713L269.41 249.168C275.541 247.258 279.666 241.639 279.666 235.179V210.774C283.86 209.198 287.625 207.151 290.437 204.895C297.073 199.575 296.718 194.549 295.917 192.027C295.569 190.93 294.894 189.535 293.593 188.258C298.1 183.547 297.741 179.319 297.022 177.06C296.675 175.967 296.007 174.584 294.734 173.303C296.12 172.105 297.237 170.879 298.069 169.645C300.588 165.904 300.112 162.662 299.604 161.059C299.205 159.802 298.21 157.743 295.784 156.155C298.561 152.265 298.221 148.894 297.608 146.96C296.722 144.174 293.745 139.506 283.747 139.506C282.45 139.506 281.084 139.585 279.67 139.742V102.653C279.67 94.5737 273.147 88.0037 265.129 88.0037C263.672 88.0037 262.223 88.2238 260.817 88.6639L233.244 97.2417C230.241 89.8663 224.445 84.538 217.559 82.9623L217.622 72.7616C217.622 72.7498 217.622 72.738 217.622 72.7223C217.622 60.0972 215.638 48.8001 211.728 39.1456C208.08 30.1434 202.745 22.5046 195.871 16.4455C189.669 10.9758 182.268 6.83419 173.871 4.13076C166.369 1.72204 158.249 0.5 149.723 0.5Z" fill="white"/>
<path d="M149.997 15.7266C118.526 15.7266 93.0106 41.3973 93.0106 73.0604V96.511C93.0106 131.986 118.526 160.741 149.997 160.741C181.468 160.741 206.983 131.982 206.983 96.511V73.0604C206.983 41.3934 181.472 15.7266 149.997 15.7266Z" fill="white"/>
<path d="M149.723 6.78711C126.188 6.78711 111.741 15.7265 107.933 27.1453C86.722 30.1945 88.0889 54.7022 88.0889 72.7224L88.1866 89.1433L93.01 90.385C93.01 90.385 104.516 80.1961 106.066 72.4119C107.613 64.6239 102.629 57.5353 106.066 51.9987C109.492 46.4819 126.743 41.7627 149.723 41.7234C172.707 41.7627 189.955 46.4819 193.38 51.9987C196.817 57.5353 191.833 64.6278 193.38 72.4119C194.926 80.2 206.436 90.385 206.436 90.385L211.26 89.1433L211.357 72.7224C211.357 23.1884 179.593 6.78711 149.723 6.78711Z" fill="#222222" stroke="#222222" stroke-width="4.85118" stroke-miterlimit="10" stroke-linecap="round" stroke-linejoin="round"/>
<path d="M131.054 114.236H126.395C118.455 114.236 111.976 107.851 111.811 99.8625L111.628 90.9035C119.666 88.4554 127.703 87.866 135.745 89.1392C140.139 89.8347 143.357 93.6698 143.357 98.1453V101.859C143.357 108.696 137.85 114.236 131.054 114.236Z" fill="white" stroke="#222222" stroke-width="4.85118" stroke-miterlimit="10" stroke-linecap="round" stroke-linejoin="round"/>
<path d="M107.285 92.1018L111.628 90.9033" stroke="#222222" stroke-width="4.85118" stroke-miterlimit="10" stroke-linecap="round" stroke-linejoin="round"/>
<path d="M168.657 114.236H173.316C181.256 114.236 187.736 107.851 187.9 99.8625L188.083 90.9035C180.046 88.4554 172.008 87.866 163.966 89.1392C159.573 89.8347 156.354 93.6698 156.354 98.1453V101.859C156.354 108.696 161.861 114.236 168.657 114.236Z" fill="white" stroke="#222222" stroke-width="4.85118" stroke-miterlimit="10" stroke-linecap="round" stroke-linejoin="round"/>
<path d="M192.432 92.1018L188.085 90.9033" stroke="#222222" stroke-width="4.85118" stroke-miterlimit="10" stroke-linecap="round" stroke-linejoin="round"/>
<path d="M143.358 98.1455C147.818 95.8232 152.146 95.89 156.356 98.1455Z" fill="white"/>
<path d="M143.358 98.1455C147.818 95.8232 152.146 95.89 156.356 98.1455" stroke="#222222" stroke-width="4.85118" stroke-miterlimit="10" stroke-linecap="round" stroke-linejoin="round"/>
<path d="M145.244 121.667C148.411 123.989 151.485 123.922 154.472 121.667Z" fill="white"/>
<path d="M145.244 121.667C148.411 123.989 151.485 123.922 154.472 121.667" stroke="#222222" stroke-width="4.85118" stroke-miterlimit="10" stroke-linecap="round" stroke-linejoin="round"/>
<path d="M129.774 113.454C132.202 113.454 134.171 110.439 134.171 106.719C134.171 103 132.202 99.9844 129.774 99.9844C127.345 99.9844 125.376 103 125.376 106.719C125.376 110.439 127.345 113.454 129.774 113.454Z" fill="#222222"/>
<path d="M169.834 113.454C172.263 113.454 174.232 110.439 174.232 106.719C174.232 103 172.263 99.9844 169.834 99.9844C167.405 99.9844 165.436 103 165.436 106.719C165.436 110.439 167.405 113.454 169.834 113.454Z" fill="#222222"/>
<path d="M98.949 121.419C96.0315 125.805 91.6377 128.598 86.7206 128.598C77.9369 128.598 70.8131 119.683 70.8131 108.684C70.8131 97.6858 77.933 88.77 86.7206 88.77C89.9778 88.77 93.0086 89.996 95.5316 92.1021" fill="white"/>
<path d="M98.949 121.419C96.0315 125.805 91.6377 128.598 86.7206 128.598C77.9369 128.598 70.8131 119.683 70.8131 108.684C70.8131 97.6858 77.933 88.77 86.7206 88.77C89.9778 88.77 93.0086 89.996 95.5316 92.1021" stroke="#222222" stroke-width="4.85118" stroke-miterlimit="10" stroke-linecap="round" stroke-linejoin="round"/>
<path d="M201.046 121.419C203.963 125.805 208.357 128.598 213.274 128.598C222.058 128.598 229.182 119.683 229.182 108.684C229.182 97.6858 222.062 88.77 213.274 88.77C210.017 88.77 206.986 89.996 204.463 92.1021" fill="white"/>
<path d="M201.046 121.419C203.963 125.805 208.357 128.598 213.274 128.598C222.058 128.598 229.182 119.683 229.182 108.684C229.182 97.6858 222.062 88.77 213.274 88.77C210.017 88.77 206.986 89.996 204.463 92.1021" stroke="#222222" stroke-width="4.85118" stroke-miterlimit="10" stroke-linecap="round" stroke-linejoin="round"/>
<path d="M96.9278 104.504C96.5998 103.258 96.0842 102.036 95.35 100.909C94.6196 99.7808 93.6511 98.7592 92.4833 97.9733C91.3194 97.1913 89.9525 96.6451 88.5464 96.4919C87.1443 96.3269 85.7344 96.5076 84.4768 96.9516C83.2153 97.3957 82.0944 98.0754 81.1375 98.9006C80.1885 99.7297 79.38 100.677 78.7668 101.745C79.8995 101.254 80.954 100.775 82.0163 100.409C82.4342 100.264 82.8521 100.138 83.2622 100.028C82.7545 100.983 82.3209 101.985 81.9772 103.019C81.4734 104.528 81.1454 106.099 81.0165 107.706C80.8876 109.31 80.9618 110.948 81.2977 112.555C81.6336 114.158 82.2389 115.75 83.1958 117.141C84.1566 118.524 85.4962 119.679 87.0155 120.316C88.5308 120.956 90.1673 121.098 91.6514 120.78C91.2921 120.638 90.9406 120.52 90.5969 120.398L89.6127 119.95L89.1518 119.687C89.0034 119.597 88.8433 119.53 88.7066 119.42C88.566 119.318 88.4254 119.22 88.2887 119.125L88.0817 118.98L87.8942 118.811C86.8788 117.946 86.125 116.893 85.5938 115.73C84.5667 113.377 84.3323 110.673 84.5393 107.993C84.758 105.306 85.4142 102.614 86.4609 100.04C86.5155 99.9065 86.578 99.7729 86.6327 99.6393C87.1014 99.6668 87.5544 99.7258 87.9958 99.8279C88.9019 100.028 89.7337 100.421 90.511 100.936C91.2843 101.455 91.999 102.115 92.6317 102.893C93.2644 103.671 93.8268 104.551 94.3306 105.498C94.8383 106.445 95.268 107.471 95.6624 108.543C96.0647 109.616 96.4006 110.736 96.795 111.911C97.17 110.736 97.3418 109.51 97.3731 108.264C97.4004 107.015 97.2598 105.75 96.9278 104.504Z" fill="#222222" stroke="#222222" stroke-width="1.38605" stroke-miterlimit="10"/>
<path d="M202.503 104.504C202.832 103.258 203.347 102.036 204.081 100.909C204.812 99.7808 205.78 98.7592 206.948 97.9733C208.112 97.1913 209.479 96.6451 210.885 96.4919C212.287 96.3269 213.697 96.5076 214.954 96.9516C216.216 97.3957 217.337 98.0754 218.294 98.9006C219.243 99.7297 220.051 100.677 220.664 101.745C219.532 101.254 218.477 100.775 217.415 100.409C216.997 100.264 216.579 100.138 216.169 100.028C216.677 100.983 217.11 101.985 217.454 103.019C217.958 104.528 218.286 106.099 218.415 107.706C218.544 109.31 218.469 110.948 218.134 112.555C217.798 114.158 217.192 115.75 216.235 117.141C215.275 118.524 213.935 119.679 212.416 120.316C210.9 120.956 209.264 121.098 207.78 120.78C208.139 120.638 208.491 120.52 208.834 120.398L209.819 119.95L210.279 119.687C210.428 119.597 210.588 119.53 210.725 119.42C210.865 119.318 211.006 119.22 211.143 119.125L211.35 118.98L211.537 118.811C212.553 117.946 213.306 116.893 213.837 115.73C214.865 113.377 215.099 110.673 214.892 107.993C214.673 105.306 214.017 102.614 212.97 100.04C212.916 99.9065 212.853 99.7729 212.799 99.6393C212.33 99.6668 211.877 99.7258 211.436 99.8279C210.529 100.028 209.698 100.421 208.92 100.936C208.147 101.455 207.432 102.115 206.8 102.893C206.167 103.671 205.604 104.551 205.101 105.498C204.593 106.445 204.163 107.471 203.769 108.543C203.367 109.616 203.031 110.736 202.636 111.911C202.261 110.736 202.089 109.51 202.058 108.264C202.031 107.015 202.171 105.75 202.503 104.504Z" fill="#222222" stroke="#222222" stroke-width="1.38605" stroke-miterlimit="10"/>
<path d="M159.726 141.691H140.268V276.713H159.726V141.691Z" fill="#FF4900" stroke="#222222" stroke-width="4.85118" stroke-miterlimit="10" stroke-linejoin="round"/>
<path d="M140.267 276.713L32.4418 243.168C28.9619 242.087 26.5912 238.85 26.5912 235.187V102.657C26.5912 97.0299 32.0083 93.014 37.3511 94.6762L140.271 126.693V276.713H140.267Z" fill="#FF4900" stroke="#222222" stroke-width="4.85118" stroke-miterlimit="10" stroke-linejoin="round"/>
<path d="M159.727 276.713L267.556 243.168C271.036 242.087 273.407 238.85 273.407 235.187V102.657C273.407 97.0299 267.99 93.014 262.647 94.6762L159.727 126.693V276.713Z" fill="#FF4900" stroke="#222222" stroke-width="4.85118" stroke-miterlimit="10" stroke-linejoin="round"/>
<path d="M275.554 161.503C265.481 164.741 257.17 166.058 255.17 160.611C253.171 155.165 261.185 151.228 271.258 147.986C281.33 144.748 290.453 145.145 291.641 148.878C292.828 152.615 285.626 158.266 275.554 161.503Z" fill="white" stroke="#222222" stroke-width="4.85118" stroke-miterlimit="10" stroke-linejoin="round"/>
<path d="M275.554 176.25C264.381 179.845 255.12 181.708 253.172 175.998C251.223 170.289 260.081 166.324 271.258 162.732C282.432 159.137 292.454 159.251 293.641 162.984C294.829 166.717 286.732 172.654 275.554 176.25Z" fill="white" stroke="#222222" stroke-width="4.85118" stroke-miterlimit="10" stroke-linejoin="round"/>
<path d="M275.554 191.418C265.806 194.554 257.534 195.666 255.753 190.337C253.976 185.009 261.51 181.036 271.258 177.901C281.006 174.765 289.872 175.248 291.059 178.981C292.247 182.714 285.303 188.282 275.554 191.418Z" fill="white" stroke="#222222" stroke-width="4.85118" stroke-miterlimit="10" stroke-linejoin="round"/>
<path d="M275.421 205.607C266.282 208.546 258.224 209.493 256.861 204.593C255.494 199.693 262.255 195.874 271.394 192.935C280.533 189.995 288.844 190.447 289.953 193.948C291.067 197.449 284.56 202.668 275.421 205.607Z" fill="white" stroke="#222222" stroke-width="4.85118" stroke-miterlimit="10" stroke-linejoin="round"/>
<path d="M24.4415 161.503C34.514 164.741 43.7781 166.289 44.8248 160.611C45.8715 154.933 38.8102 151.228 28.7376 147.986C18.6651 144.744 9.54167 145.145 8.35438 148.878C7.16708 152.611 14.3729 158.265 24.4415 161.503Z" fill="white" stroke="#222222" stroke-width="4.85118" stroke-miterlimit="10" stroke-linejoin="round"/>
<path d="M24.4398 176.25C35.6137 179.845 45.3542 182.179 46.8227 175.998C48.4513 169.491 39.9137 166.324 28.7359 162.732C17.562 159.137 7.5403 159.251 6.353 162.984C5.1657 166.717 13.2659 172.654 24.4398 176.25Z" fill="white" stroke="#222222" stroke-width="4.85118" stroke-miterlimit="10" stroke-linejoin="round"/>
<path d="M24.4383 191.418C34.1867 194.554 42.779 196.015 44.2397 190.337C45.7003 184.659 38.4828 181.036 28.7345 177.901C18.9861 174.765 10.1204 175.248 8.93314 178.981C7.74584 182.714 14.69 188.282 24.4383 191.418Z" fill="white" stroke="#222222" stroke-width="4.85118" stroke-miterlimit="10" stroke-linejoin="round"/>
<path d="M24.5776 205.607C33.7167 208.546 41.6685 210.409 43.137 204.593C44.6055 198.782 37.7433 195.874 28.6043 192.935C19.4652 189.995 11.1541 190.447 10.0449 193.948C8.93572 197.449 15.4385 202.668 24.5776 205.607Z" fill="white" stroke="#222222" stroke-width="4.85118" stroke-miterlimit="10" stroke-linejoin="round"/>
<path d="M115.258 80.2668C115.001 77.7559 116.043 75.2489 117.629 73.2646C119.234 71.2724 121.429 69.7988 123.792 68.9304C126.159 68.0581 128.717 67.7674 131.174 68.1289C133.615 68.5061 136.005 69.4688 137.735 71.292C135.282 71.6771 133.232 71.9915 131.26 72.4591C129.299 72.9109 127.456 73.4414 125.671 74.0937C123.886 74.7499 122.179 75.524 120.48 76.4867C118.77 77.4533 117.137 78.6361 115.258 80.2668Z" fill="#222222"/>
<path d="M183.991 81.108C182.245 79.3358 180.706 78.0312 179.07 76.9349C177.453 75.8426 175.809 74.9388 174.079 74.1451C172.348 73.3553 170.552 72.6833 168.634 72.0821C166.701 71.4613 164.682 70.9898 162.268 70.4161C164.135 68.7343 166.591 67.9602 169.052 67.7716C171.528 67.6026 174.059 68.0899 176.352 69.143C178.64 70.196 180.714 71.8346 182.163 73.9447C183.596 76.043 184.444 78.6246 183.991 81.108Z" fill="#222222"/>
<path d="M140.268 261.711H159.726" stroke="#222222" stroke-width="4.85118" stroke-miterlimit="10" stroke-linecap="round" stroke-linejoin="round"/>
<path d="M140.268 246.708H159.726" stroke="#222222" stroke-width="4.85118" stroke-miterlimit="10" stroke-linecap="round" stroke-linejoin="round"/>
<path d="M140.268 231.706H159.726" stroke="#222222" stroke-width="4.85118" stroke-miterlimit="10" stroke-linecap="round" stroke-linejoin="round"/>
<path d="M140.268 216.703H159.726" stroke="#222222" stroke-width="4.85118" stroke-miterlimit="10" stroke-linecap="round" stroke-linejoin="round"/>
<path d="M140.268 201.701H159.726" stroke="#222222" stroke-width="4.85118" stroke-miterlimit="10" stroke-linecap="round" stroke-linejoin="round"/>
<path d="M140.268 186.699H159.726" stroke="#222222" stroke-width="4.85118" stroke-miterlimit="10" stroke-linecap="round" stroke-linejoin="round"/>
<path d="M140.268 171.696H159.726" stroke="#222222" stroke-width="4.85118" stroke-miterlimit="10" stroke-linecap="round" stroke-linejoin="round"/>
<path d="M140.268 156.693H159.726" stroke="#222222" stroke-width="4.85118" stroke-miterlimit="10" stroke-linecap="round" stroke-linejoin="round"/>
<path d="M273.406 106.193L159.726 141.691H140.268L26.5881 106.193" stroke="#222222" stroke-width="4.85118" stroke-miterlimit="10" stroke-linecap="round" stroke-linejoin="round"/>
<path d="M140.269 126.689V132.976V141.691L26.5886 106.193C26.1785 98.114 29.9591 93.3555 37.3485 94.6758L140.269 126.689Z" fill="white" stroke="#222222" stroke-width="4.85118" stroke-miterlimit="10" stroke-linejoin="round"/>
<path d="M159.727 126.689V132.976V141.691L273.407 106.189C273.817 98.1101 270.036 93.3516 262.647 94.6719L159.727 126.689Z" fill="white" stroke="#222222" stroke-width="4.85118" stroke-miterlimit="10" stroke-linejoin="round"/>
<path d="M159.765 126.688H140.268V141.679H159.765V126.688Z" fill="white" stroke="#222222" stroke-width="4.85118" stroke-miterlimit="10" stroke-linejoin="round"/>
<path d="M159.764 134.214L273.405 98.7275" stroke="#222222" stroke-width="4.85118" stroke-miterlimit="10" stroke-linejoin="round"/>
<path d="M26.2194 98.7275L139.86 134.214" stroke="#222222" stroke-width="4.85118" stroke-miterlimit="10" stroke-linejoin="round"/>
<path d="M216.088 198.962C211.148 200.495 206.809 205.014 204.45 210.464C206.711 214.483 210.992 216.334 215.932 214.798C220.873 213.265 225.212 208.743 227.567 203.293C225.302 199.281 221.025 197.434 216.088 198.962Z" stroke="#222222" stroke-width="4.15816" stroke-miterlimit="10" stroke-linecap="round" stroke-linejoin="round"/>
<path d="M220.572 202.939C220.545 205.913 218.487 208.955 215.979 209.733C213.472 210.511 211.465 208.731 211.492 205.756C211.523 202.782 213.578 199.74 216.085 198.966C218.596 198.184 220.604 199.968 220.572 202.939Z" stroke="#222222" stroke-width="4.15816" stroke-miterlimit="10" stroke-linecap="round" stroke-linejoin="round"/>
<path d="M240.328 210.538L228.06 220.558L203.615 228.146L191.453 225.705L216.363 170.78L240.328 210.538Z" stroke="#222222" stroke-width="4.15816" stroke-miterlimit="10" stroke-linecap="round" stroke-linejoin="round"/>
<path d="M209.11 186.777C211.168 187.641 213.598 187.755 216.206 186.946C218.815 186.136 221.26 184.514 223.35 182.364L216.367 170.78L209.11 186.777Z" stroke="#222222" stroke-width="4.15816" stroke-miterlimit="10" stroke-linecap="round" stroke-linejoin="round"/>
<path d="M191.011 266.983L191.452 225.705" stroke="#222222" stroke-width="4.15816" stroke-miterlimit="10" stroke-linecap="round" stroke-linejoin="round"/>
<path d="M240.329 210.539L239.961 251.754" stroke="#222222" stroke-width="4.15816" stroke-miterlimit="10" stroke-linecap="round" stroke-linejoin="round"/>
<path d="M228.058 220.558L227.73 255.557" stroke="#222222" stroke-width="4.15816" stroke-miterlimit="10" stroke-linecap="round" stroke-linejoin="round"/>
<path d="M203.613 228.146L203.253 263.172" stroke="#222222" stroke-width="4.15816" stroke-miterlimit="10" stroke-linecap="round" stroke-linejoin="round"/>
<path d="M177.13 198.958L189.437 195.146" stroke="#222222" stroke-width="4.15816" stroke-miterlimit="10" stroke-linecap="round" stroke-linejoin="round"/>
<path d="M242.95 178.569L253.175 175.999" stroke="#222222" stroke-width="4.15816" stroke-miterlimit="10" stroke-linecap="round" stroke-linejoin="round"/>
<path d="M216.518 155.165L216.659 140.634" stroke="#222222" stroke-width="4.15816" stroke-miterlimit="10" stroke-linecap="round" stroke-linejoin="round"/>
<path d="M197.514 170.289L188.933 162.686" stroke="#222222" stroke-width="4.15816" stroke-miterlimit="10" stroke-linecap="round" stroke-linejoin="round"/>
<path d="M235.323 158.591L244.091 145.632" stroke="#222222" stroke-width="4.15816" stroke-miterlimit="10" stroke-linecap="round" stroke-linejoin="round"/>
<path d="M231.816 139.589L226.91 154.442" stroke="#222222" stroke-width="4.15816" stroke-miterlimit="10" stroke-linecap="round" stroke-linejoin="round"/>
<path d="M201.42 148.98L206.067 160.887" stroke="#222222" stroke-width="4.15816" stroke-miterlimit="10" stroke-linecap="round" stroke-linejoin="round"/>
<path d="M180.397 180.03L191.66 182.176" stroke="#222222" stroke-width="4.15816" stroke-miterlimit="10" stroke-linecap="round" stroke-linejoin="round"/>
<path d="M252.32 157.865L240.713 167.213" stroke="#222222" stroke-width="4.15816" stroke-miterlimit="10" stroke-linecap="round" stroke-linejoin="round"/>
<path d="M179.501 214.656L191.062 205.901" stroke="#222222" stroke-width="4.15816" stroke-miterlimit="10" stroke-linecap="round" stroke-linejoin="round"/>
<path d="M252.548 191.28L241.315 189.685" stroke="#222222" stroke-width="4.15816" stroke-miterlimit="10" stroke-linecap="round" stroke-linejoin="round"/>
<path d="M140.268 126.688L150.017 141.75L159.765 126.688" stroke="#222222" stroke-width="4.85118" stroke-miterlimit="10" stroke-linejoin="round"/>
<path d="M41.0711 130.359L121.968 155.614" stroke="#222222" stroke-width="4.15816" stroke-miterlimit="10" stroke-linecap="round" stroke-linejoin="round"/>
<path d="M44.6088 158.254L121.967 182.404" stroke="#222222" stroke-width="4.15816" stroke-miterlimit="10" stroke-linecap="round" stroke-linejoin="round"/>
<path d="M41.0711 183.94L121.968 209.195" stroke="#222222" stroke-width="4.15816" stroke-miterlimit="10" stroke-linecap="round" stroke-linejoin="round"/>
<path d="M41.0711 210.731L81.5174 223.356" stroke="#222222" stroke-width="4.15816" stroke-miterlimit="10" stroke-linecap="round" stroke-linejoin="round"/>
</g>
<defs>
<clipPath id="clip0_164_4068">
<rect width="300" height="282.5" fill="white" transform="translate(0 0.5)"/>
</clipPath>
</defs>
</svg>
