<svg width="251" height="71" viewBox="0 0 251 71" fill="none" xmlns="http://www.w3.org/2000/svg">
<mask id="mask0_421_5323" style="mask-type:alpha" maskUnits="userSpaceOnUse" x="0" y="0" width="251" height="71">
<rect x="0.501465" y="0.335938" width="250" height="70" fill="#FF490C"/>
</mask>
<g mask="url(#mask0_421_5323)">
<rect x="0.501343" y="0.335938" width="250" height="70" fill="#FF490C"/>
<rect width="6" height="160" transform="matrix(0.974917 0.222567 -0.300008 0.953937 21.0249 -80.6641)" fill="white"/>
<rect width="6" height="160" transform="matrix(0.974917 0.222567 -0.300008 0.953937 40.5232 -76.2129)" fill="white"/>
<rect width="6" height="160" transform="matrix(0.974917 0.222567 -0.300008 0.953937 60.0216 -71.7617)" fill="white"/>
<rect width="6" height="160" transform="matrix(0.974917 0.222567 -0.300008 0.953937 79.52 -67.3105)" fill="white"/>
<rect width="6" height="160" transform="matrix(0.974917 0.222567 -0.300008 0.953937 99.0183 -62.8594)" fill="white"/>
<rect width="6" height="160" transform="matrix(0.974917 0.222567 -0.300008 0.953937 118.517 -58.4082)" fill="white"/>
<rect width="6" height="160" transform="matrix(0.974917 0.222567 -0.300008 0.953937 138.015 -53.957)" fill="white"/>
<rect width="6" height="160" transform="matrix(0.974917 0.222567 -0.300008 0.953937 157.513 -49.5039)" fill="white"/>
<rect width="6" height="160" transform="matrix(0.974917 0.222567 -0.300008 0.953937 177.012 -45.0527)" fill="white"/>
<rect width="6" height="160" transform="matrix(0.974917 0.222567 -0.300008 0.953937 196.51 -40.6016)" fill="white"/>
<rect width="6" height="160" transform="matrix(0.974917 0.222567 -0.300008 0.953937 216.008 -36.1504)" fill="white"/>
<rect width="6" height="160" transform="matrix(0.974917 0.222567 -0.300008 0.953937 235.507 -31.6992)" fill="white"/>
<rect width="6" height="160" transform="matrix(0.974917 0.222567 -0.300008 0.953937 255.005 -27.248)" fill="white"/>
<rect width="6" height="160" transform="matrix(0.974917 0.222567 -0.300008 0.953937 274.503 -22.7969)" fill="white"/>
<rect width="6" height="160" transform="matrix(0.974917 0.222567 -0.300008 0.953937 294.002 -18.3457)" fill="white"/>
</g>
</svg>
