<svg width="153" height="19" viewBox="0 0 153 19" fill="none" xmlns="http://www.w3.org/2000/svg">
<path d="M20.7086 9.47512C20.7086 10.5705 20.5896 11.5457 20.3517 12.4004C20.1138 13.2469 19.7775 13.9855 19.3427 14.6162C18.9162 15.2469 18.3994 15.7821 17.7924 16.222C17.1936 16.6618 16.5251 17.0145 15.7868 17.2801C15.0485 17.5457 14.2528 17.7407 13.3997 17.8652C12.5466 17.9814 11.6566 18.0394 10.7296 18.0394H0V0.935684H10.7049C11.6319 0.935684 12.5219 0.997924 13.375 1.12241C14.2281 1.23859 15.0239 1.42946 15.7622 1.69502C16.5086 1.96058 17.1854 2.31328 17.7924 2.75311C18.3994 3.18465 18.9162 3.71992 19.3427 4.35893C19.7775 4.98963 20.1138 5.72817 20.3517 6.57473C20.5896 7.42118 20.7086 8.38802 20.7086 9.47512ZM16.1067 9.47512C16.1067 8.65359 16 7.93982 15.7868 7.33402C15.5816 6.72823 15.2453 6.23031 14.7778 5.84025C14.3185 5.44191 13.7155 5.14731 12.969 4.95643C12.2225 4.75726 11.3119 4.65768 10.2374 4.65768H4.56499V14.3175H10.2374C11.3119 14.3175 12.2225 14.222 12.969 14.0311C13.7155 13.832 14.3185 13.5332 14.7778 13.1349C15.2453 12.7282 15.5816 12.222 15.7868 11.6162C16 11.0104 16.1067 10.2967 16.1067 9.47512ZM38.3154 5.75309C37.9956 5.59538 37.5731 5.41702 37.0481 5.21785C36.5231 5.01868 35.9283 4.83195 35.2639 4.65768C34.5994 4.47511 33.8776 4.32573 33.0983 4.20955C32.319 4.08507 31.5193 4.02283 30.6989 4.02283C30.0427 4.02283 29.4808 4.04357 29.0131 4.08507C28.5538 4.12656 28.1642 4.1805 27.8442 4.24689C27.5325 4.31329 27.2823 4.39212 27.0937 4.48341C26.9132 4.56639 26.7737 4.65353 26.6753 4.74482C26.5769 4.83611 26.5113 4.92739 26.4785 5.01868C26.4538 5.10996 26.4416 5.19295 26.4416 5.26764C26.4416 5.5166 26.5646 5.73648 26.8107 5.92741C27.0568 6.10992 27.3931 6.27593 27.8197 6.42533C28.2462 6.56643 28.7425 6.70331 29.3085 6.8361C29.8745 6.96058 30.4734 7.09337 31.1049 7.23446C31.7448 7.36725 32.401 7.51665 33.0736 7.68255C33.7545 7.84025 34.4108 8.02698 35.0425 8.24271C35.6822 8.45856 36.2852 8.71162 36.8511 9.00212C37.4172 9.28419 37.9134 9.61622 38.3401 9.99796C38.7666 10.3797 39.103 10.8195 39.349 11.3174C39.5951 11.8153 39.7182 12.3838 39.7182 13.0228C39.7182 13.8444 39.5746 14.5498 39.2875 15.139C39.0004 15.7282 38.6148 16.2261 38.1309 16.6328C37.6551 17.0395 37.1014 17.3673 36.4697 17.6162C35.8381 17.8569 35.1736 18.0436 34.4764 18.1764C33.7874 18.3092 33.086 18.3963 32.3724 18.4378C31.6668 18.4793 30.9942 18.5 30.3544 18.5C28.681 18.5 27.1306 18.3589 25.7033 18.0768C24.2841 17.803 23.029 17.4585 21.938 17.0436V12.9606C23.0619 13.5913 24.3416 14.0851 25.7771 14.442C27.2208 14.7988 28.763 14.9772 30.4036 14.9772C31.3716 14.9772 32.159 14.9274 32.766 14.8278C33.3812 14.7199 33.8612 14.5872 34.2057 14.4294C34.5503 14.2635 34.784 14.0851 34.9071 13.8942C35.0301 13.7034 35.0916 13.5208 35.0916 13.3464C35.0916 13.0727 34.9686 12.8361 34.7225 12.637C34.4764 12.4294 34.1401 12.251 33.7135 12.1016C33.287 11.944 32.7906 11.8029 32.2247 11.6785C31.6586 11.5457 31.0558 11.417 30.4159 11.2925C29.7843 11.1597 29.1321 11.0187 28.4594 10.8693C27.7868 10.7199 27.1306 10.5456 26.4907 10.3465C25.8591 10.1391 25.2603 9.9025 24.6943 9.63692C24.1282 9.36304 23.632 9.04353 23.2054 8.6784C22.7789 8.30495 22.4426 7.87758 22.1965 7.39626C21.9504 6.90665 21.8274 6.34238 21.8274 5.70337C21.8274 4.94814 21.9585 4.29668 22.221 3.74897C22.4835 3.20125 22.8362 2.73652 23.2793 2.35477C23.7304 1.96474 24.2472 1.64938 24.8296 1.40871C25.4202 1.16804 26.0396 0.981323 26.6876 0.848547C27.3356 0.715771 27.9919 0.624481 28.6564 0.574689C29.3208 0.524896 29.9524 0.5 30.5512 0.5C31.2075 0.5 31.8802 0.533191 32.5692 0.599584C33.2664 0.665978 33.9514 0.76141 34.6241 0.885891C35.2967 1.00208 35.9447 1.13901 36.5682 1.29668C37.1998 1.45435 37.7822 1.62033 38.3154 1.7946V5.75309ZM52.7969 0.5C54.4539 0.5 55.992 0.645224 57.4112 0.935684C58.8384 1.21784 60.1468 1.58299 61.3362 2.03112V6.21369C60.8687 5.94812 60.3396 5.69085 59.749 5.44191C59.1665 5.19295 58.5308 4.97304 57.8418 4.78216C57.1527 4.59129 56.4144 4.43777 55.627 4.32158C54.8395 4.2054 54.011 4.14731 53.1415 4.14731C52.0586 4.14731 51.1153 4.22615 50.3114 4.38382C49.5075 4.54149 48.8185 4.75311 48.2442 5.01868C47.67 5.28424 47.1983 5.59538 46.8292 5.95233C46.46 6.30085 46.1688 6.6743 45.9556 7.07266C45.7423 7.47091 45.5947 7.87758 45.5126 8.29255C45.4306 8.70753 45.3895 9.10998 45.3895 9.50004C45.3895 9.84026 45.4224 10.2096 45.488 10.6079C45.5618 11.0062 45.6931 11.4046 45.8817 11.8029C46.0786 12.2013 46.3494 12.5831 46.6939 12.9482C47.0384 13.3133 47.4854 13.6369 48.0351 13.9191C48.5929 14.2013 49.2614 14.4294 50.0407 14.6038C50.82 14.7698 51.7469 14.8527 52.8215 14.8527C53.3629 14.8527 53.8347 14.8361 54.2365 14.8029C54.6385 14.7698 55.0036 14.724 55.3317 14.666C55.668 14.6079 55.9797 14.5373 56.2668 14.4544C56.5621 14.3714 56.8657 14.2843 57.1773 14.193V12.1265H52.0586V8.37971H61.7424V17.1183C61.1353 17.3257 60.4545 17.5167 59.6998 17.6909C58.9533 17.8569 58.1781 17.998 57.3742 18.1142C56.5785 18.2386 55.7787 18.3341 54.9748 18.4004C54.1709 18.4668 53.4122 18.5 52.6985 18.5C51.591 18.5 50.5287 18.4254 49.5116 18.276C48.4944 18.1266 47.5429 17.8984 46.657 17.5913C45.7792 17.276 44.9753 16.8777 44.2452 16.3963C43.5234 15.9149 42.9041 15.3423 42.3873 14.6784C41.8787 14.0146 41.4809 13.2552 41.1937 12.4004C40.9148 11.5374 40.7753 10.5705 40.7753 9.50004C40.7753 8.43774 40.923 7.47512 41.2184 6.61206C41.5136 5.74899 41.9238 4.98548 42.4488 4.32158C42.9819 3.65768 43.6177 3.08506 44.356 2.60373C45.1025 2.12241 45.9187 1.72822 46.8046 1.42116C47.6987 1.1058 48.6503 0.873443 49.6592 0.724066C50.6764 0.574689 51.7223 0.5 52.7969 0.5ZM80.4935 18.0394L69.0872 6.28834V18.0394H64.5221V0.935684H69.481L80.8995 12.7365V0.935684H85.44V18.0394H80.4935ZM88.589 18.0394V0.935684H105.705V4.58299H93.277V7.40867H105.065V11.0561H93.277V14.3921H105.877V18.0394H88.589ZM112.717 18.0394H108.153V0.935684H119.596C120.826 0.935684 121.868 1.06432 122.721 1.32157C123.582 1.57883 124.279 1.94398 124.812 2.41701C125.354 2.89005 125.743 3.46266 125.982 4.13486C126.228 4.79876 126.351 5.54145 126.351 6.36309C126.351 7.08506 126.248 7.71577 126.043 8.25523C125.846 8.79457 125.576 9.25939 125.23 9.64944C124.894 10.0311 124.501 10.3548 124.05 10.6204C123.598 10.8859 123.123 11.1058 122.622 11.2801L128.159 18.0394H122.819L117.7 11.7407H112.717V18.0394ZM121.736 6.33817C121.736 6.00626 121.691 5.72408 121.601 5.4917C121.519 5.25934 121.372 5.07262 121.158 4.93154C120.945 4.78216 120.657 4.67428 120.296 4.60789C119.944 4.54149 119.501 4.5083 118.968 4.5083H112.717V8.16807H118.968C119.501 8.16807 119.944 8.13485 120.296 8.06851C120.657 8.00206 120.945 7.8984 121.158 7.75731C121.372 7.6079 121.519 7.41697 121.601 7.18462C121.691 6.95227 121.736 6.67009 121.736 6.33817ZM144.868 5.75309C144.548 5.59538 144.126 5.41702 143.601 5.21785C143.075 5.01868 142.48 4.83195 141.817 4.65768C141.152 4.47511 140.43 4.32573 139.651 4.20955C138.871 4.08507 138.072 4.02283 137.252 4.02283C136.595 4.02283 136.033 4.04357 135.566 4.08507C135.107 4.12656 134.716 4.1805 134.397 4.24689C134.085 4.31329 133.835 4.39212 133.647 4.48341C133.466 4.56639 133.326 4.65353 133.228 4.74482C133.129 4.83611 133.064 4.92739 133.032 5.01868C133.007 5.10996 132.994 5.19295 132.994 5.26764C132.994 5.5166 133.117 5.73648 133.363 5.92741C133.61 6.10992 133.946 6.27593 134.372 6.42533C134.799 6.56643 135.295 6.70331 135.861 6.8361C136.427 6.96058 137.025 7.09337 137.658 7.23446C138.298 7.36725 138.953 7.51665 139.626 7.68255C140.307 7.84025 140.963 8.02698 141.595 8.24271C142.235 8.45856 142.838 8.71162 143.404 9.00212C143.97 9.28419 144.466 9.61622 144.893 9.99796C145.319 10.3797 145.656 10.8195 145.902 11.3174C146.148 11.8153 146.271 12.3838 146.271 13.0228C146.271 13.8444 146.127 14.5498 145.84 15.139C145.553 15.7282 145.167 16.2261 144.684 16.6328C144.208 17.0395 143.654 17.3673 143.023 17.6162C142.39 17.8569 141.726 18.0436 141.03 18.1764C140.34 18.3092 139.638 18.3963 138.925 18.4378C138.22 18.4793 137.547 18.5 136.907 18.5C135.234 18.5 133.683 18.3589 132.256 18.0768C130.837 17.803 129.582 17.4585 128.491 17.0436V12.9606C129.615 13.5913 130.895 14.0851 132.33 14.442C133.774 14.7988 135.316 14.9772 136.956 14.9772C137.924 14.9772 138.711 14.9274 139.319 14.8278C139.934 14.7199 140.414 14.5872 140.758 14.4294C141.103 14.2635 141.337 14.0851 141.459 13.8942C141.583 13.7034 141.645 13.5208 141.645 13.3464C141.645 13.0727 141.521 12.8361 141.275 12.637C141.03 12.4294 140.693 12.251 140.266 12.1016C139.84 11.944 139.344 11.8029 138.778 11.6785C138.211 11.5457 137.608 11.417 136.968 11.2925C136.337 11.1597 135.685 11.0187 135.012 10.8693C134.34 10.7199 133.683 10.5456 133.043 10.3465C132.412 10.1391 131.812 9.9025 131.247 9.63692C130.681 9.36304 130.185 9.04353 129.758 8.6784C129.331 8.30495 128.995 7.87758 128.749 7.39626C128.503 6.90665 128.38 6.34238 128.38 5.70337C128.38 4.94814 128.511 4.29668 128.773 3.74897C129.037 3.20125 129.389 2.73652 129.832 2.35477C130.283 1.96474 130.8 1.64938 131.383 1.40871C131.973 1.16804 132.592 0.981323 133.241 0.848547C133.889 0.715771 134.544 0.624481 135.209 0.574689C135.874 0.524896 136.505 0.5 137.104 0.5C137.76 0.5 138.433 0.533191 139.122 0.599584C139.819 0.665978 140.504 0.76141 141.177 0.885891C141.849 1.00208 142.497 1.13901 143.12 1.29668C143.753 1.45435 144.335 1.62033 144.868 1.7946V5.75309ZM152.065 12.1764H149.014L148.078 4.65768V0.935684H153V4.65768L152.065 12.1764ZM148.337 18.0394V14.0685H152.742V18.0394H148.337Z" fill="#1D1D1F"/>
</svg>
