<svg width="230" height="27" viewBox="0 0 230 27" fill="none" xmlns="http://www.w3.org/2000/svg">
<path id="Vector" d="M31.1183 13.4627C31.1183 15.1058 30.9394 16.5685 30.582 17.8506C30.2245 19.1203 29.7192 20.2282 29.0658 21.1743C28.4249 22.1203 27.6483 22.9232 26.7362 23.583C25.8364 24.2427 24.8318 24.7718 23.7224 25.1702C22.613 25.5685 21.4173 25.8611 20.1353 26.0478C18.8534 26.2221 17.516 26.3091 16.123 26.3091H0V0.653525H16.086C17.479 0.653525 18.8164 0.746887 20.0983 0.933608C21.3802 1.10789 22.576 1.39418 23.6854 1.79253C24.8071 2.19087 25.824 2.71992 26.7362 3.37966C27.6483 4.02697 28.4249 4.82988 29.0658 5.78839C29.7192 6.73444 30.2245 7.84226 30.582 9.1121C30.9394 10.3818 31.1183 11.832 31.1183 13.4627ZM24.2031 13.4627C24.2031 12.2304 24.0428 11.1597 23.7224 10.251C23.4141 9.34235 22.9088 8.59546 22.2062 8.01038C21.516 7.41287 20.6099 6.97096 19.4882 6.68465C18.3665 6.3859 16.9982 6.23652 15.3834 6.23652H6.85969V20.7262H15.3834C16.9982 20.7262 18.3665 20.583 19.4882 20.2966C20.6099 19.9979 21.516 19.5497 22.2062 18.9524C22.9088 18.3424 23.4141 17.583 23.7224 16.6743C24.0428 15.7656 24.2031 14.695 24.2031 13.4627ZM57.5756 7.87964C57.0949 7.64308 56.4601 7.37552 55.6712 7.07677C54.8822 6.77801 53.9885 6.49793 52.9902 6.23652C51.9917 5.96267 50.907 5.7386 49.7359 5.56432C48.565 5.3776 47.3632 5.28424 46.1304 5.28424C45.1444 5.28424 44.3 5.31535 43.5973 5.3776C42.907 5.43985 42.3216 5.52075 41.8408 5.62034C41.3724 5.71993 40.9964 5.83817 40.713 5.97511C40.4417 6.09959 40.2321 6.23029 40.0842 6.36723C39.9364 6.50416 39.8378 6.64108 39.7885 6.77801C39.7515 6.91495 39.733 7.03942 39.733 7.15146C39.733 7.5249 39.9179 7.85472 40.2877 8.14112C40.6575 8.41488 41.1629 8.6639 41.8039 8.888C42.4448 9.09964 43.1906 9.30497 44.0411 9.50415C44.8916 9.69087 45.7915 9.89005 46.7405 10.1017C47.702 10.3009 48.6882 10.525 49.6989 10.7738C50.7221 11.0104 51.7082 11.2905 52.6574 11.6141C53.6187 11.9378 54.5248 12.3174 55.3752 12.7532C56.2259 13.1763 56.9715 13.6743 57.6126 14.2469C58.2535 14.8196 58.759 15.4792 59.1288 16.2261C59.4986 16.973 59.6835 17.8257 59.6835 18.7843C59.6835 20.0165 59.4676 21.0747 59.0363 21.9585C58.6049 22.8423 58.0255 23.5892 57.2982 24.1992C56.5833 24.8092 55.7513 25.3009 54.8021 25.6743C53.853 26.0353 52.8545 26.3154 51.8068 26.5146C50.7714 26.7138 49.7175 26.8445 48.6451 26.9066C47.5849 26.9689 46.5742 27 45.6127 27C43.0982 27 40.7684 26.7884 38.6237 26.3653C36.4911 25.9544 34.6051 25.4378 32.9657 24.8153V18.6909C34.6545 19.637 36.5775 20.3777 38.7345 20.9129C40.9039 21.4482 43.2214 21.7158 45.6868 21.7158C47.1413 21.7158 48.3245 21.6411 49.2366 21.4917C50.1611 21.3299 50.8823 21.1307 51.4 20.8942C51.9178 20.6453 52.269 20.3777 52.4539 20.0913C52.6388 19.8051 52.7313 19.5311 52.7313 19.2697C52.7313 18.859 52.5464 18.5042 52.1766 18.2055C51.8068 17.8942 51.3014 17.6265 50.6604 17.4024C50.0195 17.1661 49.2736 16.9544 48.4232 16.7677C47.5726 16.5685 46.6667 16.3755 45.7052 16.1888C44.756 15.9896 43.7761 15.7781 42.7652 15.554C41.7546 15.3299 40.7684 15.0684 39.8069 14.7697C38.8577 14.4586 37.9579 14.1037 37.1075 13.7054C36.2568 13.2946 35.5112 12.8153 34.8701 12.2676C34.2292 11.7074 33.7239 11.0664 33.3541 10.3444C32.9843 9.60997 32.7994 8.76358 32.7994 7.80505C32.7994 6.67221 32.9965 5.69503 33.3909 4.87345C33.7854 4.05188 34.3154 3.35478 34.9812 2.78215C35.6591 2.1971 36.4357 1.72407 37.3108 1.36307C38.1983 1.00207 39.129 0.721984 40.1028 0.52282C41.0765 0.323656 42.0627 0.186722 43.0612 0.112033C44.0595 0.0373443 45.0087 0 45.9085 0C46.8947 0 47.9055 0.0497861 48.9409 0.149377C49.9886 0.248967 51.0178 0.392115 52.0287 0.578837C53.0394 0.753116 54.0132 0.95851 54.95 1.19502C55.8992 1.43153 56.7743 1.68049 57.5756 1.9419V7.87964ZM79.3365 0C81.8265 0 84.1377 0.217836 86.2703 0.653525C88.415 1.07676 90.3811 1.62448 92.1684 2.29668V8.57054C91.4658 8.17218 90.6708 7.78628 89.7833 7.41287C88.908 7.03942 87.9528 6.70955 86.9174 6.42324C85.8819 6.13693 84.7725 5.90665 83.5893 5.73237C82.4059 5.55809 81.1609 5.47096 79.8543 5.47096C78.2271 5.47096 76.8096 5.58922 75.6017 5.82573C74.3936 6.06224 73.3582 6.37967 72.4953 6.77801C71.6325 7.17636 70.9236 7.64308 70.369 8.17849C69.8143 8.70128 69.3767 9.26145 69.0563 9.85899C68.7358 10.4564 68.5139 11.0664 68.3905 11.6888C68.2673 12.3113 68.2056 12.915 68.2056 13.5001C68.2056 14.0104 68.255 14.5644 68.3537 15.1618C68.4646 15.7593 68.6618 16.3569 68.9452 16.9544C69.2411 17.552 69.648 18.1246 70.1656 18.6723C70.6833 19.22 71.3551 19.7054 72.1811 20.1287C73.0192 20.552 74.0238 20.8942 75.1949 21.1556C76.3659 21.4047 77.7588 21.5291 79.3735 21.5291C80.1871 21.5291 80.8959 21.5042 81.4998 21.4543C82.1038 21.4047 82.6524 21.3361 83.1454 21.249C83.6508 21.1618 84.1193 21.056 84.5506 20.9315C84.9944 20.8071 85.4506 20.6764 85.9189 20.5395V17.4398H78.2271V11.8196H92.7787V24.9275C91.8664 25.2386 90.8433 25.525 89.7093 25.7863C88.5876 26.0353 87.4227 26.247 86.2147 26.4212C85.0191 26.608 83.8172 26.7512 82.6092 26.8507C81.4013 26.9502 80.2611 27 79.1886 27C77.5245 27 75.9282 26.888 74.3998 26.6639C72.8713 26.4398 71.4415 26.0976 70.1102 25.637C68.7913 25.164 67.5832 24.5665 66.4861 23.8445C65.4014 23.1224 64.4709 22.2635 63.6943 21.2676C62.93 20.2719 62.3322 19.1328 61.9007 17.8506C61.4816 16.556 61.272 15.1058 61.272 13.5001C61.272 11.9066 61.4939 10.4627 61.9377 9.16808C62.3814 7.87349 62.9978 6.72823 63.7867 5.73237C64.5878 4.73652 65.5432 3.8776 66.6526 3.1556C67.7743 2.43361 69.0008 1.84233 70.3321 1.38174C71.6756 0.908706 73.1056 0.560165 74.6216 0.336099C76.1501 0.112033 77.7217 0 79.3365 0ZM120.955 26.3091L103.816 8.68251V26.3091H96.9557V0.653525H104.407L121.566 18.3548V0.653525H128.388V26.3091H120.955ZM133.12 26.3091V0.653525H158.84V6.12449H140.165V10.363H157.878V15.8341H140.165V20.8382H159.098V26.3091H133.12ZM169.376 26.3091H162.518V0.653525H179.713C181.562 0.653525 183.127 0.846477 184.41 1.23236C185.703 1.61825 186.751 2.16597 187.552 2.87551C188.366 3.58507 188.951 4.44399 189.31 5.45229C189.68 6.44814 189.864 7.56218 189.864 8.79464C189.864 9.87759 189.71 10.8237 189.401 11.6328C189.105 12.4419 188.699 13.1391 188.181 13.7242C187.675 14.2966 187.084 14.7822 186.406 15.1806C185.728 15.5789 185.013 15.9087 184.261 16.1701L192.582 26.3091H184.557L176.865 16.861H169.376V26.3091ZM182.929 8.75726C182.929 8.25939 182.862 7.83611 182.727 7.48755C182.603 7.13901 182.382 6.85893 182.061 6.64731C181.741 6.42324 181.309 6.26142 180.766 6.16183C180.237 6.06224 179.571 6.01245 178.77 6.01245H169.376V11.5021H178.77C179.571 11.5021 180.237 11.4523 180.766 11.3528C181.309 11.2531 181.741 11.0976 182.061 10.886C182.382 10.6619 182.603 10.3755 182.727 10.0269C182.862 9.67841 182.929 9.25513 182.929 8.75726ZM217.69 7.87964C217.208 7.64308 216.574 7.37552 215.785 7.07677C214.996 6.77801 214.102 6.49793 213.104 6.23652C212.106 5.96267 211.021 5.7386 209.849 5.56432C208.678 5.3776 207.476 5.28424 206.244 5.28424C205.257 5.28424 204.414 5.31535 203.711 5.3776C203.021 5.43985 202.435 5.52075 201.955 5.62034C201.487 5.71993 201.11 5.83817 200.828 5.97511C200.555 6.09959 200.346 6.23029 200.199 6.36723C200.05 6.50416 199.952 6.64108 199.903 6.77801C199.866 6.91495 199.847 7.03942 199.847 7.15146C199.847 7.5249 200.032 7.85472 200.402 8.14112C200.772 8.41488 201.277 8.6639 201.918 8.888C202.558 9.09964 203.304 9.30497 204.155 9.50415C205.005 9.69087 205.905 9.89005 206.854 10.1017C207.816 10.3009 208.801 10.525 209.812 10.7738C210.836 11.0104 211.822 11.2905 212.771 11.6141C213.733 11.9378 214.639 12.3174 215.489 12.7532C216.339 13.1763 217.085 13.6743 217.727 14.2469C218.367 14.8196 218.873 15.4792 219.243 16.2261C219.613 16.973 219.797 17.8257 219.797 18.7843C219.797 20.0165 219.581 21.0747 219.15 21.9585C218.719 22.8423 218.139 23.5892 217.412 24.1992C216.698 24.8092 215.864 25.3009 214.916 25.6743C213.966 26.0353 212.968 26.3154 211.921 26.5146C210.885 26.7138 209.831 26.8445 208.759 26.9066C207.7 26.9689 206.689 27 205.727 27C203.212 27 200.882 26.7884 198.737 26.3653C196.606 25.9544 194.72 25.4378 193.08 24.8153V18.6909C194.769 19.637 196.692 20.3777 198.848 20.9129C201.019 21.4482 203.336 21.7158 205.8 21.7158C207.255 21.7158 208.438 21.6411 209.351 21.4917C210.275 21.3299 210.997 21.1307 211.514 20.8942C212.031 20.6453 212.383 20.3777 212.567 20.0913C212.753 19.8051 212.846 19.5311 212.846 19.2697C212.846 18.859 212.66 18.5042 212.29 18.2055C211.921 17.8942 211.416 17.6265 210.774 17.4024C210.133 17.1661 209.388 16.9544 208.538 16.7677C207.686 16.5685 206.78 16.3755 205.818 16.1888C204.87 15.9896 203.89 15.7781 202.879 15.554C201.869 15.3299 200.882 15.0684 199.92 14.7697C198.972 14.4586 198.071 14.1037 197.221 13.7054C196.371 13.2946 195.625 12.8153 194.983 12.2676C194.343 11.7074 193.837 11.0664 193.467 10.3444C193.099 9.60997 192.913 8.76358 192.913 7.80505C192.913 6.67221 193.111 5.69503 193.504 4.87345C193.9 4.05188 194.429 3.35478 195.095 2.78215C195.772 2.1971 196.55 1.72407 197.425 1.36307C198.313 1.00207 199.242 0.721984 200.217 0.52282C201.191 0.323656 202.176 0.186722 203.175 0.112033C204.174 0.0373443 205.122 0 206.023 0C207.008 0 208.019 0.0497861 209.055 0.149377C210.103 0.248967 211.132 0.392115 212.143 0.578837C213.153 0.753116 214.127 0.95851 215.063 1.19502C216.013 1.43153 216.889 1.68049 217.69 1.9419V7.87964ZM228.505 17.5146H223.919L222.513 6.23652V0.653525H229.909V6.23652L228.505 17.5146ZM222.902 26.3091V20.3528H229.522V26.3091H222.902Z" fill="white"/>
</svg>
