<svg width="450" height="479" fill="none" xmlns="http://www.w3.org/2000/svg"><mask id="a" style="mask-type:alpha" maskUnits="userSpaceOnUse" x="0" y="0" width="450" height="479"><path fill="#D9D9D9" d="M.848 0h448.167v478.576H.848z"/></mask><g mask="url(#a)"><path d="M426.666 166.161c-10.423-2.551-20.963 3.832-23.519 14.274l-.4 1.637c-.773 3.156-.629 6.288.099 9.233-3.063-2.195-6.591-3.842-10.494-4.798-8.745-2.14-17.556-.29-24.49 4.373.067-2.131-.549-4.181-1.786-5.888a89.523 89.523 0 0 0 9.411-9.715l.542-.693c1.017-1.279 2.063-2.51 2.943-3.74l1.644-2.324c1.132-1.581 1.726-3.501 1.754-5.476.019-1.936-.547-3.851-1.588-5.344a9.91 9.91 0 0 0-1.541-1.823c3.269-3.041 6.322-6.217 8.995-9.362 3.37-3.966 6.117-7.754 8.28-11.52.474-.751.879-1.56 1.313-2.321l.983-1.99c.415-.848.829-1.697 1.079-2.379a31.423 31.423 0 0 0 1.182-3.138l.028-.117c.106-.264.326-.994.46-1.54.038-.156.056-.399.094-.555.085-.516.131-1.042.12-1.334a9.15 9.15 0 0 0-.633-3.5 9.633 9.633 0 0 0-4.726-5.203c.27-.43.58-.849.841-1.24 2.832-4.304 4.802-7.786 6.362-11.287 1.155-2.525 1.933-4.689 2.342-6.53.201-.653.324-1.325.514-2.27 0 0 .133-.71.142-.75.029-.116.047-.36.076-.476.101-1.09.046-2.219-.233-3.278-.936-3.781-4.119-6.5-7.719-7.175 1.469-4.143 2.412-8.165 2.858-12.186.101-1.09.154-2.151.207-3.212-.011-.126.027-.282.017-.409l.005-.866a34.8 34.8 0 0 0-.053-2.49l-.032-.545c-.083-1.012-.167-2.023-.328-2.889l-.252-1.672a9.361 9.361 0 0 0-3.109-5.386c-3.271-2.866-8.078-3.175-11.555-.804-.495.333-.951.675-1.339 1.076-.427.391-.775.802-1.201 1.358-.058.069-.194.283-.252.352l-4.159 5.837c-3.852 5.087-8.403 10.498-14.303 17.025-4.864 5.335-9.972 10.651-15.614 16.292a231.849 231.849 0 0 1-3.917 3.832c-.463-8.084-4.802-15.547-11.532-20.002.723.26 1.427.597 2.168.778 9.604 2.35 19.319-3.532 21.664-13.118l.572-2.337c2.346-9.586-3.555-19.29-13.158-21.64-9.604-2.35-19.319 3.533-21.664 13.118l-.572 2.338c-1.755 7.17 1.111 14.396 6.67 18.565-1.241-.51-2.491-.982-3.818-1.306-8.159-1.997-16.335.132-22.42 5.044l.111-1.129c-.001-.165.008-.37.037-.487l.021-3.298c.026-.613.03-1.645-.239-2.743-.751-3.529-3.359-6.397-6.679-7.54-.459-.154-.879-.298-1.357-.373.124-.507.2-.984.285-1.5.616-3.194 1.285-7.45 1.407-11.838.092-2.745-.078-5.43-.56-8.026-.051-.3-.14-.612-.24-1.05-.14-.612-.439-1.924-1.343-3.301a9.085 9.085 0 0 0-5.987-3.943 9.961 9.961 0 0 0-3.177-.035 48.286 48.286 0 0 0-1.812-10.52c-.239-.884-.536-1.7-.852-2.603l-.228-.593c-.247-.68-.534-1.37-.889-2.117l-.315-.738a4.387 4.387 0 0 0-.276-.563l-.394-.757c-.345-.622-.689-1.243-1.132-1.97l-.855-1.242c-.413-.68-1.435-2.251-3.146-3.207a9.357 9.357 0 0 0-7.062-1.067c-2.385.614-4.462 2.17-5.437 3.956-.937 1.463-1.193 2.846-1.364 3.713l-.465 2.24c-.105.429-.171.867-.276 1.296l-.61 2.493c-1.48 5.71-3.358 11.692-6.113 19.401-2.218 6.19-4.669 12.486-7.478 19.232-2.887 6.893-5.641 13.074-8.417 18.837a213.048 213.048 0 0 1-4.561 9.002 418.145 418.145 0 0 1-5.107 9.034c-3.312 5.756-6.779 11.639-10.575 18.02a1111.496 1111.496 0 0 1-10.907 17.856 719.495 719.495 0 0 1-5.604 8.87c-.609.966-1.257 1.923-1.914 2.918-1.315 1.991-2.688 4.05-3.943 6.304-2.152 3.892-3.729 7.801-4.625 11.629-.638 2.776-.993 5.58-.978 8.392-7.193 5.384-13.496 11.358-18.714 17.804l-1.452 1.875a78.295 78.295 0 0 0-8.438-3.222c-3.34-1.064-6.795-1.993-10.23-2.668.261-2.249.385-4.614.381-7.134-.043-2.53-.183-5-.46-7.422a86.255 86.255 0 0 0-1.179-7.185 89.586 89.586 0 0 0-4.023-13.828 96.125 96.125 0 0 0-2.824-6.721 55.248 55.248 0 0 0-3.917-6.988c-.766-1.096-1.68-2.435-3.286-3.819-.068-.058-.235-.223-.313-.242-.069-.058-.489-.367-.558-.425a3.44 3.44 0 0 0-.538-.338c-.362-.213-.763-.435-.841-.454a8.095 8.095 0 0 0-1.631-.606c-.663-.162-.985-.199-1.638-.235-.615-.027-1.073-.015-1.969.096-1.587.231-2.754.772-3.532 1.077-2.703 1.238-4.81 2.746-7.023 4.352-3.456 2.623-6.88 5.626-10.748 9.429-6.835 6.793-12.838 14.079-17.836 21.653-2.823 4.265-5.15 8.362-7.086 12.555a192.96 192.96 0 0 0-5.31 12.742 172.591 172.591 0 0 0-4.373 13.301 139.624 139.624 0 0 0-1.649 6.907 95.314 95.314 0 0 0-.653 3.515c-.104.594-.178 1.237-.272 1.957l-2.413 2.59a151.921 151.921 0 0 1-4.468 4.564c-3.268 3.207-6.313 6.013-9.37 8.528-3.531 2.935-6.754 5.285-9.805 7.099-1.788 1.049-3.352 1.864-4.811 2.415-1.829.709-3.056.822-3.349.833l-1.297-.111a4.317 4.317 0 0 0-.701-.007l-2.592.109c-.76.062-1.49.173-2.27.312l-.944.141c-4.226.866-8.212 2.781-11.452 5.54-2.92 2.465-5.389 5.619-7.366 9.472-3.23 6.436-4.878 13.508-4.847 20.991a37.007 37.007 0 0 0 7.174 21.578l.607.562c.413.514.815 1.066 1.404 1.706l1.646 1.724c.098.107.236.223.334.33l1.91 1.665c.548.464 1.145.899 1.741 1.335l.744.512a39.215 39.215 0 0 0 10.192 4.848c17.134 5.225 29.535 20.154 41.563 34.578 3.62 4.313 7.319 8.811 11.143 12.968.421.475.853.911 1.274 1.386-.748 12.867.208 25.697 2.923 39.122l.1.438c.049.136.06.262.109.398 1.794 5.519 7.032 9.815 14.647 12.174 5.546 1.688 11.874 2.204 16.889 1.325 5.618-.979 8.928-3.515 10.589-6.412.056 1.294.141 2.636.236 3.94a175.99 175.99 0 0 0 3.115 22.609c.06.262.14.612.239.884a16.913 16.913 0 0 0 2.893 5.086c1.157 1.357 2.401 2.528 3.644 3.369 2.172 1.606 4.674 2.879 7.643 3.935 1.338.452 2.724.874 4.13 1.217 3.552.87 7.249 1.32 11.099 1.312 3.157-.053 5.816-.435 8.483-1.186 1.294-.386 3.21-1.115 5.345-2.739.359-.284.932-.764 1.339-1.242a9.467 9.467 0 0 0 1.412-1.885l.425-.722c.222-.4.376-.858.548-1.394.116-.302.192-.613.259-.886.076-.312.152-.624.19-.945l.074-.642c.037-.322.045-.692.073-.974.019-.078.007-.535-.023-.584l-.002-2.189c.024-.944.058-1.927.121-2.861.106-1.956.29-3.894.553-5.812.084-.681.217-1.392.31-2.113 11.295 5.077 23.093 9.451 35.755 13.334 1.309.403 2.587.757 3.905 1.121.731 5.3 1.432 10.551 2.002 14.985l.396 2.947c.702 5.416 5.521 9.734 13.575 12.159 1.269.394 2.597.718 3.855.985 4.069.789 17.705 2.722 22.9-6.331 2.665-4.634 4.89-11.193 6.668-19.472a112.544 112.544 0 0 0 15.845-2.358l2.387 17.64s.191 1.079.192 1.244c.09.477.279 1.225.664 2.021.207.505.483 1.068.817 1.563.934 1.426 2.11 2.705 3.725 3.885 1.869 1.324 4 2.424 6.509 3.327 1.983.692 4.042 1.237 6.208 1.685 2.137.399 4.321.603 6.505.642 2.768.016 5.067-.247 7.198-.841 1.684-.455 3.113-1.055 4.337-1.829 1.846-1.118 3.378-2.643 4.536-4.672l1.254-2.419c.078-.146.145-.254.183-.409l1.146-2.652c1.23-3.168 2.293-6.666 3.39-10.982a154.052 154.052 0 0 0 3.421-21.587c.379-3.748.544-7.466.701-10.979.045-2.385.092-4.603.041-6.763 8.048-9.388 13.994-20.157 17.779-32.074a12.842 12.842 0 0 0 4.222 2.024c.819.201 1.697.333 2.507.407.858.045 1.774.021 2.679-.129a11.621 11.621 0 0 0 5.815-2.624c1.3-1.086 2.345-2.483 3.213-4.17.328-.663.568-1.306.808-1.95l.351.086c2.049.419 4.104-.028 5.832-1.174 1.729-1.147 2.869-2.932 3.278-4.939.417-2.045-.032-4.096-1.182-5.823-.216-.3-.432-.601-.697-.872-.012-.458-.034-.876-.046-1.333a73.28 73.28 0 0 1 .023-2.968c.012-1.401.033-2.841-.024-4.301a33.18 33.18 0 0 0-.346-4.503c-.273-1.76-.663-3.714-1.699-5.909-.778-1.553-1.75-2.823-2.876-3.801-1.489-1.355-3.375-2.271-5.298-2.7a14.59 14.59 0 0 0-2.623-.271c-.741-.016-1.549.076-2.416.235-.565.11-1.1.268-1.684.455-1.787-2.502-3.631-4.605-5.687-6.347a29.425 29.425 0 0 0-3.611-2.66c-2.847-10.855-7.36-21.665-13.479-32.165-3.198-5.532-6.843-10.926-10.819-16.152 3.024-3.06 5.216-6.777 6.519-10.918.752 5.553 4.823 10.39 10.601 11.803 7.573 1.854 15.209-2.803 17.049-10.323l.391-1.598c1.85-7.559-2.821-15.186-10.356-17.029-6.363-1.557-12.74 1.507-15.742 7.009.314-8.72-3.445-17.032-10.239-22.411a9.879 9.879 0 0 0 .129-3.231c5.283-1.805 10.513-4.242 15.623-7.369l2.758-1.803c.097-.059.359-.284.457-.343a7.56 7.56 0 0 0 1.619-1.544c.184-.244.329-.498.512-.742-.817 14.502 8.818 28.051 23.457 31.634 16.514 4.041 33.223-6.077 37.256-22.559l.792-3.234c1.649-6.741.901-13.49-1.656-19.443 1.153.529 2.403 1.001 3.692 1.316 10.423 2.55 21.003-3.822 23.558-14.265l.401-1.636c2.661-10.706-3.732-21.273-14.156-23.824Zm-128.935-31.427c-.252.186-.456.342-.708.528a10.314 10.314 0 0 0-2.148-2.384c.241-.477.434-.926.675-1.404l1.232-2.837c.289-.673.587-1.384.837-2.067l.384-1.062c.471-1.248.951-2.534 1.267-3.655l1.338-4.793c3.029 3.178 6.912 5.573 11.393 6.876a1148.683 1148.683 0 0 1-14.27 10.798Zm57.335 74.283-.229.936c-.278-1.06-.693-2.07-1.332-3.011 1.039-.695 2.029-1.527 3.038-2.271-.587 1.384-1.105 2.827-1.477 4.346Z" fill="#fff"/><path d="M232.705 434.791c.709 5.047 1.845 13.089 2.364 17.222l.346 2.645c.353.417 1.891 1.743 5.513 2.836a33.04 33.04 0 0 0 2.732.668c6.508 1.304 10.185-.026 10.62-.787 2.095-3.659 4.573-12.262 6.054-19.498-8.597-.039-18.613-1.21-27.629-3.086ZM122.752 381.082l-26.753-19.349-.087 5.43a143.23 143.23 0 0 0 2.854 30.268c.543 1.331 2.581 3.151 6.769 4.465l.342.125c3.739 1.121 8.117 1.491 11.438.94 1.081-.189 1.898-.485 2.326-.711-.089-5.555.579-11.835 1.845-17.348l1.266-3.82Z" fill="#FE490C"/><path d="M326.48 436.924c.207-1.188.367-2.347.526-3.505.085-.516.131-1.042.216-1.558.065-.604.12-1.168.224-1.762.15-1.12.251-2.21.343-3.261.361-3.505.557-7.009.685-10.24.089-3.406.111-6.539-.041-9.467a33.714 33.714 0 0 1-2.042-9.751c-.222-3.151-.074-6.46.461-10.17.142-.915.527-1.812 1.254-2.419.854-.782 1.963-1.089 3.085-.938.195.048.4.056.586.143a3.887 3.887 0 0 1 2.692 4.045c-.333 3.223-.376 6.103-.099 8.69.052.632.144 1.274.274 1.925 5.535-7.4 9.72-15.709 12.468-24.742 7.058-23.093 2.74-49.919-12.136-75.53-19.304-33.219-52.661-59.058-91.625-70.946a189.665 189.665 0 0 0-6.501-1.839l-4.003-1.227s-.658 9.791-2.478 17.564c-1.819 7.773-3.37 12.928-7.539 22.356s-8.214 11.247-7.927 15.653c.233 3.444.171 13.505-1.876 22.379-1.485 4.716-3.578 10.564-5.673 14.222-4.027 6.985-10.883 16.912-15.929 21.129-5.045 4.217-15.038 12.757-25.916 14.431-10.839 1.684-13.218 1.432-17.106 1.761-.03-2.073 1.676-3.803 3.752-3.831 8.459-.078 16.956-2.335 24.526-6.553 7.22-3.974 13.943-9.804 19.47-16.835 5.381-6.942 9.462-14.658 12.068-22.94 2.711-8.711 3.512-17.394 2.3-25.125-.05-.301-.091-.641-.053-.963l.028-.117.029-.116c-.04-.175-.002-.331.036-.487.038-.156.076-.312.154-.458a.584.584 0 0 1 .096-.224c.106-.264.26-.556.453-.839 4.274-6.305 7.773-13.502 10.729-22.03 2.59-7.543 4.593-15.725 5.989-24.304a182.969 182.969 0 0 0 2.212-25.105c.02-1.771.554-21.876-3.408-33.418a38.52 38.52 0 0 0-1.079-3.031c-.365-.874-.739-1.544-1.112-2.048-.128-.155-.216-.3-.324-.368l-.127.01c-.204-.009-.555.071-.857.121l-.175.04c-.876.198-1.762.436-2.618.722-3.327 1.085-6.857 2.658-11.055 4.935-3.683 2.031-7.199 4.226-10.432 6.615-6.971 4.984-13.032 10.646-18.008 16.779-1.017 1.279-2.401 3.047-3.639 4.891-1.228 1.806-2.3 3.485-3.256 5.192-2.047 3.629-3.742 7.344-5.018 11.037-.682 1.94-2.713 2.971-4.724 2.396l-.156-.038c-1.865-.663-2.948-2.663-2.442-4.562 1.184-4.501 2.963-8.898 5.279-13.121a81.925 81.925 0 0 0-8.605-3.386 301.75 301.75 0 0 0-1.65-.528c-3.778-1.131-7.691-2.048-11.603-2.633a87.27 87.27 0 0 0-6.798-.796 72.468 72.468 0 0 0-6.814-.222 60.71 60.71 0 0 0-6.713.381 58.143 58.143 0 0 0-3.214.452c-1.217.239-2.142.467-2.872.743-.778.305-1.645.299-2.416.069-1.738-.508-2.966-2.254-2.655-4.201.207-1.354 1.185-2.477 2.469-2.989 1.381-.57 2.744-.898 3.844-1.165a37.841 37.841 0 0 1 3.856-.709c2.444-.351 4.89-.538 7.56-.628 2.787-.061 5.633-.025 8.393.196.17-.867.341-1.734.434-2.62.223-1.927.349-3.961.367-6.063-.031-2.073-.14-4.164-.395-6.168-.255-2.168-.578-4.23-1.008-6.193-.86-4.093-2.013-8.174-3.526-12.137a87.128 87.128 0 0 0-2.429-5.798c-1.016-2.107-1.961-3.825-2.924-5.3-.206-.339-.432-.601-.579-.844-1.42.727-2.915 1.765-4.293 2.832-3 2.281-6.113 5.029-9.545 8.401-6.292 6.266-11.772 12.937-16.355 19.827-2.503 3.807-4.55 7.436-6.256 11.024-1.887 4.163-3.571 8.17-4.993 11.952-1.557 4.162-2.938 8.284-4.037 12.269-.602 2.289-1.097 4.315-1.477 6.205a53.615 53.615 0 0 0-.549 3.087c-.065.438-.131.876-.188 1.275l-.027.283-.094.72c-.036.487-.16.993-.284 1.5a8.453 8.453 0 0 1-1.437 2.828c-.174.205-.358.45-.474.586l-.882.899-2.297 2.453a251.092 251.092 0 0 1-4.788 4.858 158.142 158.142 0 0 1-10.068 9.182c-4.055 3.386-7.667 5.971-11.3 8.138-.292.176-.583.353-.865.49.039.01.107.068.146.077-2.272 1.509-5.886 1.905-5.886 1.905s10.877 7.122 16.383 15.903c5.506 8.781.047 22.973-2.188 27.877-.982 2.155-2.667 4.138-4.2 5.663-1.482 1.496-3.948-.264-3.032-2.146.154-.293.299-.547.522-.781 3.302-3.859 5.508-8.812 6.413-14.372.414-2.707.497-5.412.21-7.96-.218-2.49-.924-5.017-2-7.551a23.232 23.232 0 0 0-4.168-6.472 24.28 24.28 0 0 0-6.088-4.711c-1.31-.733-2.775-1.34-4.425-1.867-.889-.259-1.855-.537-2.88-.746a5.392 5.392 0 0 1-.79-.152 7.35 7.35 0 0 0-1.034-.171l-1.999-.117-1.968.096c-.214.031-.555.071-.945.141-.263.059-.516.08-.779.14a13.828 13.828 0 0 0-6.114 3.005c-1.766 1.467-3.247 3.459-4.5 5.878-2.334 4.632-3.6 10.146-3.532 15.614.059 5.341 1.724 10.54 4.7 14.613 2.8 3.947 7.26 7.021 12.6 8.7l.04.009c20.404 6.233 33.924 22.508 47.04 38.231 3.68 4.411 7.163 8.608 10.79 12.552 12.119 13.208 25.505 21.067 37.327 28.049 3.764 2.201 7.265 4.297 10.522 6.374l2.289 1.469-.551.897c.139.447.19.914.164 1.362-.391 7.007-.353 14.12.202 21.153a178.25 178.25 0 0 0 2.851 20.644c.208.505.473.942.758 1.301a8.6 8.6 0 0 0 1.548 1.452c1.301.938 2.845 1.729 4.672 2.382l1.298.442c3.115.969 6.519 1.43 9.872 1.424 1.988-.009 3.741-.24 5.172-.675.807-.257 1.283-.512 1.487-.668l-.024-.915-.003-.496c.017-.409-.004-.827.022-1.275.033-1.148.075-2.336.119-3.357.153-2.317.374-4.575.645-6.698a84.816 84.816 0 0 1 1.212-6.641c.295-1.374.629-2.572 1.013-3.634.452-1.17.991-2.36 1.638-3.482 1.246-2.214 2.853-4.216 4.734-5.986 1.707-1.564 2.977-2.864 4.051-4.212 2.421-2.959 4.313-6.296 5.697-9.922 1.326-3.392 2.28-7.288 2.813-11.494a3.752 3.752 0 0 1 1.448-2.537c.815-.626 1.788-.883 2.832-.752 0 0 .215 3.687-.745 8.118-.97 4.471-5.202 14.834-8.059 18.223-2.896 3.38-6.582 8.466-6.582 8.466 11.882 5.551 27.412 11.581 40.895 15.665 21.488 6.539 42.568 7.98 61.369 4.197l5.059-1.57s-7.926-5.821-13.972-11.72c-6.055-5.859-11.969-19.737-12.811-22.214-.842-2.478-1.644-6.639-1.644-6.639.652-.129 1.315-.132 1.969.069 1.269.394 2.259 1.42 2.568 2.694 1.505 6.026 4.285 11.91 8.234 17.584a62.197 62.197 0 0 0 6.279 7.483c.206.175.392.427.627.649.363.378.696.708 1.068 1.046l1.861 1.695.588.474a61.163 61.163 0 0 0 3.22 2.564l.108.067c1.008.784 2.074 1.499 3.219 2.234l.782.521 2.709 1.613c.254.145.538.338.861.541.597.435 1.106.89 1.596 1.423.951 1.018 1.718 2.279 2.222 3.6.248.68.447 1.389.528 2.07l3.108 22.979c.127.155.353.417.705.668.949.687 2.171 1.275 3.616 1.794.42.144.801.278 1.221.422 1.044.297 2.098.555 3.201.783a23.36 23.36 0 0 0 4.486.437c1.608.022 2.923-.11 3.994-.426 1.1-.268 1.623-.718 1.749-.894l1.032-2.019.914-2.213c1.028-2.68 1.928-5.681 2.883-9.412.905-3.867 1.511-7.023 1.944-9.973Z" fill="#FE490C"/><path d="M200.133 162.597c.714-3.088 1.993-6.285 3.769-9.485 1.11-2 2.367-3.922 3.614-5.806.657-.995 1.324-2.03 1.982-3.025a488.798 488.798 0 0 0 5.614-8.91c3.556-5.737 7.14-11.592 10.975-17.963 3.844-6.41 7.321-12.332 10.681-18.118 1.95-3.405 3.63-6.38 5.184-9.18 1.487-2.692 3.01-5.706 4.783-9.401 2.863-5.949 5.646-12.247 8.6-19.247 2.838-6.863 5.356-13.267 7.622-19.651 2.852-7.934 4.787-14.15 6.333-20.132l.629-2.571c.134-.546.238-1.14.371-1.685.077-.312.104-.594.181-.906l.266-1.256.105-.43c.047-.194.066-.437.182-.574a.684.684 0 0 1 .398-.274.68.68 0 0 1 .556.095c.108.067.255.31.412.513l.777 1.223c.295.485.58 1.01.866 1.533.108.233.226.427.374.67.138.282.237.553.375.835.246.515.463.98.632 1.476l.296.816c.198.544.396 1.088.545 1.662 1.509 4.994 2.007 10.567 1.506 17.011-.064.77-.287 2.697-.454 4.225-.065.604.24 1.215.797 1.476.548.299 1.19.208 1.666-.212 2.114-1.878 4.666-4.02 7.581-5.62.195-.118.418-.187.614-.139.156.038.341.125.43.27.059.097.128.321.159.535.01.126.06.262.08.35l.01.126c.02.088.04.175.05.302.362 1.905.519 3.967.443 6.138-.076 3.863-.728 7.71-1.268 10.592a119.105 119.105 0 0 1-2.516 10.452 82.976 82.976 0 0 1-1.283 4.229 1.353 1.353 0 0 0 .534 1.535c.499.328 1.172.286 1.598-.105 1.252-1.056 2.533-2.064 3.727-2.887.836-.54 1.622-1.049 2.439-1.51.34-.206.719-.402 1.06-.442.302-.05.623-.013.975.073.615.192 1.096.764 1.235 1.376.07.224.042.506.044.837.01.126.011.292-.017.408l-.043 2.88a61.58 61.58 0 0 1-.102.926l-.046.525a9.36 9.36 0 0 0-.092 1.052c-.065.603-.14 1.246-.195 1.81-1.122 6.953-3.432 14.193-7.102 22.091a161.409 161.409 0 0 1-3.578 7.013c-.386.731-.342 1.568.119 2.218a2.115 2.115 0 0 0 2.071.837c.779-.14 1.597-.27 2.367-.371.769-.101 1.538-.202 2.289-.224.506-.042 1.034.17 1.436.557.372.339.57.883.563 1.418-.009.205-.066.439-.133.711l-.965 3.605-.728 2.3c-.306 1.081-.739 2.173-1.123 3.235-.144.419-.326.829-.47 1.248-.163.497-.365.984-.616 1.501-.096.224-.193.449-.279.634l-.944 2.164c-.983 1.99-2.14 4.35-3.482 6.623-.203.322-.609.966-.957 1.542-.338.536-.334 1.198-.019 1.771.324.533.95.852 1.592.761.634-.051 1.277-.142 1.911-.028.361.047.721.094 1.053.093.283.028.575.016.77.064.234.058.459.154.645.241.391.26.705.668.844 1.115a1.71 1.71 0 0 1-.119 1.333l-.887 1.931c-.394.936-.915 1.882-1.388 2.799-.154.292-.318.624-.473.917a57.362 57.362 0 0 1-2.733 4.576c-.553.401-1.107.802-1.709 1.233-3.107 2.214-6.214 4.427-9.35 6.591-1.553 1.107-3.136 2.165-4.719 3.223-.787.51-1.593 1.097-2.399 1.685-.398.274-.796.548-1.204.861l-1.135.92c-3.037 2.437-5.878 5.252-8.161 8.493-1.18 1.611-2.145 3.357-3.032 5.122-.385.897-.819 1.823-1.165 2.73-.316.955-.662 1.861-.9 2.835-1.062 3.829-1.527 7.762-1.692 11.646l-.115 5.712-.15 2.813-.238 2.832c-.413 4.731-1.04 9.492-1.775 14.185a163.969 163.969 0 0 0-12.094-3.331c.499-5.081.841-10.201.93-15.3.129-8.641-.23-17.319-1.593-25.954-.725-4.307-1.616-8.613-3.374-12.76-.444-1.059-.976-2.097-1.683-3.096-.187-.253-.373-.505-.569-.718-.235-.223-.422-.475-.696-.707a5.762 5.762 0 0 0-1.917-1.13 4.834 4.834 0 0 0-1.121-.15 28.7 28.7 0 0 0-.955.014c-.634.051-1.198.161-1.754.231-1.129.22-2.199.536-3.27.852-4.223 1.362-8.199 3.239-12.018 5.319-2.624 1.423-5.159 2.991-7.665 4.608-.024-2.608.205-5.236.805-7.856ZM289.508 275.2c-9.04-8.035-19.204-14.859-30.12-20.297-.44-.232-.609-.727-.377-1.166a.888.888 0 0 1 1.128-.385c11.275 4.99 21.944 11.441 31.626 19.22.763.6.867 1.699.276 2.422-.6.762-1.701.864-2.425.274-.078-.02-.108-.068-.108-.068ZM306.878 291.633a126.72 126.72 0 0 0-10.268-9.947c-.715-.629-.819-1.728-.189-2.441.63-.713 1.73-.816 2.445-.187.03.049.098.107.128.156a124.491 124.491 0 0 1 9.184 11.333.835.835 0 0 1-.208 1.188c-.281.303-.798.217-1.092-.102Z" fill="#fff"/><path d="m314.923 286.993-.464-4.698c-.134-1.313-.657-2.556-1.539-3.515-13.327-14.866-29.974-27.323-48.385-36.289-1.22 1.602-2.517 3.184-4.05 4.543a5.823 5.823 0 0 1-.757.559c20.452 9.588 38.687 23.673 52.463 40.59.952 1.183 2.897.337 2.732-1.19ZM36.061 285.574c.014-1.07.106-2.121.197-3.173l.257-3.076c.155-1.985.231-3.99.425-5.966l.02-.078c.184-1.937 1.637-3.647 3.332-3.81 1.48-.133 2.617.971 2.714 2.605.178 2.315-.043 4.739-.459 7.115a36.72 36.72 0 0 1-.828 3.555 22.06 22.06 0 0 1-1.249 3.412c-.636 1.413-2.055 2.14-3.178 1.658-.782-.356-1.196-1.201-1.172-2.145l-.059-.097ZM24.32 280.8c.033-.983.058-1.927.13-2.9l.19-2.803c.126-1.869.194-3.669.31-5.499l.01-.039c.147-1.782 1.513-3.306 3.072-3.42 1.393-.113 2.422.923 2.556 2.402.187 2.11.014 4.339-.345 6.482a29.891 29.891 0 0 1-.742 3.204 22.84 22.84 0 0 1-1.134 3.109c-.558 1.268-1.88 1.936-2.964 1.464-.704-.338-1.137-1.104-1.132-1.97l.049-.03ZM73.03 235.11c.702.006 1.394.052 2.067.175-.078-.019-.195-.048-.282-.028.556.095 1.122.316 1.697.333.458-.012.944-.306 1.058-.773.105-.429-.044-1.002-.445-1.224-.225-.097-.4-.222-.635-.28-.234-.057-.439-.066-.673-.123-.322-.038-.595-.104-.927-.103-.604-.065-1.218-.092-1.813-.031-.292.011-.516.081-.73.276-.203.157-.328.498-.346.741.032.545.444 1.059 1.03 1.037ZM292.445 139.593a4.291 4.291 0 0 0-1.884-2.443 3.797 3.797 0 0 0-1.397-.548l-.078-.02c-.4-.056-.761-.103-1.053-.092-.283-.028-.527-.046-.81-.074a7.429 7.429 0 0 0-1.014-.083c.077-.146.145-.254.203-.322 1.401-2.342 2.616-4.77 3.627-6.877l.953-2.203c.097-.224.183-.409.28-.634.211-.526.471-1.082.653-1.657.144-.419.279-.799.462-1.208.393-1.102.836-2.232 1.151-3.353l.738-2.339.974-3.643c.086-.351.2-.818.227-1.266.043-1.187-.442-2.421-1.323-3.215a4.522 4.522 0 0 0-3.253-1.25c-.838.043-1.695.163-2.503.255-.594.061-1.198.161-1.802.261a129.948 129.948 0 0 0 3.337-6.535c3.767-8.122 6.163-15.548 7.313-22.782l.223-1.928c.047-.36.084-.682.092-1.051l.046-.526c.037-.321.084-.681.082-1.012l.019-.078.023-2.968c-.01-.127.009-.204-.002-.33.017-.41.015-.906-.115-1.392-.31-1.439-1.418-2.66-2.794-3.12a4.263 4.263 0 0 0-2.146-.195c-.73.11-1.352.454-1.828.709a37.89 37.89 0 0 0-2.633 1.627c-.398.274-.796.549-1.204.862.077-.312.201-.653.278-.965a123.972 123.972 0 0 0 2.564-10.647c.568-3 1.2-6.933 1.314-10.952.075-2.336-.083-4.563-.484-6.644-.04-.175-.08-.35-.129-.486l-.02-.087-.06-.263c-.08-.35-.2-.874-.495-1.36-.452-.688-1.196-1.2-2.034-1.324-.752-.142-1.579.027-2.259.439-2.284 1.217-4.313 2.744-6.137 4.28.132-.876.177-1.568.233-1.967.49-6.735-.02-12.6-1.598-17.818-.169-.661-.397-1.254-.624-1.846-.108-.233-.168-.496-.267-.768a23.036 23.036 0 0 0-.711-1.66c-.138-.282-.237-.554-.375-.836-.03-.048-.02-.087-.049-.136-.109-.233-.256-.475-.365-.708a21.672 21.672 0 0 0-.945-1.718l-.777-1.223c-.275-.397-.59-.97-1.215-1.288-.685-.416-1.563-.548-2.4-.34-.798.218-1.497.708-1.864 1.361-.328.498-.413 1.014-.46 1.374l-.086.351-.266 1.256c-.076.312-.114.633-.19.945a21.956 21.956 0 0 1-.352 1.607l-.619 2.533c-1.528 5.904-3.444 12.042-6.247 19.946-2.256 6.345-4.765 12.71-7.594 19.534-2.905 6.97-5.678 13.23-8.531 19.14-1.764 3.657-3.278 6.631-4.716 9.294-1.505 2.77-3.185 5.746-5.135 9.15a974.037 974.037 0 0 1-10.633 18.089c-3.825 6.332-7.38 12.235-10.965 17.924a484.483 484.483 0 0 1-5.605 8.871c-.618 1.005-1.276 2-1.933 2.996-1.257 1.922-2.562 3.874-3.73 5.942-1.902 3.376-3.238 6.807-4 10.089a31.354 31.354 0 0 0-.613 10.96c.041.34.189.583.424.805.397-.439.892-.772 1.456-1.047.233-.109.428-.226.661-.334.048-.03.107-.098.194-.118a27.695 27.695 0 0 1 .62-9.636c.705-3.049 1.974-6.207 3.741-9.368 1.1-1.96 2.367-3.922 3.604-5.767.657-.995 1.324-2.03 1.982-3.025a488.687 488.687 0 0 0 5.614-8.909 1596.88 1596.88 0 0 0 10.975-17.964 1328.47 1328.47 0 0 0 10.691-18.156 780.84 780.84 0 0 0 5.184-9.18c1.496-2.731 3.01-5.706 4.793-9.44 2.862-5.95 5.645-12.248 8.599-19.248 2.838-6.863 5.357-13.267 7.622-19.65 2.861-7.973 4.796-14.19 6.343-20.171l.629-2.572c.143-.584.238-1.14.381-1.724.076-.312.104-.594.18-.906l.256-1.217.115-.468c.038-.156.047-.36.114-.467.01-.04.058-.069.146-.089.088-.02.214-.03.283.028.068.058.186.252.275.398l.776 1.223c.296.485.542 1 .867 1.533.108.233.226.427.374.67.138.281.236.553.374.835.247.514.464.98.603 1.428l.297.816c.198.544.405 1.049.554 1.622 1.479 4.946 1.987 10.48 1.496 16.885-.055.73-.278 2.658-.446 4.186-.103.76.301 1.478.956 1.845.547.299 1.356.207 1.899-.32 2.114-1.878 4.618-3.991 7.523-5.552.146-.088.282-.137.36-.118.078.019.147.077.216.135.029.049.098.272.099.438.011.126.06.262.071.388l.01.127.06.262c.361 1.906.489 3.92.423 6.05-.116 3.854-.719 7.671-1.249 10.515-.654 3.35-1.445 6.75-2.507 10.413a82.976 82.976 0 0 1-1.283 4.229c-.22.73.047 1.498.683 1.943a1.7 1.7 0 0 0 2.017-.126c1.213-1.066 2.494-2.074 3.678-2.858a23.735 23.735 0 0 1 2.429-1.47c.331-.167.671-.373.924-.394.263-.06.546-.032.77.065.498.163.89.59 1.01 1.114.04.175.052.467.024.75.01.126.011.291-.017.408l-.014 2.929-.083.847-.046.525c-.047.36-.084.682-.091 1.052-.065.603-.14 1.246-.195 1.81-1.122 6.953-3.422 14.154-7.083 22.013a148.236 148.236 0 0 1-3.569 6.974c-.453.839-.409 1.841.151 2.597.559.757 1.497 1.151 2.412.962.779-.14 1.597-.27 2.367-.371.808-.091 1.539-.201 2.289-.224.419-.021.829.162 1.172.452.304.281.491.698.464 1.146.001.166-.056.399-.113.633l-.965 3.605-.728 2.299c-.306 1.082-.681 2.105-1.113 3.197-.144.419-.327.829-.471 1.248a11.49 11.49 0 0 1-.606 1.462c-.097.224-.193.448-.279.634l-.934 2.125c-.984 1.99-2.14 4.35-3.473 6.584-.203.322-.609.966-.957 1.542a2.017 2.017 0 0 0-.027 2.14 1.933 1.933 0 0 0 1.925.926c.594-.061 1.227-.113 1.783-.018.4.056.761.103 1.093.102.243.018.526.046.731.055.195.048.381.135.488.202.323.203.569.552.688.912.118.359.062.758-.102 1.09l-.886 1.931c-.394.935-.897 1.804-1.379 2.76-.154.292-.318.624-.472.916a55.266 55.266 0 0 1-3.382 5.533c-.444.634-.284 1.5.362 1.905.636.445 1.502.285 1.908-.359a60.898 60.898 0 0 0 3.536-5.825c.154-.292.308-.585.472-.917a41.4 41.4 0 0 0 1.466-2.945l.876-1.891c.678-.908.779-1.999.442-2.99Z" fill="#222"/><path d="M228.705 193.789c-.256-4.027-.765-8.034-1.45-12.001a60.892 60.892 0 0 0-1.298-5.851c-.13-.486-.259-.972-.398-1.419l-.238-.719-.119-.36a.707.707 0 0 0-.108-.233c-.228-.592-.766-1.096-1.47-1.433-.665-.328-1.484-.529-2.244-.467-.38.031-.731.111-1.052.239a3.184 3.184 0 0 0-.476.255l-.631.382c-1.7 1.03-3.351 2.195-4.924 3.379-3.203 2.438-6.18 5.137-8.991 8.001-5.622 5.727-10.626 12.143-15.015 18.916a142.452 142.452 0 0 0-11.394 21.37 1.02 1.02 0 0 1-1.372.532c-.527-.212-.755-.804-.543-1.33 3.175-7.566 6.956-14.9 11.382-21.829 4.427-6.928 9.391-13.519 15.148-19.461 2.879-2.971 5.924-5.778 9.195-8.322a57.173 57.173 0 0 1 5.097-3.585l.68-.411c.098-.059.282-.138.428-.226.146-.088.292-.177.467-.216a6.61 6.61 0 0 1 1.927-.437 6.725 6.725 0 0 1 3.698.781c1.144.569 2.192 1.527 2.735 2.858.089.145.119.359.169.495l.109.399.228.758c.13.486.289 1.02.379 1.496.498 2.022.87 4.054 1.193 6.115.617 4.075.971 8.208 1.081 12.324a1.03 1.03 0 0 1-1.008 1.075c-.683-.085-1.153-.53-1.185-1.075ZM125.729 143.358a169.79 169.79 0 0 1-9.428 26.354c-3.823 8.521-8.349 16.706-13.297 24.58-.329.498-.942.637-1.441.309-.46-.319-.638-.941-.319-1.4 4.86-7.855 9.172-16.009 12.859-24.482 3.677-8.433 6.729-17.185 8.952-26.098.181-.741.949-1.172 1.69-.991.733.221 1.175.949.984 1.728 0 0 .01-.039 0 0ZM115.026 254.554c-1.442-.023-2.851.83-3.428 2.176-.289.673-.246 1.509.138 2.14.413.679 1.127 1.143 1.926 1.091 1.384-.075 2.41-1.393 2.646-2.698.132-.876-.273-1.76-1.161-2.019-.927-.268-1.802.262-2.314 1.003-.31.42-.473.917-.363 1.481.131.651.776 1.057 1.42 1.132.848.084 1.771-.475 2.167-1.245.144-.254.202-.488.151-.789-.069-.224-.207-.505-.432-.602-.44-.231-1.151-.199-1.402.318a.572.572 0 0 0-.144.254c.135-.215.116-.137.019-.078-.049.029-.098.059-.107.098.068-.108.155-.128.058-.069-.049.03-.136.049-.146.088.01-.039.224-.069.088-.019a.302.302 0 0 0-.175.039c.282-.137.156.039.048-.029l.117.029c.039.009.108.067.147.077-.069-.058-.078-.019.039.009a.582.582 0 0 1 .247.515c-.001-.166-.029.117-.029.117-.05-.136.204-.157-.01.039a.734.734 0 0 0 .145-.254s.01-.039.049-.029l-.058.068.106-.098.049-.029c.058-.069.058-.069 0 0l-.049.029.098-.059c-.01.039-.224.07-.049.03.136-.049-.244-.018-.088.02.166-.001-.078-.019-.117-.029.117.029.078.019-.107-.068.068.058.068.058 0 0-.039-.009-.03-.048-.069-.058.069.058.03.049-.059-.097 0 0 .02.088.059.097-.029-.048-.059-.097-.049-.136-.01.039.029.049.02.088 0 0-.012-.292-.011-.127-.009.039-.019.078.011.127l.019-.078-.067.273c-.019.078-.087.185.058-.069-.01.039-.019.078-.068.108-.058.068-.077.146-.135.214-.058.069-.116.137-.135.215.135-.215.116-.137.058-.068a.294.294 0 0 0-.116.136c-.058.069-.107.098-.165.167.174-.206.146-.089.048-.03l-.097.059c-.048.029-.184.079 0 0 .185-.079 0 0 0 0-.039-.01-.048.029-.087.02-.175.04.283.028.039.009-.039-.009-.078-.019-.127.011.214-.031.234.057.117.028a8.845 8.845 0 0 1-.156-.038s.254.145.117.029c-.039-.01-.176-.126-.039-.01.137.116 0 0-.039-.009 0 0-.068-.058-.059-.097.089.145.128.155.059.097l-.029-.049c-.03-.048-.02-.087-.05-.136-.088-.145.02.088.02.088.019-.078-.04-.175-.06-.263.06.263.001.166.03.049l-.001-.166c.039.01-.057.234-.01.039l.057-.234c.039-.155-.019.078-.019.078s.078-.146.087-.185c.019-.078.068-.107.126-.176.009-.039.009-.039.058-.068.058-.068.058-.068-.049.029.098-.058.165-.166.223-.234.049-.03.058-.068.107-.098.01-.039.049-.029.058-.068l-.048.029c.019-.078.242-.147.291-.176.088-.02.194-.118.282-.138-.039-.009-.049.03-.088.02.049-.029.088-.02.136-.049.049-.03.127-.011.176-.04.039.01.087-.02.126-.01.039.009.302-.05.088-.02.214-.03.389-.07.593-.227a.82.82 0 0 0 .26-.555c-.197-.544-.512-.952-.97-.94Z" fill="#fff"/><path d="M106.985 264.935c3.021 1.854 6.88 3.501 10.451 2.268 2.675-.956 4.24-3.464 4.615-6.18.16-1.159.132-2.57-.439-3.618-.265-.437-.638-.941-1.146-1.065-.966-.278-1.82.504-1.795 1.419.01.126-.009.204.002.331.03.214.122 1.021.041.34.031.38.072.72.152 1.07.09.476-.002-.331-.01.039.01.126.03.214.002.331.011.292.022.583-.005.866l-.055.73c-.027.282.105-.429.038-.156l-.047.195-.115.467a4.836 4.836 0 0 1-.22.731c-.029.117-.106.263-.134.38-.087.185-.156.127.058-.068-.058.068-.087.185-.145.253l-.406.644c-.068.108-.397.44-.077.147-.107.098-.223.234-.33.332-.223.235-.475.421-.737.646-.204.156.243-.147 0 0-.097.058-.155.127-.243.147-.145.088-.282.137-.427.225-.088.02-.137.05-.234.109-.136.049.127-.011-.136.049-.175.04-.399.109-.574.148-.477.09-.565.11-1.023.122-2.281.02-4.508-.855-6.492-1.878-.597-.435-1.254.56-.569.976Z" fill="#fff"/><path d="M111.992 269.835c2.447-.021 4.712-.995 6.546-2.57 1.571-1.35 3.237-3.42 3.069-5.609-.053-.797-1.117-1.016-1.434-.227-.615 1.667-1.572 3.209-2.949 4.441-1.484 1.33-3.369 2.438-5.414 2.681-.721.072-.568 1.307.182 1.284Z" fill="#fff"/><path d="M119.686 256.48c-.632-1.476-1.904-2.531-3.365-2.31-.818.13-1.242 1.018-1.043 1.893.12.524.368 1.204.176 1.818-.114.468-.541.859-.959 1.046-.603.265-1.15.132-1.726-.051-.42-.144-.849-.249-1.008-.783-.268-.933-1.678-.246-1.468.756-.009.039.03.048.02.087a1.554 1.554 0 0 0-.317.79c-.503 2.396.545 5.213 3.454 6.007 3.416.919 5.216-1.532 5.985-3.491.798-1.911.922-4.276.251-5.762ZM118.938 247.871c-.321-.038.039.009.117.028l.313.077.546.133c.391.096.811.24 1.182.413.117.029.186.087.303.116l.078.019c.107.068.107.068-.039-.01 0 0 .518.251.557.261.44.231.87.502 1.319.694.45.193 1.14-.093 1.362-.492.232-.439.267-1.092-.135-1.479-.783-.687-1.76-1.091-2.746-1.457a13.56 13.56 0 0 0-2.782-.639c-.604-.065-1.205.531-1.183 1.115.012.291.101.602.297.816.226.261.45.358.811.405Z" fill="#222"/><path d="M64.49 249.208c2.548.747 5.61 1.084 7.97-.445 1.865-1.196 2.936-3.205 3.139-5.385.101-1.091.082-2.706-.76-3.49-.51-.455-1.435-.393-1.616.348-.133.545-.043 1.022.028 1.576.02.087.03.214.05.301.04.175-.03-.214.01-.039-.01.039.02.088.01.127.03.214.013.457.043.671l-.026.613c-.019.078-.008.205-.028.283-.019.077-.075.477.001.165a6.43 6.43 0 0 1-.295 1.208c-.02.078-.048.195-.106.263-.01.039-.173.371-.038.156-.087.185-.213.361-.309.585-.27.429-.377.527-.755.889-.32.293-.563.44-1 .705a4.716 4.716 0 0 1-1.353.454c-1.48.299-3.05.121-4.494-.233-.908-.18-1.281 1.008-.471 1.248Z" fill="#fff"/><path d="M64.195 245.173c1.27 2.252 3.792 3.612 6.356 3.62.828-.004.89-1.269.031-1.314-2.047-.088-4.236-1.119-5.434-2.816-.187-.252-.49-.368-.771-.23-.195.118-.32.459-.181.74Z" fill="#fff"/><path d="M70.105 238.772c-.223.069-.359.284-.377.527.003.496-.032 1.314-.449 1.666-.378.362-1.05.404-1.499.376a.556.556 0 0 0-.553.402c-1.08 3.907.244 5.428 1.552 5.831 2.392.709 4.487-1.091 5.235-3.468 1.12-3.732.07-5.021-1.502-5.53-.986-.2-1.862-.001-2.407.196Z" fill="#222"/><path d="M69.122 238.737c-.448.138-.914.355-1.254.726a2.314 2.314 0 0 0-.473.751 2.688 2.688 0 0 0-.19.78c-.048.194.09.476.227.592a.897.897 0 0 0 .596.27c.37.008.73-.111 1.09-.229a2.1 2.1 0 0 0 .787-.509c.213-.196.446-.47.59-.723.194-.283.377-.693.345-1.072.01-.204-.04-.34-.158-.535a.768.768 0 0 0-.46-.319 1.463 1.463 0 0 0-.449-.027c-.175.04-.466.216-.544.363-.077.146-.105.263-.183.409a.514.514 0 0 1-.096.225c.02-.078.077-.147.096-.225a2.942 2.942 0 0 1-.29.508c.059-.069.108-.098.127-.176a3.316 3.316 0 0 1-.427.391c.048-.029.106-.098.194-.118-.155.128-.34.206-.525.285.049-.03.136-.049.185-.079-.175.04-.311.089-.487.129.323.203.685.415 1.008.618 0 0 .01-.039-.03-.048.02.087.01.126.03.214-.01-.127.019-.244.008-.37l-.047.195c.038-.156.067-.273.144-.42-.02.078-.068.108-.087.186.077-.147.154-.293.27-.43-.048.03-.067.108-.116.137a.878.878 0 0 1 .272-.264c.097-.059-.146.088-.049.03l.097-.059c.049-.03.273-.099.049-.03.175-.039.282-.137.398-.274.077-.146.125-.341.075-.477-.06-.262-.373-.504-.723-.425Z" fill="#fff"/><path d="M380.638 364.402a1.715 1.715 0 0 0-1.326-2.018l-.148-.242c-.138-.282-.267-.768-.358-1.244-.171-.992-.216-2.159-.222-3.317-.013-2.316.042-4.739-.01-7.23-.027-1.245-.092-2.5-.274-3.784-.183-1.283-.434-2.625-1.153-4.081-.365-.709-.846-1.446-1.522-2.066-.715-.629-1.634-1.102-2.541-1.282-.469-.115-.878-.133-1.327-.16-.409-.017-.838.043-1.266.103-.867.16-1.654.504-2.325.877-.962.549-1.748 1.224-2.465 1.957-.768-1.427-1.585-2.824-2.498-4.163-1.425-2.124-3.122-4.15-5.159-5.97-1.029-.871-2.144-1.723-3.425-2.408-.479-.241-.919-.472-1.446-.684-2.624-11.09-7.12-22.309-13.495-33.285-21.655-37.305-60.836-65.724-105.036-76.169.538-5.072.842-10.201.97-15.29.167-8.632-.221-17.358-1.554-25.944a80.236 80.236 0 0 0-1.283-6.426c-.548-2.158-1.154-4.247-2.052-6.325-.444-1.059-.976-2.097-1.683-3.096a7.716 7.716 0 0 0-1.266-1.425c-.509-.455-1.106-.89-1.916-1.13-.82-.2-1.444-.188-2.077-.136a15.7 15.7 0 0 0-1.753.231c-1.129.22-2.2.536-3.27.852-4.223 1.362-8.199 3.239-12.018 5.319a111.955 111.955 0 0 0-11.064 6.997c-7.078 5.083-13.576 11.009-19.046 17.806-1.481 1.826-2.864 3.759-4.208 5.702-3.93-2.036-8.052-3.788-12.27-5.151a88.132 88.132 0 0 0-14.161-3.341c-.4-.056-.839-.123-1.239-.179.42-1.715.752-3.409 1.015-5.162a61.51 61.51 0 0 0 .421-6.793 71.62 71.62 0 0 0-.407-6.79c-.275-2.257-.599-4.483-1.06-6.661a89.12 89.12 0 0 0-3.735-12.973c-.811-2.098-1.66-4.206-2.656-6.225-.986-2.058-2.03-4.048-3.336-5.979-.678-.95-1.307-1.93-2.365-2.85-.137-.116-.274-.232-.45-.358-.215-.135-.44-.231-.665-.328-.107-.067-.273-.066-.429-.105-.156-.038-.283-.027-.4-.056-.244-.019-.458.012-.672.042-.779.14-1.373.366-1.966.593-2.236 1.022-4.051 2.353-5.906 3.675-3.611 2.751-6.908 5.743-10.127 8.92-6.35 6.334-12.092 13.23-17.061 20.687-2.446 3.737-4.725 7.64-6.633 11.716a210.641 210.641 0 0 0-5.176 12.361 165.993 165.993 0 0 0-4.19 12.727 125.677 125.677 0 0 0-1.563 6.556c-.228 1.101-.417 2.211-.606 3.321-.094.555-.15 1.119-.244 1.674l-.083.847c-.009.205-.057.4-.104.594-.096.39-.299.712-.54 1.025-.059.068-.117.136-.184.244l-.281.303-.562.605-2.249 2.424a131.268 131.268 0 0 1-4.623 4.691c-3.151 3.07-6.37 6.082-9.747 8.889-3.377 2.808-6.871 5.422-10.602 7.648a36.58 36.58 0 0 1-5.745 2.848c-1.965.758-3.99 1.254-5.93 1.233l-1.296-.111-2.426.109c-.8.052-1.627.221-2.406.361-3.222.657-6.275 2.14-8.739 4.263-2.503 2.113-4.438 4.778-5.865 7.567-2.845 5.706-4.195 11.9-4.219 18.254.025 6.325 2.067 12.689 5.848 17.868.51.62.972 1.27 1.491 1.851l1.647 1.725c.617.523 1.195 1.036 1.812 1.558.617.523 1.301.938 1.928 1.422 2.622 1.798 5.563 3.137 8.56 4.077 18.872 5.733 31.88 21.388 44.448 36.482 3.581 4.304 7.26 8.714 10.947 12.755 1.01 1.114 2.04 2.151 3.03 3.178-1.01 13.257-.13 26.399 2.654 40.213l.04.175c1.299 3.993 5.641 6.708 10.679 8.271 4.774 1.457 10.147 1.822 14.12 1.142 4.489-.76 7.031-2.863 6.947-5.733-.146-5.322.531-11.64 1.779-16.91.058-.234.124-.506.221-.731 3.109 1.835 6.033 3.583 8.752 5.322a168.453 168.453 0 0 0 .144 21.056c.497 7.266 1.531 14.54 2.973 21.665l.02.088.03.048c.415 1.176 1.045 2.321 1.811 3.252.765.931 1.637 1.763 2.596 2.411 1.898 1.373 3.931 2.366 6.069 3.096 4.229 1.489 8.648 2.199 13.121 2.178 2.242-.029 4.492-.263 6.76-.906 1.119-.346 2.266-.808 3.334-1.621.262-.225.514-.411.747-.684.232-.274.494-.499.668-.869l.28-.469c.087-.185.125-.341.211-.526.048-.195.135-.38.173-.536l.055-.565a2.793 2.793 0 0 1 .046-.525l.008-.37-.014-.788c.007-.535.004-1.032.011-1.567.004-1.031.057-2.092.109-3.153.145-2.112.319-4.176.629-6.289.301-2.074.64-4.138 1.107-6.213a24.47 24.47 0 0 1 .793-2.903 33.8 33.8 0 0 0 .298-.711c13.027 6.285 26.672 11.565 41.618 16.089 2.5.777 5.018 1.476 7.556 2.097.942 6.632 1.837 13.458 2.559 18.963l.396 2.946c.457 3.374 4.827 5.807 9.367 7.207 1.074.345 2.167.613 3.24.793 6.001 1.179 13.944 1.016 16.522-3.432 3.456-6.01 5.619-15.186 6.877-22.188 8.907-.381 17.506-1.704 25.651-4.047.118.194.197.378.267.602.128.32.208.67.249 1.011l.182 1.283.681 5.164 1.402 10.337.681 5.164.091.641.041.341.04.175.069.223c.089.311.14.613.278.894.138.282.237.554.384.796.629.98 1.374 1.658 2.176 2.267 1.586 1.132 3.295 1.922 5.005 2.546a31.091 31.091 0 0 0 5.28 1.417c1.786.313 3.6.509 5.452.549 1.852.04 3.712-.124 5.571-.619.935-.267 1.888-.612 2.772-1.18.884-.569 1.767-1.302 2.346-2.317l1.254-2.419 1.059-2.466c1.317-3.354 2.273-6.754 3.112-10.183 1.6-6.877 2.683-13.839 3.318-20.828.361-3.504.517-7.018.673-10.531.053-2.92.075-5.887-.038-8.806 8.449-9.331 14.607-20.296 18.342-32.515 3.773-12.374 4.51-25.698 2.301-39.33 1.538 1.326 2.96 2.954 4.178 4.739a43.926 43.926 0 0 1 3.493 6.017c-1.081 2.048-1.937 4.193-2.636 6.375a40.415 40.415 0 0 0-1.578 7.461c-.249 2.541-.361 5.198.434 8.035.407 1.38 1.059 2.944 2.489 4.202a6.149 6.149 0 0 0 2.531 1.322c.469.114.908.181 1.356.208.41.017.907.015 1.384-.075.984-.131 2.014-.622 2.79-1.258.786-.675 1.308-1.456 1.694-2.187.742-1.512.969-2.943 1.098-4.316.257-2.745-.029-5.293-.452-7.792-.423-2.498-1.07-4.928-1.804-7.338a57.644 57.644 0 0 0-1.958-5.187c.135-.215.319-.459.445-.634.648-.791 1.356-1.486 2.085-1.927.34-.206.709-.363 1.011-.413.136-.049.302-.05.507-.041a2.04 2.04 0 0 1 .448.027c.273.067.469.115.674.289.206.174.431.436.628.814.404.718.653 1.729.844 2.809.191 1.079.285 2.217.34 3.345.139 2.306.094 4.69.195 7.151.065 1.255.13 2.51.381 3.852.121.69.32 1.399.704 2.195.197.379.463.816.904 1.213.44.397 1.027.705 1.622.81 1.152.364 2.046-.243 2.235-1.188Zm-258.255 38.314c.059 1.955-3.523 2.73-4.643 2.911-3.798.64-8.791.244-13.087-1.138-4.569-1.448-7.73-3.75-8.592-6.315-2.554-12.725-3.468-24.884-2.725-37.05 10.482 9.916 21.435 16.561 31.379 22.422a21.53 21.53 0 0 0-.459 1.539c-1.325 5.582-1.991 12.026-1.873 17.631Zm134.322 56.079c-1.448 2.536-7.038 3.398-13.585 2.085-6.235-1.236-10.187-3.855-10.411-5.645l-.396-2.946c-.662-5.242-1.496-11.641-2.437-17.942 11.35 2.654 22.516 3.858 33.237 3.673-1.617 9.145-3.83 16.326-6.408 20.775Zm76.665-54.255c-.939-2.418-1.518-4.955-1.785-7.581-.329-3.054-.229-6.168.076-9.274.055-.564-.318-1.068-.883-1.124-.557-.095-1.11.306-1.165.871-.451 3.194-.667 6.445-.435 9.723.212 3.19.883 6.369 2.049 9.38a166.9 166.9 0 0 1 .046 10.129c-.138 3.436-.324 6.9-.675 10.366-.137 1.742-.381 3.417-.557 5.15-.254 1.714-.468 3.437-.722 5.151-.508 3.427-1.211 6.807-1.943 10.138-.82 3.351-1.748 6.634-2.978 9.802l-.982 2.32-1.118 2.204c-.619 1.005-1.882 1.77-3.381 2.147-1.508.415-3.155.549-4.802.518a28.855 28.855 0 0 1-4.964-.513c-1.659-.323-3.259-.715-4.812-1.301-1.563-.548-3.038-1.281-4.31-2.17a5.766 5.766 0 0 1-1.46-1.473c-.098-.106-.148-.242-.197-.378-.089-.146-.07-.224-.119-.36l-.02-.087c.009-.039-.02-.088-.001-.166l-.041-.34-.091-.642-.72-5.173-1.392-10.376-.72-5.173-.173-1.323a6.866 6.866 0 0 0-.408-1.545 7.858 7.858 0 0 0-1.662-2.678 9.346 9.346 0 0 0-1.195-1.036c-.215-.135-.42-.309-.684-.415l-.577-.348-2.2-1.323c-1.428-.927-2.896-1.865-4.256-2.9-1.409-1.005-2.711-2.108-4.023-3.173l-1.9-1.704c-.647-.571-1.235-1.21-1.833-1.811-2.381-2.441-4.637-5.058-6.602-7.852-3.997-5.479-7.062-11.722-8.706-18.36-.159-.535-.697-.873-1.223-.754-.564.11-.912.686-.802 1.25 1.607 6.959 4.596 13.514 8.624 19.372 2.014 2.93 4.32 5.683 6.76 8.221.637.61 1.216 1.289 1.901 1.869l1.96 1.801c1.37 1.162 2.702 2.314 4.141 3.368 1.39 1.083 2.886 2.069 4.383 3.055l2.269 1.381.361.212c-20.866 5.631-44.682 4.718-69.168-2.761-14.79-4.486-28.279-9.728-41.159-15.936a19.101 19.101 0 0 1 3.437-4.238l1.183-1.115c.417-.352.805-.753 1.154-1.163.775-.802 1.482-1.661 2.179-2.482 2.749-3.457 4.989-7.369 6.419-11.52.72-2.096 1.352-4.171 1.759-6.343.437-2.123.727-4.323.92-6.465.055-.564-.366-1.039-.883-1.125-.566-.055-1.071.317-1.175.911-.523 4.167-1.485 8.268-2.975 12.157-1.489 3.889-3.575 7.508-6.17 10.673-1.346 1.611-2.771 3.038-4.322 4.476a22.748 22.748 0 0 0-4.241 5.322c-.569.976-1.031 2.019-1.464 3.111a24.036 24.036 0 0 0-.918 3.244c-.476 2.114-.835 4.256-1.154 6.408a69.286 69.286 0 0 0-.638 6.493 90.76 90.76 0 0 0-.138 3.27c-.007.535-.014 1.07-.03 1.645l.005.827.021.418c.011.126-.038.156-.018.243-.026.613-.364 1.15-1.024 1.649-.66.5-1.496.873-2.431 1.14-1.868.534-3.904.738-5.941.776a36.086 36.086 0 0 1-12.126-2.017c-1.904-.673-3.751-1.579-5.327-2.749-.812-.571-1.478-1.229-2.096-1.917-.579-.679-1.002-1.484-1.309-2.261a176.76 176.76 0 0 1-2.922-21.199c-.526-7.15-.624-14.36-.195-21.523.046-.526-.22-.962-.65-1.233-3.218-2.067-6.719-4.163-10.444-6.355-11.968-7.058-25.57-15.053-37.943-28.571-3.658-3.992-7.14-8.19-10.85-12.649-12.822-15.403-26.086-31.369-45.72-37.371l-.038-.009c-5.527-1.766-10.613-4.993-13.972-9.696-3.378-4.627-5.193-10.398-5.215-16.226-.04-5.751 1.262-11.751 3.846-16.9 1.331-2.565 3.024-4.918 5.159-6.708 2.144-1.83 4.72-3.058 7.466-3.625.681-.081 1.392-.278 2.103-.311l2.134-.097 2.155.155c.731.056 1.434.228 2.146.361 2.83.609 5.642 1.463 8.145 2.901a27.19 27.19 0 0 1 6.822 5.262 25.6 25.6 0 0 1 4.65 7.209c1.135 2.632 1.93 5.469 2.218 8.348.289 2.879.197 5.789-.225 8.7-.915 5.765-3.224 11.312-7.04 15.747-.348.41-.326.994.027 1.41.393.427 1.055.424 1.482.033 2.279-2.21 4.087-4.865 5.446-7.712 1.358-2.848 2.268-5.888 2.816-8.975.47-3.106.59-6.298.28-9.429-.3-3.171-1.164-6.232-2.428-9.185-1.273-2.913-3.003-5.649-5.16-7.994-2.157-2.345-4.74-4.299-7.547-5.853-1.74-1.004-3.586-1.745-5.48-2.291 2.188-.827 4.23-1.897 6.163-3.034 3.886-2.353 7.526-5.055 10.951-7.893a167.606 167.606 0 0 0 9.903-9.016c1.58-1.554 3.17-3.147 4.682-4.76l2.296-2.453.562-.605.281-.303c.107-.098.233-.274.349-.411.426-.556.792-1.21.964-1.911.086-.351.172-.701.219-1.062l.112-.798c.085-.516.14-1.081.225-1.597.18-1.071.36-2.142.578-3.204.436-2.123.96-4.266 1.515-6.361 1.156-4.218 2.547-8.379 4.094-12.502 1.546-4.123 3.279-8.159 5.09-12.177 1.83-3.929 4.041-7.724 6.429-11.394 4.843-7.281 10.479-14.079 16.712-20.276 3.112-3.079 6.361-6.042 9.817-8.666 1.718-1.272 3.524-2.565 5.333-3.361.418-.187.914-.355 1.216-.405.087-.02.126-.01.166 0 .039.009.029.048.068.058l.206.174c.617.522 1.265 1.424 1.844 2.268 1.189 1.737 2.204 3.678 3.131 5.639a80.597 80.597 0 0 1 2.547 5.992c1.523 4.09 2.774 8.278 3.635 12.536a78.919 78.919 0 0 1 1.029 6.447c.256 2.168.355 4.299.396 6.498a48.764 48.764 0 0 1-.374 6.433c-.224 1.762-.605 3.486-1.024 5.201a81.487 81.487 0 0 0-10.461-.371c-2.416.069-4.862.256-7.267.617-1.198.161-2.415.4-3.603.688-1.187.287-2.385.614-3.581 1.106-.505.206-.775.801-.568 1.306.198.544.794.814 1.339.617 1.041-.365 2.141-.633 3.27-.852 1.13-.219 2.289-.39 3.438-.522a67.97 67.97 0 0 1 7.006-.391c2.359-.001 4.698.076 7.058.24 2.35.203 4.681.485 7.002.805a86.732 86.732 0 0 1 13.683 3.266 81.444 81.444 0 0 1 11.605 4.822c-2.879 4.664-5.172 9.637-6.79 14.899-.22.73.174 1.488.906 1.708a1.356 1.356 0 0 0 1.71-.903c2.462-8.029 6.729-15.492 12.015-22.045 5.335-6.582 11.629-12.352 18.513-17.316a111.999 111.999 0 0 1 10.801-6.773c3.713-1.983 7.562-3.849 11.522-5.151a25.186 25.186 0 0 1 2.968-.802c.478-.09.955-.179 1.413-.191.467-.051.916-.024 1.111.024.507.124 1.183.744 1.704 1.491.56.756 1.003 1.649 1.398 2.572.829 1.855 1.415 3.856 1.943 5.927.498 2.021.899 4.102 1.252 6.212 1.342 8.381 1.729 16.942 1.59 25.457a185.496 185.496 0 0 1-2.181 25.484c-1.319 8.432-3.271 16.751-6.035 24.83-2.647 7.776-6.057 15.284-10.552 22.155a1.359 1.359 0 0 0-.995 1.532c1.402 8.809.282 17.951-2.4 26.546-2.682 8.594-6.985 16.709-12.532 23.818-5.546 7.109-12.423 13.231-20.314 17.578-7.89 4.346-16.805 6.79-25.849 6.889-.585.023-1.021.453-1.038 1.027-.016.574.454 1.019 1.029 1.036 9.367-.062 18.7-2.527 26.912-7.001 8.251-4.465 15.371-10.735 21.13-18.039 5.76-7.304 10.247-15.664 13.083-24.551 2.828-8.848 4.082-18.37 2.647-27.724 4.689-6.988 8.254-14.623 11.018-22.537 2.87-8.176 4.9-16.641 6.286-25.181.425-2.58.771-5.18 1.079-7.789 43.312 10.351 81.719 38.21 102.971 74.796 15.25 26.281 19.67 53.876 12.392 77.699-3.292 11.254-8.803 21.262-16.232 29.975Zm33.237-44.852c.411 2.207.648 4.454.474 6.517-.083 1.013-.272 1.957-.6 2.621a3.075 3.075 0 0 1-.455.673c-.155.127-.242.147-.427.226-.088.02-.214.03-.38.031-.166 0-.283-.028-.4-.057a1.425 1.425 0 0 1-.626-.318c-.381-.3-.824-1.028-1.063-1.912-.555-1.788-.577-4.065-.375-6.245a34.3 34.3 0 0 1 1.29-6.623 38.94 38.94 0 0 1 .661-2.027c.079.185.119.36.198.544.675 2.148 1.291 4.363 1.703 6.57Z" fill="#222"/><path d="M127.545 143.885c.181-.741-.252-1.507-.994-1.689-.741-.181-1.509.25-1.69.99a170.811 170.811 0 0 1-8.952 26.099c-3.677 8.433-8.039 16.617-12.859 24.482-.28.468-.15 1.119.319 1.399.499.329 1.122.151 1.441-.308 4.987-7.865 9.474-16.059 13.297-24.581 3.823-8.521 7.021-17.361 9.438-26.392 0 0-.039-.01 0 0ZM214.099 178.404c1.514-1.116 3.038-2.271 4.68-3.232l.593-.392.291-.176.146-.089.097-.058c.291-.177.603-.266.905-.316a3.062 3.062 0 0 1 1.863.332c.587.309.999.823 1.217 1.454l.059.097.04.175.128.321.208.67c.139.447.278.894.368 1.37a60.221 60.221 0 0 1 1.249 5.551c.693 3.762 1.133 7.545 1.397 11.368.032.545.502.99 1.048.959a1.03 1.03 0 0 0 1.008-1.075 86.721 86.721 0 0 0-1.019-11.73c-.313-1.935-.664-3.88-1.104-5.804-.129-.486-.219-.963-.349-1.449l-.199-.709-.118-.359-.04-.175-.07-.224c-.406-1.214-1.308-2.261-2.433-2.908-1.115-.686-2.471-.894-3.727-.664a4.818 4.818 0 0 0-1.809.631l-.194.117-.146.089-.301.215-.641.421c-1.7 1.03-3.243 2.263-4.855 3.438-3.086 2.466-5.976 5.145-8.69 7.95-2.723 2.844-5.231 5.823-7.641 8.909-2.342 3.144-4.645 6.297-6.703 9.634-4.213 6.568-7.743 13.551-10.784 20.736a1.07 1.07 0 0 0 .534 1.369 1.071 1.071 0 0 0 1.372-.531c3.051-7.059 6.62-13.867 10.844-20.308 2.078-3.25 4.323-6.335 6.675-9.352 2.391-3.008 4.88-5.909 7.575-8.636 2.685-2.688 5.507-5.26 8.526-7.619Z" fill="#222"/><path d="M394.018 121.871c.029-.117.018-.244.047-.361.008-.204-.052-.466-.121-.69-.148-.408-.511-.786-.873-.998-.107-.068-.186-.087-.303-.116a28.617 28.617 0 0 1-.351-.086c-.244-.018-.409-.017-.575-.016-.088.02-.166 0-.253.02-.546.032-1.053.073-1.608.144a35.975 35.975 0 0 0-3.184.501 46.374 46.374 0 0 0-3.037.743l-4.272 1.226 2.827-3.438 1.597-1.963a122.414 122.414 0 0 0 6.927-9.538c2.581-3.952 4.387-7.103 5.773-10.233.925-2.087 1.549-3.792 1.978-5.546.086-.35.181-.74.247-1.178 0 0 .047-.36.075-.477.029-.117.057-.234.066-.438-.001-.166.008-.37-.062-.594-.139-.612-.639-1.106-1.293-1.307-.195-.048-.391-.096-.605-.066-.127.01-.205-.008-.341.04l-.341.041-.73.11-1.431.27c-.916.189-1.84.417-2.862.704-.973.257-1.966.592-3.231 1.026l-3.434 1.184 1.767-3.161c4.18-7.443 6.541-14.217 7.236-20.778.204-1.85.252-3.738.145-5.664a45.059 45.059 0 0 0-.269-2.791 9.174 9.174 0 0 0-.171-.992l-.061-.428c-.08-.35-.286-.69-.551-.96-.167-.165-.391-.261-.616-.358-.498-.163-1.053-.092-1.451.182-.146.088-.301.215-.369.323l-.126.175-1.102 1.63a250.567 250.567 0 0 1-3.376 4.667c-4.036 5.33-8.752 10.908-14.759 17.533-4.873 5.374-10.088 10.788-15.885 16.555-5.846 5.797-11.285 10.949-16.679 15.742-3.278 2.914-6.053 5.291-8.731 7.444a567.49 567.49 0 0 1-9.046 7.037c-5.455 4.199-11.289 8.595-18.317 13.813a1271.732 1271.732 0 0 1-18.533 13.512c-3.359 2.399-6.408 4.544-9.36 6.63-1.553 1.107-3.136 2.165-4.729 3.262a86.419 86.419 0 0 0-4.621 3.329c-3.193 2.564-5.848 5.3-7.831 8.16-2.147 3.027-3.834 6.537-4.808 10.181-.928 3.283-1.425 6.837-1.586 11.216l-.125 5.751-.16 2.852-.238 2.833c-.636 6.824-1.667 14.253-3.2 22.715a290.44 290.44 0 0 1-1.945 9.807c2.308-.302 4.618-.439 6.995-.518 2.417-.069 4.824-.1 7.252-.042 1.967-.262 3.915-.446 5.854-.591.494-.664.939-1.299 1.393-1.972.116-.137.86-1.318.86-1.318l3.304-.141 1.11-.142c.721-.071 1.442-.142 2.124-.223.389-.07.74-.15 1.129-.219.691-.12 1.422-.231 2.084-.399.399-.109.788-.179 1.187-.288.701-.159 1.402-.317 2.073-.525a46.526 46.526 0 0 0 7.072-2.688l.515-.246.566.221c1.212.462 2.432.884 3.662 1.268a51.792 51.792 0 0 0 6.9 1.565c4.077.584 7.937.703 11.542.346a53.83 53.83 0 0 0 11.313-2.27l1.392-.444c.399-.109.719-.402.931-.763.213-.361.317-.79.247-1.179a1.359 1.359 0 0 0-.218-.631l-.147-.243-.216-.3c-.795-.98-1.629-1.968-2.589-2.947l-1.823-1.85 2.521-.498a65.762 65.762 0 0 0 7.544-1.912c4.777-1.598 9.462-3.838 13.98-6.573l2.506-1.617c.252-.186.504-.372.621-.509.348-.41.491-.995.381-1.558-.06-.263-.159-.535-.316-.738-.088-.146-.196-.214-.294-.32-.069-.058-.098-.107-.137-.116l-.206-.175c-1.536-1.16-3.131-2.253-4.842-3.208l-2.18-1.236 2.235-1.187a73.286 73.286 0 0 0 12.15-8.054l1.785-1.545c.582-.519 1.154-.998 1.697-1.526l1.668-1.574.32-.293c.165-.167.32-.294.494-.499.194-.283.309-.585.307-.916.036-.652-.29-1.351-.828-1.689-.176-.126-.293-.155-.401-.222l-.625-.318-1.075-.511a60.832 60.832 0 0 0-2.54-1.117l-2.335-.943 2.01-1.45c5.621-4.034 10.673-8.786 15.07-14.07l.581-.684c.891-1.103 1.83-2.236 2.701-3.427l1.548-2.099c.203-.323.337-.703.335-1.033a1.676 1.676 0 0 0-.318-1.069c-.216-.301-.519-.582-.822-.697l-.186-.087-.42-.144-.615-.192c-.195-.048-.381-.134-.576-.182-.654-.201-1.269-.393-1.933-.556-.898-.219-1.873-.458-2.976-.687l-2.918-.59 2.31-1.83c2.514-1.986 4.929-4.08 7.218-6.163 3.307-3.031 6.351-6.168 9.024-9.314 3.07-3.585 5.527-7.031 7.545-10.543.357-.614.715-1.229 1.042-1.892.155-.293.309-.585.473-.917.154-.293.26-.556.414-.848.338-.702.666-1.366.934-2.126.366-.819.664-1.696.971-2.612l.153-.458c.312.076.341-.04.36-.118Z" fill="#fff"/><path d="M265.273 240.154c-.039-.01-.108-.068-.147-.077-1.758-.596-3.744-.256-5.527-.073a88.329 88.329 0 0 0-5.386.706c-3.136.472-6.319 1.138-9.355 2.047a108.013 108.013 0 0 0-.459 3.563c.088-.02.127-.01.215-.03 3.447-.56 6.874-1.208 10.381-1.672 1.324-.171 2.639-.304 3.954-.436-4.947.771-9.843 2.01-14.68 3.345-.027.283-.045.526-.112.799-.066.438-.132.876-.237 1.305 5.353-1.416 10.777-2.443 16.2-3.47.349-.41.707-.859 1.055-1.269l.349-.411a1.072 1.072 0 0 0-.48-.406c.293-.011.585-.022.887-.072 1.104-1.299 2.169-2.608 3.342-3.849ZM258.14 247.659a109.197 109.197 0 0 0-14.583 3.287c-.229.769-.528 1.481-.836 2.232.039.009.088-.02.127-.011a175.816 175.816 0 0 1 14.428-2.994 30.65 30.65 0 0 1 1.576-2.381c-.176-.126-.42-.144-.712-.133ZM248.971 253.675c-1.109.307-2.209.575-3.319.881a.85.85 0 0 0-.628 1.044c.139.447.56.757 1.047.628 1.109-.307 2.209-.574 3.319-.881a.85.85 0 0 0 .628-1.044c-.149-.408-.56-.756-1.047-.628Z" fill="#fff"/><path d="M240.383 253.265c1.082-3.575 1.987-7.277 2.815-10.998a270.497 270.497 0 0 0 2.24-11.18c1.333-7.479 2.472-15.006 3.162-22.56l.238-2.833.15-2.812.115-5.713c.164-3.883.63-7.816 1.691-11.645.239-.974.585-1.88.901-2.835.355-.946.74-1.843 1.165-2.73.887-1.765 1.852-3.512 3.032-5.122 2.283-3.241 5.123-6.056 8.161-8.493l1.135-.92c.408-.313.806-.587 1.204-.862.796-.548 1.602-1.136 2.398-1.684 1.583-1.058 3.137-2.165 4.72-3.223 3.136-2.165 6.243-4.378 9.35-6.591 6.214-4.426 12.369-8.95 18.484-13.482a1545.46 1545.46 0 0 0 18.269-13.784 772.134 772.134 0 0 0 9.007-7.047 214.001 214.001 0 0 0 8.634-7.385c5.665-5.056 11.182-10.355 16.591-15.722 5.41-5.366 10.682-10.85 15.788-16.496 5.106-5.648 10.074-11.411 14.652-17.436l1.713-2.265 1.605-2.333.822-1.161.194-.283.116-.137.184-.244c.047-.195.164-.332.319-.459.116-.137.31-.254.466-.382 1.34-.91 3.163-.753 4.358.282.578.513 1.02 1.241 1.171 1.98l.212 1.498c.171.991.216 1.993.309 2.966.093.972.05 1.994.055 2.987-.034.983-.116 1.995-.188 2.968-.854 7.886-3.943 15.266-7.737 21.977-3.842 6.742-8.507 12.951-13.533 18.783-10.093 11.654-21.617 21.884-33.739 31.349-.611.47-1.46.386-1.931-.225-.471-.611-.388-1.458.224-1.928 11.966-9.337 23.393-19.508 33.311-30.957 4.959-5.725 9.507-11.798 13.215-18.324 3.707-6.526 6.593-13.584 7.391-20.905.102-.925.117-1.83.18-2.764-.025-.915.039-1.85-.034-2.735-.064-.923-.127-1.848-.288-2.713l-.212-1.332c-.03-.214-.128-.32-.266-.437-.274-.232-.722-.26-.975-.073-.048.03-.048.03-.106.098-.049.03-.058.068-.107.098l-.03-.049-.116.137-.193.283-.832 1.2-1.663 2.402-1.723 2.304c-4.645 6.132-9.672 11.963-14.826 17.64-5.154 5.677-10.475 11.189-15.894 16.594a428.045 428.045 0 0 1-16.698 15.82c-2.862 2.562-5.752 5.076-8.741 7.483a390.513 390.513 0 0 1-9.056 7.077c-6.066 4.668-12.162 9.289-18.317 13.812a1029.036 1029.036 0 0 1-18.533 13.512c-3.107 2.213-6.213 4.427-9.359 6.63-1.593 1.097-3.137 2.165-4.729 3.262a84.096 84.096 0 0 0-2.302 1.626c-.359.283-.747.519-1.155.832l-1.087.89c-2.882 2.31-5.519 4.968-7.656 7.956a30.517 30.517 0 0 0-4.693 9.878c-.995 3.556-1.442 7.246-1.568 10.973l-.125 5.751-.169 2.891-.248 2.871c-.719 7.671-1.828 15.246-3.18 22.803a273.974 273.974 0 0 1-2.268 11.298c-.838 3.759-1.743 7.461-2.902 11.183-.221.731-.988 1.163-1.711.903a1.414 1.414 0 0 1-.857-1.738Z" fill="#222"/><path d="M364.056 118.172c-.267 4.808-1.108 9.599-2.73 14.199-1.574 4.571-3.909 8.873-6.734 12.807-2.815 3.895-6.158 7.413-9.747 10.582-3.599 3.208-7.473 6.018-11.455 8.595-8.013 5.184-16.577 9.407-25.27 13.144a262.945 262.945 0 0 1-13.207 5.275 462.755 462.755 0 0 1-13.435 4.683.9.9 0 0 1-1.144-.569c-.177-.456.112-.963.569-1.141 4.436-1.557 8.882-3.154 13.278-4.886a331.755 331.755 0 0 0 13.061-5.353c8.586-3.804 16.993-8.066 24.821-13.171 3.934-2.547 7.71-5.299 11.154-8.379 3.482-3.072 6.67-6.463 9.369-10.221 2.69-3.719 4.89-7.806 6.367-12.153 1.517-4.337 2.379-8.875 2.646-13.518a1.219 1.219 0 0 1 1.271-1.134 1.186 1.186 0 0 1 1.186 1.24Z" fill="#222"/><path d="M317.917 172.464c-.375 2.717-1.278 5.222-2.298 7.698-1.127 2.408-2.313 4.72-3.763 6.925-2.852 4.382-6.309 8.368-10.189 11.879-.999.87-1.92 1.76-3.018 2.524l-1.572 1.184c-.515.411-1.019.783-1.602 1.136-1.088.725-2.176 1.45-3.293 2.127l-3.44 1.884c-4.705 2.317-9.666 3.994-14.787 5.136-.477.09-.986-.2-1.076-.676-.09-.476.199-.984.677-1.073l.039.009c4.955-1.141 9.751-2.817 14.241-5.105l3.304-1.834c1.078-.686 2.117-1.382 3.156-2.077.535-.324 1.049-.735 1.515-1.117l1.485-1.164c1.009-.744 1.93-1.634 2.881-2.475a58.944 58.944 0 0 0 9.733-11.536c1.382-2.098 2.51-4.341 3.521-6.613.933-2.291 1.72-4.659 2.058-7.054l.009-.039c.084-.682.686-1.112 1.369-1.028.702.007 1.173.617 1.05 1.289Z" fill="#222"/><path d="M287.991 207.511c-.108 5.343-1.511 10.74-4.449 15.307a26.714 26.714 0 0 1-5.377 6.077 29.695 29.695 0 0 1-6.936 4.166l.649-.625c-1.108 2.33-2.451 4.438-3.824 6.498a86.004 86.004 0 0 1-4.48 5.965c-1.549 1.934-3.206 3.8-4.892 5.617-1.725 1.808-3.48 3.568-5.449 5.192-.515.411-1.285.346-1.697-.168-.412-.513-.348-1.282.166-1.693 1.824-1.536 3.559-3.218 5.226-4.957 1.667-1.74 3.236-3.586 4.776-5.481 1.539-1.895 3.001-3.808 4.364-5.829 1.354-1.981 2.648-4.06 3.66-6.166.155-.293.368-.488.64-.587 2.296-.925 4.501-2.161 6.452-3.707a23.293 23.293 0 0 0 5.019-5.462c2.755-4.158 4.19-9.175 4.387-14.207-.003-.496.424-.887.96-.88.4.057.792.483.805.94ZM330.453 163.678a57.12 57.12 0 0 1 3.648.646c.596.104 1.22.257 1.806.4l.898.22.468.114c.273.067.528.212.782.357.959.647 1.375 1.988.903 3.071-.028.116-.154.292-.173.37l-.126.176-.222.4-.483.79c-.628 1.044-1.295 2.079-1.961 3.113-1.373 2.059-2.805 4.022-4.384 5.907l-1.21 1.397c-.407.478-.804.918-1.241 1.348l-1.318 1.329-1.338 1.242c-3.627 3.325-7.774 6.068-12.04 8.452-1.089.56-2.148 1.168-3.236 1.727-1.08.521-2.178 1.12-3.286 1.592-1.109.472-2.227.983-3.335 1.455l-3.395 1.358a.951.951 0 0 1-1.201-.5c-.178-.457.033-.983.491-1.161l.039.01 3.286-1.426c1.109-.472 2.158-1.041 3.228-1.523 1.108-.472 2.128-1.089 3.208-1.61 1.079-.521 2.099-1.138 3.109-1.717 4.1-2.383 8.033-5.096 11.475-8.342l1.29-1.213 1.221-1.27c.437-.43.824-.831 1.192-1.319l1.153-1.329a72.073 72.073 0 0 0 4.208-5.701c.619-1.005 1.276-2.001 1.895-3.006l.84-1.405c.009-.039-.02-.087-.05-.136l-.039-.01-.429-.105-.859-.21-1.718-.42a104.138 104.138 0 0 0-3.483-.646c-.682-.084-1.105-.725-1.031-1.367.172-.702.774-1.133 1.418-1.058Z" fill="#222"/><path d="M311.943 192.311c.976.239 1.913.468 2.87.785l.723.259.078.019.146.078a.75.75 0 0 1 .294.154c.176.126.391.261.548.465.618.688.828 1.689.57 2.575-.106.264-.116.303-.183.41l-.164.332-.289.672c-.192.449-.395.936-.626 1.375-.502.868-.926 1.756-1.467 2.615-2.107 3.366-4.8 6.424-7.954 8.832-3.125 2.456-6.653 4.36-10.31 5.778-.924.393-1.858.66-2.802.966-.944.306-1.908.525-2.842.791-.964.219-1.918.398-2.881.617l-2.883.451a.934.934 0 0 1-1.057-.754.88.88 0 0 1 .706-1.025l.049-.03 2.784-.557 2.735-.694c.896-.276 1.82-.504 2.686-.829.866-.325 1.761-.602 2.646-1.005 3.452-1.426 6.736-3.348 9.618-5.658 2.921-2.3 5.391-5.123 7.363-8.275.522-.781.888-1.6 1.38-2.429.222-.4.376-.858.598-1.258l.539-1.19c.01-.039-.01-.126-.01-.126l-.079-.019-.644-.24a31.657 31.657 0 0 0-2.665-.776 1.184 1.184 0 0 1-.885-1.456c.113-.633.745-1.015 1.408-.853Z" fill="#222"/><path d="M301.484 211.888c1.132.277 2.216.584 3.29.929.537.173 1.064.385 1.64.567.986.365 1.714 1.452 1.661 2.513-.007.535-.219 1.061-.48 1.452l-.503.702-.996 1.367-1.065 1.309c-.358.449-.716.898-1.104 1.299-3.062 3.381-6.525 6.374-10.381 8.775a50.322 50.322 0 0 1-12.407 5.554c-1.08.356-2.209.575-3.309.842-1.091.229-2.25.4-3.34.629-1.11.141-2.25.234-3.4.365l-3.381.123c-.497.002-.909-.346-.95-.852-.003-.496.346-.907.852-.948l.039.01 3.245-.239 3.214-.452c1.051-.239 2.122-.39 3.183-.667s2.112-.515 3.153-.88c4.165-1.294 8.102-3.18 11.735-5.512 3.671-2.323 6.979-5.189 9.867-8.364.387-.401.736-.811 1.046-1.231l1.007-1.24.938-1.299.493-.664c.059-.068.02-.078.068-.107.01-.039-.02-.088-.059-.097a19.92 19.92 0 0 0-1.523-.538c-1.035-.336-2.07-.672-3.085-.92a1.208 1.208 0 0 1-.885-1.456c.132-.711.812-1.122 1.437-.97ZM385.164 88.895c1.867-.7 3.765-1.35 5.721-1.904.973-.257 1.946-.515 2.949-.724.526-.119 1.003-.208 1.519-.289l.769-.1.38-.031c.127-.01.254-.02.468-.051 1.676-.086 3.212 1.075 3.64 2.708.11.398.131.817.114 1.225l.001.166-.019.078-.048.195-.056.399c-.085.516-.17 1.032-.333 1.529-.496 2.026-1.255 3.946-2.074 5.77-1.646 3.685-3.733 7.139-5.908 10.448-2.184 3.347-4.536 6.53-7.033 9.636-4.957 6.22-10.354 12.044-16.075 17.5-5.76 5.446-11.833 10.65-18.878 14.583-.486.295-1.14.093-1.396-.382-.295-.486-.104-1.099.382-1.394 3.333-1.951 6.468-4.281 9.437-6.776a146.111 146.111 0 0 0 8.701-7.824c5.594-5.445 10.796-11.316 15.646-17.439 2.41-3.086 4.703-6.2 6.868-9.47 2.117-3.24 4.097-6.596 5.657-10.097.8-1.745 1.482-3.519 1.921-5.311.153-.458.219-.896.285-1.335l.037-.32.038-.157.019-.078.01-.039c.019-.078-.001-.165-.021-.252-.09-.312-.432-.602-.773-.561l-.254.02-.34.04-.682.082c-.468.05-.906.15-1.383.24-.915.188-1.84.416-2.774.683-1.859.495-3.669 1.126-5.527 1.787-.729.275-1.501-.12-1.788-.81-.286-.69.109-1.46.8-1.745Z" fill="#222"/><path d="M380.004 120.464a43.818 43.818 0 0 1 6.452-1.848c1.09-.229 2.21-.409 3.359-.541.556-.071 1.14-.093 1.695-.164.293-.011.507-.041.995-.004.448.027.907.181 1.317.364a3.577 3.577 0 0 1 1.756 1.957c.148.408.248.846.26 1.303a3.518 3.518 0 0 1-.074.643l-.143.584c-.384 1.062-.729 2.134-1.182 3.139-.423 1.052-.915 2.047-1.368 3.051-.53.986-1.022 1.98-1.582 2.917-2.221 3.834-4.872 7.398-7.72 10.748-2.847 3.35-5.929 6.478-9.139 9.451-6.459 5.935-13.488 11.154-20.889 15.868-3.681 2.361-7.441 4.538-11.3 6.609a157.412 157.412 0 0 1-11.85 5.649c-.515.245-1.151-.034-1.358-.539a1.067 1.067 0 0 1 .539-1.355 161.974 161.974 0 0 0 11.557-5.803c3.78-2.09 7.462-4.286 11.065-6.667 7.197-4.723 14.069-9.979 20.334-15.797a109.057 109.057 0 0 0 8.917-9.216c2.779-3.243 5.314-6.67 7.419-10.367.551-.898.994-1.863 1.505-2.771.443-.965.916-1.882 1.281-2.866.404-.975.769-1.96 1.095-2.954l.057-.233a.3.3 0 0 0-.001-.166c-.019-.087.009-.204-.05-.301a.838.838 0 0 0-.353-.417c-.186-.087-.225-.096-.858-.045a58.94 58.94 0 0 1-1.559.114 44.173 44.173 0 0 0-3.097.482 40.552 40.552 0 0 0-6.043 1.701c-.73.275-1.502-.12-1.779-.849-.344-.621.012-1.401.742-1.677Z" fill="#222"/><path d="M364.834 157.265c1.795.274 3.561.665 5.308 1.134.859.21 1.748.469 2.587.757l.654.201.303.116.156.038.225.096a3.774 3.774 0 0 1 1.655 1.355c.393.592.592 1.301.615 2.05a3.801 3.801 0 0 1-.661 2.027l-1.597 2.129c-1.016 1.444-2.178 2.812-3.301 4.189-4.531 5.499-9.827 10.398-15.642 14.55-2.874 2.105-6.003 3.9-9.142 5.568-3.198 1.572-6.455 3.046-9.841 4.2l-2.529.868-2.579.731c-1.703.533-3.445.892-5.198 1.289-.876.198-1.742.358-2.609.518l-2.629.43c-1.763.271-3.546.454-5.289.647-.555.07-1.074-.346-1.145-.9-.072-.554.306-1.081.861-1.152l.048-.029c1.724-.281 3.429-.483 5.152-.763l2.561-.489a25.091 25.091 0 0 0 2.541-.576c1.674-.416 3.378-.784 5.041-1.326l2.501-.751 2.451-.887c3.259-1.144 6.399-2.647 9.471-4.208l2.254-1.265c.768-.432 1.526-.824 2.225-1.314 1.428-.931 2.934-1.843 4.302-2.871a78.125 78.125 0 0 0 15.08-14.109c1.074-1.348 2.188-2.686 3.194-4.092l1.548-2.099c.193-.283.192-.614.005-.866-.088-.145-.186-.252-.343-.29l-.078-.019-.156-.038-.303-.116-.615-.192c-.8-.278-1.611-.518-2.47-.728a55.005 55.005 0 0 0-5.025-1.106 1.419 1.419 0 0 1-1.14-1.6c.094-.721.793-1.21 1.554-1.107Z" fill="#222"/><path d="M353.5 184.475a46.816 46.816 0 0 1 4.435 1.828l1.075.511.547.299.254.145c.078.019.254.145.362.212 1.066.716 1.707 1.987 1.597 3.282a3.372 3.372 0 0 1-.643 1.784c-.436.595-.679.742-.999 1.036l-1.726 1.642c-.552.567-1.173 1.076-1.755 1.594l-1.785 1.546a71.9 71.9 0 0 1-16.106 10.017c-5.775 2.634-12.014 4.287-18.266 5.153-.77.1-1.549.24-2.348.292l-2.367.206c-1.578.192-3.138.141-4.726.206-.799.052-1.569-.012-2.349-.038l-2.379-.086c-1.589-.1-3.13-.229-4.71-.368a1.073 1.073 0 0 1-.971-1.105 1.076 1.076 0 0 1 1.067-.978l.078.019c1.55.09 3.062.171 4.621.222 1.54-.036 3.09.055 4.601-.03 1.51-.085 3.079-.073 4.579-.284l2.289-.224c.76-.062 1.5-.211 2.279-.351 6.028-.962 11.945-2.652 17.496-5.217a68.746 68.746 0 0 0 15.445-9.684l1.727-1.477a31.11 31.11 0 0 0 1.697-1.526l1.668-1.574c.698-.655.708-.694.784-1.006.028-.282-.11-.563-.355-.747-.039-.01-.039-.01-.146-.077l-.254-.145-.45-.193-.997-.491a42.73 42.73 0 0 0-4.161-1.762c-.723-.26-1.068-1.046-.809-1.767a1.297 1.297 0 0 1 1.701-.864Z" fill="#222"/><path d="M340.686 205.045a47.542 47.542 0 0 1 6.807 4.309l.206.174.108.068.137.116c.205.174.362.378.559.591.304.446.56.922.631 1.476a3.615 3.615 0 0 1-.773 2.991c-.174.205-.349.41-.591.557l-.156.127-.097.059-.194.118-.835.539-1.671 1.078c-4.527 2.774-9.31 5.073-14.359 6.769-5.069 1.609-10.327 2.635-15.608 2.912-1.335.045-2.641.139-3.957.106l-1.979-.03-1.998-.118c-2.652-.153-5.238-.579-7.862-1.015-.556-.095-.958-.647-.825-1.193a.996.996 0 0 1 1.155-.832l.039.009c2.527.329 5.092.668 7.646.715l1.92.098 1.911-.028c1.277.023 2.553-.119 3.8-.144 5.057-.373 10.08-1.456 14.896-3.045 4.786-1.637 9.385-3.857 13.727-6.552l1.583-1.058.786-.51.195-.118.097-.058.048-.03c.049-.029.098-.059.117-.137.125-.175.222-.399.162-.662-.011-.126-.07-.223-.129-.32-.029-.049-.059-.097-.137-.117l-.029-.048-.108-.068-.176-.125c-1.977-1.558-4.09-2.901-6.319-4.107-.655-.367-.952-1.183-.575-1.875.337-.703 1.184-.95 1.848-.622Z" fill="#222"/><path d="M321.434 224.038a37.915 37.915 0 0 1 4.127 4.437l.216.301c.098.107.216.301.295.485.207.34.316.738.377 1.166.131.817-.069 1.635-.485 2.318a3.52 3.52 0 0 1-1.902 1.517l-1.43.435a55.241 55.241 0 0 1-11.693 2.3c-3.975.349-7.992.192-11.942-.403-3.941-.634-7.768-1.735-11.46-3.217a1.037 1.037 0 0 1-.583-1.34c.212-.527.766-.763 1.303-.59l.039.01c1.797.604 3.642 1.18 5.486 1.59 1.835.449 3.699.781 5.581 1.035 3.736.46 7.567.53 11.307.124 3.77-.358 7.479-1.143 11.109-2.279l1.342-.414a.647.647 0 0 0 .36-.284.978.978 0 0 0 .114-.468c-.02-.087-.05-.136-.069-.223l-.089-.146-.216-.301a33.373 33.373 0 0 0-3.746-4.137c-.578-.513-.573-1.379-.059-1.956.602-.431 1.479-.464 2.018.04Z" fill="#222"/><path d="M314.801 117.394c-10.072-2.465-16.229-12.644-13.778-22.658l.619-2.533c2.46-10.053 12.651-16.19 22.684-13.735 10.072 2.465 16.229 12.644 13.779 22.658l-.62 2.533c-2.451 10.014-12.651 16.19-22.684 13.735Z" fill="#fff"/><path d="M324.089 79.442c9.525 2.33 15.328 11.928 13.011 21.396l-.62 2.533c-2.327 9.507-11.935 15.292-21.421 12.971-9.526-2.331-15.328-11.928-13.011-21.397l.61-2.494c2.287-9.516 11.905-15.34 21.431-13.009Zm.486-1.987c-10.619-2.599-21.354 3.901-23.947 14.5l-.62 2.532c-2.593 10.599 3.927 21.321 14.546 23.92 10.618 2.598 21.353-3.902 23.946-14.5l.62-2.533c2.594-10.598-3.927-21.32-14.545-23.92Z" fill="#222"/><path d="M315.669 113.848c9.508 2.327 19.099-3.48 21.421-12.97 2.322-9.49-3.503-19.07-13.011-21.397-9.508-2.326-19.099 3.48-21.421 12.971-2.322 9.49 3.503 19.07 13.011 21.396Z" fill="#FE490C"/><path d="M315.507 114.51c-9.877-2.417-15.955-12.412-13.543-22.27 2.413-9.858 12.419-15.917 22.296-13.5 9.877 2.417 15.954 12.412 13.542 22.27-2.461 9.887-12.419 15.917-22.295 13.5Zm8.419-34.406c-9.135-2.235-18.364 3.353-20.595 12.47-2.232 9.118 3.374 18.337 12.509 20.572 9.135 2.236 18.364-3.353 20.596-12.47 2.231-9.118-3.375-18.337-12.51-20.572Z" fill="#222"/><path d="M315.636 100.46c.139.613.415 1.176.798 1.641.677.785 1.802 1.597 3.888 1.529 2.913-.071 4.038-1.283 4.009-2.859-.056-1.46-1.6-2.085-3.552-2.562-3.249-.754-7.581-1.484-7.7-5.56-.082-2.54 1.931-5.02 5.369-5.542l-.052-2.49 3.04-.083.053 2.491c2.429.388 3.868 1.608 4.645 2.83a7.379 7.379 0 0 1 1.016 2.272l-3.167.093a3.139 3.139 0 0 0-.68-1.282c-.588-.64-1.595-1.257-3.466-1.22-2.495.05-3.668 1.292-3.602 2.712.027 1.41 1.591 2.124 3.591 2.572 3.27.841 7.611 1.532 7.711 5.521.094 2.996-2.234 5.07-5.486 5.678l.053 2.491-3.041.082-.053-2.491c-2.809-.357-4.493-1.76-5.358-3.128a8.065 8.065 0 0 1-1.096-2.622l3.08-.073ZM337.959 69.084c-5.817-1.423-9.387-7.294-7.966-13.1l.572-2.338c1.421-5.805 7.298-9.364 13.115-7.94 5.817 1.423 9.387 7.293 7.966 13.1l-.572 2.337c-1.382 5.815-7.298 9.364-13.115 7.941Z" fill="#fff"/><path d="M343.443 46.68c5.27 1.289 8.515 6.626 7.228 11.886l-.572 2.338c-1.287 5.26-6.63 8.495-11.901 7.206-5.27-1.29-8.515-6.627-7.228-11.887l.572-2.338c1.336-5.29 6.63-8.496 11.901-7.206Zm.495-2.027c-6.363-1.557-12.823 2.355-14.378 8.706l-.572 2.338c-1.554 6.35 2.37 12.804 8.734 14.36 6.363 1.558 12.823-2.354 14.377-8.705l.572-2.338c1.555-6.351-2.33-12.794-8.733-14.361Z" fill="#222"/><path d="M338.779 65.732c5.282 1.293 10.611-1.934 11.901-7.206 1.29-5.272-1.946-10.594-7.229-11.887-5.282-1.292-10.61 1.934-11.9 7.206-1.29 5.273 1.946 10.594 7.228 11.887Z" fill="#FE490C"/><path d="M338.617 66.395c-5.621-1.376-9.112-7.062-7.73-12.712 1.373-5.61 7.066-9.09 12.726-7.706 5.661 1.386 9.113 7.062 7.731 12.712-1.383 5.65-7.066 9.091-12.727 7.706Zm4.663-19.054c-4.88-1.194-9.835 1.806-11.027 6.677-1.191 4.87 1.818 9.82 6.698 11.013 4.88 1.194 9.834-1.806 11.026-6.676 1.192-4.87-1.778-9.81-6.697-11.014Z" fill="#222"/><path d="M338.247 55.402c-.194.283-.27.595-.307.916-.046.526.104 1.265.917 2 1.107 1.056 1.984 1.023 2.556.378.513-.576.168-1.363-.393-2.285-.963-1.474-2.318-3.375-.865-4.92.901-.976 2.606-1.179 4.074-.076l.901-.977 1.185 1.074-.91 1.017c.775 1.057.868 2.03.726 2.78-.066.437-.249.847-.471 1.247l-1.214-1.123c.145-.254.202-.488.22-.731.027-.448-.113-1.06-.858-1.738-.979-.9-1.856-.867-2.37-.291-.503.538-.177 1.402.393 2.285.905 1.543 2.28 3.366.865 4.92-1.066 1.143-2.704 1.072-4.161.096l-.901.977-1.186-1.074.901-.977c-.951-1.183-1.045-2.321-.884-3.15.124-.506.277-.964.548-1.393l1.234 1.045ZM152.912 256.31c.048-.195-.031-.379-.226-.427l-7.878-2.3-.039-.009c-.391-.096-.74.149-.797.548-.095.39.151.739.551.796l8.049 1.598c.108.067.302-.05.34-.206Zm3.373 5.492c-.195-.048-.389.07-.427.226l-3.174 11.447-.009.039c-.096.39.15.739.54.835.391.095.74-.15.835-.539l2.471-11.62a.315.315 0 0 0-.236-.388Zm-1.78-8.448a.315.315 0 0 0 .429.106.33.33 0 0 0 .153-.458l-2.364-4.544c.01-.039-.029-.048-.059-.097-.216-.3-.645-.405-.956-.151-.301.215-.405.644-.15.954l2.947 4.19Zm3.906-.407c.195.048.389-.069.427-.225l3.174-11.448.01-.039c.095-.389-.151-.739-.541-.834-.39-.096-.74.149-.835.539l-2.471 11.619c-.038.156.08.35.236.388Zm-5.442 6.681-4.548 2.356c-.039-.01-.049.029-.097.059-.301.215-.406.644-.151.954.216.3.645.406.956.151l4.194-2.938a.314.314 0 0 0 .105-.429c-.079-.184-.264-.271-.459-.153Zm4.832-4.021a1.798 1.798 0 0 0-2.185 1.323 1.798 1.798 0 0 0 1.327 2.183 1.799 1.799 0 0 0 2.186-1.323 1.8 1.8 0 0 0-1.328-2.183Zm2.391 5.788a.317.317 0 0 0-.43-.105.329.329 0 0 0-.153.458l2.364 4.543c-.01.039.029.049.059.097.216.301.645.406.956.151.301-.215.405-.644.15-.954l-2.946-4.19Zm10.069-1.583-8.05-1.598c-.156-.038-.35.079-.388.235-.048.195.031.379.226.427l7.878 2.3.039.009c.391.096.74-.149.797-.548a.678.678 0 0 0-.502-.825Zm-8.534-4.69 4.548-2.356c.039.009.049-.03.098-.059.3-.215.405-.644.15-.954-.216-.301-.645-.406-.956-.152l-4.194 2.939a.313.313 0 0 0-.105.428c.079.185.274.232.459.154ZM159.856 384.34c.048-.195-.031-.379-.226-.427l-7.878-2.299-.039-.01c-.391-.095-.74.149-.797.549-.095.389.151.738.55.795l8.05 1.598c.108.068.293-.011.34-.206Zm1.583-2.916a.316.316 0 0 0 .429.105.33.33 0 0 0 .154-.458l-2.364-4.543c.009-.039-.03-.049-.059-.097-.216-.301-.646-.406-.956-.152-.301.216-.406.644-.151.955l2.947 4.19Zm1.79 8.408c-.195-.047-.389.07-.427.226l-3.174 11.448-.01.039c-.095.389.151.738.541.834.39.095.74-.149.835-.539l2.471-11.62c.038-.155-.05-.301-.236-.388Zm2.126-8.854c.195.048.389-.07.427-.226l3.174-11.448.009-.039c.096-.389-.15-.738-.54-.834-.391-.095-.74.149-.835.539l-2.471 11.62c-.039.155.079.35.236.388Zm-5.442 6.68-4.548 2.356c-.039-.01-.049.029-.098.059-.301.215-.405.644-.15.954.216.301.645.406.956.151l4.194-2.938a.313.313 0 0 0 .105-.428c-.079-.185-.274-.233-.459-.154Zm17.282.223-8.049-1.598c-.156-.038-.351.079-.389.235-.048.195.031.38.227.427l7.878 2.3.039.009c.39.096.74-.149.796-.548.095-.39-.141-.778-.502-.825Zm-12.45-4.244a1.8 1.8 0 0 0-2.186 1.323 1.8 1.8 0 0 0 1.328 2.184 1.8 1.8 0 0 0 2.186-1.324 1.825 1.825 0 0 0-1.328-2.183Zm2.39 5.788a.316.316 0 0 0-.429-.105.33.33 0 0 0-.153.458l2.363 4.543c-.009.039.03.049.059.097.217.301.646.406.956.152.301-.216.406-.644.151-.955l-2.947-4.19Zm1.526-6.234 4.549-2.356c.039.01.048-.029.097-.059.301-.215.406-.644.151-.954-.216-.301-.646-.406-.956-.151l-4.195 2.938a.314.314 0 0 0-.105.428c.079.185.274.233.459.154ZM318.682 347.051c-.235-.057-.468.051-.525.285l-3.919 14.156-.01.039c-.114.467.19.914.659 1.028.468.115.915-.189 1.029-.656l3.061-14.367a.404.404 0 0 0-.295-.485Zm-4.141-6.753c.058-.234-.051-.467-.285-.524l-9.733-2.836-.078-.019a.802.802 0 0 0-.991.666.803.803 0 0 0 .669.989l9.942 1.979c.186.087.39-.07.476-.255Zm.081 4.067-5.637 2.915-.097.059a.837.837 0 0 0-.208 1.188.84.84 0 0 0 1.19.209l5.195-3.644c.155-.127.251-.351.133-.545-.118-.194-.382-.3-.576-.182Zm1.888-7.715c.128.155.352.251.547.133.194-.117.3-.38.182-.574l-2.926-5.631-.059-.097a.84.84 0 0 0-1.19-.209.838.838 0 0 0-.208 1.189l3.654 5.189Zm4.802-.518c.235.057.468-.051.525-.285l3.919-14.156.01-.039c.114-.467-.19-.914-.659-1.028-.468-.115-.915.189-1.029.656l-3.061 14.366c-.047.195.1.438.295.486Zm14.598 8.486-9.942-1.978a.431.431 0 0 0-.486.294c-.057.233.051.466.285.524l9.733 2.836.078.019a.802.802 0 0 0 .991-.666c.075-.477-.229-.924-.659-1.029Zm-15.36-5.204a2.245 2.245 0 1 0-1.067 4.364 2.245 2.245 0 1 0 1.067-4.364Zm2.934 7.119c-.128-.155-.352-.251-.547-.134-.194.118-.3.381-.182.575l2.926 5.631.059.097a.84.84 0 0 0 1.19.208.837.837 0 0 0 .208-1.188l-3.654-5.189Zm1.888-7.715 5.637-2.915.097-.059a.837.837 0 0 0 .208-1.188.84.84 0 0 0-1.19-.209l-5.195 3.643c-.155.128-.251.352-.133.546.108.233.382.3.576.182ZM309.509 276.996c-11.009-2.694-17.766-13.804-15.077-24.792l.677-2.767c2.689-10.988 13.812-17.723 24.821-15.029 11.009 2.694 17.766 13.805 15.077 24.793l-.677 2.766c-2.689 10.988-13.812 17.723-24.821 15.029Z" fill="#fff"/><path d="M319.693 235.383c10.462 2.56 16.865 13.088 14.309 23.531l-.677 2.766c-2.555 10.443-13.096 16.825-23.558 14.265-10.462-2.56-16.865-13.089-14.309-23.531l.677-2.767c2.545-10.403 13.095-16.824 23.558-14.264Zm.486-1.987c-11.555-2.828-23.262 4.26-26.084 15.794l-.677 2.766c-2.822 11.534 4.288 23.226 15.844 26.054 11.555 2.828 23.262-4.26 26.084-15.794l.677-2.766c2.822-11.534-4.288-23.227-15.844-26.054Z" fill="#222"/><path d="M310.596 272.553c-10.072-2.465-16.268-12.653-13.808-22.706 2.46-10.053 12.661-16.23 22.733-13.765 10.072 2.465 16.268 12.654 13.808 22.706-2.46 10.053-12.661 16.23-22.733 13.765Z" fill="#FE490C"/><path d="M319.359 236.745c9.721 2.379 15.68 12.179 13.306 21.882-2.374 9.702-12.186 15.643-21.907 13.264-9.72-2.379-15.68-12.179-13.306-21.881 2.374-9.703 12.225-15.634 21.907-13.265Zm.334-1.364c-10.463-2.56-21.003 3.822-23.559 14.265-2.555 10.442 3.847 20.971 14.31 23.531 10.462 2.56 21.003-3.822 23.558-14.265 2.546-10.403-3.847-20.97-14.309-23.531Z" fill="#222"/><path d="M308.853 254.824a4.204 4.204 0 0 0-.36 1.976c.055 1.129.531 2.567 2.399 3.891 2.603 1.876 4.424 1.537 5.43.131.938-1.298-.035-2.899-1.438-4.605-2.374-2.811-5.649-6.338-3.066-9.96 1.625-2.245 5.022-3.107 8.385-1.293l1.576-2.216 2.711 1.943-1.577 2.216c1.882 1.948 2.341 3.96 2.204 5.537a8.856 8.856 0 0 1-.61 2.659l-2.818-2.011a3.592 3.592 0 0 0 .265-1.588c-.064-.924-.548-2.157-2.202-3.347-2.221-1.576-4.071-1.285-4.961-.016-.89 1.269.026 2.938 1.429 4.645 2.306 2.918 5.639 6.377 3.114 9.93-1.896 2.675-5.325 2.992-8.599 1.323l-1.577 2.216-2.71-1.943 1.577-2.216c-2.244-2.16-2.783-4.522-2.646-6.264a9.101 9.101 0 0 1 .782-3.03l2.692 2.022ZM352.829 270.747c-3.982-.974-6.392-4.992-5.429-8.927l.391-1.598c.973-3.974 4.995-6.376 8.938-5.412 3.982.975 6.391 4.992 5.428 8.928l-.391 1.597a7.368 7.368 0 0 1-8.937 5.412Z" fill="#fff"/><path d="M356.567 255.472c3.591.879 5.804 4.518 4.927 8.103l-.391 1.598c-.877 3.584-4.52 5.79-8.112 4.911-3.592-.879-5.804-4.517-4.927-8.102l.391-1.598c.877-3.585 4.52-5.79 8.112-4.912Zm.324-1.324c-4.334-1.061-8.705 1.586-9.764 5.911l-.391 1.598c-1.058 4.325 1.597 8.692 5.931 9.752 4.333 1.06 8.705-1.587 9.763-5.912l.391-1.597c1.058-4.325-1.597-8.692-5.93-9.752Z" fill="#222"/><path d="M353.381 268.487c3.601.881 7.233-1.318 8.112-4.912.879-3.594-1.326-7.222-4.927-8.103-3.601-.881-7.233 1.318-8.112 4.912-.879 3.594 1.327 7.221 4.927 8.103Z" fill="#FE490C"/><path d="M353.22 269.15c-3.982-.975-6.392-4.992-5.429-8.928.963-3.935 4.995-6.376 8.938-5.412 3.942.965 6.391 4.992 5.428 8.928-.963 3.935-4.955 6.386-8.937 5.412Zm3.184-13.015a6.015 6.015 0 0 0-7.286 4.412 6.016 6.016 0 0 0 4.426 7.278 6.015 6.015 0 0 0 7.286-4.412 6.015 6.015 0 0 0-4.426-7.278Z" fill="#222"/><path d="M418.704 198.696c-6.637-1.624-10.748-8.329-9.117-14.992l.4-1.637c1.621-6.624 8.334-10.721 15.01-9.088 6.636 1.624 10.747 8.329 9.116 14.992l-.4 1.637c-1.631 6.663-8.373 10.712-15.009 9.088Z" fill="#fff"/><path d="M424.74 174.031c6.09 1.49 9.837 7.652 8.35 13.731l-.401 1.636c-1.487 6.079-7.656 9.814-13.746 8.324-6.09-1.491-9.837-7.652-8.35-13.731l.401-1.636c1.497-6.118 7.656-9.814 13.746-8.324Zm.496-2.026c-7.183-1.758-14.509 2.644-16.272 9.853l-.401 1.636c-1.754 7.17 2.662 14.486 9.884 16.254 7.183 1.758 14.508-2.645 16.272-9.853l.401-1.637c1.724-7.218-2.701-14.495-9.884-16.253Z" fill="#222"/><path d="M419.343 196.085c6.102 1.493 12.256-2.234 13.747-8.324 1.49-6.09-2.248-12.237-8.35-13.73-6.102-1.493-12.256 2.233-13.746 8.323-1.491 6.09 2.248 12.238 8.349 13.731Z" fill="#FE490C"/><path d="M419.181 196.748c-6.441-1.577-10.424-8.127-8.851-14.556 1.573-6.429 8.131-10.399 14.572-8.823 6.442 1.576 10.425 8.126 8.851 14.555-1.573 6.429-8.13 10.4-14.572 8.824Zm5.397-22.054c-5.739-1.405-11.519 2.095-12.921 7.823-1.401 5.728 2.11 11.502 7.848 12.906 5.739 1.404 11.519-2.096 12.921-7.824 1.363-5.737-2.148-11.511-7.848-12.905Z" fill="#222"/><path d="M378.573 242.646c-12.727-3.115-20.584-15.981-17.467-28.723l.792-3.234c3.108-12.702 15.99-20.535 28.755-17.412 12.766 3.124 20.585 15.982 17.467 28.723l-.792 3.234c-3.117 12.741-16.029 20.526-28.755 17.412Z" fill="#fff"/><path d="M390.405 194.291c12.18 2.98 19.684 15.265 16.7 27.461l-.792 3.234c-2.975 12.157-15.273 19.637-27.493 16.647-12.18-2.981-19.683-15.265-16.699-27.461l.792-3.234c2.975-12.157 15.312-19.628 27.492-16.647Zm.487-1.988c-13.274-3.248-26.728 4.899-29.97 18.147l-.792 3.234c-3.242 13.248 4.931 26.688 18.204 29.936 13.273 3.248 26.728-4.899 29.97-18.147l.792-3.234c3.28-13.239-4.892-26.678-18.204-29.936Z" fill="#222"/><path d="M379.611 238.399c12.203 2.986 24.512-4.467 27.493-16.647 2.98-12.18-4.496-24.475-16.699-27.461-12.204-2.986-24.513 4.467-27.493 16.647-2.981 12.18 4.496 24.475 16.699 27.461Z" fill="#FE490C"/><path d="M379.449 239.062c-12.531-3.067-20.261-15.778-17.201-28.286 3.061-12.508 15.787-20.214 28.319-17.147 12.531 3.067 20.261 15.778 17.201 28.286-3.071 12.546-15.748 20.223-28.319 17.147Zm10.794-44.108c-11.829-2.895-23.778 4.34-26.667 16.147-2.889 11.806 4.368 23.741 16.197 26.636 11.79 2.885 23.778-4.341 26.667-16.147 2.88-11.767-4.369-23.742-16.197-26.636Z" fill="#222"/><path d="M378.25 219.109a5.804 5.804 0 0 0 .256 2.334c.436 1.263 1.496 2.679 4.025 3.504 3.564 1.161 5.459.179 6.053-1.74.595-1.754-1.031-3.226-3.212-4.627-3.609-2.329-8.517-5.099-6.897-10.03.997-3.06 4.504-5.216 8.885-4.351l.987-3.021 3.681 1.19-.987 3.021c2.776 1.506 3.957 3.612 4.386 5.41.24 1.05.353 2.11.212 3.19l-3.827-1.267a4.397 4.397 0 0 0-.293-1.847c-.415-1.01-1.357-2.232-3.661-2.961-3.027-.988-4.962-.016-5.556 1.738-.546 1.725 1.031 3.226 3.203 4.666 3.58 2.445 8.507 5.138 6.906 9.991-1.179 3.634-4.904 5.159-9.079 4.468l-.988 3.021-3.681-1.19.988-3.021c-3.245-1.62-4.681-4.036-5.131-6.087a9.5 9.5 0 0 1-.185-3.638l3.915 1.247ZM420.806 187.236c.177.291.413.514.706.668.469.28 1.172.452 2.183.039 1.43-.6 1.747-1.39 1.441-2.167-.287-.689-1.184-.744-2.255-.593-1.753.232-4.012.67-4.851-1.311-.524-1.243.033-2.841 1.617-3.734l-.484-1.234 1.468-.59.485 1.233c1.265-.268 2.213.088 2.809.523.353.251.647.571.931.93l-1.517.62a2.21 2.21 0 0 0-.578-.513c-.4-.222-1.035-.336-1.91.028-1.235.482-1.562 1.311-1.275 2 .286.69 1.183.744 2.254.593 1.783-.183 4.051-.66 4.822 1.263.593 1.466-.14 2.939-1.636 3.812l.484 1.233-1.448.678-.485-1.233c-1.45.347-2.563-.008-3.219-.54-.421-.31-.754-.639-1.02-1.076l1.478-.629Z" fill="#fff"/></g></svg>