<svg width="370" height="177" viewBox="0 0 370 177" fill="none" xmlns="http://www.w3.org/2000/svg">
<g clip-path="url(#clip0_164_3565)">
<path d="M231.514 71.9033C235.61 70.2205 228.936 66.2731 226.788 66.5859C217.017 67.8371 207.04 72.2161 197.831 75.5629C197.762 75.5629 197.718 75.6255 197.656 75.6505C197.656 75.5003 197.656 75.3502 197.656 75.2063C197.362 71.7219 189.046 68.9506 189.021 73.242C188.952 84.077 187.704 96.9576 180.711 105.853C177.745 109.607 172.151 111.271 169.111 105.515C167.862 103.088 168.099 99.7351 168.305 97.1014C168.818 91.0597 170.679 85.2105 173.75 79.9857C175.279 77.302 168.499 74.3555 166.832 77.1081C162.674 84.0207 159.708 93.054 160.451 100.68C159.884 100.613 159.31 100.71 158.796 100.961C151.354 105.209 143.999 109.638 136.72 114.18C137.383 105.148 138.801 96.1871 140.959 87.3925C141.752 84.2083 134.759 81.3682 133.873 84.4461C130.295 96.5948 127.886 109.059 126.68 121.668C126.393 124.796 132.412 127.298 134.797 125.865C144.287 120.235 153.689 114.436 162.892 108.393C165.308 112.228 169.554 114.993 176.266 115.812C193.036 117.858 197.899 92.8788 197.756 78.7408C199.198 80.0358 201.67 81.0742 203.194 80.53C205.966 79.5541 208.813 78.7221 211.679 77.9338C208.632 87.7053 206.141 99.6725 209.262 108.512C210.424 111.796 218.877 113.861 217.816 108.887C215.5 98.0398 218.103 85.6221 221.468 75.2626C224.877 74.3323 228.231 73.2107 231.514 71.9033Z" fill="#FF4A0D"/>
<path d="M236.265 66.4923C233.143 78.1342 230.502 90.3079 230.939 102.438C231.058 105.772 238.862 108.343 239.056 104.315C239.649 92.4286 240.142 80.9806 243.146 69.3825C243.97 66.2421 237.064 63.5271 236.265 66.4923Z" fill="#FF4A0D"/>
<path d="M231.27 50.3338C230.877 52.2105 231.345 54.2874 233.143 56.3831C238.906 63.158 248.808 60.1365 254.078 54.4688C256.438 51.9665 258.323 48.4508 256.937 44.9851C255.42 41.2004 251.156 39.1485 247.41 38.2727C240.067 36.5524 232.001 39.2111 228.429 46.0799C227.574 47.7064 229.247 49.4204 231.27 50.3338ZM248.04 47.331C247.275 48.7514 246.209 49.9874 244.918 50.9531C244.363 51.416 240.473 54.45 239.649 53.8245C238.313 52.8173 240.523 49.6519 241.166 48.9325C242.578 47.4398 244.471 46.4957 246.51 46.2675C247.759 46.0799 248.202 45.5294 248.109 44.8663C248.552 45.3167 248.602 46.0861 248.04 47.331Z" fill="#FF4A0D"/>
<path d="M284.308 66.3547C279.938 54.9317 264.923 51.6224 255.482 58.4474C253.703 59.7298 255.326 61.3626 257.406 62.3447C248.896 69.4513 241.797 81.6124 245.106 92.8665C248.608 104.821 262.125 104.846 270.891 98.847C280.038 92.5913 288.616 77.615 284.308 66.3547ZM274.862 78.3031C272.552 84.8154 268.25 90.971 262.213 94.5243C252.192 100.423 251.718 88.5626 253.472 81.8814C255.353 75.0428 259.408 69.0052 265.022 64.6844C266.021 63.8962 265.647 62.8827 264.692 62.0507C269.886 60.7495 275.518 61.4251 276.523 68.1C277.022 71.4406 275.961 75.2065 274.862 78.3031Z" fill="#FF4A0D"/>
<path d="M324.641 45.5544C319.421 53.7735 315.214 62.5958 312.111 71.8286C310.825 65.8418 309.701 59.805 307.672 53.9934C307.185 52.6109 304.937 51.5412 303.22 51.4911C301.566 50.7404 299.524 50.6967 298.85 52.1167C293.312 64.0589 287.936 78.1656 288.392 91.5654C288.504 94.9435 295.884 97.4896 296.571 93.4422C298.444 82.4133 299.53 71.9161 302.92 61.4816C304.431 69.7829 305.418 78.1906 308.365 86.1417C309.126 88.2061 315.376 91.3777 316.3 87.9746C320.077 74.1119 325.515 61.394 332.146 48.6886C333.776 45.5982 326.496 42.6831 324.641 45.5544Z" fill="#FF4A0D"/>
<path d="M121.035 90.5643C111.933 82.876 97.6787 85.5034 92.0159 95.5314C84.5237 101.262 79.8724 111.233 83.5186 120.423C88.9941 134.242 106.151 130.432 115.123 123.238C124.707 115.569 132.705 100.423 121.035 90.5643ZM117.289 100.824C117.289 107.949 111.67 113.617 106.457 117.752C103.835 119.822 99.4081 123.382 95.7432 122.894C90.9545 122.237 91.2104 115.844 91.8285 112.259C92.3884 108.946 93.6672 105.796 95.5746 103.032C97.4477 103.439 99.2833 103.126 100.026 101.612C101.079 99.3669 102.622 97.3874 104.54 95.8191H104.597C104.948 95.7073 105.255 95.4887 105.477 95.1936C105.893 94.917 106.325 94.6642 106.769 94.4366C107.866 93.859 109.093 93.575 110.332 93.6123C111.57 93.6496 112.778 94.0068 113.838 94.6493C114.898 95.2918 115.775 96.1979 116.383 97.2797C116.991 98.3614 117.31 99.5822 117.308 100.824H117.289Z" fill="#FF4A0D"/>
<path d="M68.8777 88.3187C63.6769 88.1935 58.4699 90.5957 53.8934 92.804C48.8987 95.2125 41.9372 98.5218 38.6906 103.239C32.2474 112.622 49.6166 116.282 55.4355 117.114C58.6416 117.466 61.8219 118.024 64.9568 118.784C66.9735 119.347 71.2503 120.999 69.8018 124.227C69.3148 125.309 66.1368 126.641 65.0317 127.292C62.4511 128.877 59.7349 130.23 56.9152 131.333C50.9215 133.554 51.652 130.051 50.0474 125.603C49.061 122.882 42.0121 121.124 42.905 125.29C43.9726 130.295 43.5293 134.205 48.2868 137.176C52.0329 139.491 56.3658 139.541 60.5115 138.508C66.8049 136.945 86.1097 129.569 80.0348 120.273C77.3626 116.194 71.6061 114.017 67.2107 112.635C64.6746 111.842 62.0854 111.232 59.4626 110.808C56.497 110.314 52.32 110.745 49.729 109.294C46.4075 107.449 50.1161 105.747 52.5511 104.021C55.499 101.985 58.618 100.21 61.8726 98.7157C62.9652 98.1965 69.7893 94.6432 70.7259 95.5128C70.2701 95.0811 70.3199 104.089 70.4385 104.721C70.938 107.305 77.6622 111.327 78.8609 107.417C81.5769 98.5155 79.8786 88.5876 68.8777 88.3187Z" fill="#FF4A0D"/>
<path d="M176.359 6.53108C145.841 10.8413 115.41 16.8343 86.6032 28.0821C72.7657 33.3962 59.4961 40.0901 46.9946 48.063C34.6638 56.0265 22.7201 65.3914 13.4298 76.8394C4.63899 87.6743 -1.65435 101.087 0.381016 115.337C2.34146 129.05 11.1697 141.055 21.8647 149.406C34.1393 158.99 49.0425 164.482 63.9894 168.28C80.7156 172.521 97.8975 174.911 115.105 176.049C181.01 180.428 249.583 169.762 310.013 142.725C324.417 136.281 338.995 129.069 350.689 118.265C361.24 108.506 369.725 95.1187 369.994 80.3488C370.524 51.2659 343.291 30.7033 319.334 20.1686C304.388 13.5938 288.435 9.42748 272.446 6.29961C223.556 -3.23501 173.177 -1.954 124.832 10.0531C116.759 12.0987 108.799 14.5947 100.919 17.2847C98.628 18.0667 101.737 21.2008 103.417 20.6628C164.122 1.27 230.633 -1.85787 292.406 14.5447C319.153 21.6512 350.895 34.8133 362.177 62.4449C367.546 75.582 365.299 89.7325 357.894 101.6C349.859 114.474 337.203 123.451 324.073 130.551C296.546 145.427 266.209 155.574 235.766 162.455C204.6 169.363 172.784 172.888 140.865 172.971C123.882 173.166 106.906 172.12 90.0746 169.843C74.5721 167.641 58.8572 164.432 44.2725 158.583C30.4557 153.022 17.3257 144.383 9.76488 131.183C2.62236 118.715 2.55372 104.602 8.79094 91.7718C15.1093 78.7411 26.0291 68.3691 37.2673 59.5548C48.435 50.8845 60.5024 43.4452 73.2608 37.3656C99.5271 24.7103 127.96 17.2847 156.524 12.0361C163.61 10.7287 170.721 9.59639 177.858 8.58921C179.219 8.39528 177.396 6.42473 176.353 6.56861L176.359 6.53108Z" fill="#FF4A0D"/>
</g>
<defs>
<clipPath id="clip0_164_3565">
<rect width="370" height="177" fill="white"/>
</clipPath>
</defs>
</svg>
