<svg width="180" height="180" viewBox="0 0 180 180" fill="none" xmlns="http://www.w3.org/2000/svg">
<path d="M121.664 179.023H30.6641C14.2571 179.023 0.976562 165.717 0.976562 149.336V58.3614C0.976562 41.9544 14.283 28.6738 30.6641 28.6738H121.639C138.046 28.6738 151.326 41.9802 151.326 58.3614V149.336C151.352 165.743 138.046 179.023 121.664 179.023Z" fill="#1D1D1B"/>
<path d="M105.543 147.631H114.121L110.813 111.2C114.327 107.763 117.609 101.433 118.823 90.0646C121.123 68.3092 115.102 65.0278 106.628 65.0278H96.6802L87.9212 147.631H96.3443L99.8066 115.127C101.124 115.127 101.874 115.024 103.14 114.817L105.543 147.631ZM104.147 74.1227H106.369C109.832 74.1227 111.976 76.2156 110.503 90.0646C109.031 103.939 106.447 106.006 102.959 106.006H100.737L104.147 74.1227Z" fill="white"/>
<path d="M145.617 65.0278H123.294L122.286 74.5103H129.236L121.485 147.631H129.882L137.659 74.5103H144.61L145.617 65.0278Z" fill="white"/>
<path d="M65.9068 65.0278H43.583L42.5754 74.5103H49.5515L41.7744 147.631H50.1975L57.9488 74.5103H64.925L65.9068 65.0278Z" fill="white"/>
<path d="M75.5448 147.631H84.6655L83.2186 65.0278H74.2013L54.7713 147.631H62.0059L66.1399 127.968H75.5707L75.5448 147.631ZM68.1036 118.512L75.5965 82.7267L75.5707 118.512H68.1036Z" fill="white"/>
<path d="M25.9882 83.7859C26.7116 76.9647 28.5978 74.5101 30.6648 74.5101C34.7988 74.5101 34.2304 87.5582 34.2562 88.7725L41.3358 82.9849C41.3874 78.0499 40.2506 63.71 31.2591 63.71C25.9623 63.71 19.3479 69.6268 17.7201 84.7419C15.4205 106.342 30.8457 111.174 28.9595 128.899C28.236 135.72 25.8073 138.174 23.7144 138.174C19.5804 138.174 19.7871 127.322 20.3297 122L12.7593 127.142C12.0358 134.066 13.0951 148.974 23.1202 148.974C28.4169 148.974 36.1682 143.058 37.7702 127.943C39.8889 108.073 24.4637 98.0741 25.9882 83.7859Z" fill="white"/>
<path d="M151.352 56.3204C166.635 56.3204 179.025 43.9312 179.025 28.6483C179.025 13.3653 166.635 0.976074 151.352 0.976074C136.07 0.976074 123.68 13.3653 123.68 28.6483C123.68 43.9312 136.07 56.3204 151.352 56.3204Z" fill="#FE490C"/>
<path d="M150.913 19.0882H150.835L143.937 24.0491V20.6127L150.861 15.626H154.039V41.6962H150.887V19.0882H150.913Z" fill="white"/>
</svg>
