<svg width="320" height="309" viewBox="0 0 320 309" fill="none" xmlns="http://www.w3.org/2000/svg">
<path d="M319.116 124.679C303.962 96.0732 284.836 71.7433 262.031 52.2793C259.236 49.7726 255.999 47.7083 252.762 46.0863C238.491 38.861 222.455 32.5205 206.712 28.0969C192.735 24.1156 179.347 21.6089 167.724 20.8716L166.988 7.30584C166.841 3.61948 163.898 0.670403 160.22 0.522949C160.073 0.522949 159.926 0.522949 159.926 0.522949C156.101 0.522949 153.011 3.47203 152.717 7.30584L151.981 20.8716C140.358 21.6089 126.97 24.1156 112.993 28.0969C97.1032 32.5205 81.2136 38.861 66.9423 46.0863C63.5584 47.7083 60.4688 49.9201 57.6734 52.2793C35.016 71.7433 15.8896 95.9257 0.73563 124.237C0.588504 124.532 0.441378 124.974 0.294252 125.417V125.859C0 126.596 0 127.481 0 128.218C0.147126 128.955 0.441378 129.84 0.73563 130.43C1.17701 131.167 1.91264 131.905 2.79539 132.347H2.94252L3.23677 132.494C3.82528 132.789 4.41378 132.937 5.00228 132.937C11.623 133.527 16.331 136.033 19.2735 140.752C20.5976 142.816 22.6574 144.143 25.1585 144.143C25.3057 144.143 25.5999 144.143 25.7471 144.143C33.5447 143.553 41.0482 143.258 48.1102 143.258C74.8871 143.258 95.0434 147.535 107.843 156.087C109.02 156.824 110.345 157.267 111.669 157.267C112.551 157.267 113.287 157.119 114.023 156.824C116.965 155.645 120.349 154.76 124.174 153.875V257.241C123.733 258.125 123.586 259.01 123.586 259.895C123.586 260.927 123.439 269.627 123.439 282.013C123.439 289.828 125.94 296.463 130.648 301.182C135.209 305.753 141.388 308.112 148.597 308.112C163.751 308.112 174.344 297.201 174.344 281.718C174.344 279.064 173.903 275.525 173.167 273.608C172.137 270.659 169.342 268.742 165.517 268.742C164.34 268.742 163.163 268.889 161.986 269.184C155.954 270.659 154.482 274.788 155.071 277.884C155.218 278.326 155.218 278.769 155.365 279.211C155.659 280.391 155.806 281.57 155.806 282.455C155.806 289.238 149.921 289.828 148.009 289.828C144.772 289.828 142.124 288.058 141.094 284.962V284.814C140.358 282.75 140.505 273.166 140.505 268.447C140.505 264.613 140.652 261.517 140.505 259.747C140.505 258.863 140.211 257.978 139.917 257.241V194.867H180.229V257.241C179.788 258.125 179.641 259.01 179.641 259.895C179.641 260.337 179.494 269.332 179.494 282.013C179.494 289.828 181.995 296.463 186.703 301.182C191.264 305.753 197.443 308.112 204.652 308.112C219.806 308.112 230.399 297.201 230.399 281.718C230.399 279.064 229.958 275.525 229.222 273.608C228.192 270.659 225.397 268.742 221.572 268.742C220.395 268.742 219.218 268.889 218.041 269.184C212.009 270.659 210.537 274.788 211.126 277.737C211.273 278.179 211.273 278.621 211.42 279.064C211.714 280.243 211.861 281.423 211.861 282.308C211.861 289.091 205.976 289.68 204.064 289.68C200.827 289.68 198.179 287.911 197.149 284.814V284.667C196.413 282.603 196.56 273.018 196.56 268.3C196.56 264.466 196.707 261.369 196.56 259.6C196.56 258.715 196.266 257.83 195.972 257.093V153.728C199.65 154.612 203.034 155.645 205.829 156.677C206.565 156.972 207.448 157.119 208.183 157.119C209.507 157.119 210.832 156.677 212.009 155.94C224.809 147.387 244.818 143.111 271.742 143.111C278.657 143.111 286.16 143.406 294.105 143.996C294.252 143.996 294.546 143.996 294.693 143.996C297.047 143.996 299.254 142.816 300.578 140.604C303.374 135.886 308.082 133.379 314.555 132.789H314.703C317.204 132.494 318.381 131.167 318.969 130.283C319.999 128.955 320.146 126.596 319.116 124.679ZM180.082 179.09H139.77V151.221C146.243 150.484 153.158 150.189 159.779 150.189C166.547 150.189 173.462 150.631 180.082 151.368V179.09Z" fill="white"/>
<path d="M315.144 126.891C300.284 98.875 281.452 74.9875 259.089 55.8185C256.441 53.6066 253.645 51.6897 250.703 50.2152C236.579 43.1374 220.983 36.9443 205.388 32.5207C190.087 28.2445 175.521 25.7378 163.31 25.2954L162.427 7.60096C162.427 6.27387 161.25 5.09424 159.926 5.09424C158.455 5.09424 157.278 6.12642 157.131 7.60096L156.248 25.2954C144.036 25.7378 129.471 28.2445 114.17 32.5207C98.5743 36.9443 82.979 42.9899 68.8549 50.2152C65.9124 51.6897 62.9698 53.6066 60.4687 55.8185C38.2527 74.84 19.4206 98.875 4.56082 126.891V127.039C4.4137 127.039 4.4137 127.186 4.4137 127.334C4.4137 127.334 4.4137 127.481 4.4137 127.629V127.924C4.4137 127.924 4.4137 127.924 4.4137 128.071C4.4137 128.218 4.56082 128.218 4.56082 128.366C4.70795 128.513 4.70795 128.513 4.85507 128.661C5.0022 128.661 5.14933 128.808 5.14933 128.808C13.2413 129.398 19.2734 132.789 22.8044 138.835C23.2458 139.572 24.1286 140.015 25.0113 140.015C64.294 137.066 92.8364 141.342 109.903 152.696C110.492 153.138 111.227 153.138 111.963 152.991C116.524 151.221 121.967 149.894 128.147 148.715V259.158C127.705 259.453 127.558 259.895 127.558 260.337C127.558 260.78 127.411 269.774 127.411 282.455C127.411 289.091 129.471 294.547 133.296 298.38C136.974 302.067 142.124 303.984 148.156 303.984C160.809 303.984 169.342 295.136 169.342 282.16C169.342 279.654 168.901 276.852 168.459 275.525C167.871 273.756 165.075 273.461 162.721 274.051C160.809 274.493 158.749 275.672 159.043 277.442C159.19 277.884 159.19 278.327 159.337 278.622C159.632 280.096 159.926 281.423 159.926 282.898C159.926 291.155 153.747 294.694 147.567 294.694C142.271 294.694 137.857 291.598 136.386 286.732C135.356 283.93 135.503 275.525 135.65 268.742C135.65 265.056 135.797 261.959 135.65 260.337C135.65 259.895 135.356 259.453 135.062 259.158V190.886H184.496V259.158C184.055 259.453 183.907 259.895 183.907 260.337C183.907 260.78 183.76 269.774 183.76 282.455C183.76 289.091 185.82 294.547 189.645 298.38C193.324 302.067 198.473 303.984 204.505 303.984C217.158 303.984 225.691 295.136 225.691 282.16C225.691 279.654 225.25 276.852 224.808 275.525C224.22 273.756 221.425 273.461 219.071 274.051C217.158 274.493 215.098 275.672 215.392 277.442C215.54 277.884 215.54 278.327 215.687 278.769C215.981 280.244 216.275 281.571 216.275 283.045C216.275 291.303 210.096 294.842 203.917 294.842C198.62 294.842 194.206 291.745 192.735 286.879C191.705 284.077 191.852 275.672 191.999 268.89C191.999 265.203 192.146 262.107 191.999 260.485C191.999 260.042 191.705 259.6 191.411 259.305V148.862C197.59 150.042 203.034 151.369 207.448 153.138C208.183 153.433 208.919 153.286 209.507 152.843C226.574 141.489 255.116 137.213 294.399 140.162C295.282 140.162 296.165 139.867 296.606 138.983C300.137 133.084 306.169 129.693 314.114 128.956C314.555 128.956 314.997 128.808 315.144 128.366C315.438 127.629 315.291 127.186 315.144 126.891ZM135.209 147.24C143.006 146.208 151.54 145.618 159.779 145.618C168.165 145.618 176.698 146.208 184.496 147.24V183.514H135.209V147.24Z" fill="white"/>
<path d="M77.0865 196.223L77.0997 196.199L77.1119 196.174C77.519 195.358 77.3916 194.445 77.0015 193.794C76.5977 193.119 75.7765 192.532 74.7244 192.684L53.466 193.791L88.2109 155.371L88.2419 155.337L88.2707 155.3C88.877 154.541 89.0587 153.531 88.6401 152.64C88.2237 151.753 87.3318 151.243 86.3628 151.243H86.3243L86.2858 151.245L64.8219 152.348L119.776 101.007L98.1402 140.67L98.127 140.695L98.1148 140.719C97.2955 142.361 98.5519 144.216 100.34 144.216H100.379L100.418 144.214L121.761 143.103L87.0158 181.522L86.9848 181.557L86.956 181.593C86.3497 182.352 86.168 183.362 86.5866 184.253C87.003 185.14 87.8949 185.65 88.8639 185.65H88.9024L88.9409 185.648L110.405 184.545L55.4504 235.886L77.0865 196.223Z" fill="white" stroke="black" stroke-width="3"/>
<path d="M242.593 196.174L242.605 196.199L242.618 196.223L264.254 235.886L209.3 184.545L230.764 185.648L230.802 185.65H230.841C231.81 185.65 232.701 185.14 233.118 184.253C233.536 183.362 233.355 182.352 232.749 181.593L232.72 181.557L232.689 181.522L197.944 143.103L219.287 144.214L219.326 144.216H219.365C221.153 144.216 222.409 142.361 221.59 140.719L221.577 140.695L221.564 140.67L199.928 101.007L254.883 152.348L233.419 151.245L233.38 151.243H233.342C232.373 151.243 231.481 151.753 231.064 152.64C230.646 153.531 230.827 154.541 231.434 155.3L231.463 155.337L231.494 155.371L266.238 193.791L244.98 192.684C243.928 192.532 243.107 193.119 242.703 193.794C242.313 194.445 242.186 195.358 242.593 196.174Z" fill="white" stroke="black" stroke-width="3"/>
<path d="M314.85 127.334V127.186C299.99 99.17 281.158 75.2824 258.942 56.2608C256.441 54.049 253.645 52.1321 250.555 50.6576C236.579 43.5798 220.836 37.3867 205.388 32.9631C189.94 28.5395 175.227 26.0327 163.016 25.7378L162.133 7.60098C162.133 6.5688 161.25 5.68408 160.073 5.53662C158.896 5.53662 157.866 6.42135 157.866 7.60098L156.983 25.7378C144.478 26.0327 129.765 28.5395 114.317 32.9631C98.7215 37.3867 83.1261 43.4323 69.1492 50.6576C66.2066 52.1321 63.4112 54.049 60.763 56.2608C38.547 75.2824 19.7148 99.17 4.8551 127.334V127.481V127.629C4.8551 127.629 4.8551 127.776 5.00223 127.776L5.14935 127.924H5.29648C13.5355 128.513 19.7148 132.052 23.393 138.245C23.6872 138.835 24.4229 139.13 25.1585 139.13C64.5882 136.181 93.1307 140.457 110.344 151.959C110.786 152.253 111.374 152.401 111.963 152.106C116.671 150.337 122.409 148.862 128.882 147.682V259.01C128.441 259.305 128.294 259.6 128.294 259.895C128.294 260.042 128.147 269.037 128.147 282.013C128.147 288.501 130.059 293.809 133.885 297.496C137.416 301.035 142.418 302.952 148.303 302.952C160.662 302.952 169.048 294.399 169.048 281.571C169.048 279.211 168.606 276.41 168.165 275.083C167.724 273.608 165.222 273.461 163.016 274.051C161.397 274.493 159.484 275.525 159.779 276.852C159.926 277.294 159.926 277.737 160.073 278.179C160.367 279.654 160.662 281.128 160.662 282.455C160.662 291.008 154.188 294.842 147.862 294.842C142.418 294.842 137.857 291.598 136.239 286.584C135.209 283.782 135.356 275.23 135.356 268.447C135.356 264.761 135.503 261.664 135.356 260.042C135.356 259.6 135.062 259.305 134.767 259.158V190.002H185.084V259.158C184.643 259.453 184.496 259.747 184.496 260.042C184.496 260.19 184.349 269.185 184.349 282.16C184.349 288.648 186.261 293.957 190.087 297.643C193.618 301.182 198.62 303.099 204.505 303.099C216.864 303.099 225.25 294.547 225.25 281.718C225.25 279.359 224.808 276.557 224.367 275.23C223.926 273.756 221.425 273.608 219.218 274.198C217.599 274.64 215.687 275.672 215.981 277C216.128 277.442 216.128 277.884 216.275 278.327C216.569 279.801 216.864 281.276 216.864 282.603C216.864 291.155 210.39 294.989 204.064 294.989C198.62 294.989 194.059 291.745 192.441 286.732C191.411 283.93 191.558 275.378 191.558 268.595C191.558 264.908 191.705 261.812 191.558 260.19C191.558 259.747 191.264 259.453 190.969 259.305V147.83C197.443 149.009 203.034 150.484 207.742 152.253C208.33 152.401 208.919 152.401 209.36 152.106C226.427 140.752 255.116 136.328 294.546 139.277C295.282 139.277 295.87 138.983 296.312 138.393C299.99 132.2 306.169 128.808 314.408 128.071H314.555V127.924V128.071C314.555 128.071 314.702 128.071 314.702 127.924C314.702 127.924 314.702 127.924 314.85 127.776C314.85 127.629 314.85 127.481 314.85 127.334ZM134.767 146.798C142.712 145.765 151.393 145.176 159.779 145.176C168.312 145.176 176.993 145.765 185.084 146.945V184.251H134.767V146.798Z" fill="white"/>
<path d="M134.179 119.224V143.848C142.271 142.669 150.951 142.079 159.926 142.079C168.901 142.079 177.728 142.669 185.82 143.848V119.224C177.728 118.929 168.901 118.781 159.19 118.781C148.744 118.781 139.475 118.929 130.942 119.371H134.179V119.224Z" fill="#FE490C"/>
<path d="M270.565 118.634C259.53 118.781 250.85 121.73 243.346 127.333C225.691 122.91 209.36 120.403 190.381 119.371V144.586C197.149 145.765 203.181 147.24 208.183 149.157C222.307 140.014 243.641 135.443 271.595 135.443C278.657 135.443 286.16 135.738 294.252 136.328C297.783 130.872 302.932 127.333 309.7 126.006C295.135 120.993 282.041 118.486 270.565 118.634Z" fill="#FE490C"/>
<path d="M129.618 119.223C109.756 120.255 93.8664 122.615 75.6227 127.186C67.9722 121.582 58.5561 118.781 47.6688 118.633C36.3401 118.486 24.1286 121.14 9.85742 125.859C17.0666 127.186 21.9218 130.577 25.4528 136.328C33.3976 135.738 41.0481 135.443 48.1102 135.443C76.0641 135.443 97.3974 140.014 111.521 149.156C116.671 147.239 122.85 145.765 129.618 144.585V119.223Z" fill="#FE490C"/>
<path d="M315.144 126.891C300.284 98.875 281.452 74.9875 259.089 55.8185C256.441 53.6066 253.645 51.6897 250.703 50.2152C236.579 43.1374 220.983 36.9443 205.388 32.5207C190.087 28.2445 175.521 25.7378 163.31 25.2954L162.427 7.60096C162.427 6.27387 161.25 5.09424 159.926 5.09424C158.455 5.09424 157.278 6.12642 157.131 7.60096L156.248 25.2954C144.036 25.7378 129.471 28.2445 114.17 32.5207C98.5743 36.9443 82.979 42.9899 68.8549 50.2152C65.9124 51.6897 62.9698 53.6066 60.4687 55.8185C38.2527 74.84 19.4206 98.875 4.56082 126.891V127.039C4.4137 127.039 4.4137 127.186 4.4137 127.334C4.4137 127.334 4.4137 127.481 4.4137 127.629V127.924C4.4137 127.924 4.4137 127.924 4.4137 128.071C4.4137 128.218 4.56082 128.218 4.56082 128.366C4.70795 128.513 4.70795 128.513 4.85507 128.661C5.0022 128.661 5.14933 128.808 5.14933 128.808C13.2413 129.398 19.2734 132.789 22.8044 138.835C23.2458 139.572 24.1286 140.015 25.0113 140.015C64.294 137.066 92.8364 141.342 109.903 152.696C110.492 153.138 111.227 153.138 111.963 152.991C116.524 151.221 121.967 149.894 128.147 148.715V259.158C127.705 259.453 127.558 259.895 127.558 260.337C127.558 260.78 127.411 269.774 127.411 282.455C127.411 289.091 129.471 294.547 133.296 298.38C136.974 302.067 142.124 303.984 148.156 303.984C160.809 303.984 169.342 295.136 169.342 282.16C169.342 279.654 168.901 276.852 168.459 275.525C167.871 273.756 165.075 273.461 162.721 274.051C160.809 274.493 158.749 275.672 159.043 277.442C159.19 277.884 159.19 278.327 159.337 278.622C159.632 280.096 159.926 281.423 159.926 282.898C159.926 291.155 153.747 294.694 147.567 294.694C142.271 294.694 137.857 291.598 136.386 286.732C135.356 283.93 135.503 275.525 135.65 268.742C135.65 265.056 135.797 261.959 135.65 260.337C135.65 259.895 135.356 259.453 135.062 259.158V190.886H184.496V259.158C184.055 259.453 183.907 259.895 183.907 260.337C183.907 260.78 183.76 269.774 183.76 282.455C183.76 289.091 185.82 294.547 189.645 298.38C193.324 302.067 198.473 303.984 204.505 303.984C217.158 303.984 225.691 295.136 225.691 282.16C225.691 279.654 225.25 276.852 224.808 275.525C224.22 273.756 221.425 273.461 219.071 274.051C217.158 274.493 215.098 275.672 215.392 277.442C215.54 277.884 215.54 278.327 215.687 278.769C215.981 280.244 216.275 281.571 216.275 283.045C216.275 291.303 210.096 294.842 203.917 294.842C198.62 294.842 194.206 291.745 192.735 286.879C191.705 284.077 191.852 275.672 191.999 268.89C191.999 265.203 192.146 262.107 191.999 260.485C191.999 260.042 191.705 259.6 191.411 259.305V148.862C197.59 150.042 203.034 151.369 207.448 153.138C208.183 153.433 208.919 153.286 209.507 152.843C226.574 141.489 255.116 137.213 294.399 140.162C295.282 140.162 296.165 139.867 296.606 138.983C300.137 133.084 306.169 129.693 314.114 128.956C314.555 128.956 314.997 128.808 315.144 128.366C315.438 127.629 315.291 127.186 315.144 126.891ZM204.064 121.141C217.158 122.468 229.075 124.532 242.611 127.924C243.199 128.071 243.641 127.924 244.082 127.629C251.291 122.32 260.413 119.666 271.3 119.371C275.42 119.371 279.981 119.666 284.836 120.403C288.367 126.154 291.457 132.052 294.252 137.95C254.969 135.001 226.28 139.425 208.919 150.779C207.889 141.784 206.271 131.905 204.064 121.141ZM207.595 150.926C202.887 149.157 197.296 147.682 190.822 146.65V120.108C194.942 120.403 198.767 120.551 202.592 120.993C204.946 131.757 206.565 141.784 207.595 150.926ZM286.454 120.698C294.105 121.878 302.491 124.09 311.466 127.186C304.257 128.366 298.813 131.757 295.282 137.361C292.781 131.757 289.691 126.154 286.454 120.698ZM271.3 118.192C260.119 118.339 250.703 121.141 243.346 126.596C243.199 126.744 243.052 126.744 242.905 126.744C217.452 120.403 196.413 118.192 159.779 118.192C123.144 118.192 102.105 120.403 76.6526 126.744C76.5054 126.744 76.3583 126.744 76.2112 126.596C68.8549 121.141 59.4388 118.339 48.2572 118.192C47.963 118.192 47.5216 118.192 47.2274 118.192C35.8987 118.192 22.2159 120.993 6.76771 126.302C21.4803 99.0225 39.8711 75.7248 61.6457 57.1455C64.1469 55.0812 66.7951 53.1643 69.7376 51.6897C99.31 36.6494 134.767 26.9174 159.779 26.9174C184.937 26.9174 220.248 36.6494 249.82 51.6897C252.762 53.1643 255.411 54.9337 257.912 57.1455C279.686 75.8722 298.077 99.0225 312.79 126.302C296.9 120.698 282.923 118.044 271.3 118.192ZM133.443 188.675V258.568C133.002 258.42 132.413 258.42 131.825 258.42C131.236 258.42 130.648 258.42 130.206 258.568V120.108C131.236 120.108 132.413 119.961 133.443 119.961V185.431H186.556C187.144 185.431 187.438 186.315 187.438 187.053C187.438 187.937 187.144 188.675 186.556 188.675H133.443ZM135.209 183.661V147.24C143.006 146.208 151.54 145.618 159.779 145.618C168.165 145.618 176.698 146.208 184.496 147.24V183.514H135.209V183.661ZM185.084 145.618C176.993 144.438 168.312 143.849 159.779 143.849C151.393 143.849 142.712 144.438 134.767 145.471V119.814C142.124 119.519 150.363 119.371 159.779 119.371C169.342 119.371 177.581 119.519 185.084 119.814V145.618ZM186.409 190.002H186.703C188.027 190.002 188.91 188.822 188.91 187.053C188.91 185.283 188.027 184.104 186.703 184.104H186.409V119.961C187.438 119.961 188.615 120.108 189.645 120.108V258.568C189.204 258.42 188.615 258.42 188.027 258.42C187.438 258.42 186.85 258.42 186.409 258.568V190.002ZM34.8688 120.403C39.7239 119.666 44.1377 119.371 48.4044 119.371C59.2917 119.519 68.4135 122.32 75.6227 127.629C76.0641 127.924 76.6526 128.071 77.0939 127.924C90.6295 124.532 102.547 122.468 115.641 121.141C113.434 131.757 111.816 141.784 110.786 150.779C96.956 141.637 75.7698 137.066 47.963 137.066C40.9009 137.066 33.3975 137.361 25.5998 137.95C28.2481 132.052 31.3378 126.154 34.8688 120.403ZM24.4228 137.361C20.8918 131.757 15.4481 128.366 8.23897 127.186C17.2137 124.09 25.5998 121.878 33.2504 120.698C30.0136 126.154 26.924 131.757 24.4228 137.361ZM116.965 120.993C120.938 120.698 124.91 120.403 129.029 120.108V146.503C122.556 147.682 116.818 149.157 112.11 150.926C112.993 141.784 114.758 131.757 116.965 120.993ZM159.779 6.86369C160.22 6.86369 160.662 7.30605 160.662 7.74841L161.544 25.7378C160.367 25.7378 159.19 25.7378 158.013 25.7378L158.896 7.74841C159.043 7.1586 159.337 6.86369 159.779 6.86369Z" fill="#222222"/>
<path d="M244.082 123.795C243.788 123.795 243.641 123.647 243.493 123.353C239.962 113.326 236.431 104.036 232.9 95.1888C228.192 83.8349 223.631 73.808 218.776 64.2235C215.981 58.9152 212.744 54.1966 208.919 50.0679C207.006 48.0035 204.799 45.9392 202.592 44.1697C200.091 42.2528 197.443 40.6308 195.53 39.3038C190.822 36.5021 185.82 33.848 180.376 31.4887C179.199 30.8989 177.875 30.4565 176.698 29.8667C199.503 32.9632 226.427 41.5156 249.378 53.3119C252.174 54.639 254.675 56.4084 257.029 58.4728C277.332 75.8724 294.84 97.5481 308.964 122.615C308.964 122.615 308.964 122.615 308.964 122.763C308.964 122.763 308.964 122.763 308.817 122.763C295.135 118.339 282.923 116.127 272.624 116.127C272.183 116.127 271.889 116.127 271.447 116.127C261.001 116.275 251.88 118.782 244.523 123.5C244.229 123.647 244.229 123.795 244.082 123.795Z" fill="#222222"/>
<path d="M75.6227 123.795C75.4755 123.795 75.3284 123.795 75.3284 123.648C67.9721 118.929 58.8503 116.422 48.4043 116.275C47.963 116.275 47.6687 116.275 47.2273 116.275C36.9285 116.275 24.7171 118.487 11.0343 122.91C10.8872 122.91 10.8872 122.91 10.8872 122.91V122.763C25.0113 97.6956 42.5193 76.0198 62.8227 58.6203C65.1767 56.5559 67.825 54.7865 70.4732 53.4594C93.572 41.663 120.496 33.1107 143.301 30.0142C141.976 30.604 140.799 31.0463 139.622 31.6362C134.179 33.9954 129.177 36.6496 124.468 39.4512C122.409 40.6309 119.76 42.2529 117.406 44.3172C115.2 46.0867 112.993 48.0036 111.08 50.2154C107.255 54.3441 104.018 59.0626 101.223 64.371C96.3674 73.808 91.6594 83.9824 87.0985 95.3363C83.4203 104.331 79.8893 113.473 76.5054 123.5C76.2112 123.5 75.9169 123.795 75.6227 123.795Z" fill="#222222"/>
<path d="M240.404 124.09C216.275 118.339 195.236 116.275 159.779 116.275C124.468 116.275 103.282 118.339 79.3008 124.09C79.1537 124.09 79.1537 124.09 79.1537 124.09V123.942C82.5376 114.063 85.9215 104.921 89.4525 96.0735C94.0134 84.7196 98.4272 74.6927 103.282 65.2556C105.931 60.2422 109.02 55.5237 112.698 51.5424C114.611 49.478 116.671 47.5611 118.731 45.7917C121.085 43.8748 123.586 42.2528 125.646 41.0732C132.119 37.0919 139.622 33.4055 147.567 30.1616C149.333 29.4243 151.098 28.9819 152.864 28.9819C155.365 28.8345 157.719 28.687 160.073 28.687C162.28 28.687 164.781 28.8345 167.282 28.9819C169.048 29.1294 170.96 29.5717 172.579 30.1616C180.523 33.4055 187.88 36.9444 194.5 41.0732C196.413 42.2528 199.061 43.8748 201.415 45.7917C203.475 47.5611 205.535 49.478 207.448 51.5424C211.126 55.5237 214.215 60.0947 216.864 65.2556C221.572 74.6927 226.133 84.867 230.693 96.0735C234.224 104.921 237.608 114.063 240.992 123.942C240.551 123.942 240.551 124.09 240.404 124.09C240.551 124.09 240.551 124.09 240.404 124.09Z" fill="#222222"/>
<path d="M151.393 51.6894C156.983 51.0996 162.721 51.0996 168.459 51.6894C168.606 52.1318 168.754 52.5742 168.901 53.0165C166.4 52.7216 163.898 52.5742 161.397 52.5742C161.544 55.6707 161.692 58.7672 161.986 61.8638C160.662 61.8638 159.338 61.8638 158.013 61.8638C158.16 58.7672 158.455 55.6707 158.602 52.5742C156.101 52.5742 153.6 52.7216 151.098 53.0165C151.098 52.5742 151.246 52.1318 151.393 51.6894Z" fill="white"/>
</svg>
