<svg width="1406" height="142" viewBox="0 0 1406 142" fill="none" xmlns="http://www.w3.org/2000/svg">
<g opacity="0.3">
<path d="M82.8023 2.53516H115.478V89.9126C115.478 100.011 113.075 108.808 108.268 116.304C103.462 123.757 96.7589 129.533 88.16 133.634C79.5612 137.691 69.5733 139.72 58.1964 139.72C46.6872 139.72 36.6331 137.691 28.0343 133.634C19.4354 129.533 12.7548 123.757 7.99237 116.304C3.22994 108.808 0.848718 100.011 0.848718 89.9126V2.53516H33.5905V87.0684C33.5905 91.7426 34.6047 95.9098 36.6331 99.5698C38.7057 103.23 41.594 106.096 45.2981 108.169C49.0022 110.241 53.3017 111.277 58.1964 111.277C63.0911 111.277 67.3685 110.241 71.0285 108.169C74.7326 106.096 77.6209 103.23 79.6935 99.5698C81.766 95.9098 82.8023 91.7426 82.8023 87.0684V2.53516ZM161.687 2.53516L186.426 45.3309H187.484L212.487 2.53516H249.131L208.253 70.2676L250.454 138H212.884L187.484 94.7412H186.426L161.026 138H123.72L165.722 70.2676L124.779 2.53516H161.687ZM291.181 138V2.53516H347.668C357.811 2.53516 366.299 3.9683 373.134 6.83458C380.013 9.70086 385.173 13.7137 388.612 18.873C392.096 24.0323 393.838 30.0074 393.838 36.7982C393.838 41.9576 392.757 46.5656 390.597 50.6225C388.436 54.6353 385.459 57.9646 381.667 60.6104C377.875 63.2562 373.487 65.1083 368.504 66.1666V67.4895C373.972 67.7541 379.021 69.2313 383.651 71.9212C388.326 74.6111 392.074 78.3593 394.896 83.1658C397.718 87.9283 399.129 93.5726 399.129 100.099C399.129 107.375 397.277 113.879 393.573 119.612C389.869 125.3 384.511 129.798 377.5 133.105C370.488 136.368 361.978 138 351.968 138H291.181ZM323.922 111.608H344.163C351.262 111.608 356.488 110.263 359.839 107.573C363.235 104.883 364.932 101.135 364.932 96.3287C364.932 92.8451 364.117 89.8465 362.485 87.333C360.853 84.7754 358.538 82.8131 355.54 81.4461C352.541 80.035 348.947 79.3294 344.758 79.3294H323.922V111.608ZM323.922 58.2292H342.046C345.618 58.2292 348.793 57.6339 351.571 56.4433C354.349 55.2527 356.51 53.5329 358.053 51.284C359.641 49.0351 360.434 46.3231 360.434 43.1482C360.434 38.6062 358.825 35.0344 355.606 32.4327C352.387 29.831 348.043 28.5301 342.575 28.5301H323.922V58.2292ZM535.279 70.2676C535.279 85.1722 532.413 97.8059 526.68 108.169C520.948 118.531 513.187 126.403 503.397 131.782C493.652 137.162 482.716 139.852 470.59 139.852C458.419 139.852 447.461 137.14 437.716 131.716C427.97 126.292 420.231 118.421 414.499 108.102C408.81 97.7398 405.966 85.1281 405.966 70.2676C405.966 55.3629 408.81 42.7292 414.499 32.3665C420.231 22.0038 427.97 14.1326 437.716 8.75279C447.461 3.373 458.419 0.683104 470.59 0.683104C482.716 0.683104 493.652 3.373 503.397 8.75279C513.187 14.1326 520.948 22.0038 526.68 32.3665C532.413 42.7292 535.279 55.3629 535.279 70.2676ZM501.81 70.2676C501.81 61.4483 500.553 53.9959 498.04 47.9106C495.57 41.8253 491.998 37.2172 487.324 34.0863C482.694 30.9554 477.116 29.39 470.59 29.39C464.107 29.39 458.529 30.9554 453.855 34.0863C449.181 37.2172 445.587 41.8253 443.073 47.9106C440.604 53.9959 439.369 61.4483 439.369 70.2676C439.369 79.0869 440.604 86.5392 443.073 92.6246C445.587 98.7099 449.181 103.318 453.855 106.449C458.529 109.58 464.107 111.145 470.59 111.145C477.116 111.145 482.694 109.58 487.324 106.449C491.998 103.318 495.57 98.7099 498.04 92.6246C500.553 86.5392 501.81 79.0869 501.81 70.2676ZM674.803 70.2676C674.803 85.1722 671.936 97.8059 666.204 108.169C660.471 118.531 652.71 126.403 642.921 131.782C633.176 137.162 622.24 139.852 610.113 139.852C597.942 139.852 586.984 137.14 577.239 131.716C567.494 126.292 559.755 118.421 554.022 108.102C548.334 97.7398 545.489 85.1281 545.489 70.2676C545.489 55.3629 548.334 42.7292 554.022 32.3665C559.755 22.0038 567.494 14.1326 577.239 8.75279C586.984 3.373 597.942 0.683104 610.113 0.683104C622.24 0.683104 633.176 3.373 642.921 8.75279C652.71 14.1326 660.471 22.0038 666.204 32.3665C671.936 42.7292 674.803 55.3629 674.803 70.2676ZM641.333 70.2676C641.333 61.4483 640.077 53.9959 637.563 47.9106C635.094 41.8253 631.522 37.2172 626.848 34.0863C622.218 30.9554 616.639 29.39 610.113 29.39C603.631 29.39 598.053 30.9554 593.378 34.0863C588.704 37.2172 585.11 41.8253 582.597 47.9106C580.127 53.9959 578.893 61.4483 578.893 70.2676C578.893 79.0869 580.127 86.5392 582.597 92.6246C585.11 98.7099 588.704 103.318 593.378 106.449C598.053 109.58 603.631 111.145 610.113 111.145C616.639 111.145 622.218 109.58 626.848 106.449C631.522 103.318 635.094 98.7099 637.563 92.6246C640.077 86.5392 641.333 79.0869 641.333 70.2676ZM759.691 43.1482C759.25 38.2975 757.287 34.5273 753.804 31.8374C750.364 29.1034 745.447 27.7364 739.053 27.7364C734.82 27.7364 731.292 28.2876 728.47 29.39C725.648 30.4924 723.531 32.0138 722.12 33.954C720.709 35.8502 719.982 38.0329 719.937 40.5024C719.849 42.5308 720.246 44.3167 721.128 45.8601C722.054 47.4035 723.377 48.7705 725.097 49.9611C726.861 51.1076 728.977 52.1218 731.447 53.0038C733.916 53.8857 736.694 54.6574 739.781 55.3188L751.422 57.9646C758.125 59.4198 764.034 61.3601 769.149 63.7854C774.309 66.2107 778.63 69.099 782.114 72.4504C785.641 75.8017 788.309 79.6602 790.117 84.0257C791.925 88.3913 792.851 93.286 792.895 98.7099C792.851 107.265 790.69 114.607 786.413 120.736C782.136 126.866 775.984 131.562 767.959 134.825C759.977 138.088 750.342 139.72 739.053 139.72C727.72 139.72 717.843 138.022 709.42 134.627C700.998 131.231 694.45 126.072 689.775 119.149C685.101 112.226 682.698 103.472 682.566 92.8892H713.918C714.183 97.2547 715.351 100.893 717.424 103.803C719.496 106.713 722.341 108.918 725.957 110.418C729.617 111.917 733.85 112.666 738.656 112.666C743.066 112.666 746.814 112.071 749.901 110.881C753.032 109.69 755.435 108.036 757.111 105.92C758.787 103.803 759.646 101.378 759.691 98.6438C759.646 96.0862 758.853 93.9034 757.309 92.0954C755.766 90.2434 753.385 88.6559 750.166 87.333C746.991 85.966 742.934 84.7092 737.995 83.5627L723.84 80.2555C712.11 77.5656 702.872 73.2221 696.125 67.2249C689.378 61.1837 686.027 53.0258 686.071 42.7513C686.027 34.3729 688.276 27.0308 692.818 20.725C697.36 14.4192 703.644 9.50243 711.669 5.97471C719.695 2.44697 728.845 0.683104 739.119 0.683104C749.614 0.683104 758.72 2.46902 766.437 6.04084C774.198 9.56858 780.218 14.5294 784.495 20.9235C788.772 27.3175 790.955 34.7257 791.043 43.1482H759.691ZM797.549 29.1254V2.53516H912.046V29.1254H870.97V138H838.691V29.1254H797.549ZM952.889 138V114.452L1002.3 71.1936C1006 67.8423 1009.16 64.7776 1011.76 61.9995C1014.36 59.1773 1016.34 56.3551 1017.71 53.5329C1019.08 50.6666 1019.76 47.5578 1019.76 44.2065C1019.76 40.4583 1018.95 37.2613 1017.31 34.6155C1015.68 31.9256 1013.43 29.853 1010.57 28.3978C1007.7 26.9426 1004.42 26.2151 1000.71 26.2151C996.963 26.2151 993.678 26.9867 990.856 28.5301C988.034 30.0294 985.829 32.2122 984.241 35.0785C982.698 37.9448 981.926 41.4284 981.926 45.5294H950.904C950.904 36.3132 952.977 28.3537 957.122 21.6511C961.267 14.9484 967.088 9.78906 974.584 6.17313C982.125 2.51311 990.878 0.683104 1000.84 0.683104C1011.12 0.683104 1020.05 2.40287 1027.63 5.84241C1035.22 9.28195 1041.08 14.0885 1045.23 20.262C1049.42 26.3914 1051.51 33.513 1051.51 41.6268C1051.51 46.7861 1050.47 51.9013 1048.4 56.9724C1046.33 62.0436 1042.6 67.6438 1037.22 73.7733C1031.89 79.9027 1024.3 87.2448 1014.47 95.7995L998.264 110.748V111.608H1053.16V138H952.889ZM1120.24 141.307C1108.42 141.307 1098.24 138.507 1089.68 132.907C1081.13 127.262 1074.54 119.171 1069.91 108.632C1065.28 98.0485 1062.98 85.3266 1063.03 70.466C1063.07 55.6055 1065.39 42.9938 1069.97 32.6311C1074.6 22.2243 1081.17 14.309 1089.68 8.88508C1098.24 3.4171 1108.42 0.683104 1120.24 0.683104C1132.06 0.683104 1142.25 3.4171 1150.8 8.88508C1159.4 14.309 1166.01 22.2243 1170.65 32.6311C1175.28 43.0379 1177.57 55.6496 1177.52 70.466C1177.52 85.3707 1175.21 98.1146 1170.58 108.698C1165.95 119.281 1159.36 127.373 1150.8 132.973C1142.29 138.529 1132.1 141.307 1120.24 141.307ZM1120.24 114.519C1127.3 114.519 1133.01 110.925 1137.37 103.737C1141.74 96.5051 1143.9 85.4148 1143.86 70.466C1143.86 60.6766 1142.86 52.6069 1140.88 46.257C1138.9 39.863 1136.14 35.1005 1132.61 31.9697C1129.08 28.8388 1124.96 27.2734 1120.24 27.2734C1113.23 27.2734 1107.56 30.8231 1103.24 37.9227C1098.92 44.9782 1096.74 55.8259 1096.7 70.466C1096.65 80.3878 1097.6 88.6118 1099.54 95.1381C1101.52 101.664 1104.3 106.537 1107.87 109.756C1111.45 112.931 1115.57 114.519 1120.24 114.519ZM1188.83 138V114.452L1238.24 71.1936C1241.94 67.8423 1245.09 64.7776 1247.69 61.9995C1250.3 59.1773 1252.28 56.3551 1253.65 53.5329C1255.01 50.6666 1255.7 47.5578 1255.7 44.2065C1255.7 40.4583 1254.88 37.2613 1253.25 34.6155C1251.62 31.9256 1249.37 29.853 1246.5 28.3978C1243.64 26.9426 1240.35 26.2151 1236.65 26.2151C1232.9 26.2151 1229.62 26.9867 1226.79 28.5301C1223.97 30.0294 1221.77 32.2122 1220.18 35.0785C1218.64 37.9448 1217.86 41.4284 1217.86 45.5294H1186.84C1186.84 36.3132 1188.91 28.3537 1193.06 21.6511C1197.2 14.9484 1203.02 9.78906 1210.52 6.17313C1218.06 2.51311 1226.82 0.683104 1236.78 0.683104C1247.06 0.683104 1255.98 2.40287 1263.57 5.84241C1271.15 9.28195 1277.02 14.0885 1281.16 20.262C1285.35 26.3914 1287.45 33.513 1287.45 41.6268C1287.45 46.7861 1286.41 51.9013 1284.34 56.9724C1282.27 62.0436 1278.54 67.6438 1273.16 73.7733C1267.82 79.9027 1260.24 87.2448 1250.41 95.7995L1234.2 110.748V111.608H1289.1V138H1188.83ZM1351.68 139.852C1341.36 139.852 1332.21 138.088 1324.23 134.56C1316.29 130.989 1310.03 126.072 1305.45 119.81C1300.86 113.548 1298.52 106.339 1298.44 98.1807H1331.38C1331.51 101.135 1332.46 103.759 1334.22 106.052C1335.98 108.301 1338.39 110.065 1341.43 111.344C1344.47 112.622 1347.93 113.262 1351.81 113.262C1355.69 113.262 1359.11 112.578 1362.07 111.211C1365.07 109.8 1367.4 107.882 1369.08 105.457C1370.75 102.987 1371.57 100.165 1371.53 96.9901C1371.57 93.8152 1370.67 90.993 1368.81 88.5236C1366.96 86.0542 1364.34 84.136 1360.94 82.769C1357.59 81.402 1353.62 80.7185 1349.04 80.7185H1335.87V57.4355H1349.04C1353.05 57.4355 1356.58 56.774 1359.62 55.4511C1362.71 54.1282 1365.11 52.2762 1366.83 49.8949C1368.55 47.4696 1369.39 44.6915 1369.34 41.5607C1369.39 38.518 1368.66 35.8502 1367.16 33.5571C1365.7 31.22 1363.65 29.4121 1361.01 28.1333C1358.41 26.8545 1355.39 26.2151 1351.95 26.2151C1348.33 26.2151 1345.05 26.8545 1342.09 28.1333C1339.18 29.4121 1336.87 31.22 1335.15 33.5571C1333.43 35.8943 1332.52 38.6062 1332.43 41.693H1301.15C1301.24 33.6233 1303.48 26.5237 1307.89 20.3943C1312.3 14.2208 1318.3 9.39219 1325.89 5.90856C1333.51 2.42492 1342.2 0.683104 1351.95 0.683104C1361.65 0.683104 1370.18 2.38082 1377.54 5.77626C1384.91 9.1717 1390.64 13.8019 1394.74 19.6667C1398.84 25.4875 1400.89 32.0799 1400.89 39.444C1400.94 47.0728 1398.45 53.3565 1393.42 58.2953C1388.44 63.2342 1382.02 66.2768 1374.17 67.4234V68.4817C1384.67 69.7164 1392.58 73.1118 1397.92 78.668C1403.3 84.2242 1405.96 91.1694 1405.92 99.5036C1405.92 107.353 1403.61 114.32 1398.98 120.405C1394.39 126.447 1388 131.209 1379.79 134.693C1371.64 138.132 1362.26 139.852 1351.68 139.852Z" fill="white"/>
</g>
</svg>
